<svg viewBox="0 0 587 717" version="1.1" xmlns="http://www.w3.org/2000/svg"><path fill="#000000"  stroke="none" opacity="1" d="M 285 1 L 292 2 L 292.5 4 Q 293.8 1.8 298.5 3 L 300 6 L 304 7.5 Q 303.3 9.8 305.5 9 L 308.5 13 L 312 14 Q 310.9 16.7 313.5 16 L 319 18 L 319 21.5 Q 322.7 23.4 323 28.5 L 321 38.5 Q 324.3 39.8 323 45.5 L 321 50.5 L 322.5 53 L 326.5 48 L 328 48.5 Q 327.3 46.3 329.5 47 L 331.5 48 L 335.5 47 L 339 48 L 340.5 51 L 347 50 Q 345.9 47.3 348.5 48 L 348.5 50 L 352.5 48 L 357.5 52 L 361.5 52 L 365 55.5 L 366 60 Q 369 58.8 368 62.5 L 369 66 Q 376.5 63.5 374 71 L 371 71.5 L 373.5 73 L 377 71 L 376 73.5 Q 378.5 75 375 76.5 L 374 81.5 Q 377.7 82.8 377 87 Q 380 85.8 379 89.5 L 378 93 L 374 93 L 374 94.5 L 375 95.5 L 373.5 98 L 376.5 97 Q 379 98.2 378 102 L 375 103.5 Q 373.9 106.8 376.5 106 L 379 109.5 L 376.5 115 L 374.5 115 Q 371.9 114.3 373 117 L 370 117 L 370 121 L 368.5 121 L 369 122.5 L 366.5 132 L 365 129 L 359.5 130 L 355.5 125 L 354 125.5 L 353.5 124 Q 350.3 125.8 354 127.5 L 352.5 133 L 351 132.5 Q 350.2 135.5 354 134 L 354 136.5 L 352.5 136 L 350 137.5 L 351 140.5 L 347.5 142 Q 345.3 141.3 346 143.5 L 346.5 145 L 345.5 144 L 341 148.5 L 340.5 150 L 335.5 147 L 333 148.5 L 332 154.5 L 333 157.5 L 331 161.5 L 334 163 L 335 158 L 341 161.5 L 342.5 165 L 344.5 165 L 352 161.5 L 350 156.5 L 351.5 154 L 353.5 154 Q 356.1 154.7 355 152 L 352 150.5 L 353 145 Q 356 146 355 143 L 357.5 143 L 360.5 144 L 363.5 143 L 368.5 144 L 370.5 144 L 373 145.5 Q 372.3 148.1 375 147 L 375 149.5 L 376 153 L 378.5 154 L 380.5 151 L 382.5 152 L 383.5 151 L 389.5 157 L 390.5 156 L 395 157 L 396 162.5 L 400 169.5 Q 399.4 175.6 402 178.5 L 400 178.5 Q 398.9 181.8 401.5 181 L 403 180.5 L 402 183.5 Q 405.7 186.3 406 192.5 L 403 194.5 L 404 198 Q 401.3 199.1 402 196.5 L 400 195.5 L 399.5 197 L 397.5 193 L 395.5 193 L 393.5 194 L 391 193 Q 392.1 195.7 389.5 195 L 386.5 193 L 385 193.5 L 383.5 191 L 383 193.5 L 384 198.5 L 382 199.5 L 380.5 197 L 377 198.5 L 376 201.5 L 378 205 L 376 205 L 376 209 L 374.5 209 L 372 210 Q 373.5 215.4 370.5 217 L 369.5 215 L 369 218.5 L 369.5 220 Q 366.5 219.1 368 223.5 L 366.5 223 L 363 221.5 L 364 219 L 359 221.5 L 362 223 L 364 230 L 366.5 231 L 368 230.5 L 369 234 Q 371.7 232.9 371 235.5 L 372 239 Q 375 238 374 241 Q 368.4 239.1 370 244 L 373 244 Q 372 247 375 246 L 375 249.5 L 374 253 L 371 254.5 Q 371.8 257.1 368.5 256 Q 365.8 257.3 368 258.5 Q 367.3 261.1 370 260 L 370 263.5 L 369 268 L 364 268 L 364 269.5 L 362.5 269 L 358 271.5 L 359 275.5 L 358 279.5 L 354 283.5 L 354 286.5 L 357.5 289 L 359.5 289 L 364.5 288 Q 366.8 292.3 369 290.5 L 372 294.5 L 372 297 L 376 295.5 Q 375.2 292.9 378.5 294 Q 379.8 291.8 381 294.5 L 380 297 L 390.5 294 L 392 294.5 L 392.5 293 L 393 295 Q 396.7 296.5 396 293.5 L 401.5 291 L 404 292 L 404 296 Q 401.3 294.9 402 297.5 L 399 299.5 L 401.5 301 Q 403.2 298.3 405 302.5 L 405 306 Q 402.3 304.9 403 307.5 L 401 312.5 L 403 315.5 L 401 316.5 L 403 319.5 Q 400.3 320.2 401 324.5 Q 405 326.5 401 328.5 Q 403.1 334.4 398.5 333 L 394.5 335 L 392.5 335 Q 389.9 335.8 391 332.5 L 390 332.5 L 390 334 Q 386.2 332.5 387 335.5 L 386 335.5 Q 386.5 331.5 383.5 331 L 381 331 Q 383.1 325.8 378.5 327 L 375 325 L 373.5 328 L 367.5 325 L 365 326.5 L 366 323.5 L 364.5 324 L 362 323.5 L 362 321.5 L 359.5 318 Q 356.9 317.3 358 320 L 360 320.5 L 355 322.5 L 357 323.5 L 340.5 326 L 335 328.5 Q 338.3 330.9 344 330 L 344.5 327 L 345 329 L 350.5 328 L 350.5 329 L 349 329.5 L 355 333.5 L 354 335.5 L 356 340.5 L 354 344.5 L 355 346.5 L 354.5 349 L 351 350 L 350.5 348 L 349.5 350 L 346.5 344 L 343.5 342 L 343 345 L 345 345.5 L 343 346 L 342.5 348 L 341 347.5 Q 342.1 350.8 339.5 350 L 337.5 349 L 339 351.5 L 338 352.5 Q 336.8 358.6 339.5 358 Q 340.8 361 345 360 L 347 372 L 344.5 373 L 340.5 371 L 340.5 372 Q 343.5 371.2 342 375 L 345.5 375 L 345 376.5 Q 346.1 379.8 343.5 379 L 341 380 Q 342.7 375.9 338.5 377 L 337 379.5 L 339 382.5 L 333.5 385 L 332 384.5 L 329 391.5 L 330 394 L 334 394 L 334 395.5 L 335 397.5 L 334 400 L 336 400 Q 334.9 402.7 337.5 402 L 337 400.5 L 339 397.5 L 343 396 Q 341.9 393.3 344.5 394 L 348 395 L 348.5 393 L 350.5 394 L 353 393 L 353.5 391 L 354.5 393 L 356.5 392 L 360 393.5 L 358 394 L 358.5 396 L 360.5 395 L 360 396.5 Q 358.9 399.8 361.5 399 L 363 402.5 L 362 405 Q 364.7 403.9 364 406.5 Q 361.8 407.7 364.5 409 Q 368.9 407.5 368 410.5 L 369 414 L 373 413 L 372 416.5 L 372 418.5 L 371 429.5 L 373 433.5 L 372 436.5 L 374.5 437 L 377.5 435 L 376.5 437 L 371 439.5 L 375 441.5 L 374 444 L 378.5 441 L 381 441 L 380 443.5 L 380.5 445 Q 375.3 443.3 377 448.5 L 371 453.5 L 372 456 L 366.5 454 L 365.5 457 L 364.5 451 L 362 452 L 359.5 446 L 358.5 448 L 357.5 446 L 357 448 L 350.5 449 L 339.5 458 L 332.5 461 L 316 474.5 Q 310 480.5 307 489.5 Q 308.8 495.7 306 497.5 L 306 543.5 L 307 544.5 L 308 639.5 L 307 643.5 L 308 647.5 L 307 648.5 L 307 663.5 L 310 675.5 L 310 684.5 L 309 685.5 L 309 705.5 Q 311.8 710.1 311 717 L 293.5 717 Q 292.5 717 293 712.5 L 294 710.5 L 293 708.5 L 294 705.5 L 293 702.5 L 294 701.5 L 294 694 L 296.5 695 L 297 688 L 295 687.5 L 295 672.5 Q 299 670.5 297 662.5 L 296 657.5 L 297 655.5 L 296 652.5 Q 298.3 651.3 297 646.5 Q 294.2 644.7 296 638.5 L 298 629.5 L 298 617.5 L 300 613.5 Q 297.2 611.8 299 605.5 L 300 604.5 L 300 565.5 L 299 564.5 L 299 555.5 L 297 551.5 L 298 548.5 L 297 547.5 L 297 532.5 L 298 530.5 L 297 529.5 L 297 513.5 L 299 510.5 L 297 510 Q 295.9 507.3 298.5 508 L 298 506.5 L 297 487.5 L 297 485.5 L 297 465.5 L 291 454.5 L 284.5 447 L 265.5 437 L 255.5 430 L 250 430 L 248.5 427 L 244.5 432 L 242.5 431 L 236 434.5 L 237 437.5 Q 237.8 440.1 234.5 439 L 232.5 440 L 230.5 439 Q 229.3 441.3 228 438.5 L 229 436 L 226.5 437 L 226.5 435 L 223 436 Q 224.3 433 220.5 434 L 219 433.5 Q 218.3 435.8 220.5 435 L 221 437.5 L 219.5 441 L 218 440.5 Q 218.8 442.8 216.5 442 L 213.5 441 L 212 441.5 L 212 448 L 207 448 Q 208.1 450.7 205.5 450 L 205.5 448 Q 202.2 449.1 203 446.5 L 201 447.5 Q 201.8 449.8 199.5 449 L 196 446.5 Q 197.1 443.2 194.5 444 L 191.5 446 Q 188.3 444.7 188.5 440 L 184.5 442 L 183 441.5 L 184 443.5 L 182 444 L 181.5 442 L 177.5 443 L 174.5 442 L 171 443 Q 172.5 438.5 168 440 L 168 436.5 L 166.5 433 L 163.5 432 L 161 433.5 L 163 429.5 L 162.5 427 L 157 424.5 Q 160.5 423 158 421.5 Q 157.3 417.8 159.5 417 Q 164 418 165 415.5 L 164 413 L 167 414.5 Q 166.3 417.1 169 416 L 171 412 L 173.5 412 L 173.5 411 Q 169.8 412.3 171 408.5 L 171 406.5 L 169 400 L 172 398.5 Q 171.3 395.9 174 397 L 174 395 L 176 395 L 176 390 Q 178.7 391.1 178 388.5 L 179 388.5 L 179 390 L 183 390 L 183 393 L 186.5 393 L 188 392.5 L 189.5 395 L 191 395.5 L 190 398.5 L 191.5 398 Q 193.8 398.8 193 396.5 Q 194.2 393.3 198 394 Q 197.3 397.8 200.5 399 L 204.5 396 L 208.5 397 L 212 396 L 212.5 393 L 215 394 L 214 391.5 L 217 387.5 L 217 385.5 Q 215.5 381.1 218.5 382 L 227 379.5 L 224 378.5 L 228.5 377 L 235 382.5 L 234 387.5 L 237.5 389 Q 239 386.5 240.5 390 L 246.5 391 L 252 388.5 L 254.5 383 L 258 381.5 L 256 377 L 260 376 L 260 370.5 L 258.5 370 L 256.5 371 L 253.5 369 L 251.5 370 L 249 369 Q 250 364.8 247 363.5 L 248.5 361 L 244.5 360 L 244 362 L 241 363.5 L 242 365.5 L 240.5 369 L 240 367 Q 237.3 368.1 238 365.5 Q 241.5 364 239 362.5 L 240 360.5 L 237 360 L 238 362.5 L 235 364 L 236 360.5 L 234 360.5 L 235 358.5 Q 232.8 357.3 235.5 356 Q 238.1 356.8 237 353.5 L 235 352.5 L 233.5 355 L 234 353.5 L 233 348.5 L 236 346.5 Q 233.7 345.3 236.5 344 Q 238.8 344.8 238 342.5 L 239 340.5 L 236.5 335 L 234.5 336 L 232.5 336 L 228 334.5 L 230 333.5 L 227 327 Q 223.7 325.9 225 330 Q 227.7 328.9 227 331.5 L 226 333.5 L 227 336.5 L 225.5 336 Q 222.2 337.1 223 334.5 L 224 331 Q 221.3 332.1 222 329.5 L 220 329.5 L 219.5 328 L 218 328.5 L 220 321 L 224 322 L 223 317 L 225.5 318 L 227 317.5 Q 226.2 320.1 229.5 319 L 232.5 318 L 232.5 320 L 235 321.5 L 233 327.5 L 235.5 329 L 240 321.5 L 237 322.5 L 236 318.5 L 240.5 316 L 244 317 L 245 310 L 242 309.5 L 245 303.5 L 243 302.5 L 242.5 304 L 239 303 L 238 299.5 L 240 295 Q 243.8 296 245 293.5 L 247 289.5 L 241.5 289 L 237.5 290 L 237.5 289 L 243 288 L 245 281 L 247.5 280 L 252.5 282 L 252 276.5 Q 252.8 274.3 250.5 275 L 248.5 276 L 246.5 276 Q 242.8 274.8 244 278.5 L 240.5 280 L 239 279.5 L 238.5 281 L 237 280.5 Q 237.8 282.8 235.5 282 L 233.5 282 L 232 282.5 L 233 285 L 230.5 286 L 227.5 283 Q 225.8 286.1 224 284.5 L 225 286.5 Q 221.8 290.6 216 291 L 215.5 294 L 215 291 L 212.5 292 L 212 289 L 208 288 L 206.5 285 L 204.5 284 L 203 286.5 L 204 288.5 L 202.5 291 L 200.5 290 L 198.5 291 Q 197.3 288.8 196 291.5 Q 197.7 297.4 194 296 L 193.5 294 L 193 296 L 191 296 Q 192.5 292.3 189.5 293 L 187 294 L 191 287.5 L 191 285.5 L 189 282.5 Q 192.1 280.8 190.5 279 Q 192.8 279.8 192 277.5 Q 188.5 276 191 274.5 Q 189.8 270.8 193.5 272 L 195 272.5 L 196 269.5 L 194 265.5 Q 197.5 264 195 262.5 Q 195.8 260.3 193.5 261 L 194 259.5 Q 192.8 255.8 196.5 257 L 201 255 L 202 251 Q 205 250 204 253 L 206.5 253 Q 208 256.5 209.5 254 L 212 255.5 L 211 261 L 213.5 260 Q 216.5 266 219.5 260 L 225 259 Q 224.3 255.6 227 254.5 L 226.5 253 L 232.5 256 L 233.5 254 L 239 257.5 L 240 261.5 L 238 265.5 L 240.5 269 L 242 265 L 246 266 L 248 260.5 L 248 256.5 L 247 256.5 L 246.5 258 L 245 254 Q 247.7 255.1 247 252.5 L 246 250.5 L 247 248.5 L 244 247 Q 245.7 251.1 241.5 250 L 239.5 249 Q 238.3 251.2 233.5 250 L 232 249.5 L 230.5 252 L 230 249 L 226.5 248 L 224.5 251 L 224 248 L 218.5 247 L 216 248.5 L 217 245.5 L 216 243.5 L 216 241.5 L 218 237.5 L 216.5 237 L 213 239 L 212.5 241 L 210 240 L 208 234.5 L 207.5 228 L 205.5 232 L 200.5 234 L 196 233 L 195 229 L 191 230 Q 192.1 232.7 189.5 232 L 187 233 L 186.5 235 L 184.5 231 L 182.5 232 L 181 229 L 178 229 L 178 224 L 180 223.5 L 178 222.5 L 179 218.5 L 176 217 L 177.5 214 L 184 209.5 L 186 206.5 Q 187 204 191.5 205 L 194.5 206 L 197 204.5 L 198 206.5 L 197 208.5 Q 199.5 213.5 202 208.5 Q 198 206.5 202 204.5 L 200 201.5 L 202 199.5 L 203 192 L 199 192 L 199 190 Q 196.3 191.1 197 188.5 L 198 183.5 L 197 181.5 L 199 179.5 L 200 173.5 L 197 172 L 200 166.5 L 202 156 L 210 155 Q 208.5 158.8 211.5 158 L 216 154.5 Q 215.4 151.8 221.5 153 L 223.5 152 L 227 153 Q 225.7 156.7 231.5 155 L 233 155.5 Q 232.3 153.3 234.5 154 L 237 152.5 L 237 150.5 L 237.5 148 L 238 151 L 244 154 L 245 150 L 248 148.5 Q 246.3 143.7 250.5 145 Q 253.3 143.8 251 142.5 L 252.5 140 L 255 141 L 252.5 136 L 250 137 L 249 129.5 L 246 126.5 L 246 122 L 255.5 115 L 259.5 117 L 261 116.5 L 262 118.5 Q 259.3 120.2 263.5 122 Q 265.8 121.3 265 123.5 L 263.5 126 Q 268.6 126.6 270 123.5 Q 271.1 120.2 268.5 121 Q 265 119 266 112.5 L 270 103 L 273 102.5 L 272 99 L 268 98.5 L 270 95.5 L 268.5 96 Q 265.9 95.2 267 98.5 L 266 101 L 268 101.5 L 263.5 108 L 260.5 107 L 257 108 L 258 110.5 L 254 111 Q 255.3 114 251.5 113 L 249 114 L 251 106 L 248.5 107 L 246.5 104 L 245.5 106 L 242.5 101 L 241 101 L 241 97 L 238.5 97 L 235.5 95 L 234 95.5 L 234 91.5 L 232 87.5 L 235 86 L 234.5 82 L 232.5 83 L 228 82 L 229 78.5 L 228.5 77 L 233 76.5 L 232 74 L 236 73.5 Q 233.7 72.3 235 67.5 L 238 66 Q 236.3 61.5 241.5 63 L 241.5 61 Q 244.5 61.7 243 58 L 239.5 59 L 236 56.5 L 238.5 51 L 241.5 53 L 250 50.5 L 248 49.5 L 250.5 49 L 253.5 51 L 258 50 Q 258.9 43.8 257 41 Q 259.7 42.1 259 39.5 L 258 38.5 L 262.5 34 L 268.5 37 L 272 36 L 272.5 38 L 274 35 Q 271.3 36.1 272 33.5 L 273 30.5 L 272 28 Q 269 29.3 270 25.5 L 269 20.5 L 270.5 18 Q 267.5 18.7 269 15 L 275 13.5 L 274.5 12 Q 278.9 13.5 278 10.5 L 281 9 Q 278.9 3.8 283.5 5 L 285 1 Z M 326 79 L 326 80 L 326 79 Z M 236 81 L 236 82 L 236 81 Z M 322 81 L 322 84 Q 326 86 325 83 L 322 81 Z M 254 90 L 252 92 L 255 92 Q 256 89 254 90 Z M 305 100 L 305 103 L 307 102 Q 308 99 305 100 Z M 265 101 L 263 104 L 265 103 L 265 101 Z M 311 101 L 313 104 L 313 103 L 311 101 Z M 314 101 L 314 103 L 316 102 L 314 101 Z M 376 101 L 376 102 L 376 101 Z M 259 103 L 259 106 L 261 105 Q 262 102 259 103 Z M 305 104 L 304 108 L 308 109 L 307 107 Q 308 103 305 104 Z M 310 105 L 308 107 L 310 109 L 311 107 Q 312 104 310 105 Z M 313 105 L 313 106 L 313 105 Z M 374 105 L 374 106 L 374 105 Z M 297 112 L 297 113 L 297 112 Z M 305 112 L 305 113 L 305 112 Z M 302 115 L 302 116 L 302 115 Z M 290 118 L 289 121 L 290 121 L 290 118 Z M 306 132 L 306 133 L 306 132 Z M 314 134 L 314 135 L 314 134 Z M 309 135 L 310 147 Q 309 149 305 148 Q 303 152 304 161 L 303 162 L 304 164 Q 303 166 306 165 L 304 173 L 308 176 L 307 174 L 307 170 Q 310 171 309 168 L 314 168 L 315 166 L 314 164 Q 313 161 316 162 Q 318 161 317 158 L 315 156 Q 311 159 311 165 L 310 165 L 313 154 L 314 156 L 318 153 L 322 155 Q 324 156 323 154 L 325 152 Q 326 155 328 153 L 330 154 L 329 149 L 331 149 L 330 143 L 327 142 L 326 144 L 325 142 L 322 142 Q 323 145 320 144 L 320 143 L 319 140 L 320 138 L 319 138 L 318 136 L 316 138 L 316 147 L 314 148 L 315 140 L 315 138 L 309 135 Z M 258 137 Q 255 142 259 141 L 258 137 Z M 268 139 L 268 140 L 268 139 Z M 266 140 L 266 141 L 266 140 Z M 260 142 L 257 144 L 261 144 Q 262 141 260 142 Z M 263 142 L 264 145 L 264 143 L 266 143 L 263 142 Z M 296 142 Q 293 143 295 145 Q 296 147 293 146 L 293 148 L 290 147 L 285 149 L 282 153 L 281 149 L 278 151 L 279 153 L 279 155 Q 280 158 277 157 L 277 160 L 275 161 L 277 161 L 275 164 L 277 165 L 278 162 Q 281 161 280 165 Q 286 166 289 162 L 294 164 L 299 163 L 300 165 L 300 177 L 301 178 L 301 183 Q 297 181 298 185 L 301 186 L 304 192 L 304 197 L 307 208 L 306 213 Q 307 215 304 214 L 304 217 L 303 217 Q 304 213 301 214 L 299 215 L 301 211 Q 302 208 299 209 L 299 207 L 297 207 L 297 205 L 296 205 L 296 207 L 295 209 L 298 221 Q 297 224 292 223 L 294 230 L 291 235 L 293 234 L 293 238 L 299 248 L 299 251 L 304 250 L 303 249 L 306 248 L 307 243 L 306 241 L 308 233 L 308 216 L 309 215 L 308 212 L 309 208 L 308 205 L 309 201 Q 310 198 308 199 L 308 198 L 305 187 L 303 185 L 303 179 L 301 176 L 302 174 L 300 160 L 300 158 L 301 154 Q 300 146 296 142 Z M 267 143 L 267 144 L 268 144 L 267 143 Z M 308 143 L 308 144 L 309 144 L 308 143 Z M 333 144 L 333 145 L 333 144 Z M 263 146 L 263 147 L 263 146 Z M 276 147 L 276 148 L 276 147 Z M 259 150 L 257 151 L 257 153 Q 256 155 259 154 L 260 151 L 259 150 Z M 276 150 L 275 152 L 276 152 L 276 150 Z M 248 151 L 247 153 L 249 152 L 248 151 Z M 253 154 L 253 155 L 253 154 Z M 232 160 L 232 161 L 232 160 Z M 264 160 L 266 163 L 268 163 L 264 160 Z M 260 163 L 260 164 L 261 164 L 260 163 Z M 262 163 L 263 166 L 264 164 L 262 163 Z M 330 164 L 330 165 L 330 164 Z M 260 165 L 258 169 L 256 170 L 258 174 L 261 173 L 260 171 L 261 168 Q 262 164 260 165 Z M 349 166 L 349 168 L 352 168 L 349 166 Z M 318 167 L 318 168 L 318 167 Z M 265 169 L 265 170 L 265 169 Z M 264 170 L 262 172 Q 261 174 264 173 L 264 170 Z M 295 170 L 295 171 L 295 170 Z M 256 171 L 256 172 L 256 171 Z M 253 172 L 253 173 L 253 172 Z M 312 172 L 312 173 L 312 172 Z M 256 173 L 255 175 L 259 179 Q 261 180 260 177 L 256 173 Z M 357 173 L 357 174 L 357 173 Z M 264 174 Q 265 177 262 176 L 263 183 L 266 184 L 267 182 L 266 179 Q 268 173 264 174 Z M 274 177 L 274 178 L 274 177 Z M 203 178 L 203 179 L 203 178 Z M 275 179 L 275 180 L 275 179 Z M 276 180 Q 276 184 278 181 L 276 180 Z M 288 180 L 288 181 L 289 181 L 288 180 Z M 296 180 L 294 182 L 298 183 L 297 182 Q 298 179 296 180 Z M 259 181 Q 257 186 261 185 Q 263 180 259 181 Z M 270 181 L 270 182 L 271 182 L 270 181 Z M 256 183 L 256 186 L 257 186 Q 258 182 256 183 Z M 202 185 L 201 187 L 202 187 L 202 185 Z M 261 186 L 258 188 L 262 188 L 261 186 Z M 403 187 L 403 190 L 404 190 Q 405 186 403 187 Z M 200 188 L 199 190 L 200 190 L 200 188 Z M 321 188 L 318 195 L 319 196 L 321 193 L 321 188 Z M 234 189 L 234 190 L 234 189 Z M 389 190 L 388 193 L 390 194 L 389 190 Z M 315 192 L 314 195 L 315 195 L 315 192 Z M 217 194 Q 214 199 218 198 Q 221 196 217 194 Z M 331 195 L 331 196 L 332 196 L 331 195 Z M 315 196 L 313 198 L 314 200 L 315 198 L 315 196 Z M 318 196 L 316 198 L 317 200 L 318 198 L 318 196 Z M 205 197 L 205 198 L 205 197 Z M 242 198 L 242 199 L 242 198 Z M 241 199 L 241 200 L 241 199 Z M 206 201 L 206 202 L 206 201 Z M 324 201 L 324 202 L 324 201 Z M 288 202 L 288 204 L 290 205 Q 291 201 288 202 Z M 293 203 L 291 205 L 293 205 L 293 203 Z M 318 203 Q 316 206 319 208 Q 318 210 321 209 L 323 206 Q 324 203 321 204 Q 319 207 318 203 Z M 335 203 L 333 205 L 335 205 L 335 203 Z M 210 205 L 210 206 L 211 206 L 210 205 Z M 350 207 L 350 210 L 352 209 Q 353 206 350 207 Z M 315 208 L 315 209 L 315 208 Z M 357 209 L 357 210 L 357 209 Z M 319 210 L 319 211 L 319 210 Z M 336 211 L 336 212 L 336 211 Z M 319 212 L 317 214 L 315 213 L 311 219 L 311 247 L 317 248 L 316 246 L 322 244 L 325 249 L 325 251 L 330 250 L 334 245 L 334 242 Q 337 243 336 240 L 334 240 L 338 239 Q 339 236 336 237 Q 335 233 338 232 L 341 233 L 345 225 L 345 223 L 343 221 L 343 223 L 341 226 L 340 226 L 341 222 L 340 222 L 338 221 Q 338 227 335 230 L 332 229 L 332 228 L 330 227 Q 331 230 329 229 Q 325 228 327 222 L 325 219 L 323 220 L 323 219 L 322 214 L 319 212 Z M 271 213 L 269 215 L 271 215 L 271 213 Z M 345 213 L 343 216 L 345 215 L 345 213 Z M 351 213 L 351 214 L 351 213 Z M 352 214 L 352 215 L 352 214 Z M 262 215 L 262 216 L 262 215 Z M 346 215 L 346 216 L 346 215 Z M 325 216 L 325 217 L 325 216 Z M 350 216 L 351 218 Q 352 215 350 216 Z M 257 218 L 257 219 L 257 218 Z M 337 218 L 337 219 L 338 219 L 337 218 Z M 350 218 L 349 220 L 350 220 L 350 218 Z M 349 220 L 349 221 L 349 220 Z M 346 221 L 346 222 L 346 221 Z M 348 221 L 346 223 L 348 223 L 348 221 Z M 354 221 L 354 222 L 354 221 Z M 352 223 L 348 226 L 345 226 L 343 232 L 347 229 Q 349 230 348 228 L 352 225 L 352 223 Z M 194 227 L 194 228 L 194 227 Z M 234 227 L 234 228 L 234 227 Z M 349 227 Q 348 230 351 229 Q 352 226 349 227 Z M 232 228 L 230 230 L 232 232 Q 236 232 236 230 L 232 228 Z M 257 228 L 257 229 L 257 228 Z M 266 228 L 265 230 L 266 230 L 266 228 Z M 264 230 L 263 232 L 258 235 L 251 233 Q 248 232 249 235 L 256 239 L 257 239 L 258 237 L 263 237 L 263 235 L 266 236 L 268 235 L 268 232 L 267 234 L 264 230 Z M 227 231 L 229 233 Q 230 230 227 231 Z M 347 233 L 347 234 L 347 233 Z M 217 234 L 217 235 L 217 234 Z M 368 234 L 368 235 L 368 234 Z M 224 235 L 222 237 L 225 238 Q 226 240 227 238 L 224 235 Z M 340 235 L 340 236 L 340 235 Z M 339 236 L 339 237 L 339 236 Z M 251 239 L 253 242 L 255 242 L 254 241 L 254 240 L 251 239 Z M 269 239 L 269 244 L 270 244 L 269 239 Z M 256 240 L 256 241 L 256 240 Z M 292 240 L 292 242 L 290 245 L 289 251 L 292 250 L 294 252 Q 295 254 292 253 L 290 253 L 286 258 L 282 260 L 282 265 L 284 265 Q 283 269 286 270 L 290 268 L 291 266 Q 287 267 289 262 Q 290 259 294 260 L 295 264 L 299 263 L 301 264 L 301 261 L 299 261 L 301 258 L 298 257 L 299 254 L 298 251 L 294 249 L 297 248 L 294 242 L 292 240 Z M 353 241 L 353 242 L 353 241 Z M 271 244 L 270 247 L 272 248 L 271 244 Z M 255 245 Q 251 246 252 250 L 248 253 L 250 253 L 251 256 L 254 254 L 256 255 L 257 252 L 253 249 L 255 248 L 255 245 Z M 273 248 L 272 250 L 273 250 L 273 248 Z M 334 248 L 333 251 L 334 251 L 334 248 Z M 336 248 L 336 249 L 336 248 Z M 287 250 L 287 251 L 287 250 Z M 339 250 L 339 251 L 339 250 Z M 274 253 L 275 255 Q 276 252 274 253 Z M 262 256 L 261 258 L 256 261 L 259 264 L 261 263 Q 264 264 263 261 L 265 261 Q 267 260 266 263 L 272 266 L 273 269 L 277 267 Q 280 269 276 271 L 278 271 L 281 270 L 280 267 Q 282 261 277 263 L 275 261 Q 274 258 273 260 L 271 257 L 269 257 L 269 259 L 264 259 L 262 256 Z M 303 256 L 303 257 L 303 256 Z M 277 258 L 277 262 L 279 262 L 277 258 Z M 320 258 L 320 259 L 320 258 Z M 312 261 L 310 264 L 311 267 L 310 270 Q 314 271 313 269 Q 311 267 314 266 L 312 261 Z M 220 263 L 220 264 L 220 263 Z M 249 264 L 249 265 L 249 264 Z M 291 264 L 291 265 L 291 264 Z M 235 267 L 235 268 L 235 267 Z M 315 267 L 315 268 L 315 267 Z M 242 269 L 241 271 L 242 271 L 242 269 Z M 259 269 L 260 273 L 260 271 L 262 271 L 259 269 Z M 274 269 L 270 273 L 272 274 Q 274 273 273 276 L 274 276 L 274 269 Z M 198 271 L 196 273 L 199 273 Q 200 270 198 271 Z M 211 271 L 211 272 L 211 271 Z M 267 271 L 267 273 L 269 272 L 267 271 Z M 251 272 L 251 273 L 251 272 Z M 258 272 L 258 273 L 258 272 Z M 254 273 L 254 274 L 254 273 Z M 277 273 L 276 276 L 277 276 L 277 273 Z M 279 274 L 281 278 L 279 285 L 280 289 L 284 288 L 282 278 Q 284 272 279 274 Z M 314 274 L 314 275 L 314 274 Z M 215 276 Q 213 279 216 278 L 215 276 Z M 286 277 L 287 290 L 290 289 L 298 291 L 299 289 Q 300 285 298 286 L 299 284 Q 302 285 301 282 L 300 282 L 298 278 L 297 280 L 294 282 L 291 277 L 289 278 L 286 277 Z M 210 282 L 209 284 L 210 284 L 210 282 Z M 250 283 L 250 284 L 250 283 Z M 202 285 L 200 287 L 202 287 L 202 285 Z M 197 288 L 196 290 L 197 290 L 197 288 Z M 219 288 L 219 289 L 219 288 Z M 250 289 L 248 292 L 250 291 L 250 289 Z M 301 290 L 301 291 L 301 290 Z M 311 291 L 311 292 L 312 292 L 311 291 Z M 299 292 L 297 293 L 298 295 L 300 294 Q 301 291 299 292 Z M 297 296 L 297 298 L 299 297 L 297 296 Z M 293 298 L 292 304 L 294 307 Q 298 308 298 305 Q 295 304 296 300 L 293 298 Z M 374 298 L 372 300 L 374 300 L 374 298 Z M 248 303 L 247 305 L 248 305 L 248 303 Z M 367 304 L 365 306 L 367 307 L 367 304 Z M 290 306 L 290 307 L 290 306 Z M 361 310 L 361 311 L 361 310 Z M 249 311 L 249 312 L 249 311 Z M 254 311 L 253 314 L 256 315 Q 257 312 254 313 L 254 311 Z M 299 314 L 299 315 L 299 314 Z M 304 315 L 301 319 L 303 322 L 302 325 L 303 327 L 302 328 L 302 341 L 300 349 L 298 348 Q 299 343 297 342 L 298 340 L 296 338 L 295 331 L 294 331 L 295 342 L 300 360 L 302 345 L 304 343 Q 306 336 303 335 L 304 328 L 305 325 L 304 323 L 305 319 L 304 315 Z M 339 315 L 338 316 L 336 316 L 336 320 Q 339 321 338 318 L 341 316 L 339 315 Z M 396 315 L 396 316 L 396 315 Z M 254 317 L 254 320 L 248 323 Q 247 325 251 324 L 253 324 L 253 323 L 255 323 L 257 320 Q 258 315 254 317 Z M 323 317 L 321 321 L 323 322 L 323 317 Z M 356 317 L 354 319 L 355 321 L 357 320 L 356 317 Z M 245 318 L 245 319 L 245 318 Z M 334 318 L 334 319 L 334 318 Z M 366 318 L 366 319 L 366 318 Z M 320 319 L 319 322 L 320 322 L 320 319 Z M 317 320 L 317 324 L 318 324 L 317 320 Z M 329 320 L 327 322 L 330 326 L 327 327 Q 328 329 324 328 L 326 332 L 332 328 L 339 326 Q 341 322 336 323 L 336 325 L 335 323 L 333 323 L 329 320 Z M 343 322 L 340 325 L 343 325 L 343 322 Z M 310 323 L 309 331 L 311 331 Q 314 330 313 326 L 312 326 L 310 323 Z M 320 324 L 319 327 L 317 326 Q 315 324 314 327 L 315 331 Q 319 332 318 329 L 321 328 L 320 324 Z M 372 325 L 372 326 L 372 325 Z M 240 326 L 238 328 L 240 328 L 240 326 Z M 246 330 L 243 334 L 242 332 L 238 333 L 239 339 L 243 342 L 244 341 Q 245 344 250 343 Q 248 341 251 340 Q 252 337 249 338 L 250 336 L 248 334 L 246 330 Z M 234 331 Q 232 334 235 333 L 234 331 Z M 392 331 L 392 332 L 392 331 Z M 312 332 L 312 333 L 312 332 Z M 328 332 L 327 333 Q 323 332 324 335 L 327 336 Q 329 337 328 333 L 330 333 L 328 332 Z M 324 337 L 323 339 L 326 339 L 324 337 Z M 341 344 Q 339 347 342 346 L 341 344 Z M 334 348 L 334 349 L 335 349 L 334 348 Z M 237 356 Q 236 359 239 358 Q 240 355 237 356 Z M 243 356 L 242 359 Q 241 361 244 360 L 244 356 L 243 356 Z M 332 356 L 332 359 L 334 360 Q 335 355 332 356 Z M 315 357 L 314 360 L 315 360 L 315 357 Z M 251 358 Q 250 361 253 360 Q 254 357 251 358 Z M 283 358 L 283 359 L 283 358 Z M 262 360 L 262 361 L 263 361 L 262 360 Z M 314 361 L 312 364 L 314 363 L 314 361 Z M 301 362 L 300 383 L 299 384 L 299 392 L 301 393 L 303 387 L 302 376 L 302 374 Q 304 365 301 362 Z M 312 364 L 312 365 L 312 364 Z M 334 366 L 332 368 L 335 368 L 334 366 Z M 309 369 L 309 370 L 309 369 Z M 337 369 L 337 371 L 335 372 L 339 373 Q 341 368 337 369 Z M 264 371 L 263 373 L 264 373 L 264 371 Z M 270 371 L 265 375 L 269 375 L 268 382 L 271 385 L 276 383 L 275 378 L 270 377 L 271 375 L 270 371 Z M 308 371 L 308 372 L 308 371 Z M 340 373 L 340 374 L 340 373 Z M 278 376 L 277 378 L 278 378 L 278 376 Z M 285 382 L 285 383 L 285 382 Z M 293 382 L 292 389 L 293 389 L 293 382 Z M 313 382 L 312 383 Q 307 381 308 385 Q 308 387 313 387 L 312 386 L 314 383 L 313 382 Z M 335 382 L 334 384 L 335 384 L 335 382 Z M 282 385 L 282 388 L 287 389 L 285 387 Q 286 384 282 385 Z M 316 387 L 316 388 L 316 387 Z M 254 388 L 252 390 L 254 390 L 254 388 Z M 295 388 L 293 391 L 298 393 L 298 391 L 295 388 Z M 278 390 L 278 394 L 279 395 Q 272 393 275 401 L 272 402 L 272 400 L 270 404 L 271 409 L 270 408 L 269 410 L 272 411 L 274 411 Q 276 412 275 409 L 274 409 L 273 407 L 276 406 L 281 407 L 279 411 L 274 413 L 278 415 L 278 414 L 280 415 L 279 418 L 277 418 L 275 417 L 274 419 Q 269 420 268 416 Q 265 415 266 418 L 262 419 L 263 427 L 282 430 L 289 434 L 291 434 Q 290 437 293 436 L 295 436 Q 293 432 294 425 L 293 424 L 293 415 L 290 412 L 291 411 L 290 409 Q 290 406 286 406 L 286 405 Q 287 402 284 403 L 284 401 L 282 404 L 281 404 L 282 402 Q 281 398 285 399 L 287 402 L 287 400 L 284 398 L 284 395 L 283 398 L 280 397 L 281 395 Q 284 393 280 392 Q 281 389 278 390 Z M 314 390 L 313 393 L 307 395 L 306 405 Q 310 406 312 403 L 317 404 L 318 412 L 321 414 L 322 412 Q 321 409 324 410 Q 325 407 322 408 Q 321 405 324 406 L 323 404 L 326 400 L 324 396 L 323 396 L 322 394 Q 321 391 318 392 L 316 392 L 317 394 L 315 394 L 314 390 Z M 318 390 L 318 391 L 318 390 Z M 229 391 L 229 392 L 230 392 L 229 391 Z M 241 391 L 241 392 L 241 391 Z M 251 391 L 251 392 L 251 391 Z M 283 391 L 283 392 L 283 391 Z M 289 391 L 289 394 L 292 392 L 289 391 Z M 247 392 L 247 393 L 250 393 L 247 392 Z M 187 395 L 187 396 L 187 395 Z M 214 395 L 214 396 L 215 396 L 214 395 Z M 270 395 L 270 396 L 270 395 Z M 290 395 L 290 396 L 290 395 Z M 216 396 L 216 397 L 216 396 Z M 273 396 L 273 397 L 273 396 Z M 301 396 L 300 398 L 301 398 L 301 396 Z M 333 396 L 332 398 L 333 398 L 333 396 Z M 189 397 L 189 398 L 189 397 Z M 197 398 L 195 400 Q 194 402 198 401 L 197 398 Z M 250 398 L 250 399 L 250 398 Z M 290 398 Q 292 400 291 406 L 293 407 L 292 404 L 293 400 L 290 398 Z M 296 399 L 297 403 L 295 402 L 293 408 L 297 417 Q 295 424 299 423 L 298 419 Q 297 415 300 416 L 298 409 L 300 409 L 300 407 L 300 405 L 301 401 L 300 400 L 298 401 Q 299 398 296 399 Z M 194 400 L 192 402 Q 193 404 191 403 Q 187 405 191 407 Q 192 409 190 408 L 187 409 Q 186 414 190 416 L 192 415 L 193 417 L 195 414 L 194 411 L 191 412 L 190 411 Q 191 408 193 410 Q 192 404 195 403 L 194 400 Z M 245 400 L 245 401 L 245 400 Z M 250 401 L 250 402 L 251 402 L 250 401 Z M 357 401 L 356 403 L 357 403 L 357 401 Z M 360 401 L 361 403 Q 362 400 360 401 Z M 257 402 L 257 403 L 257 402 Z M 185 403 L 184 405 L 185 405 L 185 403 Z M 248 403 L 248 404 L 248 403 Z M 209 406 L 208 408 L 206 409 L 209 409 L 209 406 Z M 307 407 L 307 408 L 307 407 Z M 270 412 L 270 413 L 271 413 L 270 412 Z M 301 413 L 301 414 L 301 413 Z M 322 414 L 321 417 L 322 417 L 322 414 Z M 329 414 L 329 415 Q 331 414 330 417 L 331 417 Q 332 413 329 414 Z M 361 414 L 362 416 L 364 415 L 361 414 Z M 196 415 L 196 416 L 196 415 Z M 307 415 L 307 416 L 307 415 Z M 327 415 L 327 416 L 327 415 Z M 195 416 L 194 419 L 196 420 L 195 416 Z M 272 416 L 272 417 L 272 416 Z M 296 417 L 295 421 L 296 421 L 296 417 Z M 324 417 L 323 419 L 324 419 L 324 417 Z M 330 417 L 330 418 L 330 417 Z M 185 418 L 185 419 L 185 418 Z M 172 419 L 172 420 L 172 419 Z M 309 420 L 306 423 L 306 444 L 307 446 L 318 442 L 325 443 L 326 442 L 327 436 L 326 436 L 325 435 L 324 435 L 321 434 L 323 430 Q 324 427 322 428 L 320 424 Q 317 423 318 426 Q 314 428 315 424 L 313 423 L 314 426 L 313 426 L 311 429 L 309 428 L 310 425 L 309 424 L 310 422 L 311 424 L 312 421 L 311 421 L 309 420 Z M 314 420 L 314 421 L 314 420 Z M 322 420 L 320 422 L 322 422 L 322 420 Z M 360 420 Q 357 424 361 423 L 360 420 Z M 319 421 L 319 422 L 319 421 Z M 366 421 L 366 423 L 369 422 L 366 421 Z M 371 421 L 370 424 L 371 424 L 371 421 Z M 253 422 L 251 424 L 253 424 L 253 422 Z M 358 423 L 358 424 L 358 423 Z M 257 424 Q 256 427 259 426 Q 260 423 257 424 Z M 327 424 L 327 425 L 327 424 Z M 298 425 L 295 429 L 297 438 L 297 439 Q 300 440 301 438 Q 298 436 300 430 L 298 425 Z M 324 426 L 323 428 L 324 428 L 324 426 Z M 348 426 L 348 427 Q 350 426 349 429 L 348 428 L 345 430 L 350 431 L 351 428 Q 352 424 348 426 Z M 254 427 L 255 429 L 259 430 Q 261 425 254 427 Z M 359 427 L 359 428 L 359 427 Z M 168 428 L 168 429 L 168 428 Z M 262 428 L 260 431 L 266 434 Q 268 433 267 436 L 283 444 Q 285 443 284 446 L 289 449 L 297 461 L 299 449 L 299 447 L 300 445 L 298 443 L 298 445 L 297 450 L 295 445 L 290 437 L 286 433 L 277 430 L 262 428 Z M 329 429 L 329 430 L 329 429 Z M 353 429 L 352 431 L 353 431 L 353 429 Z M 360 429 L 360 434 Q 362 437 363 434 L 362 432 Q 363 428 360 429 Z M 190 430 Q 188 433 191 432 L 190 430 Z M 241 430 L 240 432 L 241 432 L 241 430 Z M 234 432 L 234 433 L 234 432 Z M 351 432 L 350 434 L 351 434 L 351 432 Z M 365 435 L 365 438 L 367 437 Q 368 434 365 435 Z M 371 436 L 370 438 L 371 438 L 371 436 Z M 198 438 Q 197 441 200 440 Q 201 437 198 438 Z M 216 438 L 216 439 L 216 438 Z M 293 438 L 293 439 L 293 438 Z M 363 438 L 363 439 L 363 438 Z M 212 439 L 211 441 L 212 441 L 212 439 Z M 294 439 L 293 441 L 294 441 L 294 439 Z M 329 439 L 327 441 Q 326 444 329 443 L 329 439 Z M 334 440 L 333 442 L 334 442 L 334 440 Z M 347 440 L 344 443 L 343 441 Q 340 440 341 443 L 339 444 L 337 443 L 335 443 L 329 446 L 332 446 L 332 448 L 321 444 L 317 444 L 310 447 L 307 450 L 307 459 L 306 460 L 307 465 L 307 476 L 306 477 L 307 486 L 314 476 L 316 473 L 345 452 L 344 451 L 344 450 L 346 451 L 350 448 Q 351 443 348 444 L 349 442 L 347 440 Z M 195 441 L 194 443 L 195 443 L 195 441 Z M 331 441 L 330 443 L 331 443 L 331 441 Z M 361 441 L 361 442 L 361 441 Z M 360 442 L 360 443 L 360 442 Z M 358 443 L 358 444 L 358 443 Z M 352 444 Q 349 448 353 447 L 352 444 Z M 357 444 L 357 445 L 357 444 Z M 355 445 L 355 446 L 355 445 Z M 363 445 L 363 449 L 366 450 L 365 448 Q 366 444 363 445 Z M 375 447 L 374 449 L 375 449 L 375 447 Z M 300 642 L 300 643 L 301 643 L 300 642 Z M 297 678 L 297 679 L 297 678 Z M 296 701 L 296 702 L 296 701 Z "/><path fill="#000000"  stroke="none" opacity="1" d="M 241.5 103 L 242 104.5 L 240 105.5 L 241.5 103 Z "/><path fill="#000000"  stroke="none" opacity="1" d="M 311.5 142 L 311.5 143 L 311.5 142 Z "/><path fill="#000000"  stroke="none" opacity="1" d="M 312 149 Q 315 147.8 314 151.5 L 312 150.5 L 312 149 Z "/><path fill="#000000"  stroke="none" opacity="1" d="M 297.5 208 L 297.5 209 L 297.5 208 Z "/><path fill="#000000"  stroke="none" opacity="1" d="M 305.5 233 L 305.5 234 L 305.5 233 Z "/><path fill="#000000"  stroke="none" opacity="1" d="M 227.5 286 L 227.5 287 L 227.5 286 Z "/><path fill="#000000"  stroke="none" opacity="1" d="M 227 288 Q 231.6 286.8 233 289.5 L 227 290 L 227 288 Z "/><path fill="#000000"  stroke="none" opacity="1" d="M 223.5 289 L 225 289.5 L 223.5 290 L 223.5 289 Z "/><path fill="#000000"  stroke="none" opacity="1" d="M 377 290 L 380 291.5 L 377 292 L 377 290 Z "/><path fill="#000000"  stroke="none" opacity="1" d="M 223.5 313 L 224 314.5 L 223 314.5 L 223.5 313 Z "/><path fill="#000000"  stroke="none" opacity="1" d="M 316.5 328 L 317 329.5 L 316 329.5 L 316.5 328 Z "/><path fill="#000000"  stroke="none" opacity="1" d="M 233.5 344 L 233.5 345 L 233.5 344 Z "/><path fill="#000000"  stroke="none" opacity="1" d="M 270.5 382 L 270.5 383 L 270.5 382 Z "/><path fill="#000000"  stroke="none" opacity="1" d="M 336.5 385 L 336.5 386 L 336.5 385 Z "/><path fill="#000000"  stroke="none" opacity="1" d="M 374.5 395 L 375 397.5 L 374 397.5 L 374.5 395 Z "/><path fill="#000000"  stroke="none" opacity="1" d="M 278.5 401 L 280 401.5 L 278.5 402 L 278.5 401 Z "/><path fill="#000000"  stroke="none" opacity="1" d="M 373.5 402 L 373.5 403 L 373.5 402 Z "/><path fill="#000000"  stroke="none" opacity="1" d="M 277.5 403 L 280 404.5 L 278.5 404 L 277.5 403 Z "/><path fill="#000000"  stroke="none" opacity="1" d="M 372.5 408 L 372.5 409 L 372.5 408 Z "/><path fill="#000000"  stroke="none" opacity="1" d="M 398.5 414 L 398.5 415 L 398.5 414 Z "/><path fill="#000000"  stroke="none" opacity="1" d="M 397.5 417 L 397.5 418 L 397.5 417 Z "/><path fill="#000000"  stroke="none" opacity="1" d="M 275.5 420 L 276 421.5 L 275 421.5 L 275.5 420 Z "/><path fill="#000000"  stroke="none" opacity="1" d="M 396.5 420 L 397 422 L 395 421.5 L 396.5 420 Z "/><path fill="#000000"  stroke="none" opacity="1" d="M 376.5 421 L 377 423 L 375 422.5 L 376.5 421 Z "/><path fill="#000000"  stroke="none" opacity="1" d="M 393.5 423 L 395 423.5 L 392.5 425 L 393.5 423 Z "/><path fill="#000000"  stroke="none" opacity="1" d="M 389.5 425 L 391 425.5 L 389 426 L 387.5 429 Q 385.3 428.3 386 430.5 L 380.5 435 L 387 427.5 Q 386.3 425.3 388.5 426 L 389.5 425 Z "/><path fill="#000000"  stroke="none" opacity="1" d="M 373.5 428 L 374 429.5 L 373 429.5 L 373.5 428 Z "/><path fill="#000000"  stroke="none" opacity="1" d="M 317.5 438 L 319 438.5 L 317.5 439 L 317.5 438 Z "/><path fill="#000000"  stroke="none" opacity="1" d="M 333.5 448 L 333.5 449 L 333.5 448 Z "/><path fill="#000000"  stroke="none" opacity="1" d="M 356.5 449 L 356.5 450 L 356.5 449 Z "/><path fill="#000000"  stroke="none" opacity="1" d="M 291.5 528 L 295 530 L 294.5 533 L 291.5 528 Z "/><path fill="#000000"  stroke="none" opacity="1" d="M 293.5 681 L 294 684.5 L 293 684.5 L 293.5 681 Z "/><path fill="#000000"  stroke="none" opacity="1" d="M 293.5 688 L 294 691.5 L 292.5 694 L 292 692.5 L 292 690.5 L 293.5 688 Z "/></svg>