<svg viewBox="0 0 410 497" version="1.1" xmlns="http://www.w3.org/2000/svg"><path fill="#000000"  stroke="none" opacity="1" d="M 230.5 60 L 230.5 61 L 230.5 60 Z "/><path fill="#000000"  stroke="none" opacity="1" d="M 234.5 72 L 234.5 73 L 234.5 72 Z "/><path fill="#000000"  stroke="none" opacity="1" d="M 235.5 74 L 239 80.5 L 240 89.5 L 244 98.5 L 245 105.5 L 250 116.5 L 251.5 124 L 252 118.5 L 250 110.5 L 256 88.5 L 256 86.5 Q 257.5 80 262.5 77 L 270.5 77 L 276 80 L 275 82.5 L 277 86.5 L 273 90.5 Q 268.4 95.9 268 105.5 L 265 109.5 L 266.5 109 L 273.5 104 L 284 102 L 282.5 105 L 280 106.5 L 271 118 L 264 123.5 L 267.5 124 L 271 123 L 271 121.5 L 280.5 112 L 283 110.5 Q 282.3 108.3 284.5 109 L 288.5 106 L 292 107 Q 293.3 103.7 288.5 105 L 286 104 L 286.5 102 L 288.5 104 L 291 103.5 Q 290.2 90.3 283.5 83 Q 281.3 83.8 282 81.5 L 283.5 82 L 289 86.5 L 289.5 88 L 290 84.5 L 289 82.5 L 290 82.5 L 293 88.5 L 294 103 L 296.5 104 L 298.5 104 L 303.5 107 L 305.5 107 L 310 107.5 L 300.5 108 L 280.5 122 L 272 122.5 L 280.5 123 L 288.5 127 L 298.5 128 L 302 130.5 L 302.5 132 L 304 131.5 L 306 134.5 L 310 137.5 L 308.5 137 L 294.5 129 L 287.5 127 L 280.5 127 L 277.5 128 L 266 131 Q 264.6 135 271.5 133 Q 275.1 135.9 282.5 135 L 290 138.5 Q 287.7 140.9 283 140 Q 281.7 143.3 286.5 142 L 288.5 143 L 290.5 143 Q 293.8 144.1 293 141.5 L 294.5 142 Q 304.4 141.6 308 147.5 L 311.5 152 L 314 153.5 Q 313.3 155.8 315.5 155 L 319 160.5 L 319 162.5 L 320 174.5 L 319 174.5 L 314 158.5 L 306.5 149 L 300.5 149 L 291.5 145 L 283.5 144 L 280.5 142 L 275.5 142 L 275.5 143 L 281 147.5 L 288 159.5 Q 286.3 165.8 289 167.5 L 287.5 174 L 284 162.5 Q 280.2 161.3 281 157 L 278 155.5 Q 274 152 274.5 144 L 273 159.5 L 271.5 164 L 268.5 149 L 268 151.5 L 261.5 158 Q 260 155.5 258.5 159 Q 255.3 161.3 248.5 160 L 243.5 157 L 231 166.5 L 230.5 168 L 229 167.5 L 224 176.5 L 221.5 186 L 221 176.5 L 222 173.5 L 216.5 178 L 190 196.5 L 192 197.5 L 190.5 200 Q 188 195.5 185.5 201 Q 183.3 200.3 184 202.5 L 181 204 L 174 212.5 L 170 224.5 L 170 226.5 L 169 236.5 L 165.5 247 L 161 239.5 L 164 239 Q 165.8 236.6 165 230.5 Q 161.5 229 164 227.5 L 163 216.5 L 160 207.5 L 160.5 206 Q 158.3 206.8 159 204.5 L 146 176.5 L 144.5 166 L 144 187.5 L 143 188.5 L 143 190.5 L 141 195.5 L 140 206.5 L 138.5 208 L 138 198.5 L 137 197.5 L 137 166.5 L 141 153.5 L 138 155.5 Q 138.8 157.8 136.5 157 L 129 162.5 L 127.5 165 Q 125.3 164.3 126 166.5 L 119 177.5 L 111.5 202 L 110 188.5 Q 112.5 187 111 181.5 L 114.5 175 Q 116.8 175.8 116 173.5 L 116.5 172 Q 114.3 172.8 115 170.5 L 118.5 164 L 121.5 164 L 126 160.5 L 124 159.5 L 125.5 159 L 127.5 160 L 130.5 155 Q 137.1 153.6 140.5 149 L 147 148 L 146.5 146 L 142.5 148 L 140.5 148 L 132.5 148 L 131.5 149 L 129.5 149 L 101.5 152 L 88.5 156 L 81 161.5 L 83 162.5 L 81.5 163 L 79 162 Q 80 165 77 164 L 77 161.5 L 82.5 156 L 94.5 152 L 96.5 152 L 107.5 150 L 117.5 145 L 121.5 145 L 128.5 142 L 130 142.5 Q 129.2 139.9 132.5 141 L 130.5 138 L 125 135 L 119.5 128 L 117 126.5 Q 116.4 123.8 122.5 125 L 126.5 126 L 137.5 137 L 139 137 L 139 135 Q 136.3 136.1 137 133.5 L 133 129.5 L 130 122 Q 132.7 120.9 132 123.5 L 134.5 125 L 134 123.5 L 130 115.5 L 132 116.5 L 139 128.5 Q 136.8 129.8 139.5 131 Q 142.1 131.8 141 128.5 L 138 120.5 L 137 105.5 L 135 98.5 L 133 96.5 L 135.5 96 Q 140.9 97.6 140 105.5 Q 137.5 107 141 108.5 L 142.5 115 L 143 107.5 L 142 106.5 L 141 95.5 L 143 87.5 L 146 82 L 150 81 L 147 91.5 L 148 93.5 L 148 95.5 L 148 104.5 L 146.5 106 Q 143.5 106.9 145 102.5 L 143 103.5 L 145 113 Q 147.7 111.9 147 114.5 L 146 116.5 L 148 117.5 Q 149.3 112.7 147 111.5 L 149 111 L 151.5 125 L 153 119 L 155 118.5 L 153 114.5 L 154 113.5 L 155 102.5 L 157.5 96 Q 161.8 100.2 160 110.5 L 159 111.5 L 158 122.5 L 159 122.5 L 164.5 111 L 168 116.5 L 163 126.5 L 166 124.5 L 178.5 109 Q 183.2 105.2 191.5 105 L 194 105.5 Q 194.8 107.8 192.5 107 L 189.5 106 L 183 108.5 L 166.5 133 L 164 134.5 L 165.5 135 L 173.5 131 Q 175 134.5 176.5 132 L 185 132.5 L 158 142.5 L 175.5 147 L 180 151.5 L 190 170.5 L 192 177.5 L 189 175.5 L 174.5 157 L 161.5 148 L 151.5 145 L 152 146.5 L 162.5 160 L 167 163.5 L 173 192.5 L 173 198.5 L 172 198.5 L 166 183.5 L 156 168.5 L 151 154 Q 147.3 152.7 149 158.5 Q 151.8 160.3 150 166.5 L 154 176.5 L 154 181.5 L 156 183.5 L 154 188.5 L 155.5 192 L 157 191.5 L 156 194.5 L 157.5 194 Q 160.5 193.2 159 197 L 162 197 L 162 203.5 L 163 206 L 166 207.5 Q 163.2 209.5 164 214 L 168 212 L 168.5 214 L 171 210.5 L 169 207.5 L 170.5 208 L 172.5 209 L 173 207 L 176 205.5 L 177.5 203 Q 180.8 204.1 180 201.5 Q 177.5 200 181 198.5 L 185.5 193 L 192.5 188 L 198.5 186 L 215 173.5 L 216.5 171 L 220 170 Q 219 173 222 172 L 222 165.5 L 226 150.5 L 233.5 141 L 238 139 L 245 130.5 L 243.5 130 Q 239.5 136 230.5 137 L 222 144.5 L 218.5 154 Q 214.5 154.5 214 151.5 L 215 142.5 L 219.5 138 L 239 127.5 L 225.5 127 L 214 136.5 L 208.5 143 L 206.5 144 L 205 140.5 L 207 135.5 L 220 122.5 L 220 121 L 239.5 124 L 238.5 122 Q 228.6 120.9 223.5 115 L 214.5 115 L 208.5 117 L 206 113 L 209.5 112 L 208.5 114 L 207 114.5 L 211.5 115 Q 215 111.5 221.5 111 L 225.5 114 Q 232.9 112.6 235.5 116 L 236 114.5 Q 233.8 104.8 228.5 98 L 223 99 Q 224.5 102.8 221.5 102 Q 218.3 103.8 222 105.5 L 221.5 107 L 219.5 104 L 216 106.5 L 216 108 L 212 108 L 212 109.5 L 209.5 111 L 208.5 110 L 206 111.5 L 209 105 L 211.5 106 L 212.5 104 L 211 103.5 L 216 99.5 L 216.5 101 L 217 97 L 219 97.5 L 218 99.5 L 220.5 98 L 222 97.5 L 220 96.5 L 223.5 96 L 228.5 97 L 230.5 97 L 233.5 99 L 235 99.5 L 233 93.5 L 234 93.5 L 236.5 99 L 237.5 95 L 239 97.5 L 237 101 L 239 101 L 239 104 Q 242 102.8 241 106.5 L 242 108.5 L 239 106.5 L 235.5 100 L 235 101.5 L 244.5 120 L 245 114.5 L 237 79.5 L 235 76.5 L 235.5 74 Z M 268 78 L 260 93 L 255 114 L 256 119 Q 260 100 269 86 L 275 82 Q 274 77 268 78 Z M 291 88 L 290 90 L 291 90 L 291 88 Z M 145 99 L 144 101 L 145 101 L 145 99 Z M 220 100 L 220 101 L 220 100 Z M 216 101 L 216 102 L 216 101 Z M 218 101 L 218 102 L 219 102 L 218 101 Z M 213 102 Q 212 105 215 104 Q 216 101 213 102 Z M 217 103 L 217 104 L 217 103 Z M 216 105 L 216 106 L 216 105 Z M 294 105 L 294 107 L 296 106 L 294 105 Z M 297 106 L 297 107 L 298 107 L 297 106 Z M 265 110 L 263 113 L 265 112 L 265 110 Z M 217 113 L 217 114 L 217 113 Z M 222 113 L 222 114 L 222 113 Z M 262 113 L 260 116 L 262 115 L 262 113 Z M 260 116 L 260 117 L 260 116 Z M 144 117 L 143 121 L 144 121 L 144 117 Z M 238 117 L 237 119 L 239 120 L 238 117 Z M 240 120 L 240 121 L 240 120 Z M 246 120 L 246 121 L 246 120 Z M 145 122 L 144 125 L 145 125 L 145 122 Z M 254 122 L 255 126 L 256 123 L 254 122 Z M 158 123 L 157 125 L 158 125 L 158 123 Z M 228 123 L 228 126 Q 231 127 232 125 L 228 123 Z M 248 124 L 248 125 L 248 124 Z M 253 124 Q 253 128 247 126 L 247 129 L 249 128 Q 255 127 257 130 Q 258 127 255 128 L 253 124 Z M 264 124 L 264 125 L 264 124 Z M 146 126 L 145 128 L 146 128 L 146 126 Z M 157 126 L 157 127 L 157 126 Z M 163 127 L 163 128 L 163 127 Z M 138 128 L 138 129 L 138 128 Z M 151 128 L 150 130 L 151 130 L 151 128 Z M 156 128 L 156 129 L 156 128 Z M 162 129 L 162 130 L 162 129 Z M 147 130 L 147 131 L 147 130 Z M 258 130 L 258 131 L 259 131 L 258 130 Z M 142 131 Q 140 134 143 133 L 142 131 Z M 261 131 L 261 132 L 261 131 Z M 262 132 L 262 133 L 263 133 L 262 132 Z M 154 133 L 153 135 L 154 135 L 154 133 Z M 264 133 L 264 134 L 264 133 Z M 144 134 L 144 135 L 144 134 Z M 151 134 L 150 136 L 151 136 L 151 134 Z M 230 134 L 230 135 L 230 134 Z M 265 134 L 265 135 L 265 134 Z M 145 135 L 144 137 L 145 137 L 145 135 Z M 164 135 L 164 136 L 164 135 Z M 266 135 L 266 136 L 267 136 L 266 135 Z M 267 136 L 271 142 L 270 144 L 274 144 L 273 141 L 267 136 Z M 272 136 L 272 137 L 272 136 Z M 140 137 L 146 143 L 146 142 L 140 137 Z M 225 137 L 225 138 L 225 137 Z M 273 137 L 273 138 L 273 137 Z M 224 138 L 224 139 L 224 138 Z M 277 138 L 279 140 L 282 140 L 277 138 Z M 147 139 L 147 140 L 147 139 Z M 154 139 L 152 141 L 154 141 L 154 139 Z M 253 139 L 253 140 L 253 139 Z M 237 140 L 237 141 L 237 140 Z M 249 140 L 249 141 L 249 140 Z M 134 141 L 134 142 L 134 141 Z M 263 141 L 263 142 L 263 141 Z M 275 141 L 275 142 L 275 141 Z M 136 142 L 136 143 L 136 142 Z M 257 142 L 255 143 L 256 145 L 258 144 L 257 142 Z M 128 143 L 126 146 L 129 144 L 128 143 Z M 268 143 L 268 144 L 268 143 Z M 294 143 L 294 144 L 295 144 L 294 143 Z M 138 144 L 138 145 L 139 145 L 138 144 Z M 151 144 L 151 145 L 151 144 Z M 238 144 Q 235 156 229 165 L 230 166 L 233 160 L 238 155 L 240 155 L 239 153 Q 238 149 241 150 L 241 147 L 239 148 L 238 144 Z M 250 144 L 249 147 Q 253 148 252 145 L 250 144 Z M 261 144 L 259 146 Q 258 148 261 147 L 262 148 L 261 144 Z M 297 144 L 297 145 L 297 144 Z M 140 145 L 140 146 L 140 145 Z M 245 145 L 245 148 L 246 148 Q 247 144 245 145 Z M 298 145 L 299 147 L 302 147 L 298 145 Z M 269 146 L 268 148 L 269 148 L 269 146 Z M 169 148 L 169 149 L 171 149 L 169 148 Z M 174 148 L 171 149 Q 170 152 174 151 Q 177 150 174 148 Z M 253 148 L 254 151 L 254 149 L 256 149 L 253 148 Z M 143 150 L 142 152 L 143 152 L 143 150 Z M 149 150 L 148 153 L 149 153 L 149 150 Z M 249 150 L 249 151 L 250 151 L 249 150 Z M 175 151 L 175 152 L 175 151 Z M 142 152 L 142 153 L 142 152 Z M 245 152 L 245 153 L 245 152 Z M 249 152 L 249 153 L 249 152 Z M 260 152 L 259 154 L 260 154 L 260 152 Z M 250 153 L 250 154 L 250 153 Z M 131 156 L 131 157 L 132 157 L 131 156 Z M 147 156 L 146 158 L 147 158 L 147 156 Z M 157 157 L 157 158 L 157 157 Z M 146 158 L 145 161 L 146 161 L 146 158 Z M 156 160 L 156 161 L 156 160 Z M 159 160 L 159 161 L 159 160 Z M 157 161 L 157 164 Q 156 166 159 165 L 160 166 L 157 161 Z M 162 162 L 162 163 L 163 163 L 162 162 Z M 145 164 L 145 165 L 145 164 Z M 120 166 L 120 167 L 120 166 Z M 118 168 L 117 171 L 118 172 L 120 169 L 118 168 Z M 94 175 L 94 176 L 94 175 Z M 91 176 L 91 177 L 93 177 L 91 176 Z M 95 177 L 86 185 L 88 195 L 91 201 L 92 210 L 97 219 L 100 228 L 100 216 L 101 215 L 101 199 L 102 198 L 101 180 L 100 179 Q 101 176 95 177 Z M 87 178 L 87 180 L 89 179 L 87 178 Z M 154 184 L 154 185 L 154 184 Z M 312 189 L 312 190 L 312 189 Z M 238 195 L 238 196 L 238 195 Z M 237 197 L 237 198 L 237 197 Z M 185 198 L 185 199 L 185 198 Z M 230 199 L 230 200 L 230 199 Z M 232 199 L 230 201 L 231 203 L 232 201 L 232 199 Z M 160 201 L 159 204 L 161 205 L 160 201 Z M 240 201 L 240 202 L 240 201 Z M 262 201 L 253 206 Q 261 205 264 207 L 266 203 L 262 201 Z M 239 202 L 239 203 L 239 202 Z M 230 203 L 230 204 L 230 203 Z M 238 203 L 238 204 L 238 203 Z M 246 203 L 243 207 L 246 205 L 246 203 Z M 237 205 L 237 206 L 237 205 Z M 236 206 L 236 207 L 236 206 Z M 235 207 L 235 208 L 235 207 Z M 265 207 L 266 209 Q 267 206 265 207 Z M 242 208 L 242 209 L 242 208 Z M 257 208 L 257 209 L 258 209 L 257 208 Z M 222 209 L 223 211 Q 224 208 222 209 Z M 234 209 L 234 210 L 234 209 Z M 241 209 L 239 212 L 241 211 L 241 209 Z M 252 209 L 252 210 L 253 210 L 252 209 Z M 263 209 L 263 210 L 264 210 L 263 209 Z M 226 210 L 226 211 L 226 210 Z M 229 210 L 228 212 L 229 212 L 229 210 Z M 260 210 Q 257 213 252 213 L 257 213 L 260 215 Q 259 212 262 211 L 260 210 Z M 267 210 L 265 216 L 262 218 L 266 220 L 267 214 L 267 210 Z M 232 211 L 232 212 L 233 212 L 232 211 Z M 230 212 L 230 213 L 230 212 Z M 133 213 L 131 214 L 125 220 L 119 231 L 131 225 L 138 224 L 137 226 L 144 228 L 143 227 Q 144 224 141 225 L 137 216 L 133 213 Z M 231 213 L 231 214 L 231 213 Z M 249 213 L 249 214 L 251 214 L 249 213 Z M 247 214 L 247 215 L 247 214 Z M 261 215 L 261 216 L 261 215 Z M 227 216 L 227 217 L 228 217 L 227 216 Z M 230 218 L 230 219 L 230 218 Z M 267 220 L 266 222 L 267 222 L 267 220 Z M 265 221 L 265 222 L 265 221 Z M 232 222 L 232 223 L 232 222 Z M 230 223 L 230 224 L 230 223 Z M 165 224 L 165 225 L 165 224 Z M 219 224 L 219 225 L 219 224 Z M 235 224 L 235 225 L 235 224 Z M 114 225 L 113 227 L 114 227 L 114 225 Z M 218 225 L 218 226 L 218 225 Z M 227 225 L 227 226 L 228 226 L 227 225 Z M 236 225 L 235 227 L 236 227 L 236 225 Z M 217 226 L 217 227 L 217 226 Z M 224 226 L 224 227 L 224 226 Z M 113 227 L 112 229 L 113 229 L 113 227 Z M 147 227 Q 145 230 148 229 L 147 227 Z M 281 228 L 280 230 L 281 230 L 281 228 Z M 112 229 L 112 230 L 112 229 Z M 146 229 L 146 230 L 146 229 Z M 117 231 L 117 233 L 119 232 L 117 231 Z M 279 232 L 279 237 L 280 237 L 279 232 Z M 117 233 L 117 234 L 117 233 Z M 146 235 L 146 236 L 146 235 Z M 92 236 L 92 237 L 92 236 Z M 93 237 L 93 238 L 94 238 L 93 237 Z M 236 237 L 236 238 L 236 237 Z M 281 237 L 279 239 L 282 244 L 284 245 L 281 237 Z M 296 237 L 295 239 L 296 239 L 296 237 Z M 111 238 L 111 239 L 111 238 Z M 288 238 L 289 242 L 290 242 Q 291 237 288 238 Z M 102 239 L 99 240 L 99 241 L 109 240 L 102 239 Z M 150 239 L 151 241 L 152 241 L 150 239 Z M 236 239 L 236 240 L 236 239 Z M 111 240 L 109 243 L 114 241 L 111 240 Z M 237 240 L 236 242 L 237 242 L 237 240 Z M 295 240 L 295 243 L 296 243 Q 297 239 295 240 Z M 302 240 L 301 246 L 302 246 L 302 240 Z M 98 241 L 98 242 L 98 241 Z M 95 242 L 95 243 L 95 242 Z M 291 242 L 290 246 L 291 246 L 291 242 Z M 94 243 L 94 244 L 94 243 Z M 107 243 L 107 244 L 107 243 Z M 91 244 L 91 245 L 92 245 L 91 244 Z "/><path fill="#000000"  stroke="none" opacity="1" d="M 196.5 76 L 198 76.5 L 195.5 78 L 196.5 76 Z "/><path fill="#000000"  stroke="none" opacity="1" d="M 224.5 78 L 225 79.5 L 223 80.5 L 224.5 78 Z "/><path fill="#000000"  stroke="none" opacity="1" d="M 192.5 79 L 191.5 81 L 192.5 79 Z "/><path fill="#000000"  stroke="none" opacity="1" d="M 219.5 79 L 220 81 L 218 80.5 L 219.5 79 Z "/><path fill="#000000"  stroke="none" opacity="1" d="M 166.5 80 L 170 81.5 L 163.5 92 L 161 84.5 L 166.5 80 Z "/><path fill="#000000"  stroke="none" opacity="1" d="M 186.5 81 L 188.5 81 L 190 81.5 L 183.5 86 L 183 84.5 L 186.5 81 Z "/><path fill="#000000"  stroke="none" opacity="1" d="M 217.5 84 L 218 86.5 L 217 86.5 L 217.5 84 Z "/><path fill="#000000"  stroke="none" opacity="1" d="M 222.5 84 L 222.5 85 L 222.5 84 Z "/><path fill="#000000"  stroke="none" opacity="1" d="M 278.5 84 L 284 91.5 L 284 99.5 L 283 99.5 L 282 91.5 L 278.5 84 Z "/><path fill="#000000"  stroke="none" opacity="1" d="M 281.5 85 L 281.5 86 L 281.5 85 Z "/><path fill="#000000"  stroke="none" opacity="1" d="M 221.5 87 L 221.5 88 L 221.5 87 Z "/><path fill="#000000"  stroke="none" opacity="1" d="M 230.5 88 L 232 91.5 L 231 91.5 L 230.5 88 Z "/><path fill="#000000"  stroke="none" opacity="1" d="M 218.5 90 L 218 91.5 L 217.5 94 L 217 91.5 L 218.5 90 Z "/><path fill="#000000"  stroke="none" opacity="1" d="M 234.5 90 L 234.5 91 L 234.5 90 Z "/><path fill="#000000"  stroke="none" opacity="1" d="M 176.5 91 Q 179.3 92.3 177 93.5 L 173 99.5 L 168.5 112 L 168 103.5 L 170 99.5 L 171 96 Q 173.7 97.1 173 94.5 L 176.5 91 Z "/><path fill="#000000"  stroke="none" opacity="1" d="M 222.5 92 L 223 93.5 L 222 93.5 L 222.5 92 Z "/><path fill="#000000"  stroke="none" opacity="1" d="M 235.5 92 Q 237.8 91.3 237 93.5 L 235.5 92 Z "/><path fill="#000000"  stroke="none" opacity="1" d="M 343.5 92 L 345 92.5 L 343.5 93 L 343.5 92 Z "/><path fill="#000000"  stroke="none" opacity="1" d="M 339.5 94 L 341 94.5 L 338.5 96 L 339.5 94 Z "/><path fill="#000000"  stroke="none" opacity="1" d="M 335.5 96 L 337 96.5 Q 331.3 101.8 320.5 102 L 318.5 102 L 315.5 101 Q 311.7 105.7 301.5 104 L 300 101 L 308.5 99 L 317.5 99 L 320.5 100 Q 331.2 101.2 335.5 96 Z "/><path fill="#000000"  stroke="none" opacity="1" d="M 125.5 98 L 125.5 99 L 125.5 98 Z "/><path fill="#000000"  stroke="none" opacity="1" d="M 222.5 103 L 222.5 104 L 222.5 103 Z "/><path fill="#000000"  stroke="none" opacity="1" d="M 119.5 104 L 119 105.5 L 118.5 107 L 118 105.5 L 119.5 104 Z "/><path fill="#000000"  stroke="none" opacity="1" d="M 223.5 106 L 224 107.5 L 223 107.5 L 223.5 106 Z "/><path fill="#000000"  stroke="none" opacity="1" d="M 147.5 108 L 149 108.5 L 147.5 109 L 147.5 108 Z "/><path fill="#000000"  stroke="none" opacity="1" d="M 191.5 108 L 191.5 109 L 191.5 108 Z "/><path fill="#000000"  stroke="none" opacity="1" d="M 218.5 109 L 218.5 110 L 218.5 109 Z "/><path fill="#000000"  stroke="none" opacity="1" d="M 214.5 110 L 214.5 111 L 214.5 110 Z "/><path fill="#000000"  stroke="none" opacity="1" d="M 124.5 111 L 126 111.5 L 124.5 112 L 124.5 111 Z "/><path fill="#000000"  stroke="none" opacity="1" d="M 212.5 111 L 212.5 112 L 212.5 111 Z "/><path fill="#000000"  stroke="none" opacity="1" d="M 125 113 Q 127.7 111.9 127 114.5 L 128 114.5 L 128.5 113 L 129 114.5 L 128 116.5 L 131 120.5 L 129.5 121 L 125 113 Z "/><path fill="#000000"  stroke="none" opacity="1" d="M 200.5 117 L 204 118.5 Q 203.3 120.8 205.5 120 Q 208 121.2 207 125 L 204 125.5 L 206 127.5 Q 202.5 129 205 130.5 L 202.5 140 L 202 136.5 L 202 134.5 L 203 125.5 L 201.5 123 L 198 125.5 Q 198.8 127.8 196.5 127 L 191 134 L 194 135.5 Q 193.3 137.8 195.5 137 L 201 141.5 L 204 147 Q 206.7 145.9 206 148.5 L 204.5 148 L 202 146.5 L 201.5 145 L 199.5 145 L 198 144.5 L 198.5 143 L 196 142.5 L 197 139 L 193.5 138 Q 192.3 140.3 191 137.5 L 193 137 Q 194.3 134 190.5 135 L 186 133.5 L 190 132.5 Q 187.5 131 191 129.5 L 195.5 120 L 200.5 117 Z M 203 122 L 203 123 L 203 122 Z "/><path fill="#000000"  stroke="none" opacity="1" d="M 114.5 126 L 114.5 127 L 114.5 126 Z "/><path fill="#000000"  stroke="none" opacity="1" d="M 207.5 149 L 207.5 150 L 207.5 149 Z "/><path fill="#000000"  stroke="none" opacity="1" d="M 201.5 150 Q 203.8 149.3 203 151.5 L 201 153.5 L 199 165.5 L 196.5 170 L 196 168.5 L 199 161.5 L 200 151.5 L 201.5 150 Z "/><path fill="#000000"  stroke="none" opacity="1" d="M 211.5 152 L 212.5 154 L 211.5 152 Z "/><path fill="#000000"  stroke="none" opacity="1" d="M 213.5 156 Q 216.5 156.5 216 160.5 L 211 172.5 L 208.5 175 L 209 173.5 L 211 159.5 L 213.5 156 Z "/><path fill="#000000"  stroke="none" opacity="1" d="M 89.5 157 L 89.5 158 L 89.5 157 Z "/><path fill="#000000"  stroke="none" opacity="1" d="M 127.5 157 L 127.5 158 L 127.5 157 Z "/><path fill="#000000"  stroke="none" opacity="1" d="M 120.5 161 L 121 162.5 L 120 162.5 L 120.5 161 Z "/><path fill="#000000"  stroke="none" opacity="1" d="M 271.5 169 L 274 180.5 Q 271.5 182 273 187.5 L 273 189.5 L 272.5 195 L 271 189.5 L 270 171.5 L 271.5 169 Z "/><path fill="#000000"  stroke="none" opacity="1" d="M 92.5 173 L 95 173 Q 93.5 176.8 96.5 176 L 98.5 175 L 104 178 L 107 187.5 L 108 208 L 106 208.5 L 108 209 L 107 223.5 L 108 223.5 L 110 214.5 Q 114.3 211.6 115 206 L 118 204.5 Q 117.3 201.9 120 203 L 120 200.5 L 121 196.5 L 120 193.5 L 131.5 178 L 132 179.5 L 122 198.5 L 122 202.5 L 114 224.5 L 116 223.5 Q 119 216 125.5 212 L 133.5 211 L 137.5 212 L 147 219 L 151 228.5 L 151 230.5 L 150.5 233 L 146 230 L 149.5 235 L 154.5 237 L 154.5 235 L 160.5 244 Q 162.8 243.3 162 245.5 L 163 248 Q 165.7 246.9 165 249.5 L 171 258.5 L 171 267.5 L 176 281.5 L 167 304.5 L 168 307.5 L 169 310.5 L 167 311 L 166 307 Q 163.3 308.1 164 305.5 L 158 301 L 156 287.5 L 157 284 L 155 283.5 L 157 283 L 155.5 280 L 154 279.5 L 155 276 Q 151 277.4 153 270.5 L 152 269.5 L 152 261.5 L 155 256.5 L 154.5 255 Q 156.8 254.3 156 256.5 L 154 262.5 L 155 262.5 L 155.5 261 L 156.5 264 L 157 262 L 159 261.5 L 157 260.5 L 158 259.5 L 158 251.5 L 157 251.5 Q 158.1 255.7 154 254 L 155.5 249 L 157.5 250 L 157.5 248 L 163 251.5 L 162 255.5 L 162.5 257 Q 159.9 256.2 161 259.5 L 159 270.5 L 159.5 272 L 157 271 L 158 274.5 L 157 277.5 Q 160.5 279 158 280.5 L 166.5 299 Q 168.8 298.3 168 294.5 L 168 292.5 L 169.5 289 Q 171.8 289.8 171 287.5 L 171 285.5 L 172 279 Q 174.7 280.1 174 277.5 L 168 266.5 L 166 259.5 L 166 253.5 L 162.5 248 L 154 242.5 Q 154.7 239.9 152 241 L 151 247.5 L 153 248 L 151.5 256 L 150 252.5 L 144 235.5 L 144.5 234 Q 142.3 229.7 134.5 231 L 120 237.5 L 131.5 238 L 137 240 L 136 242.5 Q 140.7 242.3 142 245.5 Q 141 249.3 144 248 L 144 251.5 Q 151 260.8 152 275 Q 149 276.3 150 272.5 L 147.5 268 L 146.5 271 Q 145.3 268.8 144 271.5 L 149 273 L 147.5 276 L 139 281 L 140 278.5 L 139.5 277 L 141 277.5 L 147 265.5 L 138.5 251 L 137 254.5 L 137.5 256 L 134 251.5 L 135 251.5 Q 134.3 254.1 137 253 L 138 249.5 L 133.5 244 L 118.5 242 L 119.5 244 Q 128.5 246.4 133 253.5 L 136 257.5 Q 134.8 262.2 137 263.5 L 138 292 L 140 292.5 L 138.5 297 L 135 284.5 L 135 282.5 L 134 274.5 L 129 261.5 L 129 258.5 L 123.5 251 L 111.5 244 L 114 247.5 L 126 269.5 L 126 281.5 L 125 282.5 L 124.5 303 L 119.5 280 L 116 281 Q 117.1 278.3 114.5 279 L 106.5 273 L 104.5 273 L 99.5 274 Q 98.3 271.8 97 274.5 Q 93.8 286.3 87.5 295 L 86 295.5 L 87 297.5 L 84.5 311 L 83.5 307 Q 80.3 311.9 82 321.5 L 78.5 330 L 78 327.5 L 78 321.5 L 81 306.5 L 85 299.5 L 85 296.5 L 84 295.5 L 84 284.5 L 88 272 L 91.5 273 L 93 270 Q 89.2 271 88 268.5 L 87 265.5 L 88 263.5 L 86 263.5 L 85.5 259 Q 79.9 266.4 78 277.5 L 80 277.5 Q 81.8 284.7 78 286.5 L 79 291.5 L 78 292.5 L 78 303.5 L 76.5 307 L 75 294.5 L 76 290.5 L 75 285.5 L 76 280.5 L 75 278.5 L 80 265.5 L 80 261.5 L 78 262.5 L 76 267 L 71 270.5 L 59 286.5 L 50.5 306 L 50 302.5 L 55 290.5 L 55 287.5 L 59 281.5 L 61 271.5 L 68.5 262 L 72 259.5 L 70.5 259 L 63 263.5 L 61 266.5 L 52.5 276 Q 49.5 275.1 51 279.5 L 48.5 286 L 48 278.5 L 50 267.5 L 56.5 259 L 80 251.5 L 61.5 251 L 56.5 252 L 40.5 261 L 30 270.5 L 27.5 275 L 27 273.5 L 36.5 259 L 39 257.5 Q 38.3 255.3 40.5 256 L 54.5 247 L 75.5 243 L 90 242.5 L 76 234.5 Q 78.8 232.3 84.5 233 L 90.5 236 L 89 233.5 L 84 221.5 L 79.5 216 Q 77.2 212.3 70.5 213 L 69.5 214 L 51.5 214 L 37 211.5 L 47.5 211 L 51.5 212 L 53.5 212 L 75.5 212 L 85.5 215 L 90 219.5 L 94.5 229 L 95 226.5 L 83 193.5 L 83 190 L 80 191.5 L 76.5 197 L 75 194.5 L 79 184.5 L 75.5 182 L 69 187.5 L 70 185 Q 72.7 186.1 72 183.5 Q 74 180 80.5 181 L 81.5 182 L 88.5 175 L 92.5 173 Z M 43 243 L 43 244 L 43 243 Z M 89 245 L 88 247 L 90 246 L 89 245 Z M 87 247 L 87 248 L 87 247 Z M 86 248 L 86 249 L 86 248 Z M 110 248 L 110 249 L 110 248 Z M 51 250 L 51 252 L 51 253 L 54 252 Q 55 249 51 250 Z M 50 251 L 50 252 L 50 251 Z M 83 251 L 83 252 L 83 251 Z M 112 251 L 112 252 L 112 251 Z M 82 252 L 82 253 L 82 252 Z M 100 252 L 100 253 L 100 252 Z M 50 253 L 50 254 L 50 253 Z M 81 253 L 81 254 L 81 253 Z M 101 253 L 101 254 L 101 253 Z M 97 254 L 96 256 L 97 256 L 97 254 Z M 104 254 L 104 257 L 107 255 L 104 254 Z M 100 256 Q 98 259 101 258 L 100 256 Z M 74 257 L 73 259 L 75 258 L 74 257 Z M 107 257 L 107 258 L 107 257 Z M 108 258 L 108 259 L 108 258 Z M 107 259 L 107 260 L 107 259 Z M 98 260 L 98 261 L 98 260 Z M 116 260 L 116 261 L 116 260 Z M 118 260 L 117 262 L 118 262 L 118 260 Z M 97 261 L 97 262 L 97 261 Z M 102 261 L 100 263 L 103 263 L 102 261 Z M 107 262 L 106 265 L 107 265 L 107 262 Z M 119 262 L 119 263 L 119 262 Z M 116 263 L 112 268 L 113 271 L 112 274 L 119 280 L 118 271 L 118 269 L 116 263 Z M 154 264 L 154 265 L 154 264 Z M 120 265 L 120 266 L 120 265 Z M 155 265 L 155 266 L 155 265 Z M 158 266 L 157 268 L 158 268 L 158 266 Z M 105 267 L 105 268 L 105 267 Z M 111 268 L 111 269 L 111 268 Z M 109 270 L 109 271 L 109 270 Z M 94 271 L 96 274 L 97 272 L 94 271 Z M 106 271 L 106 272 L 108 272 L 106 271 Z M 103 272 L 103 273 L 104 273 L 103 272 Z M 144 276 L 144 277 L 144 276 Z M 78 278 L 78 279 L 78 278 Z M 91 281 L 90 283 L 91 283 L 91 281 Z M 87 289 L 86 292 L 88 292 L 89 290 L 87 289 Z M 153 301 L 153 302 L 153 301 Z M 85 303 L 85 304 L 85 303 Z M 153 306 L 152 308 L 153 308 L 153 306 Z M 159 310 L 159 311 L 160 311 L 159 310 Z M 168 319 L 166 321 L 168 321 L 168 319 Z "/><path fill="#000000"  stroke="none" opacity="1" d="M 287.5 175 L 290 183.5 L 290 185.5 L 289 189.5 L 290 192.5 L 289.5 199 L 286 187.5 L 286 180.5 L 287.5 175 Z "/><path fill="#000000"  stroke="none" opacity="1" d="M 68.5 181 L 69 182.5 L 66 184.5 L 68.5 181 Z "/><path fill="#000000"  stroke="none" opacity="1" d="M 251.5 182 L 253 182.5 L 251 183 L 251 185.5 L 245 191.5 L 240 200.5 L 244 197.5 L 249.5 191 L 257.5 185 L 251 192.5 L 250 194.5 L 251 196.5 L 246 203 L 253.5 200 L 257.5 201 L 263.5 198 Q 269 201 268 209 L 271 210.5 L 272 214.5 L 268 222.5 Q 268.3 236.8 263.5 246 L 263 241.5 L 264 240.5 L 264 229.5 L 263 229.5 L 259 238 Q 256 239.3 257 235.5 L 262 224.5 L 259.5 223 L 249.5 232 L 250 230.5 L 256 219 L 249.5 217 L 241.5 221 L 237 221.5 L 243 224 L 249 233.5 L 249 247.5 L 247 253.5 L 247 255.5 Q 248 259.3 245 258 L 245 240.5 L 242 232.5 L 238 227 Q 235.3 225.9 236 228.5 L 238 231.5 L 238 244.5 L 237 246.5 L 238 249.5 L 231 263.5 L 230 269 L 228 268.5 L 228 261.5 L 233 240.5 Q 230.5 239 232 233.5 L 228.5 226 L 222 252.5 L 222 254.5 L 223 256.5 L 221 256.5 L 221 263.5 L 219 265.5 L 218 271.5 Q 221.3 273 220 278 L 216.5 280 L 217 278.5 Q 217.7 272.8 215 270.5 L 215 268.5 L 216 264.5 L 216 262.5 L 215 260.5 L 217 249.5 L 219.5 244 L 221.5 247 L 222 245.5 L 221 243 L 219 242.5 L 223 228.5 L 219 231.5 L 214 242.5 L 212.5 266 L 208.5 258 L 208 259.5 L 208.5 261 L 204.5 259 L 198.5 262 Q 197.8 259.3 193.5 260 L 193.5 262 L 187 259.5 L 190.5 257 L 200.5 255 L 203.5 256 L 205.5 255 L 208.5 257 L 209 255.5 L 208 254.5 L 208 246.5 L 212 238.5 L 213 232 L 215 231.5 L 213 230.5 L 215.5 227 L 210 231.5 L 201.5 241 L 193.5 248 L 194 246.5 L 205 229.5 L 211.5 223 L 221.5 217 L 225 217 L 224.5 215 L 213.5 215 L 212.5 216 L 206 216 Q 204.5 212.3 207.5 213 L 211.5 211 L 221 210.5 L 216 207.5 L 214 202.5 L 216 202.5 L 216.5 201 L 221.5 207 L 222 205.5 L 220 202.5 Q 221.2 197.8 219 196.5 L 221.5 198 Q 223.8 197.3 223 199.5 L 225.5 208 L 226 200.5 L 226 198.5 L 227 194.5 L 226 191.5 L 227.5 186 L 229 193.5 L 229 195.5 L 229.5 197 L 231.5 187 Q 233.8 187.8 233 191.5 L 232 194.5 L 234 193.5 L 236.5 187 L 238 190.5 L 237 192.5 L 238.5 195 L 251.5 182 Z M 255 256 L 254 258 L 255 258 L 255 256 Z M 208 257 L 208 258 L 208 257 Z M 253 258 L 253 259 L 253 258 Z M 252 259 L 252 260 L 252 259 Z M 250 261 L 250 262 L 250 261 Z M 249 262 L 249 263 L 249 262 Z M 246 263 L 246 264 L 247 264 L 246 263 Z M 245 264 L 245 265 L 245 264 Z M 191 265 L 191 266 L 191 265 Z M 244 265 L 244 266 L 244 265 Z M 192 266 L 192 267 L 192 266 Z M 242 266 L 242 267 L 242 266 Z M 193 267 L 193 268 L 193 267 Z "/><path fill="#000000"  stroke="none" opacity="1" d="M 319.5 186 L 322 187.5 L 319 189.5 L 322.5 190 L 324 189.5 Q 320 191.5 324 193.5 L 325 195.5 L 320.5 192 L 316.5 190 L 312.5 190 Q 307.4 194.9 306 203.5 L 302 239.5 L 303 239.5 L 304 230.5 L 308 221.5 L 308 218.5 L 315.5 208 Q 321.3 207.2 323 210.5 L 325 214.5 L 323 215 L 319.5 210 Q 316.2 208.9 317 211.5 L 312.5 224 L 311.5 219 L 311 223 Q 308 221.8 309 225.5 L 308 228.5 L 310 228.5 L 311 232.5 L 305 247.5 L 307 246.5 L 311.5 238 Q 313.8 238.8 313 236.5 L 319.5 228 L 326 228.5 L 322 230 L 313.5 243 L 314 241.5 L 313.5 239 L 309 245.5 L 310.5 246 L 313 244.5 Q 311.6 251.1 307 254.5 L 308.5 255 L 320.5 246 Q 323.5 243 330.5 244 L 334 245.5 L 321.5 251 L 314.5 256 L 311.5 256 L 305.5 259 L 303 261.5 L 304.5 262 Q 307.6 256.6 317.5 258 L 320.5 260 L 322.5 259 L 327 261.5 L 325 262.5 L 327 263.5 L 323.5 264 Q 318.9 260.9 311 262 Q 309.9 264.7 312.5 264 L 314.5 264 L 318.5 264 L 328 267 Q 329.1 269.7 326.5 269 L 326.5 270 L 330 272.5 Q 329.2 275.1 332.5 274 L 334 274.5 Q 333.2 271.9 336.5 273 L 340 272 L 340 286.5 L 349 301.5 L 347 300.5 L 338 284 L 335 282.5 L 326.5 272 L 315.5 268 L 308.5 268 L 309.5 270 L 318 273 L 318.5 277 Q 320.2 273.2 322 276.5 L 321 278.5 L 323 283 L 328 284 Q 327 281 330 282 L 331 294.5 L 330 295.5 L 329.5 308 L 328 307.5 L 327.5 309 L 327 306.5 L 329 300.5 L 327 300 L 326.5 305 L 324 296.5 L 324 289.5 L 324 287.5 L 315.5 277 L 302.5 268 L 302 269.5 L 304 273.5 L 301 275.5 L 302 273 Q 299 271.8 300 275.5 L 299.5 277 L 302.5 278 L 304 277.5 L 302.5 282 L 300.5 279 Q 298.3 278.3 299 280.5 L 297.5 285 L 296.5 272 L 287 287.5 L 288 289.5 L 277 308.5 L 270.5 325 L 270 323.5 L 273 316.5 L 273 314.5 L 275 306.5 L 277 304.5 L 276 302.5 L 277 297.5 L 277 295.5 L 278 288 L 281.5 289 L 285 286.5 L 288 279 Q 284.2 278.3 283 281.5 L 282.5 283 L 282 281.5 L 289 275.5 Q 290.1 268.1 295.5 265 L 298.5 264 L 300.5 265 L 301.5 263 L 299 261.5 L 297.5 259 L 295.5 260 L 293 258.5 Q 293.8 260.8 291.5 260 L 292.5 262 L 296 262.5 L 292.5 265 L 283.5 267 L 273 274.5 L 266.5 283 Q 264.3 282.3 265 284.5 L 257.5 294 L 258 292.5 L 263 280.5 L 263 277.5 L 265 275.5 L 265 272 Q 267.7 270.9 267 273.5 L 268.5 273 L 274 270.5 L 270 270 L 270 267 L 273 267 Q 271.9 264.3 274.5 265 L 282 261.5 L 278.5 261 L 270.5 265 L 266.5 265 L 259 270.5 L 244.5 288 Q 241.9 287.2 243 290.5 Q 240.5 292 244 293.5 L 242.5 296 L 232.5 304 L 233 302.5 L 237 293.5 L 247 281.5 L 253 268.5 L 256.5 265 L 258.5 266 Q 261 261.7 268 263 Q 269.1 260.3 266.5 261 L 265.5 259 Q 269.3 256.3 277.5 258 L 280 256.5 Q 275.7 252.8 267.5 253 L 261.5 255 L 250.5 262 L 239.5 271 L 225.5 277 L 226.5 275 L 241 267.5 L 239 266.5 L 247 261 L 248.5 258 L 264.5 250 L 273.5 249 L 282 253 L 269 229 L 272.5 230 L 271 227.5 Q 270.1 224.5 274.5 226 L 274.5 228 Q 277.1 227.2 276 230.5 L 278 231.5 Q 278.6 226.1 277 224 Q 279.7 222.9 279 225.5 Q 281 223.8 283 227.5 L 284 231.5 L 284 233.5 L 284.5 236 L 286 235.5 Q 285 239.3 288 238 L 288.5 224 L 289.5 227 L 290 221.5 L 289.5 220 L 292 224.5 L 294.5 237 L 296 234.5 L 297 221.5 L 299 218.5 L 299 214.5 Q 299.3 197.8 308.5 190 Q 310.2 187.2 315.5 188 L 319 189 L 319.5 186 Z M 285 245 L 284 247 L 285 247 L 285 245 Z M 292 246 L 291 249 L 292 249 L 292 246 Z M 297 246 L 296 254 L 297 254 L 297 246 Z M 301 246 L 300 250 L 301 250 L 301 246 Z M 286 247 L 286 248 L 286 247 Z M 287 248 L 287 249 L 287 248 Z M 305 248 L 304 250 L 305 250 L 305 248 Z M 288 249 L 288 250 L 288 249 Z M 293 249 L 293 250 L 293 249 Z M 322 249 L 322 250 L 322 249 Z M 300 250 L 299 253 L 300 253 L 300 250 Z M 304 250 L 304 251 L 304 250 Z M 320 250 L 320 251 L 321 251 L 320 250 Z M 289 251 L 288 254 L 290 255 L 289 251 Z M 303 251 L 302 253 L 303 253 L 303 251 Z M 317 252 L 317 253 L 317 252 Z M 283 253 L 284 255 Q 285 252 283 253 Z M 302 253 L 302 254 L 302 253 Z M 299 254 L 298 256 L 299 256 L 299 254 Z M 285 255 L 285 256 L 286 256 L 285 255 Z M 291 255 L 291 256 L 291 255 Z M 301 255 L 301 256 L 301 255 Z M 307 255 L 307 256 L 307 255 Z M 292 256 L 292 257 L 292 256 Z M 300 256 L 300 257 L 300 256 Z M 305 256 L 305 257 L 306 257 L 305 256 Z M 281 257 L 281 258 L 282 258 L 281 257 Z M 289 257 L 289 258 L 289 257 Z M 293 257 L 293 258 L 293 257 Z M 304 257 L 304 258 L 304 257 Z M 299 258 L 299 259 L 299 258 Z M 302 258 L 302 259 L 302 258 Z M 301 259 L 301 260 L 301 259 Z M 283 260 L 283 261 L 285 261 L 283 260 Z M 303 262 L 303 263 L 303 262 Z M 309 263 L 309 264 L 310 264 L 309 263 Z M 305 265 Q 303 268 306 267 L 305 265 Z M 302 266 L 302 267 L 302 266 Z M 308 267 L 308 268 L 308 267 Z M 289 278 L 289 279 L 290 279 L 289 278 Z M 313 287 L 313 288 L 313 287 Z M 284 288 L 284 290 L 286 289 L 284 288 Z M 305 289 L 304 291 L 305 291 L 305 289 Z M 284 290 L 284 291 L 284 290 Z M 329 296 L 329 297 L 329 296 Z M 228 305 L 228 306 L 228 305 Z M 229 306 L 229 307 L 229 306 Z M 230 307 L 230 308 L 231 308 L 230 307 Z M 243 313 L 243 315 L 243 316 L 245 315 Q 246 312 243 313 Z M 246 318 L 246 319 L 246 318 Z M 247 319 L 247 320 L 247 319 Z "/><path fill="#000000"  stroke="none" opacity="1" d="M 64.5 187 L 65 189.5 L 64 189.5 L 64.5 187 Z "/><path fill="#000000"  stroke="none" opacity="1" d="M 68.5 189 L 68.5 190 L 68.5 189 Z "/><path fill="#000000"  stroke="none" opacity="1" d="M 63.5 191 L 64 192.5 L 63 192.5 L 63.5 191 Z "/><path fill="#000000"  stroke="none" opacity="1" d="M 74.5 197 Q 77.3 198.3 75 199.5 L 72.5 207 L 72 203.5 L 74.5 197 Z "/><path fill="#000000"  stroke="none" opacity="1" d="M 326.5 197 L 326.5 198 L 326.5 197 Z "/><path fill="#000000"  stroke="none" opacity="1" d="M 327.5 199 L 327.5 200 L 327.5 199 Z "/><path fill="#000000"  stroke="none" opacity="1" d="M 213.5 200 L 213.5 201 L 213.5 200 Z "/><path fill="#000000"  stroke="none" opacity="1" d="M 187.5 201 L 188 202.5 L 187 202.5 L 187.5 201 Z "/><path fill="#000000"  stroke="none" opacity="1" d="M 282.5 202 Q 285.5 202.5 285 206.5 L 282 204.5 L 282.5 202 Z "/><path fill="#000000"  stroke="none" opacity="1" d="M 185.5 213 L 186 214.5 L 185 214.5 L 185.5 213 Z "/><path fill="#000000"  stroke="none" opacity="1" d="M 203.5 215 L 205 215.5 L 203.5 216 L 203.5 215 Z "/><path fill="#000000"  stroke="none" opacity="1" d="M 201.5 216 L 202 217.5 Q 199 220.5 199 226.5 L 189.5 245 L 189 242.5 L 193 226.5 L 201.5 216 Z "/><path fill="#000000"  stroke="none" opacity="1" d="M 324.5 216 L 326 219.5 L 325 219.5 L 324.5 216 Z "/><path fill="#000000"  stroke="none" opacity="1" d="M 288.5 217 L 288.5 218 L 288.5 217 Z "/><path fill="#000000"  stroke="none" opacity="1" d="M 182.5 220 L 183 221.5 L 182 221.5 L 182.5 220 Z "/><path fill="#000000"  stroke="none" opacity="1" d="M 326.5 221 Q 329.1 220.2 328 223.5 L 329 225.5 L 328 225.5 L 326.5 221 Z "/><path fill="#000000"  stroke="none" opacity="1" d="M 185.5 222 L 186 224.5 L 184 225.5 L 185.5 222 Z "/><path fill="#000000"  stroke="none" opacity="1" d="M 176.5 223 L 176.5 224 L 176.5 223 Z "/><path fill="#000000"  stroke="none" opacity="1" d="M 175.5 225 L 175.5 226 L 175.5 225 Z "/><path fill="#000000"  stroke="none" opacity="1" d="M 338.5 225 Q 344.4 223.3 343 227 L 338.5 226 L 338.5 225 Z "/><path fill="#000000"  stroke="none" opacity="1" d="M 181.5 228 L 182 229.5 L 181 229.5 L 181.5 228 Z "/><path fill="#000000"  stroke="none" opacity="1" d="M 329.5 228 L 333 235.5 L 333 239.5 L 332 239.5 L 329.5 228 Z "/><path fill="#000000"  stroke="none" opacity="1" d="M 152.5 232 L 152.5 233 L 152.5 232 Z "/><path fill="#000000"  stroke="none" opacity="1" d="M 67.5 233 L 67.5 234 L 67.5 233 Z "/><path fill="#000000"  stroke="none" opacity="1" d="M 56.5 234 L 62 234.5 L 45 242.5 L 45.5 244 L 32.5 249 L 25.5 254 L 27.5 251 L 44.5 239 L 56.5 234 Z "/><path fill="#000000"  stroke="none" opacity="1" d="M 161.5 235 L 162 237.5 L 161 237.5 L 161.5 235 Z "/><path fill="#000000"  stroke="none" opacity="1" d="M 218.5 235 L 218.5 236 L 218.5 235 Z "/><path fill="#000000"  stroke="none" opacity="1" d="M 169.5 238 L 170 239.5 L 169 239.5 L 169.5 238 Z "/><path fill="#000000"  stroke="none" opacity="1" d="M 256 239 L 258 239.5 L 256 240.5 L 256 239 Z "/><path fill="#000000"  stroke="none" opacity="1" d="M 51.5 241 L 50.5 243 L 47 242.5 L 51.5 241 Z "/><path fill="#000000"  stroke="none" opacity="1" d="M 207.5 242 L 207.5 243 L 207.5 242 Z "/><path fill="#000000"  stroke="none" opacity="1" d="M 336.5 243 L 342 243.5 L 341.5 245 L 343.5 244 L 346.5 245 L 353 247.5 L 351.5 247 L 340.5 246 Q 336.5 245.5 336.5 243 Z "/><path fill="#000000"  stroke="none" opacity="1" d="M 178.5 247 L 179 248.5 L 178 248.5 L 178.5 247 Z "/><path fill="#000000"  stroke="none" opacity="1" d="M 182.5 249 L 184 250.5 L 183 253.5 Q 183.5 257.5 180.5 258 Q 177.1 258.9 179 253.5 L 180 250 L 182.5 249 Z "/><path fill="#000000"  stroke="none" opacity="1" d="M 125.5 255 L 124.5 257 L 125.5 255 Z "/><path fill="#000000"  stroke="none" opacity="1" d="M 125.5 258 Q 127.8 257.3 127 259.5 L 125.5 258 Z "/><path fill="#000000"  stroke="none" opacity="1" d="M 176.5 258 L 176.5 259 L 176.5 258 Z "/><path fill="#000000"  stroke="none" opacity="1" d="M 184.5 258 L 184.5 259 L 184.5 258 Z "/><path fill="#000000"  stroke="none" opacity="1" d="M 180.5 260 L 191.5 264 L 198 270.5 L 196.5 271 L 194.5 269 Q 193 272.5 191.5 270 Q 189.3 270.8 190 268.5 L 188.5 269 Q 185.9 269.7 187 267 L 185 267 L 185 264.5 L 184 264.5 L 183.5 266 Q 182.4 263.3 179 264 L 178 261.5 L 180.5 260 Z "/><path fill="#000000"  stroke="none" opacity="1" d="M 123.5 261 L 123.5 262 L 123.5 261 Z "/><path fill="#000000"  stroke="none" opacity="1" d="M 125.5 261 L 125.5 262 L 125.5 261 Z "/><path fill="#000000"  stroke="none" opacity="1" d="M 173.5 261 L 175 261.5 L 173.5 262 L 173.5 261 Z "/><path fill="#000000"  stroke="none" opacity="1" d="M 328.5 263 L 332.5 264 L 335.5 263 L 352 269 Q 350.9 271.7 353.5 271 L 360 275.5 L 358.5 275 L 348.5 269 L 341.5 267 L 339.5 267 L 328 265 L 328.5 263 Z "/><path fill="#000000"  stroke="none" opacity="1" d="M 162.5 264 L 166 265 Q 167.1 267.7 164.5 267 L 165 268.5 L 165 270 L 161 270 Q 159.8 265.4 162.5 264 Z M 163 268 L 163 269 L 163 268 Z "/><path fill="#000000"  stroke="none" opacity="1" d="M 174.5 264 L 177 264.5 L 178 270.5 L 179.5 272 Q 182.5 271.1 181 275.5 L 185 279.5 L 187 288 L 184.5 287 L 182 288.5 Q 182.7 282.8 180 280.5 L 180 278.5 Q 181.1 274.3 177 276 L 177 272.5 L 174.5 264 Z M 184 283 L 184 284 L 184 283 Z "/><path fill="#000000"  stroke="none" opacity="1" d="M 225.5 264 L 225.5 265 L 225.5 264 Z "/><path fill="#000000"  stroke="none" opacity="1" d="M 174.5 270 L 175 271.5 L 174 271.5 L 174.5 270 Z "/><path fill="#000000"  stroke="none" opacity="1" d="M 336.5 270 L 335.5 272 L 336.5 270 Z "/><path fill="#000000"  stroke="none" opacity="1" d="M 167.5 271 Q 169.8 270.3 169 272.5 L 171 276.5 L 165.5 289 L 163 278.5 L 167 277 L 166 272.5 L 167.5 271 Z "/><path fill="#000000"  stroke="none" opacity="1" d="M 194.5 271 L 195 273 Q 197.7 271.9 197 274.5 L 200 278.5 L 198 279.5 Q 198.7 276.9 196 278 L 196 274.5 Q 193 273.5 194.5 271 Z "/><path fill="#000000"  stroke="none" opacity="1" d="M 141.5 272 L 142 273.5 L 139.5 275 L 139.5 274 Q 142 274.7 141.5 272 Z "/><path fill="#000000"  stroke="none" opacity="1" d="M 198.5 272 L 201 273.5 L 200.5 275 L 198.5 272 Z "/><path fill="#000000"  stroke="none" opacity="1" d="M 305.5 272 L 309 274.5 Q 308.2 277.1 311.5 276 L 315 281.5 L 316 286.5 L 316 288.5 L 318 295.5 L 316 296 L 314 290 L 311.5 289 L 311 292 Q 314 290.8 313 294.5 L 315.5 301 L 316 298 Q 319.4 298.8 320.5 296 L 321 299.5 L 318 308.5 L 318 315.5 L 320 319.5 L 321 327.5 L 319.5 335 L 318 330.5 L 319 329.5 L 319 320.5 L 318 320.5 L 317.5 322 L 317 320.5 L 318 318.5 L 314 312.5 L 314 304.5 L 310 289.5 L 310 287.5 Q 310.6 280.2 308 277 Q 305.3 278.1 306 275.5 L 305.5 272 Z "/><path fill="#000000"  stroke="none" opacity="1" d="M 361.5 276 L 361.5 277 L 361.5 276 Z "/><path fill="#000000"  stroke="none" opacity="1" d="M 235.5 277 L 236.5 279 L 235.5 277 Z "/><path fill="#000000"  stroke="none" opacity="1" d="M 151.5 279 L 151.5 280 L 151.5 279 Z "/><path fill="#000000"  stroke="none" opacity="1" d="M 178.5 279 L 178.5 280 L 178.5 279 Z "/><path fill="#000000"  stroke="none" opacity="1" d="M 197.5 281 Q 199.8 280.3 199 282.5 L 197.5 281 Z "/><path fill="#000000"  stroke="none" opacity="1" d="M 128.5 282 L 128.5 283 L 128.5 282 Z "/><path fill="#000000"  stroke="none" opacity="1" d="M 152.5 283 L 156 295.5 L 152 292.5 L 152.5 283 Z "/><path fill="#000000"  stroke="none" opacity="1" d="M 307.5 283 Q 310.3 284.3 308 285.5 L 308 313.5 L 309 315.5 L 308 318.5 Q 310.5 320 309 325.5 L 308 325.5 L 305 313.5 L 305 305.5 L 303 303.5 L 300 293.5 L 300 286 L 303.5 287 L 305 284 L 307.5 283 Z "/><path fill="#000000"  stroke="none" opacity="1" d="M 202.5 284 L 202.5 285 L 202.5 284 Z "/><path fill="#000000"  stroke="none" opacity="1" d="M 280.5 284 L 280.5 285 L 280.5 284 Z "/><path fill="#000000"  stroke="none" opacity="1" d="M 130.5 285 L 133.5 289 L 136 290.5 L 135.5 293 L 133.5 290 L 131.5 291 L 126 287.5 L 128.5 287 L 130 287.5 L 130.5 285 Z M 132 288 L 132 289 L 132 288 Z M 133 289 L 133 290 L 133 289 Z "/><path fill="#000000"  stroke="none" opacity="1" d="M 48.5 287 L 49 293.5 L 48 293.5 L 48.5 287 Z "/><path fill="#000000"  stroke="none" opacity="1" d="M 275.5 287 L 277 290.5 L 271.5 297 Q 258.2 304.7 249 316.5 L 248 321 L 246 321.5 L 246 323.5 L 244.5 328 L 244 322.5 L 245 320 L 242 321.5 L 243 327.5 L 241.5 330 L 239 320.5 L 242 319.5 L 239 319 L 238.5 317 L 238 321.5 L 239 323.5 L 237.5 327 Q 234.8 325.8 237 324.5 Q 237.8 316.8 236 313 Q 226.1 309.6 220 301.5 L 222 298.5 L 224 299.5 L 226.5 303 L 229 304.5 Q 228.3 306.8 230.5 306 L 232 309 L 234.5 308 L 234.5 310 L 239.5 311 Q 241 308.5 242.5 312 L 248.5 311 L 250 311.5 L 252 308.5 L 254.5 306 L 257.5 306 L 261 304 L 265 296 Q 270.6 295.9 273 291.5 L 275.5 287 Z M 223 300 Q 221 303 224 302 L 223 300 Z M 226 304 L 226 305 L 227 305 L 226 304 Z "/><path fill="#000000"  stroke="none" opacity="1" d="M 200.5 288 Q 203.1 287.2 202 290.5 L 201 290.5 L 200.5 288 Z "/><path fill="#000000"  stroke="none" opacity="1" d="M 183.5 294 L 183.5 295 L 183.5 294 Z "/><path fill="#000000"  stroke="none" opacity="1" d="M 142.5 295 Q 144.8 294.3 144 296.5 L 145.5 296 Q 147.8 295.3 147 297.5 L 149.5 299 L 151 298.5 L 151.5 301 L 152.5 298 L 154.5 301 L 156 301.5 L 154 302.5 L 154.5 305 Q 156.8 305.8 156 303.5 L 158 304.5 L 157 307.5 Q 158.5 310.5 160 307.5 L 159.5 306 L 162 306.5 L 165 313 L 168 314.5 Q 165.5 316 169 317.5 L 170 321.5 L 168 325 L 170 325.5 L 167 327.5 L 169 328 Q 167.7 331.3 172.5 330 L 175 331 L 176 336.5 L 172.5 338 L 169.5 336 L 166 337 Q 163.3 320.9 156 309 L 152 310.5 Q 147.7 314.7 146.5 322 L 146 317.5 L 146 315.5 L 147 312 L 149 311.5 L 147 311 L 148 304 L 152 306 L 150.5 303 Q 148.3 303.8 149 301.5 L 142.5 295 Z "/><path fill="#000000"  stroke="none" opacity="1" d="M 47.5 296 L 47.5 297 L 47.5 296 Z "/><path fill="#000000"  stroke="none" opacity="1" d="M 184.5 296 L 184.5 297 L 184.5 296 Z "/><path fill="#000000"  stroke="none" opacity="1" d="M 220.5 296 L 222 296.5 L 220.5 297 L 220.5 296 Z "/><path fill="#000000"  stroke="none" opacity="1" d="M 139.5 298 L 139.5 299 L 139.5 298 Z "/><path fill="#000000"  stroke="none" opacity="1" d="M 140.5 302 L 140.5 303 L 140.5 302 Z "/><path fill="#000000"  stroke="none" opacity="1" d="M 185.5 302 L 186 303.5 L 185 303.5 L 185.5 302 Z "/><path fill="#000000"  stroke="none" opacity="1" d="M 254.5 303 L 256 303.5 L 253.5 305 L 254.5 303 Z "/><path fill="#000000"  stroke="none" opacity="1" d="M 124.5 304 L 125 310.5 L 124 310.5 L 124.5 304 Z "/><path fill="#000000"  stroke="none" opacity="1" d="M 184.5 305 Q 187.3 306.3 185 307.5 L 184.5 309 L 184.5 305 Z "/><path fill="#000000"  stroke="none" opacity="1" d="M 351.5 309 L 352 310.5 L 351 310.5 L 351.5 309 Z "/><path fill="#000000"  stroke="none" opacity="1" d="M 184.5 310 L 185 312.5 L 184 312.5 L 184.5 310 Z "/><path fill="#000000"  stroke="none" opacity="1" d="M 351.5 312 L 352 313.5 L 351 313.5 L 351.5 312 Z "/><path fill="#000000"  stroke="none" opacity="1" d="M 50.5 314 L 51 315.5 L 50 315.5 L 50.5 314 Z "/><path fill="#000000"  stroke="none" opacity="1" d="M 244.5 330 L 245 335.5 L 243 336.5 Q 243.7 333.9 241 335 L 241 333 Q 243.7 334.1 243 331.5 L 244.5 330 Z "/><path fill="#000000"  stroke="none" opacity="1" d="M 318.5 337 L 320 337.5 L 318.5 338 L 318.5 337 Z "/><path fill="#000000"  stroke="none" opacity="1" d="M 243.5 338 L 244 339.5 L 243 339.5 L 243.5 338 Z "/><path fill="#000000"  stroke="none" opacity="1" d="M 167.5 339 L 168 340.5 L 167 340.5 L 167.5 339 Z "/><path fill="#000000"  stroke="none" opacity="1" d="M 319.5 340 L 319.5 341 L 319.5 340 Z "/><path fill="#000000"  stroke="none" opacity="1" d="M 239.5 342 L 240 343.5 L 238 344.5 L 239.5 342 Z "/><path fill="#000000"  stroke="none" opacity="1" d="M 242.5 342 L 243 347.5 L 237.5 358 L 236 354.5 L 238 354.5 Q 238.3 346.3 242.5 342 Z "/><path fill="#000000"  stroke="none" opacity="1" d="M 169 345 L 172 346.5 Q 169.8 347.8 172.5 349 L 175 348 L 175.5 346 L 177 351.5 L 177 353.5 L 177.5 356 L 178.5 354 L 179 356.5 L 178 358.5 L 182 367.5 L 182 369.5 L 181 372.5 L 183 373.5 L 183.5 372 L 184 373.5 L 183 376 L 179 376 L 179 374.5 L 178 372.5 L 179 369.5 L 178 369.5 L 177.5 371 L 177 369.5 L 179 364.5 Q 178.3 362.3 174.5 363 L 173 363.5 L 172.5 359 Q 163.4 367.7 159 380 Q 156 381 157 378 Q 159.7 379.1 159 376.5 L 158 374.5 Q 161.3 364.8 168.5 359 L 170 358.5 Q 167.5 357 171 355.5 L 171.5 354 L 175 355 L 172.5 351 L 169 348.5 L 169 345 Z M 175 349 L 175 350 L 175 349 Z M 177 356 L 177 357 L 177 356 Z M 175 357 L 175 358 L 175 357 Z M 174 358 L 174 359 L 174 358 Z M 169 360 L 169 361 L 169 360 Z M 180 367 L 180 368 L 180 367 Z "/><path fill="#000000"  stroke="none" opacity="1" d="M 236.5 359 L 237 360.5 L 233.5 366 Q 229.5 365.5 230 360.5 L 232.5 360 L 236.5 359 Z "/><path fill="#000000"  stroke="none" opacity="1" d="M 226.5 366 L 232 368.5 Q 229.5 370 233 371.5 L 236 378.5 L 233.5 377 L 227 371.5 L 225 367.5 L 226.5 366 Z "/><path fill="#000000"  stroke="none" opacity="1" d="M 172.5 368 L 174 368.5 L 171.5 370 L 172.5 368 Z "/><path fill="#000000"  stroke="none" opacity="1" d="M 175.5 369 L 174.5 371 L 175.5 369 Z "/><path fill="#000000"  stroke="none" opacity="1" d="M 223.5 370 Q 227.3 368.8 226 372.5 L 227 375 Q 230 374 229 377 L 222.5 375 L 222.5 377 L 219.5 378 L 220 376.5 L 223.5 370 Z "/><path fill="#000000"  stroke="none" opacity="1" d="M 175.5 372 L 175 373.5 L 172.5 379 Q 171.3 376.7 170 379.5 L 171 381.5 L 167.5 386 L 168 384.5 L 169 378.5 L 172.5 373 Q 174 375.5 175.5 372 Z "/><path fill="#000000"  stroke="none" opacity="1" d="M 220.5 379 L 222.5 382 L 224 381.5 L 224 384.5 L 231 395.5 L 230 397.5 L 233 399.5 L 233 401.5 Q 237.3 404.7 237 412.5 L 235.5 416 L 229 396.5 Q 226.4 389.1 220.5 385 L 220 386.5 L 221 388.5 L 218 393.5 L 218 395.5 L 223 404.5 L 219 401.5 L 215.5 397 L 211 404.5 L 209 414 L 212 413.5 L 210.5 411 Q 212.8 410.3 212 412.5 L 212.5 415 Q 216.3 414 215 417 L 213 417 Q 214.5 420.7 211.5 420 L 208.5 414 L 206 418.5 L 206 420.5 L 205 430 L 202.5 429 L 202 431 L 205 431.5 L 204 437 L 197.5 438 L 198.5 436 L 200.5 437 L 201 435.5 L 200 433.5 L 200.5 432 Q 197.9 432.8 199 429.5 L 201 429.5 L 200 420 Q 202.7 421.1 202 418.5 L 209 398.5 Q 206.5 397 210 395.5 L 210.5 394 L 215 395 L 216 391.5 L 213 390.5 L 214 388 L 216 387.5 L 215 386.5 L 218 383.5 L 220.5 379 Z M 221 382 L 221 383 L 221 382 Z M 220 384 L 220 385 L 220 384 Z M 218 389 L 218 390 L 218 389 Z M 210 400 L 210 401 L 210 400 Z M 235 408 L 235 409 L 235 408 Z M 236 411 L 235 413 L 236 413 L 236 411 Z M 205 419 L 205 420 L 206 420 L 205 419 Z M 203 432 L 201 434 L 203 435 L 203 432 Z "/><path fill="#000000"  stroke="none" opacity="1" d="M 185.5 380 L 186 381.5 L 182.5 387 L 181.5 385 L 179 386.5 L 181.5 381 L 185.5 380 Z "/><path fill="#000000"  stroke="none" opacity="1" d="M 188.5 380 L 188.5 381 L 188.5 380 Z "/><path fill="#000000"  stroke="none" opacity="1" d="M 237.5 381 L 237.5 382 L 237.5 381 Z "/><path fill="#000000"  stroke="none" opacity="1" d="M 187.5 383 L 191 387.5 L 186.5 389 L 186.5 388 L 188 387.5 L 186 384.5 L 187.5 383 Z "/><path fill="#000000"  stroke="none" opacity="1" d="M 239.5 383 L 239.5 384 L 239.5 383 Z "/><path fill="#000000"  stroke="none" opacity="1" d="M 156.5 385 L 155.5 387 L 156.5 385 Z "/><path fill="#000000"  stroke="none" opacity="1" d="M 165.5 386 L 168 389.5 L 161.5 403 L 157.5 405 L 158 403.5 L 160 399 Q 162.7 400.1 162 397.5 L 164 392 L 166 391.5 L 165 390.5 L 166.5 388 Q 163.7 388.7 165.5 386 Z "/><path fill="#000000"  stroke="none" opacity="1" d="M 154.5 389 L 154.5 390 L 154.5 389 Z "/><path fill="#000000"  stroke="none" opacity="1" d="M 189.5 391 L 191.5 394 Q 189.3 394.8 190 392.5 L 189.5 391 Z "/><path fill="#000000"  stroke="none" opacity="1" d="M 192.5 391 L 195 396.5 L 194 396.5 L 192.5 391 Z "/><path fill="#000000"  stroke="none" opacity="1" d="M 195.5 391 L 195.5 392 L 195.5 391 Z "/><path fill="#000000"  stroke="none" opacity="1" d="M 179.5 392 L 180 394.5 Q 178.8 397.3 177.5 395 Q 174.9 395.7 176 393 L 179.5 392 Z "/><path fill="#000000"  stroke="none" opacity="1" d="M 350.5 392 L 354 392.5 L 350.5 393 L 350.5 392 Z "/><path fill="#000000"  stroke="none" opacity="1" d="M 345.5 393 L 349 393.5 L 345.5 394 L 345.5 393 Z "/><path fill="#000000"  stroke="none" opacity="1" d="M 192.5 396 L 192.5 397 L 192.5 396 Z "/><path fill="#000000"  stroke="none" opacity="1" d="M 149 398 Q 151.7 396.9 151 399.5 L 150 402 L 148 401.5 L 149 398 Z "/><path fill="#000000"  stroke="none" opacity="1" d="M 198.5 398 L 200 398.5 L 198.5 399 L 198.5 398 Z "/><path fill="#000000"  stroke="none" opacity="1" d="M 224.5 398 L 230 404.5 L 228.5 404 L 224 400.5 L 224.5 398 Z "/><path fill="#000000"  stroke="none" opacity="1" d="M 195.5 400 L 198 400.5 L 196.5 404 L 194 403 L 195.5 400 Z "/><path fill="#000000"  stroke="none" opacity="1" d="M 350.5 402 L 351.5 404 Q 348.7 404.7 350.5 402 Z "/><path fill="#000000"  stroke="none" opacity="1" d="M 345.5 403 L 346 405.5 L 344.5 413 L 344 405.5 L 345.5 403 Z "/><path fill="#000000"  stroke="none" opacity="1" d="M 148.5 404 L 149 405.5 L 148 405.5 L 148.5 404 Z "/><path fill="#000000"  stroke="none" opacity="1" d="M 166.5 405 Q 170.5 404.5 171 407.5 Q 170.2 410.1 173.5 409 L 173.5 410 Q 171.3 409.3 172 411.5 L 169.5 412 L 167 413.5 Q 172.1 413.9 173.5 418 L 175.5 417 L 175.5 418 L 171.5 420 L 169 419.5 L 169.5 418 L 168 418 L 168 421 Q 165 420 166 423 L 168.5 422 L 173.5 424 L 172.5 421 Q 173.8 423.2 175 420.5 L 175.5 419 L 176 420.5 Q 172 422.5 176 424.5 Q 177.3 428.3 173.5 427 L 174 428.5 L 173.5 430 L 170.5 429 L 169 433 L 166.5 433 L 161.5 428 L 152 426.5 L 158 424.5 L 157.5 423 L 162.5 420 L 165 421.5 L 166 417.5 L 164.5 417 L 162.5 418 L 162.5 417 L 165 415.5 L 162 413.5 L 160.5 411 L 154 410 Q 152.9 407.3 155.5 408 L 158 407 Q 156.3 411.5 161.5 410 L 163.5 411 Q 165 408.5 166.5 412 L 171 409.5 L 169.5 409 L 168 409.5 Q 168.8 407.3 166.5 408 Q 163.5 406.5 166.5 405 Z M 169 407 L 169 408 L 169 407 Z M 167 415 L 167 416 L 167 415 Z M 171 417 L 171 418 L 171 417 Z M 162 422 L 162 424 L 164 423 L 162 422 Z M 172 424 L 171 426 L 172 426 L 172 424 Z M 175 424 L 175 425 L 175 424 Z M 165 425 L 168 428 L 168 426 L 165 425 Z M 169 425 L 169 426 L 169 425 Z "/><path fill="#000000"  stroke="none" opacity="1" d="M 199.5 405 Q 202.8 403.9 202 406.5 L 200 407.5 L 199.5 405 Z "/><path fill="#000000"  stroke="none" opacity="1" d="M 352.5 405 Q 355.1 404.3 354 407 L 348.5 408 L 347.5 406 L 352.5 405 Z "/><path fill="#000000"  stroke="none" opacity="1" d="M 160.5 406 L 161 408 L 159 407.5 L 160.5 406 Z "/><path fill="#000000"  stroke="none" opacity="1" d="M 248.5 407 L 248.5 408 L 248.5 407 Z "/><path fill="#000000"  stroke="none" opacity="1" d="M 145.5 408 L 148 408.5 L 145.5 414 L 141 413.5 L 145.5 408 Z "/><path fill="#000000"  stroke="none" opacity="1" d="M 194 408 L 196 408.5 L 193.5 419 Q 190.7 417.8 193 416.5 L 194 408 Z "/><path fill="#000000"  stroke="none" opacity="1" d="M 349.5 409 Q 352.5 408.1 351 412.5 L 351 414.5 Q 351.7 417.1 349 416 L 350 410.5 L 349.5 409 Z "/><path fill="#000000"  stroke="none" opacity="1" d="M 247 410 L 249 410.5 L 247 411.5 L 247 410 Z "/><path fill="#000000"  stroke="none" opacity="1" d="M 174.5 411 L 174.5 412 L 174.5 411 Z "/><path fill="#000000"  stroke="none" opacity="1" d="M 238 413 Q 240.7 411.9 240 414.5 L 243 427.5 L 243 433.5 L 237 436 L 236 424.5 Q 238.5 423 235 421.5 Q 233.1 416.1 236.5 417 L 238 416.5 L 238.5 418 L 240 415 Q 237 416 238 413 Z M 240 418 L 239 420 L 240 420 L 240 418 Z M 239 423 L 240 427 L 241 425 Q 242 422 239 423 Z M 239 429 L 239 430 L 240 430 L 239 429 Z M 241 431 L 241 432 L 241 431 Z "/><path fill="#000000"  stroke="none" opacity="1" d="M 174.5 414 L 174.5 415 L 174.5 414 Z "/><path fill="#000000"  stroke="none" opacity="1" d="M 250.5 414 Q 249.9 419 253 420.5 L 251.5 421 L 249 416.5 L 250.5 414 Z "/><path fill="#000000"  stroke="none" opacity="1" d="M 160.5 416 L 160.5 417 L 160.5 416 Z "/><path fill="#000000"  stroke="none" opacity="1" d="M 128.5 417 L 134 417.5 L 126.5 419 L 126.5 418 L 128.5 417 Z "/><path fill="#000000"  stroke="none" opacity="1" d="M 214 419 Q 218.1 417.7 217 421 L 214.5 422 L 214 419 Z "/><path fill="#000000"  stroke="none" opacity="1" d="M 341.5 419 L 341.5 420 L 341.5 419 Z "/><path fill="#000000"  stroke="none" opacity="1" d="M 98.5 420 L 98.5 421 L 98.5 420 Z "/><path fill="#000000"  stroke="none" opacity="1" d="M 125.5 420 L 128.5 427 L 129 422.5 L 128 420 L 136.5 422 L 139.5 420 L 139.5 421 Q 137.3 420.3 138 422.5 L 139.5 422 L 143 422.5 L 141 423 L 142.5 426 L 145 425 L 145.5 427 L 148.5 426 L 147.5 428 L 143.5 429 Q 142.3 426.7 141 429.5 L 140.5 431 L 140 429 L 136.5 430 L 135 429.5 Q 135.8 431.8 133.5 431 L 132 431.5 L 131.5 430 L 128.5 431 L 129 429.5 Q 129.8 427.3 127.5 428 L 123.5 423 L 118.5 424 L 118.5 423 L 125 422 L 125.5 420 Z M 131 422 L 131 425 L 133 424 Q 134 421 131 422 Z M 136 423 L 136 424 L 138 424 L 136 423 Z M 135 424 L 133 426 L 135 426 L 135 424 Z M 141 425 L 141 426 L 141 425 Z M 133 428 L 132 430 L 133 430 L 133 428 Z "/><path fill="#000000"  stroke="none" opacity="1" d="M 209.5 420 L 210 421.5 L 209 421.5 L 209.5 420 Z "/><path fill="#000000"  stroke="none" opacity="1" d="M 345.5 422 L 344.5 424 L 343 423.5 L 345.5 422 Z "/><path fill="#000000"  stroke="none" opacity="1" d="M 251.5 423 L 254 424.5 L 253.5 426 L 251.5 423 Z "/><path fill="#000000"  stroke="none" opacity="1" d="M 348.5 423 L 348.5 424 L 348.5 423 Z "/><path fill="#000000"  stroke="none" opacity="1" d="M 351.5 423 L 351.5 424 L 351.5 423 Z "/><path fill="#000000"  stroke="none" opacity="1" d="M 147.5 424 L 147.5 425 L 147.5 424 Z "/><path fill="#000000"  stroke="none" opacity="1" d="M 192.5 424 L 192.5 425 L 192.5 424 Z "/><path fill="#000000"  stroke="none" opacity="1" d="M 211.5 424 L 212.5 426 Q 209.7 426.7 211.5 424 Z "/><path fill="#000000"  stroke="none" opacity="1" d="M 106.5 425 L 107 426.5 L 106 426.5 L 106.5 425 Z "/><path fill="#000000"  stroke="none" opacity="1" d="M 112.5 425 L 114 425.5 L 112.5 426 L 112.5 425 Z "/><path fill="#000000"  stroke="none" opacity="1" d="M 191.5 426 L 192 431.5 L 191 431.5 L 190.5 428 L 189 428.5 Q 188.3 426.3 190.5 427 L 191.5 426 Z "/><path fill="#000000"  stroke="none" opacity="1" d="M 253.5 427 L 255 430 Q 251.5 431.1 253.5 427 Z "/><path fill="#000000"  stroke="none" opacity="1" d="M 345.5 428 L 345.5 429 L 345.5 428 Z "/><path fill="#000000"  stroke="none" opacity="1" d="M 218 429 L 223 429.5 Q 219.9 431.3 221.5 433 L 218 431.5 L 218 429 Z "/><path fill="#000000"  stroke="none" opacity="1" d="M 339.5 430 Q 342.3 431.3 340 432.5 L 339.5 434 L 339.5 430 Z "/><path fill="#000000"  stroke="none" opacity="1" d="M 350.5 430 L 351.5 432 L 350.5 430 Z "/><path fill="#000000"  stroke="none" opacity="1" d="M 174.5 431 L 174.5 432 L 174.5 431 Z "/><path fill="#000000"  stroke="none" opacity="1" d="M 214.5 432 L 214.5 433 L 214.5 432 Z "/><path fill="#000000"  stroke="none" opacity="1" d="M 353.5 432 L 353.5 433 L 353.5 432 Z "/><path fill="#000000"  stroke="none" opacity="1" d="M 188.5 433 Q 192.9 431.5 192 434.5 L 190.5 434 Q 187.5 434.5 188.5 433 Z "/><path fill="#000000"  stroke="none" opacity="1" d="M 342.5 433 L 343 434.5 L 342 434.5 L 342.5 433 Z "/><path fill="#000000"  stroke="none" opacity="1" d="M 144 434 Q 147 433 146 436 Q 143 437 144 434 Z "/><path fill="#000000"  stroke="none" opacity="1" d="M 177.5 434 L 180 434.5 Q 177.9 437.8 177.5 434 Z "/><path fill="#000000"  stroke="none" opacity="1" d="M 195.5 434 L 199 434.5 L 195.5 435 L 195.5 434 Z "/><path fill="#000000"  stroke="none" opacity="1" d="M 253.5 434 L 254 436.5 L 252 437.5 L 253.5 434 Z "/><path fill="#000000"  stroke="none" opacity="1" d="M 132.5 435 L 138 437 L 137.5 439 Q 132.9 438.3 132.5 435 Z "/><path fill="#000000"  stroke="none" opacity="1" d="M 167.5 435 L 171 436.5 L 168.5 437 L 167.5 435 Z "/><path fill="#000000"  stroke="none" opacity="1" d="M 351.5 435 L 354 436.5 L 352 437.5 L 351.5 435 Z "/><path fill="#000000"  stroke="none" opacity="1" d="M 255.5 436 L 255.5 437 L 255.5 436 Z "/><path fill="#000000"  stroke="none" opacity="1" d="M 338.5 438 L 338.5 439 L 338.5 438 Z "/><path fill="#000000"  stroke="none" opacity="1" d="M 353.5 440 L 353.5 441 L 353.5 440 Z "/><path fill="#000000"  stroke="none" opacity="1" d="M 349.5 443 L 349.5 444 L 349.5 443 Z "/></svg>