<?xml version="1.0" encoding="utf-8"?>
<svg viewBox="0 0 443 495" version="1.1" xmlns="http://www.w3.org/2000/svg">
  <path fill="#000000" stroke="none" opacity="1" d="M 273.5 7 L 280.5 11 L 284.5 8 L 285 10.5 L 284.5 12 L 291.5 10 L 291 11.5 Q 291.8 13.8 289.5 13 L 287 16.5 Q 293.3 15.7 295 19.5 L 287 23.5 L 289.5 24 L 291.5 24 L 295 26.5 L 290 29.5 Q 289.1 32.5 293.5 31 L 296 26 Q 300.9 24.2 299 30.5 L 300 30.5 L 301.5 28 L 305.5 25 L 306 26.5 Q 302.6 29.3 304 36 L 313.5 30 L 314 31.5 L 309 37.5 L 309 39.5 L 310.5 39 L 319 39.5 L 315 42.5 L 316 44.5 L 313 49 L 321 50.5 L 309 59.5 L 310.5 60 L 315.5 57 L 317.5 59 L 326 59 Q 327 63.3 324 64.5 L 328 67.5 Q 328.7 72.7 325 73.5 L 328 74 L 329 77.5 L 320 83.5 L 323.5 84 L 330.5 82 L 333.5 84 Q 337 83 336 77.5 L 335 75 L 339.5 77 Q 342.5 75.4 341 70 L 344 71.5 L 348.5 77 Q 349.3 73.3 354.5 74 L 357.5 78 L 364.5 75 L 368.5 82 Q 373.9 80.1 373 83.5 L 374 85.5 L 373 88 L 377.5 87 L 379.5 87 Q 382.8 85.9 382 88.5 L 383 92 Q 378.3 91.1 376 93.5 L 386 96 Q 387.1 99.5 379.5 98 L 373.5 100 L 371 102.5 L 371.5 104 L 374.5 103 L 378 104 L 377.5 106 L 370.5 106 L 365 110.5 L 369.5 111 Q 371.2 108.2 377.5 110 L 381.5 113 L 383.5 110 L 388.5 108 L 392 110.5 L 389.5 114 Q 386.9 113.3 388 116 L 395.5 116 L 397 117.5 Q 398.1 120.8 395.5 120 L 392 122.5 L 396 124 L 394.5 127 L 391 128.5 L 392 132 L 398.5 133 L 400 134.5 L 396 136.5 L 404 140 L 401.5 144 L 398 145.5 L 402 148.5 Q 403.3 152.3 399.5 151 L 398.5 152 L 392 152 L 393 159 L 387 160.5 L 397 166.5 Q 397.8 168.8 395.5 168 L 392 169 L 394 177 L 386 176 L 388 181.5 L 384 184.5 L 385 198 L 381.5 199 L 378 189 L 375 189 Q 376.1 185.7 372 187 L 368.5 198 Q 366.1 195.9 367 190.5 L 364.5 188 L 361.5 193 Q 358.9 192.2 360 195.5 L 357 197 L 353 205 Q 349.2 204 348 206.5 L 351 212 L 356 213 L 355 208.5 L 356.5 205 L 363 208.5 L 364.5 211 L 368.5 209 L 374 212 L 377.5 206 L 380 207.5 L 381 211.5 L 380 216 L 384 214.5 L 386 206.5 L 388.5 203 L 391 204.5 L 392.5 208 L 395.5 207 Q 398.2 208.3 396 209.5 L 396.5 214 L 401.5 213 Q 403 216.5 404.5 214 L 407.5 213 L 407 214.5 L 407 216 L 412 216 L 412 217.5 L 409 219 L 408 222.5 L 415 226 Q 416.8 230.9 410.5 229 L 406 230 Q 408.3 236 401.5 234 L 399 238 L 402 239.5 L 400.5 242 Q 396.8 241.3 396 243.5 L 396 246 Q 391.9 244.7 393 248 L 389.5 248 L 387 252 L 391 253.5 L 392 256.5 L 387.5 257 L 385 255.5 L 386.5 255 L 390 256 L 388.5 253 L 385.5 252 L 382 253 Q 379.9 258.2 384.5 257 L 387 258.5 L 381 260 L 386 266.5 L 381 268 Q 379.9 270.7 382.5 270 Q 386.5 272.5 385 280.5 L 384 285 L 380 287.5 Q 380.8 289.8 378.5 289 L 377 293 L 379 293 L 379 298 Q 382 297 381 300 L 376 299 L 378 295.5 L 374 292.5 L 376.5 289 Q 378.8 289.8 378 287.5 L 379 285 Q 375.6 284.3 374.5 287 L 374 285.5 L 375 284.5 L 373 280.5 L 371.5 277 L 369 280.5 L 371 283.5 L 368 289.5 L 373 290 L 371.5 294 L 370 293.5 L 372 302 Q 378.3 301 381.5 304 L 385.5 302 L 387.5 302 L 390.5 303 L 392.5 303 L 396 304.5 Q 394.3 306.8 389.5 306 L 383 309.5 L 382 311.5 L 387 314 Q 385.9 316.7 388.5 316 L 389.5 318 L 383.5 319 L 382 320.5 L 386 322 Q 387.7 326.1 383.5 325 L 381.5 325 Q 370.3 322.8 368 329.5 L 373 332 L 376 336.5 L 377 342 L 371 337.5 Q 371.8 334.9 368.5 336 L 369 337.5 L 367.5 340 L 359.5 335 Q 356.8 336.2 359 337.5 L 361 355 Q 357 356.4 359 349.5 L 357.5 347 Q 353.4 351.1 354 358 L 351 358 L 351 350.5 L 348.5 347 L 346.5 346 L 343.5 348 L 340.5 344 Q 337.2 342.9 338 345.5 L 344 353.5 L 344 358.5 Q 342.5 361.5 341 358.5 L 343 354.5 L 340.5 350 L 339 350.5 L 340 349.5 L 335.5 345 L 335 348 L 333 348.5 L 337 353.5 L 333.5 351 L 330 350 L 330 361.5 L 328.5 362 L 326.5 358 L 323.5 360 L 319.5 354 L 318 354 L 318 359 L 321 360.5 L 323 367.5 L 323 369.5 L 321 376 Q 316.1 377.8 318 371.5 L 319 371.5 L 319.5 373 Q 322.3 370.3 321 363.5 L 319 362.5 L 318 364.5 L 319 369.5 L 318 369.5 Q 318.8 365.8 316.5 365 L 312.5 371 L 307 372 L 309 363.5 L 308 360.5 Q 308.8 357.9 305.5 359 L 302 362.5 Q 302.6 367.9 301 370 L 298 368.5 L 297 361.5 L 298 359.5 L 295.5 355 L 292 363 Q 289.3 361.9 290 364.5 L 285.5 371 L 285 358 L 282.5 358 Q 279.1 362.6 272.5 364 L 252.5 377 L 247.5 382 L 245 382 L 239 397.5 L 236 417.5 L 237 418.5 L 237 430.5 L 240 439.5 L 240 482.5 L 243 492.5 L 241.5 494 Q 234 492.5 230.5 495 Q 229.5 492 224.5 493 L 222.5 494 L 220 492.5 L 223 491 L 225 484.5 L 225 473.5 L 227 466.5 L 227 449.5 L 224 433.5 L 215 413.5 L 215 410.5 L 212 407.5 L 211 401.5 L 203 385.5 L 199 373.5 L 203 371 Q 204.8 366.1 198.5 368 L 198.5 367 L 201 366.5 L 200 364 L 195.5 363 L 192 365 L 193 362.5 L 189.5 360 L 189 365.5 L 190.5 368 L 185.5 366 L 180 368.5 L 176 377 L 172.5 378 Q 170.3 377.3 171 373.5 L 172 371 L 174 371 L 174 367 L 175.5 367 Q 178.8 365.3 175 363.5 L 174 358.5 L 180 350.5 L 180 346 L 176 346 L 176 347.5 L 172 349.5 Q 175.6 351.4 175 356 L 170 355.5 L 173 355 L 171 351.5 L 171 348 L 174 347.5 L 170 344.5 Q 172.3 343.3 169.5 342 L 163 344 Q 162 347 165 346 L 165 348.5 L 166 350.5 L 166 354.5 L 165.5 359 L 164 354 L 161 354 L 161 350 L 159.5 350 L 155 351 L 155 348 L 153 348 Q 154.1 345.3 151.5 346 L 152 347.5 Q 153 352.5 150 353.5 L 153 355.5 L 152.5 357 L 148 354.5 L 146 349 L 137 348 L 137 345.5 L 143 339.5 Q 142.3 335.8 144.5 335 L 147 333.5 L 148.5 331 L 152 329.5 Q 153.5 325.1 150.5 326 L 146.5 329 L 146 325.5 L 146.5 324 Q 142.5 323.5 142 326.5 L 139 332.5 L 139 336 L 130.5 335 L 129 333.5 Q 129.8 326.6 133 323 L 126.5 322 L 124 326 L 122 326 Q 123.1 328.7 120.5 328 L 117 330 L 119 321 L 108 324 L 108 321.5 L 112.5 316 Q 115.8 317.1 115 314.5 L 119 308.5 L 116.5 308 L 111 310 Q 112.1 312.7 109.5 312 L 106 313 L 104.5 316 L 103 315.5 L 107 309 L 110 307.5 L 108.5 302 L 106 303 L 103.5 307 L 100.5 309 L 98 310 L 98 305.5 L 102 298 Q 105.7 299.5 105 296.5 L 104 293.5 L 104.5 292 L 101.5 291 L 93 296.5 L 93 298 L 89 298 L 90 293 L 99.5 289 L 101.5 289 L 108.5 290 L 111 288.5 L 110 286 L 103 283.5 L 104.5 283 L 112.5 285 L 117.5 284 L 124.5 287 L 131.5 284 L 134 285 Q 132.5 290.4 135.5 292 L 140.5 291 L 143 292 L 142 295.5 L 142.5 298 Q 147.5 298.5 148 294.5 L 139 289 L 136.5 285 L 133 284 L 131.5 281 L 128 278.5 L 126.5 276 L 119 269.5 Q 119.8 267.3 117.5 268 L 112.5 262 L 103.5 257 Q 100.8 258.2 103 259.5 L 106 267.5 L 102 265.5 Q 101 270 103.5 271 L 105.5 272 L 106.5 269 L 108 275 Q 102.6 276.5 101 273.5 L 99.5 270 L 96 270.5 L 96 272.5 Q 96.6 277.6 93.5 279 L 92 278.5 L 92 262.5 L 90.5 262 L 87 263 Q 88.9 267.2 88 275.5 L 80.5 280 L 76 278 L 74.5 290 Q 70.9 286.8 72 280 L 69 280 Q 70.5 283.8 67.5 283 L 64 284 L 67 275 L 63.5 276 L 58.5 275 L 56 276 L 55 271.5 L 60 262.5 L 54.5 267 L 50 268 L 52 262 L 55 260.5 L 56 256.5 L 54.5 255 L 49.5 260 L 45.5 262 L 44 259.5 L 46 255.5 L 43.5 254 L 38.5 257 L 37 253.5 L 41 248 Q 44.3 249.1 43 245 L 32.5 250 L 32 246.5 L 33 243 Q 35.7 244.1 35 241.5 Q 37.3 237.3 44.5 238 L 50 233.5 L 51 230 L 49 229.5 L 53 223.5 L 46.5 221 L 40.5 223 Q 37.8 221.8 40 220.5 L 41 218.5 L 40 216 L 34.5 217 Q 31.3 215.3 35 213.5 L 39 206.5 L 35.5 204 L 32 206 Q 33.2 209.7 28 208 L 28 210.5 L 23 213 L 23 207.5 L 27 200 Q 23.3 201.3 25 195.5 L 29.5 189 L 32 187.5 L 33 184.5 Q 31.7 181.8 30.5 184 L 27 184 Q 28.1 186.7 25.5 186 L 24 183 L 27 181.5 L 28.5 179 L 33 178 L 34 172.5 Q 37.7 170.7 38 165.5 L 34.5 163 L 32 164 L 33 156 L 28.5 156 Q 26.3 160 21 160 Q 22.5 156.2 19.5 157 L 14 159 Q 12.5 152.7 16.5 151 Q 18.8 151.8 18 149.5 L 24 144.5 L 22.5 142 Q 18 143 17 140.5 L 19 134.5 L 17.5 135 Q 13.8 135.8 13 133.5 L 15.5 129 L 29 125 Q 30.1 122.3 27.5 123 L 25 119.5 L 26 117 Q 28.7 118.1 28 115.5 Q 30.3 114.3 27.5 113 L 23 112 L 25.5 108 L 30 106 L 29 100 L 21.5 102 L 20 99.5 Q 23.5 98 21 96.5 Q 20 92 22.5 91 L 33 85.5 L 28.5 85 L 23 86 L 24.5 82 Q 26.8 82.8 26 80.5 L 31 76.5 L 26 71.5 L 26 68.5 L 28.5 67 L 31 67.5 L 31.5 69 L 40.5 56 L 43 57.5 L 41 65.5 L 42 65.5 L 42.5 64 L 46.5 66 Q 49.3 61.2 56 62 L 54.5 66 Q 51.9 65.3 53 68 L 51 68 L 51 71 Q 53.7 69.9 53 72.5 L 51 77.5 L 52.5 77 Q 55.3 73.3 61.5 73 L 63.5 73 Q 65.8 73.8 65 71.5 L 72.5 65 L 75 64.5 L 73 61 L 64.5 60 L 63 58.5 L 64.5 55 L 68.5 55 L 75.5 59 L 78.5 59 L 78 57.5 L 78 55 Q 75.3 56.1 76 53.5 Q 72.1 51.9 73 45.5 L 74 43 L 79 46.5 L 79 48.5 L 80.5 52 L 88.5 43 L 93.5 41 L 92 43.5 Q 91.3 45.8 93.5 45 L 96.5 46 L 98 42 L 108 41 Q 106.3 36.9 110.5 38 L 112.5 37 L 116 39 L 116 37 Q 118.7 38.1 118 35.5 L 119.5 33 Q 122 34.2 121 38 L 126 38 L 126 39.5 L 125.5 41 Q 131.6 39.8 131 42.5 L 129 46.5 L 131 47.5 L 132 41 L 135 41 Q 133.9 43.7 136.5 43 L 138 39 L 143 38 L 145 45 L 148.5 43 L 151.5 47 L 154 47 L 154 40.5 L 156 40 L 158.5 46 L 167.5 42 L 171 42 L 170 39.5 Q 172.3 38.3 169.5 37 Q 164.9 38.2 167 33 L 175 29.5 L 174 27 L 167.5 27 L 166 25.5 L 169.5 21 L 171 20.5 L 170 16 L 174.5 16 L 178.5 18 L 180 14.5 L 181.5 11 Q 184.1 10.2 183 13.5 Q 185.8 14.6 185 18 L 191.5 16 L 192.5 18 L 186 22.5 Q 185.3 25.1 188 24 L 188 28.5 L 190 29 L 190 31.5 L 189 36 L 200 35.5 L 198 32.5 L 200.5 31 L 203.5 32 L 203 30.5 L 201.5 28 Q 195.4 29.3 196 26.5 Q 196.5 23.5 200.5 24 Q 201.8 26.2 203 23.5 L 202 20.5 L 203 16 Q 206.3 17.1 205 13 L 208 13 L 209 23 L 216 20 L 215 22.5 L 220.5 23 L 222 22.5 Q 223.1 25.8 220.5 25 L 214 30.5 L 215.5 31 Q 218.7 26.7 226.5 27 L 225.5 29 L 223 30.5 Q 222.2 33.1 225.5 32 Q 229 28.8 236 30 Q 237.1 32.7 234.5 32 L 226 37.5 L 226.5 39 L 229.5 38 Q 232.3 39.3 230 40.5 L 228 45 L 238 43 Q 236.7 38.9 240 40 L 242.5 44 L 246.5 42 L 248 45 L 254 44 Q 252.9 46.7 255.5 46 L 259.5 43 L 263 44 L 263 40 L 261.5 40 L 260 37 L 257.5 36 L 253.5 37 L 253.5 36 L 259 32.5 L 256.5 28 L 249.5 29 L 248.5 27 L 253.5 25 Q 254.8 27.3 259.5 26 L 261 23 L 252 19 L 252.5 16 L 261.5 21 L 262.5 17 L 268.5 20 L 271 19 Q 269.8 16 273.5 17 L 276.5 19 Q 279.3 17.8 278 12.5 L 277 10 L 273.5 7 Z M 207 17 Q 204 18 205 22 L 208 21 L 207 17 Z M 289 19 L 289 20 L 291 20 L 289 19 Z M 172 22 L 169 23 L 170 25 L 172 24 L 173 25 L 172 22 Z M 275 22 Q 273 25 269 24 L 267 26 L 268 29 L 267 33 Q 268 35 273 34 L 274 28 L 270 29 L 273 25 L 277 28 L 280 27 L 279 24 Q 278 21 277 23 L 275 22 Z M 280 30 L 278 32 Q 275 31 276 34 L 280 32 L 280 30 Z M 284 30 L 281 34 L 277 37 L 278 40 L 287 37 L 288 40 L 288 42 L 287 46 L 288 47 L 298 43 L 293 41 Q 289 40 290 34 L 287 36 Q 284 35 286 34 Q 288 29 284 30 Z M 299 31 L 299 32 L 299 31 Z M 181 32 L 179 34 L 181 37 L 183 34 L 181 32 Z M 210 32 L 203 36 L 205 36 L 206 39 L 208 40 L 212 36 L 210 32 Z M 223 32 L 223 33 L 223 32 Z M 170 33 L 171 35 L 174 34 L 170 33 Z M 276 34 L 275 36 L 276 36 L 276 34 Z M 170 35 L 170 36 L 170 35 Z M 185 35 L 185 36 L 185 35 Z M 218 36 L 214 42 Q 216 40 222 41 L 221 40 L 222 38 Q 221 35 220 37 L 218 36 Z M 295 36 L 294 38 L 296 37 L 295 36 Z M 272 37 L 272 41 L 275 41 L 274 38 L 272 37 Z M 181 39 L 181 40 L 181 39 Z M 195 39 L 193 41 L 194 42 L 198 41 L 195 39 Z M 267 39 L 265 41 Q 267 46 263 45 L 267 55 L 267 53 L 273 51 Q 271 48 272 42 L 267 39 Z M 184 40 L 181 44 L 184 52 L 186 53 L 191 48 L 187 46 L 184 48 Q 183 42 185 41 L 184 40 Z M 112 41 L 110 43 L 111 45 L 119 46 L 123 49 L 124 46 L 119 42 L 117 43 L 112 41 Z M 312 41 L 312 42 L 313 42 L 312 41 Z M 203 42 L 199 47 L 197 48 Q 198 43 195 44 L 196 47 L 194 51 L 197 52 L 196 57 L 195 59 L 198 59 Q 197 56 200 57 Q 205 65 203 81 L 208 84 Q 207 86 210 85 L 212 88 L 213 92 L 212 96 L 205 97 L 205 94 L 201 101 L 198 102 Q 196 106 200 105 L 202 102 Q 203 99 207 100 Q 208 107 204 109 L 202 108 L 198 109 L 195 104 L 192 109 L 193 112 L 196 110 Q 198 111 196 113 L 194 116 L 196 115 L 197 117 L 198 123 L 201 117 Q 200 114 203 115 L 204 119 L 206 120 L 205 118 L 207 114 L 206 111 L 208 110 Q 206 108 210 106 Q 212 107 211 105 L 214 103 Q 215 106 212 105 L 213 108 L 217 106 Q 219 105 218 101 L 219 99 Q 216 100 217 96 L 215 96 L 214 78 L 213 78 Q 209 77 210 80 L 207 80 L 209 75 L 214 68 Q 215 65 213 66 Q 207 69 207 75 L 204 74 L 210 66 L 208 61 Q 212 60 211 63 L 219 57 L 218 56 Q 216 60 214 57 L 216 53 L 213 53 L 222 46 L 225 46 L 226 44 L 226 42 L 221 42 L 220 46 L 218 46 L 212 50 L 211 53 L 212 58 Q 209 59 210 56 L 208 57 L 203 55 L 204 59 Q 205 61 202 60 L 198 51 L 202 49 Q 203 51 204 49 Q 203 46 206 47 Q 207 44 205 45 L 203 42 Z M 310 42 L 310 43 L 311 43 L 310 42 Z M 309 43 L 309 44 L 309 43 Z M 107 44 L 106 46 L 109 47 L 107 44 Z M 214 44 L 208 48 L 210 51 L 217 45 L 214 44 Z M 74 45 Q 73 49 76 51 Q 75 53 78 52 L 77 47 L 74 45 Z M 299 45 L 297 48 L 301 46 L 299 45 Z M 88 46 Q 87 52 91 55 L 93 50 L 88 46 Z M 164 46 L 164 48 L 166 47 L 164 46 Z M 175 46 L 175 48 L 178 49 L 179 50 L 178 48 Q 179 45 175 46 Z M 233 46 L 232 48 L 235 47 L 233 46 Z M 240 46 L 240 57 L 239 58 L 241 64 L 244 63 L 247 59 Q 249 60 248 58 L 252 55 L 253 52 L 247 56 Q 244 55 245 59 L 242 60 Q 240 55 244 56 L 246 49 L 243 50 Q 245 44 240 46 Z M 278 46 L 276 49 L 280 51 L 281 51 L 279 48 Q 280 45 278 46 Z M 284 46 L 282 48 L 284 48 L 284 46 Z M 111 47 L 111 51 L 119 51 L 119 50 Q 116 51 117 48 L 111 47 Z M 140 47 L 140 49 Q 142 52 143 49 L 140 47 Z M 252 47 L 250 48 L 248 51 L 252 50 L 252 47 Z M 287 47 L 287 48 L 287 47 Z M 292 47 L 292 48 L 293 48 L 292 47 Z M 127 48 Q 124 49 126 51 Q 125 53 128 52 L 127 48 Z M 132 48 L 131 50 L 132 50 L 132 48 Z M 291 48 L 291 49 L 291 48 Z M 147 49 Q 145 54 149 55 L 153 55 L 150 53 L 147 49 Z M 258 49 L 258 50 L 258 49 Z M 290 49 L 290 50 L 290 49 Z M 305 49 L 292 58 L 291 56 L 295 55 L 294 50 Q 287 51 285 56 L 282 56 L 282 58 L 279 53 L 276 55 L 278 65 L 284 62 Q 286 61 285 57 L 292 61 L 301 55 L 304 55 L 305 52 L 305 49 Z M 107 50 L 105 54 Q 104 57 107 56 L 106 62 L 108 65 L 112 64 L 116 65 L 119 64 L 121 61 L 111 60 L 113 56 Q 115 57 114 54 L 107 50 Z M 157 50 L 158 54 Q 160 57 161 54 Q 163 48 157 50 Z M 232 50 Q 233 58 237 64 L 238 64 L 238 57 L 235 52 L 232 50 Z M 263 50 L 263 51 L 263 50 Z M 316 50 L 311 51 L 308 55 Q 313 56 316 53 Q 319 52 316 50 Z M 168 51 L 166 53 Q 165 57 171 55 L 173 56 Q 174 60 170 61 L 175 62 Q 177 63 176 59 L 176 57 L 173 53 Q 174 50 168 51 Z M 259 51 L 256 55 L 258 55 Q 257 58 260 57 L 263 61 Q 265 59 264 55 L 263 55 Q 264 57 261 56 L 260 53 Q 261 50 259 51 Z M 295 51 Q 294 54 297 53 Q 298 50 295 51 Z M 176 52 L 178 59 L 180 60 L 179 54 L 176 52 Z M 189 52 L 188 55 L 189 56 L 191 53 L 189 52 Z M 230 52 Q 227 58 231 57 Q 232 53 230 52 Z M 138 53 L 138 54 L 139 54 L 138 53 Z M 223 53 L 223 54 L 223 53 Z M 136 54 L 136 55 L 137 55 L 136 54 Z M 221 54 L 221 55 L 222 55 L 221 54 Z M 140 55 L 138 56 L 135 60 L 143 57 L 140 55 Z M 187 55 L 184 56 L 183 60 L 184 67 L 186 66 Q 185 63 188 64 Q 189 61 187 62 Q 183 60 188 58 L 187 55 Z M 220 55 L 220 56 L 220 55 Z M 226 55 L 226 56 L 226 55 Z M 65 56 L 65 59 L 71 59 L 65 56 Z M 223 56 L 220 59 Q 217 58 218 61 L 222 64 L 221 67 L 225 68 L 230 75 Q 228 79 232 78 Q 238 76 236 65 L 233 64 L 227 66 L 227 64 L 224 60 L 225 58 Q 226 55 223 56 Z M 270 56 L 267 61 L 272 57 L 270 56 Z M 168 57 L 168 58 L 169 58 L 168 57 Z M 192 57 L 192 58 L 192 57 Z M 254 57 L 250 61 L 251 63 L 254 59 L 254 57 Z M 300 57 L 293 61 L 292 66 L 295 64 Q 297 65 296 62 L 298 62 L 300 59 L 300 57 Z M 148 58 L 145 60 L 143 63 L 139 66 L 144 67 L 147 66 L 146 63 L 150 60 Q 151 57 148 58 Z M 167 58 L 167 59 L 167 58 Z M 258 58 Q 256 61 259 60 L 258 58 Z M 273 58 L 270 61 Q 271 63 268 62 Q 266 66 270 65 L 271 68 Q 275 69 276 67 L 275 60 L 273 58 Z M 303 58 L 296 66 Q 293 65 294 68 L 291 70 L 289 73 L 294 74 L 295 72 L 304 65 L 309 69 L 312 68 Q 314 69 313 67 Q 315 63 322 64 L 324 60 L 315 62 L 313 62 L 306 64 L 305 60 L 303 58 Z M 41 59 L 38 60 L 33 69 L 33 73 L 36 74 L 36 70 L 41 61 L 41 59 Z M 89 59 Q 86 60 88 62 Q 89 64 85 63 L 85 70 L 84 71 Q 83 75 89 73 Q 93 72 92 67 L 93 65 L 89 66 L 90 63 L 89 59 Z M 126 59 L 123 65 Q 122 67 125 66 L 125 69 L 128 73 Q 129 75 131 73 Q 135 74 133 69 L 138 65 L 139 63 L 140 61 Q 133 62 131 66 L 126 65 L 128 60 L 126 59 Z M 129 59 L 129 60 L 129 59 Z M 165 59 L 164 61 L 166 60 L 165 59 Z M 229 59 Q 228 62 231 61 Q 232 58 229 59 Z M 133 60 L 133 61 L 134 61 L 133 60 Z M 158 60 L 153 63 L 156 64 L 158 68 Q 162 67 161 62 L 158 60 Z M 288 60 L 288 61 L 288 60 Z M 248 61 L 245 64 Q 244 67 248 68 L 249 65 L 248 61 Z M 255 61 L 250 67 L 250 69 Q 247 68 248 71 L 258 68 L 260 65 Q 262 66 261 63 L 255 61 Z M 267 61 L 265 65 L 267 64 L 267 61 Z M 289 61 L 288 63 Q 285 62 284 65 Q 281 64 282 67 L 279 69 L 276 74 L 278 77 L 281 72 L 286 70 L 290 64 L 289 61 Z M 178 62 L 180 66 Q 179 68 182 67 L 181 65 Q 182 60 178 62 Z M 198 62 L 193 68 L 201 75 L 201 70 L 198 62 Z M 53 64 L 53 65 L 53 64 Z M 151 64 L 150 65 Q 147 64 148 67 L 153 68 L 155 70 L 154 67 L 151 64 Z M 165 64 L 162 65 L 158 73 L 155 75 L 158 78 L 160 75 L 166 71 L 164 81 L 165 81 Q 164 78 168 79 L 171 71 L 171 68 L 166 68 L 166 64 L 165 64 Z M 169 64 L 169 66 L 175 65 L 169 64 Z M 192 64 L 190 67 L 193 66 Q 194 63 192 64 Z M 51 65 L 46 70 L 47 71 L 50 69 L 52 66 L 51 65 Z M 41 66 L 40 68 L 41 68 L 41 66 Z M 95 66 L 93 70 L 98 72 L 100 71 Q 101 68 98 69 L 98 67 L 95 66 Z M 176 66 Q 177 76 174 82 L 180 86 Q 179 88 182 87 L 182 89 Q 186 90 184 84 L 183 84 L 181 83 L 180 70 L 178 68 Q 179 65 176 66 Z M 265 67 L 265 71 Q 268 70 267 73 L 270 74 L 274 74 L 273 72 Q 271 66 265 67 Z M 324 67 L 319 68 L 315 72 L 313 79 Q 314 81 311 80 L 311 84 Q 308 83 309 86 L 311 85 Q 313 86 312 84 L 318 80 L 320 81 L 324 78 Q 327 79 326 76 L 318 78 L 315 75 L 320 72 L 326 71 L 327 69 L 324 67 Z M 43 68 L 42 70 L 43 70 L 43 68 Z M 137 68 Q 133 70 133 77 L 131 79 Q 128 78 129 81 L 125 84 L 130 90 L 133 82 Q 136 77 143 77 L 144 70 Q 139 71 137 68 Z M 29 69 L 28 72 L 31 73 L 29 69 Z M 104 69 Q 100 72 101 77 L 98 76 L 88 77 L 86 79 Q 89 81 88 87 L 94 85 L 97 86 L 101 86 L 95 82 Q 90 83 92 79 Q 97 78 99 82 L 103 82 L 105 82 L 107 83 Q 106 78 110 76 L 110 74 L 108 75 L 106 78 L 102 80 Q 101 74 105 72 Q 106 68 104 69 Z M 118 69 L 116 70 L 111 76 L 108 86 L 111 87 L 115 83 L 119 75 L 122 73 L 123 70 L 118 69 Z M 187 69 Q 183 70 184 76 L 186 75 Q 185 72 188 73 L 189 71 Q 190 68 187 69 Z M 223 69 L 221 71 L 224 74 L 226 73 L 225 70 L 223 69 Z M 239 69 Q 238 72 241 71 Q 242 68 239 69 Z M 262 69 L 257 75 L 259 77 L 264 73 L 263 72 Q 264 68 262 69 Z M 306 69 L 303 72 L 308 74 L 307 73 Q 308 68 306 69 Z M 313 69 L 311 71 L 312 74 L 314 70 L 313 69 Z M 42 70 L 41 73 L 42 73 L 42 70 Z M 300 70 L 296 75 L 300 72 L 300 70 Z M 46 71 L 46 72 L 46 71 Z M 69 71 L 65 75 L 66 76 L 69 74 L 69 71 Z M 254 71 L 254 73 L 256 72 L 254 71 Z M 172 72 L 171 78 Q 169 79 172 80 L 174 77 Q 176 71 172 72 Z M 76 73 L 72 74 L 71 76 Q 75 74 74 79 L 74 81 L 71 83 L 71 84 L 77 84 L 77 87 L 77 88 L 81 87 L 83 83 L 79 82 L 76 78 L 81 77 L 82 75 Q 81 72 76 73 Z M 146 73 L 146 76 L 149 78 L 148 80 L 155 80 L 152 74 L 146 73 Z M 190 73 L 185 79 L 187 82 L 195 77 L 194 75 Q 193 72 190 73 Z M 217 73 L 218 80 L 222 78 L 221 74 L 217 73 Z M 282 73 L 281 77 L 285 74 L 282 73 Z M 302 73 L 299 77 L 303 77 L 306 79 L 307 83 L 309 83 L 309 77 L 302 73 Z M 343 73 L 344 82 L 346 79 L 343 73 Z M 39 74 L 38 79 Q 42 80 41 78 L 41 76 Q 42 73 39 74 Z M 251 74 L 249 78 L 252 76 Q 253 73 251 74 Z M 266 74 L 264 75 L 262 78 L 262 79 L 266 76 L 266 74 Z M 59 75 L 58 76 Q 55 75 56 78 L 53 80 L 55 80 Q 53 88 47 93 Q 48 95 45 94 L 48 90 Q 49 87 46 88 L 43 93 L 41 92 L 38 93 Q 32 91 33 95 L 38 97 Q 43 95 42 99 L 46 102 Q 47 104 43 103 L 41 106 L 46 107 L 46 111 L 39 111 L 42 116 Q 43 118 40 117 L 39 114 Q 36 115 37 112 L 34 112 L 36 118 L 35 117 Q 32 118 33 115 L 31 115 L 29 119 L 38 121 L 41 121 L 48 115 L 50 115 L 49 114 L 51 110 L 51 108 Q 51 101 55 99 Q 56 96 53 97 L 51 104 L 48 106 Q 48 98 53 96 L 52 91 L 52 89 L 54 88 Q 56 87 55 84 L 58 82 L 61 77 L 59 75 Z M 163 75 L 162 77 L 163 77 L 163 75 Z M 242 75 L 239 78 L 242 83 L 243 80 Q 242 76 245 77 Q 246 74 242 75 Z M 268 75 L 268 77 L 266 78 L 263 82 L 264 86 L 267 87 L 268 89 L 269 95 L 271 96 L 271 87 L 268 87 L 267 84 L 268 82 Q 267 78 270 79 Q 274 81 272 88 Q 274 91 276 87 L 275 76 L 268 75 Z M 285 75 L 285 77 L 283 78 L 280 82 L 280 83 L 287 81 L 292 82 L 291 76 L 285 75 Z M 49 76 L 46 77 L 47 80 L 42 88 Q 40 89 43 90 L 45 87 L 50 83 L 49 80 L 49 78 L 49 76 Z M 162 77 L 161 79 L 162 79 L 162 77 Z M 253 77 Q 254 80 251 79 L 250 82 L 247 80 L 244 83 L 244 85 L 245 87 L 255 84 L 256 79 L 253 77 Z M 281 77 L 281 78 L 281 77 Z M 355 77 L 352 78 Q 351 81 354 83 L 354 88 L 345 93 L 342 100 L 348 97 L 351 93 L 357 96 L 358 99 L 362 98 Q 364 97 363 94 L 366 91 L 365 90 L 361 95 L 357 94 Q 358 90 355 91 L 356 89 L 355 86 L 356 82 Q 358 76 355 77 Z M 33 78 L 31 79 L 28 83 L 32 82 L 35 83 L 37 86 L 38 82 L 33 78 Z M 196 78 L 196 80 L 198 81 Q 199 77 196 78 Z M 295 78 L 294 81 L 292 84 Q 293 88 298 87 L 300 79 L 295 78 Z M 67 79 L 60 83 L 62 86 L 71 80 L 67 79 Z M 125 79 L 125 80 L 125 79 Z M 140 79 L 134 83 L 132 91 L 135 92 L 139 85 Q 138 82 141 83 L 142 81 Q 143 78 140 79 Z M 161 79 L 160 81 L 161 81 L 161 79 Z M 222 79 L 218 86 Q 216 91 220 90 L 225 81 Q 226 77 222 79 Z M 260 79 L 260 80 L 261 80 L 260 79 Z M 145 80 L 141 84 L 135 99 Q 136 101 133 100 L 134 97 L 131 94 L 129 98 L 128 97 L 124 98 L 119 108 L 117 111 L 120 110 L 122 113 L 128 108 L 129 106 L 124 103 L 126 100 L 129 101 L 132 105 L 136 105 L 141 100 L 143 100 L 140 88 L 149 91 L 150 92 L 148 87 L 150 84 L 153 90 L 156 91 L 157 90 L 157 82 L 154 83 L 152 82 L 150 83 L 145 80 Z M 196 80 L 192 86 L 189 87 L 187 92 L 189 96 L 193 98 L 199 98 L 199 96 Q 197 94 198 90 L 197 90 L 195 88 L 198 84 L 196 80 Z M 362 80 L 362 81 L 362 80 Z M 191 81 L 187 86 L 188 88 L 189 86 Q 194 83 191 81 Z M 193 81 L 193 82 L 193 81 Z M 227 81 L 225 83 L 228 83 Q 229 80 227 81 Z M 347 81 L 342 88 L 343 89 L 345 88 L 348 84 L 347 81 Z M 361 81 L 361 82 L 361 81 Z M 43 82 L 43 83 L 43 82 Z M 235 82 L 232 85 L 236 91 L 240 90 L 239 84 L 236 85 L 235 82 Z M 301 82 L 301 84 L 301 86 L 298 90 L 299 92 L 305 83 L 301 82 Z M 364 82 L 359 90 L 361 91 L 366 86 L 364 82 Z M 42 83 L 39 87 L 41 87 L 42 85 L 42 83 Z M 119 83 Q 115 84 116 88 L 123 90 L 127 94 Q 127 87 122 85 Q 123 82 119 83 Z M 169 83 L 169 86 L 175 89 Q 177 88 176 91 L 170 88 L 168 89 Q 173 92 171 101 L 174 100 Q 176 101 175 99 L 180 96 L 181 94 L 180 87 L 175 83 L 169 83 Z M 316 83 L 309 93 L 310 95 Q 307 98 308 105 L 304 103 L 306 107 L 313 105 L 315 102 Q 314 99 317 100 L 318 98 L 315 99 Q 314 95 317 96 L 318 94 L 319 92 L 315 93 L 314 97 L 311 98 L 313 94 L 313 92 Q 312 89 315 90 Q 314 87 317 86 Q 318 82 316 83 Z M 360 83 L 360 84 L 360 83 Z M 58 84 L 54 93 L 58 91 L 59 89 Q 60 85 58 84 Z M 201 84 L 199 86 L 200 94 L 202 95 L 204 92 L 201 84 Z M 205 84 L 204 88 L 208 90 L 209 87 L 205 84 Z M 259 84 L 259 89 Q 261 93 267 93 L 266 90 L 259 84 Z M 283 84 L 279 86 L 276 90 L 277 92 L 285 86 Q 286 83 283 84 Z M 105 85 Q 101 87 105 89 Q 104 91 107 90 Q 108 86 105 85 Z M 166 85 Q 164 88 167 89 Q 170 87 166 85 Z M 306 85 L 301 93 L 300 94 L 305 98 L 308 93 L 308 86 L 306 85 Z M 326 85 Q 324 88 319 87 L 317 90 L 328 86 L 326 85 Z M 50 86 L 50 87 L 50 86 Z M 254 86 L 254 88 L 251 89 L 241 102 L 240 99 L 239 111 L 238 112 Q 237 115 240 114 L 241 111 Q 239 106 243 107 L 246 100 L 252 95 L 259 96 L 258 100 Q 259 102 257 101 L 254 105 L 248 110 L 249 113 Q 248 116 251 115 L 252 119 L 255 120 L 258 116 L 254 111 L 254 107 L 257 105 L 261 97 L 264 96 L 263 95 L 256 88 Q 257 85 254 86 Z M 334 86 L 330 89 L 327 89 L 329 96 Q 332 97 331 95 L 330 92 L 332 92 L 339 99 L 337 100 L 339 103 L 345 93 Q 346 90 342 91 L 340 95 L 338 95 L 340 92 L 338 91 L 338 87 L 337 92 L 334 86 Z M 49 87 L 49 88 L 49 87 Z M 71 87 L 67 88 L 63 95 L 66 94 L 70 96 Q 74 94 71 93 L 73 90 Q 74 86 71 87 Z M 85 87 L 81 89 Q 77 88 79 92 L 88 88 L 85 87 Z M 286 87 L 282 90 L 283 92 L 282 97 L 284 96 Q 286 97 285 94 L 291 91 L 290 89 Q 291 85 286 87 Z M 293 87 L 295 90 L 295 89 L 293 87 Z M 63 88 L 60 92 L 60 93 Q 62 94 61 91 L 63 91 L 64 89 L 63 88 Z M 92 88 L 89 89 L 88 91 L 94 89 L 92 88 Z M 116 88 L 116 89 L 116 88 Z M 225 88 L 221 92 L 222 94 L 225 92 L 226 90 Q 227 87 225 88 Z M 247 88 L 244 92 L 248 90 Q 249 87 247 88 Z M 34 89 L 33 91 L 38 91 L 34 89 Z M 230 89 L 227 93 L 232 95 L 230 89 Z M 375 89 L 369 94 Q 368 98 372 96 L 373 92 Q 376 90 382 91 L 382 89 L 375 89 Z M 86 91 L 86 92 L 87 92 L 86 91 Z M 94 91 L 94 92 L 94 91 Z M 118 91 Q 115 93 118 94 Q 123 96 122 92 L 118 91 Z M 167 91 L 165 95 L 166 97 L 165 100 L 167 104 L 170 106 L 169 104 L 170 102 L 169 92 L 167 91 Z M 84 92 L 84 93 L 84 92 Z M 90 92 L 82 97 L 80 96 Q 77 95 78 98 L 83 101 Q 85 100 84 103 L 86 103 L 87 98 L 92 94 Q 93 91 90 92 Z M 101 92 L 96 94 L 91 102 L 92 103 L 103 97 L 107 99 L 110 97 L 114 98 Q 116 102 118 98 L 114 94 L 108 97 L 105 96 L 106 94 Q 105 91 101 92 Z M 144 92 L 144 96 Q 145 98 147 96 L 150 97 L 148 100 L 156 101 L 158 94 L 157 94 Q 153 93 154 96 L 144 92 Z M 162 92 L 161 95 L 162 95 L 162 92 Z M 243 92 L 240 95 L 241 99 L 245 94 L 243 92 Z M 28 93 L 26 96 L 29 94 L 28 93 Z M 207 93 L 207 94 L 208 94 L 207 93 Z M 322 93 L 319 97 L 323 95 Q 324 92 322 93 Z M 108 94 L 108 95 L 108 94 Z M 281 94 L 281 95 L 281 94 Z M 294 94 L 290 99 L 294 100 Q 295 104 297 101 L 295 96 Q 296 93 294 94 Z M 60 95 Q 60 98 57 97 L 56 100 L 60 100 Q 59 105 64 107 L 65 111 Q 68 108 68 102 L 65 102 L 66 97 L 63 96 L 61 97 L 60 95 Z M 161 95 Q 157 98 158 103 L 165 105 L 164 99 L 161 95 Z M 227 95 L 225 99 Q 226 101 230 100 L 231 98 L 227 95 Z M 280 95 L 277 99 L 280 97 L 280 95 Z M 73 96 L 69 100 L 70 101 L 72 100 L 74 97 L 73 96 Z M 265 96 L 265 97 L 265 96 Z M 288 96 L 282 102 L 283 104 L 283 103 L 286 101 L 288 98 L 288 96 Z M 327 96 L 324 97 L 323 100 L 325 100 L 330 105 Q 331 98 327 96 Z M 331 96 L 332 102 Q 331 107 335 105 L 336 99 L 331 96 Z M 32 97 L 32 102 L 36 101 Q 42 103 41 99 L 36 97 L 32 97 Z M 180 97 L 178 100 L 181 98 L 180 97 Z M 185 97 L 177 104 L 178 110 Q 179 114 184 113 L 185 102 L 189 107 Q 193 106 192 102 L 188 97 L 185 97 Z M 221 97 Q 220 100 223 99 Q 224 96 221 97 Z M 299 97 L 300 103 Q 304 104 302 99 L 299 97 Z M 274 98 L 272 100 L 274 100 L 274 98 Z M 106 99 L 99 102 L 93 109 L 94 111 L 101 111 L 106 101 L 106 99 Z M 121 99 L 118 101 L 115 105 Q 114 108 117 107 L 121 101 L 121 99 Z M 277 99 L 277 100 L 277 99 Z M 305 99 L 304 101 L 305 101 L 305 99 Z M 354 99 L 356 103 Q 355 108 358 109 L 360 104 L 367 100 L 367 99 Q 361 99 360 102 L 354 99 Z M 74 100 L 70 104 L 71 106 L 70 110 L 71 112 L 71 110 L 74 109 Q 80 108 83 111 L 84 116 L 83 118 L 82 115 L 81 115 Q 78 114 79 117 L 72 118 L 70 112 L 66 122 Q 63 123 64 121 Q 62 115 56 116 L 52 124 L 52 127 L 55 126 Q 57 127 56 125 Q 54 123 57 122 L 66 125 Q 68 126 67 123 L 74 121 L 72 129 Q 73 131 77 130 L 79 127 L 79 124 Q 82 125 81 123 L 86 119 L 87 117 L 85 106 L 83 105 L 81 106 L 78 105 L 74 100 Z M 79 100 Q 77 103 81 104 Q 83 105 82 101 L 79 100 Z M 110 100 L 107 101 L 104 108 Q 103 111 106 112 Q 111 109 112 102 L 110 100 Z M 267 100 L 269 102 L 270 102 L 267 100 Z M 347 100 L 347 101 L 347 100 Z M 69 101 L 69 102 L 69 101 Z M 229 101 L 227 103 L 231 108 L 234 116 L 238 115 L 236 114 L 237 112 L 236 105 L 233 104 Q 234 99 229 101 Z M 253 101 L 248 105 L 246 108 Q 244 109 247 110 L 247 109 L 253 104 L 254 102 L 253 101 Z M 290 101 L 291 105 L 296 106 L 297 106 L 293 101 L 290 101 Z M 345 101 L 343 103 Q 345 106 346 103 Q 347 100 345 101 Z M 368 101 L 366 102 L 364 105 L 367 104 L 369 105 L 369 103 Q 370 100 368 101 Z M 221 102 L 223 106 Q 225 105 224 108 L 227 111 L 222 110 Q 220 115 224 114 L 224 117 L 218 113 L 219 111 L 218 108 Q 215 107 216 110 L 213 111 L 216 111 L 217 115 L 212 116 L 212 120 L 214 120 L 219 127 Q 218 129 221 128 Q 222 121 228 117 Q 232 115 231 119 L 232 119 L 230 109 L 227 106 L 225 104 L 221 102 Z M 349 102 L 346 105 L 346 107 L 351 113 Q 350 117 353 118 L 364 115 Q 368 113 367 118 L 367 119 L 374 115 L 377 116 Q 381 114 378 112 Q 370 111 367 114 Q 362 115 362 111 L 360 114 L 357 115 L 356 113 L 352 111 L 353 109 L 351 104 L 349 102 Z M 141 103 L 139 105 L 141 105 L 141 103 Z M 287 103 L 281 108 Q 282 110 280 109 Q 277 108 278 105 L 277 105 Q 276 111 280 113 Q 279 115 283 114 L 286 109 L 289 108 Q 290 104 287 103 Z M 318 103 L 318 105 L 316 105 L 307 111 L 304 115 L 301 115 Q 302 118 299 117 L 300 113 L 299 108 Q 297 104 295 109 L 295 107 L 289 112 L 295 114 L 300 123 L 306 119 L 312 117 L 314 113 L 322 106 L 318 103 Z M 144 104 Q 139 106 139 111 L 148 110 Q 149 114 144 112 L 142 115 L 144 114 L 146 116 L 145 118 L 152 120 L 152 116 L 149 110 L 149 107 L 144 104 Z M 150 104 L 151 105 L 153 108 L 156 116 L 154 119 L 156 127 L 155 129 L 160 128 L 162 123 Q 166 124 167 121 L 161 119 L 157 121 Q 156 118 159 119 L 159 116 L 164 109 L 161 106 L 150 104 Z M 262 104 L 257 110 Q 258 112 264 111 L 270 115 L 271 115 L 268 111 L 268 106 Q 267 103 262 104 Z M 91 105 Q 88 109 92 108 L 91 105 Z M 174 105 L 169 108 L 170 110 L 166 113 L 167 114 L 176 114 L 175 110 Q 177 104 174 105 Z M 300 105 L 300 109 L 303 110 Q 306 108 302 107 Q 303 104 300 105 Z M 35 106 L 31 107 L 26 111 L 30 112 Q 32 113 31 110 L 37 107 L 35 106 Z M 61 106 L 59 110 L 60 114 L 62 113 Q 63 108 61 106 Z M 271 106 L 270 110 L 273 117 Q 276 122 278 117 L 277 110 L 271 106 Z M 331 106 L 330 108 L 331 108 L 331 106 Z M 336 106 L 333 107 L 332 110 Q 333 114 330 113 L 328 108 L 323 111 L 325 111 L 328 119 Q 329 121 326 120 L 323 133 L 327 135 L 334 131 L 338 125 Q 337 122 340 123 L 340 120 L 328 126 Q 326 122 330 123 L 331 121 L 331 119 L 332 117 Q 331 113 334 114 L 338 107 L 336 106 Z M 57 107 L 56 109 L 54 110 L 51 114 L 56 113 L 57 110 L 57 107 Z M 40 108 L 41 110 L 44 110 Q 43 107 40 108 Z M 133 108 L 126 118 Q 125 122 130 120 L 135 114 L 134 112 Q 135 107 133 108 Z M 212 108 L 212 109 L 212 108 Z M 344 108 L 338 111 L 333 117 L 334 119 L 338 117 Q 342 118 341 115 L 348 114 Q 349 111 346 110 Q 347 107 344 108 Z M 211 109 L 211 110 L 211 109 Z M 307 109 L 307 110 L 307 109 Z M 111 110 L 106 116 L 106 121 L 110 119 Q 112 120 111 117 L 114 115 L 115 113 L 116 111 L 114 112 L 111 110 Z M 187 110 L 185 116 L 181 115 L 180 116 L 167 116 Q 166 119 171 118 L 172 121 L 177 119 L 180 121 L 186 120 L 189 127 Q 188 130 193 128 L 194 127 L 194 118 L 191 117 L 192 113 Q 188 114 187 110 Z M 388 110 L 381 116 Q 378 115 379 118 L 370 121 L 368 125 L 373 128 Q 376 130 376 135 Q 373 136 374 133 L 372 130 L 364 128 L 363 131 Q 360 132 361 128 L 356 131 L 357 129 Q 358 126 355 127 L 354 125 Q 355 121 351 123 L 352 121 L 351 120 Q 349 118 348 121 Q 347 123 350 122 L 351 126 L 350 133 L 353 135 L 356 133 L 354 137 L 356 142 Q 360 143 359 141 Q 361 136 367 137 Q 368 134 365 135 L 365 131 L 369 131 L 369 133 L 377 138 L 379 135 Q 380 130 376 130 L 376 125 L 384 118 L 386 114 Q 388 115 387 112 L 389 112 Q 390 109 388 110 Z M 73 111 L 75 115 L 79 114 Q 81 115 80 113 Q 78 109 73 111 Z M 127 111 L 127 112 L 127 111 Z M 244 111 L 245 114 L 244 116 L 245 118 Q 246 121 250 120 L 248 114 L 244 111 Z M 323 111 L 317 115 L 314 119 L 321 119 L 322 121 L 321 125 L 322 126 L 324 121 L 323 111 Z M 65 112 L 65 113 L 65 112 Z M 126 112 L 124 115 L 126 114 L 126 112 Z M 116 115 L 112 120 L 114 120 L 116 117 L 116 115 Z M 124 115 L 122 120 L 124 119 L 124 115 Z M 266 115 L 267 118 L 262 119 L 259 123 L 257 124 L 252 130 Q 251 134 255 135 L 263 132 L 261 127 L 263 123 L 267 124 L 272 130 L 272 132 L 275 132 Q 279 126 287 124 Q 290 123 289 126 L 284 129 L 282 132 L 277 135 L 277 137 L 272 137 L 272 135 L 267 127 L 264 124 L 263 128 L 269 133 L 267 138 L 266 140 Q 270 139 268 143 L 276 143 L 278 146 L 277 150 L 282 151 L 283 152 L 282 144 L 285 144 L 281 138 L 281 135 L 295 124 L 297 124 L 296 130 L 290 135 L 291 143 L 293 144 Q 297 143 296 137 L 295 137 Q 296 140 292 138 L 295 133 L 298 135 L 297 142 Q 301 143 300 141 L 308 135 Q 308 127 313 123 L 310 122 L 302 132 Q 303 135 300 134 L 301 131 L 300 131 L 298 129 L 299 127 L 298 122 Q 291 122 289 117 L 279 123 L 277 127 Q 274 128 275 126 L 278 124 L 282 118 L 276 120 L 273 128 Q 270 127 272 126 L 271 120 L 266 115 Z M 286 115 L 284 118 L 287 116 L 286 115 Z M 292 115 Q 290 118 293 119 Q 296 120 295 118 L 292 115 Z M 119 116 L 115 121 Q 114 123 117 122 L 119 122 L 120 119 L 119 116 Z M 92 117 L 89 118 L 87 124 Q 87 129 91 129 Q 93 128 92 131 L 96 133 Q 95 127 99 125 L 94 124 Q 91 123 92 120 L 95 118 L 92 117 Z M 99 117 L 99 118 L 101 118 L 99 117 Z M 260 117 L 258 120 L 260 119 L 260 117 Z M 391 118 L 391 120 Q 395 121 396 119 L 391 118 Z M 46 119 L 42 124 L 43 125 L 46 123 L 47 120 L 46 119 Z M 134 119 L 134 121 L 138 122 L 139 120 L 134 119 Z M 236 119 L 232 123 L 233 124 L 238 120 L 236 119 Z M 296 119 L 296 120 L 296 119 Z M 343 119 L 343 123 L 342 122 L 340 126 L 349 129 Q 350 123 346 121 L 343 119 Z M 362 119 L 362 120 L 362 119 Z M 366 119 L 366 120 L 366 119 Z M 385 119 L 383 122 Q 388 123 389 120 L 385 119 Z M 94 120 L 94 123 Q 99 124 101 122 Q 99 118 94 120 Z M 112 120 L 112 121 L 112 120 Z M 226 120 L 222 128 Q 221 132 224 131 L 228 123 Q 229 119 226 120 Z M 245 120 L 246 125 L 249 124 L 245 120 Z M 257 120 L 257 121 L 258 121 L 257 120 Z M 307 120 L 305 122 Q 306 124 302 123 L 300 129 L 305 127 Q 304 123 307 124 L 309 121 L 307 120 Z M 359 120 L 356 124 Q 360 125 361 122 Q 362 119 359 120 Z M 365 120 L 362 123 L 364 125 L 365 122 L 365 120 Z M 202 121 Q 198 123 198 128 L 203 128 L 215 134 L 217 133 L 216 130 L 213 129 L 210 124 L 202 121 Z M 212 121 L 211 125 L 216 128 L 216 126 L 212 121 Z M 115 122 L 113 123 L 110 127 Q 108 122 103 123 Q 104 129 102 132 L 101 128 L 98 129 L 97 136 L 97 137 Q 100 138 99 135 L 102 133 L 101 135 L 102 138 Q 103 135 110 137 L 109 139 Q 108 141 111 140 L 111 142 L 113 142 Q 114 145 111 144 L 111 146 Q 110 149 114 147 L 116 139 Q 115 135 118 136 L 117 141 L 118 143 L 123 140 Q 125 141 124 138 L 119 137 L 120 134 L 122 134 L 130 129 L 141 130 L 143 124 L 132 126 Q 124 127 125 125 L 124 125 Q 121 124 122 128 L 124 129 L 121 129 L 119 132 L 115 134 L 108 135 L 106 132 L 110 128 L 116 126 L 115 122 Z M 239 122 L 232 126 L 235 132 L 235 131 L 241 126 Q 245 128 244 124 Q 243 121 239 122 Z M 382 122 L 382 123 L 382 122 Z M 84 123 L 83 125 L 85 124 L 84 123 Z M 172 123 L 168 125 L 169 130 Q 168 132 171 131 L 173 128 L 176 129 L 179 133 Q 181 132 179 131 L 181 127 Q 183 125 181 124 L 174 127 L 172 123 Z M 32 124 L 32 126 L 32 127 Q 37 129 36 126 L 32 124 Z M 47 124 L 43 130 L 43 133 L 36 129 L 32 129 L 26 132 L 23 136 L 21 137 L 21 138 L 24 138 Q 26 133 34 133 L 36 133 L 41 135 Q 43 134 42 138 L 46 138 L 48 135 L 47 124 Z M 69 124 L 69 126 L 71 125 L 69 124 Z M 150 124 L 149 128 L 153 126 Q 154 122 150 124 Z M 166 124 L 166 125 L 168 125 L 166 124 Z M 229 124 L 229 125 L 229 124 Z M 313 124 L 309 132 Q 308 136 313 134 L 318 126 Q 317 123 313 124 Z M 382 124 L 380 126 L 383 132 Q 384 129 389 130 L 390 131 Q 391 128 388 129 L 390 126 Q 388 123 382 124 Z M 42 125 L 41 127 L 42 127 L 42 125 Z M 185 126 L 180 135 Q 179 140 181 142 L 180 147 L 181 150 Q 182 146 186 147 L 185 153 L 185 154 L 189 153 L 191 153 L 191 158 L 197 158 Q 201 156 200 150 L 209 146 L 215 146 L 215 144 L 208 138 L 206 138 L 206 142 L 204 143 L 197 142 L 198 145 L 198 151 L 194 151 L 193 149 Q 194 146 191 147 L 188 142 L 189 139 L 192 144 L 194 145 L 193 138 L 197 137 L 201 140 L 202 140 L 201 138 Q 198 133 191 133 Q 189 135 188 133 L 189 131 L 188 128 L 185 126 Z M 250 126 L 247 129 Q 244 128 245 132 L 250 131 Q 255 129 250 126 Z M 61 127 L 54 139 L 53 146 L 52 147 L 49 144 Q 40 145 36 143 L 35 146 Q 32 145 33 148 L 29 151 L 26 156 L 29 154 Q 33 153 35 155 L 41 151 L 40 148 L 43 146 L 45 146 Q 47 149 54 148 Q 55 150 57 147 Q 59 148 58 145 L 60 145 L 63 136 L 62 134 L 64 130 L 61 127 Z M 69 127 L 69 128 L 69 127 Z M 146 127 L 143 130 L 144 133 L 146 129 L 146 127 Z M 295 127 L 295 128 L 295 127 Z M 320 127 L 318 129 L 321 129 L 320 127 Z M 339 127 L 337 129 L 338 132 L 329 143 L 325 142 L 325 138 L 322 132 L 318 132 L 318 134 L 316 132 L 314 134 L 316 134 L 319 140 Q 318 142 322 141 Q 323 144 321 143 L 319 143 L 324 149 L 325 153 Q 321 154 325 156 L 331 146 Q 333 147 332 144 L 335 144 L 336 142 L 339 139 L 345 137 Q 351 139 350 135 L 343 134 L 339 127 Z M 23 128 L 16 131 L 17 133 L 23 130 L 23 128 Z M 56 128 L 54 129 L 51 132 L 49 138 L 51 141 L 57 131 Q 58 127 56 128 Z M 67 128 L 67 129 L 68 129 L 67 128 Z M 81 128 L 79 130 Q 78 132 81 131 Q 84 130 81 128 Z M 85 128 Q 84 131 88 130 L 88 133 L 91 134 Q 93 135 92 133 Q 90 128 85 128 Z M 117 128 L 112 129 L 110 132 Q 116 133 118 129 L 117 128 Z M 293 128 L 290 132 L 294 129 L 293 128 Z M 343 128 L 341 130 L 342 132 L 348 134 L 348 133 L 343 128 Z M 160 129 L 160 131 L 158 132 Q 153 133 152 131 Q 148 130 147 133 Q 148 135 145 134 L 143 138 L 145 138 L 147 138 L 154 133 L 164 133 Q 166 127 160 129 Z M 240 129 L 236 134 L 233 135 L 231 143 Q 232 145 236 144 Q 237 135 243 130 L 240 129 Z M 318 129 L 318 130 L 318 129 Z M 129 131 L 129 133 L 127 134 L 131 136 L 139 136 L 139 133 L 138 131 L 129 131 Z M 251 131 L 251 132 L 251 131 Z M 70 132 L 67 133 L 68 137 L 76 136 L 77 139 L 75 138 Q 72 137 73 140 Q 74 143 78 142 L 79 139 Q 80 135 77 136 L 76 134 Q 77 131 70 132 Z M 386 132 L 384 133 L 381 137 L 382 138 L 388 134 Q 389 131 386 132 Z M 143 133 L 142 135 L 143 135 L 143 133 Z M 266 133 L 255 137 Q 252 139 255 140 Q 257 139 256 142 L 246 150 L 249 152 L 250 153 L 259 153 L 259 155 L 262 154 L 260 153 L 261 151 L 261 147 L 258 152 L 256 152 L 259 146 Q 262 144 260 143 L 262 140 L 265 138 L 266 136 Q 268 134 266 133 Z M 176 134 L 176 135 L 178 135 L 176 134 Z M 250 134 L 245 137 L 242 140 L 241 146 L 247 144 L 251 137 Q 252 133 250 134 Z M 285 134 L 283 136 L 284 140 Q 285 144 290 143 L 286 136 Q 287 133 285 134 Z M 333 134 L 333 135 L 333 134 Z M 390 134 L 383 138 L 381 142 Q 378 143 379 141 L 381 138 L 378 140 Q 379 143 377 142 L 374 138 L 371 139 Q 368 138 369 141 L 365 144 L 372 144 L 370 147 L 374 150 Q 373 152 376 151 L 378 155 Q 377 157 381 156 L 384 154 L 383 159 L 391 157 L 389 152 L 387 151 L 385 152 Q 382 153 383 151 L 390 146 Q 395 145 396 149 Q 395 151 399 150 L 398 149 Q 399 146 397 147 L 395 145 Q 396 142 400 143 L 401 140 L 396 139 L 394 139 L 394 134 L 390 134 Z M 87 135 L 86 138 L 87 141 L 90 143 L 84 147 L 82 150 Q 83 153 88 152 L 94 143 L 94 139 L 87 135 Z M 123 135 L 123 137 L 126 138 L 128 138 L 123 135 Z M 163 135 Q 162 138 157 137 L 152 142 L 155 142 L 157 142 L 160 142 L 167 137 L 170 138 L 169 142 L 161 147 L 154 145 L 146 150 L 142 150 L 144 145 Q 146 143 144 142 L 142 143 L 138 142 L 139 150 L 139 152 L 137 154 Q 131 153 129 156 L 126 160 L 136 156 Q 145 157 149 154 L 148 151 L 154 152 Q 159 153 160 149 Q 163 148 162 151 L 166 151 L 167 149 L 170 147 Q 173 145 171 139 Q 174 137 170 135 L 167 136 L 163 135 Z M 230 135 L 228 138 Q 225 139 224 136 L 220 137 L 229 142 L 231 139 L 230 135 Z M 331 135 L 328 138 L 329 141 L 332 137 Q 333 134 331 135 Z M 30 136 L 28 138 L 29 139 L 32 137 L 30 136 Z M 35 136 L 35 137 L 40 139 Q 42 140 41 137 L 35 136 Z M 212 136 L 212 139 L 215 140 L 217 144 Q 216 147 219 146 L 222 152 L 219 151 Q 212 149 211 152 Q 207 151 208 155 L 207 154 Q 202 153 201 157 L 204 157 L 203 160 L 206 164 L 205 168 L 208 170 L 207 172 L 209 176 L 211 179 L 213 178 L 217 178 L 224 183 L 225 183 L 225 173 Q 218 172 214 175 L 210 175 L 217 171 L 216 169 L 216 166 L 220 161 L 220 159 L 212 162 Q 207 163 209 159 L 217 154 L 230 156 L 229 152 Q 230 148 228 149 L 225 145 L 223 143 L 220 140 L 219 141 Q 216 142 217 140 L 212 136 Z M 315 137 L 316 139 Q 317 136 315 137 Z M 129 138 Q 128 142 134 141 Q 135 143 136 141 L 136 138 L 129 138 Z M 36 139 L 30 145 Q 31 147 28 146 L 27 149 L 28 150 L 36 143 L 37 141 Q 38 138 36 139 Z M 175 139 L 174 142 Q 173 144 176 143 L 178 147 Q 180 146 179 142 L 175 139 Z M 365 139 L 363 140 Q 359 140 360 145 L 360 146 Q 362 147 361 145 L 367 140 L 365 139 Z M 42 140 L 42 142 L 46 142 L 42 140 Z M 82 140 L 80 142 L 82 142 L 82 140 Z M 140 140 L 140 141 L 141 141 L 140 140 Z M 342 140 L 340 141 L 338 144 L 344 141 L 342 140 Z M 351 140 L 342 143 L 341 146 L 336 145 L 331 148 L 332 151 L 328 152 L 327 157 L 330 156 Q 332 157 331 154 L 338 149 L 336 156 L 344 154 Q 347 156 344 157 L 341 159 Q 339 162 338 160 L 333 166 L 335 166 L 336 169 L 336 173 L 338 174 L 338 173 L 341 170 L 340 169 L 342 163 L 351 156 L 354 156 L 354 160 L 356 160 Q 357 162 358 160 L 355 154 L 353 153 L 348 154 L 342 149 L 342 146 L 357 154 L 359 153 L 359 150 L 356 144 L 355 144 Q 354 148 357 149 Q 358 151 355 150 L 352 145 Q 354 139 351 140 Z M 102 141 L 100 143 L 101 146 L 105 147 L 107 151 L 105 152 L 112 156 L 116 157 L 119 153 L 126 148 L 128 144 L 118 147 Q 115 148 116 154 L 115 154 Q 116 151 114 152 L 108 145 L 106 146 L 103 145 L 104 142 L 102 141 Z M 313 141 L 310 144 Q 309 146 312 145 L 314 142 L 313 141 Z M 70 142 L 70 147 L 75 149 L 73 144 Q 74 141 70 142 Z M 124 142 L 124 143 L 124 142 Z M 84 143 L 84 144 L 84 143 Z M 87 143 L 87 144 L 87 143 Z M 121 143 L 121 144 L 122 144 L 121 143 Z M 132 143 L 128 149 L 129 151 L 136 146 L 132 143 Z M 306 143 L 304 144 L 296 154 L 296 156 Q 298 154 304 155 L 305 152 L 313 149 L 307 146 Q 308 142 306 143 Z M 66 144 L 66 149 L 68 148 Q 69 143 66 144 Z M 286 144 L 286 145 L 286 144 Z M 315 144 L 315 145 L 316 145 L 315 144 Z M 195 145 L 195 146 L 195 145 Z M 270 145 L 270 146 L 274 146 L 270 145 Z M 287 145 L 288 152 Q 290 155 291 152 L 290 146 L 287 145 Z M 296 145 L 296 146 L 296 145 Z M 318 145 L 319 147 Q 320 144 318 145 Z M 94 146 L 94 147 L 94 146 Z M 97 146 L 97 148 L 100 148 L 97 146 Z M 231 146 L 231 151 L 235 153 L 235 150 L 231 146 Z M 267 146 L 267 147 L 269 147 L 267 146 Z M 211 147 L 210 149 L 216 148 L 211 147 Z M 263 147 L 264 149 L 266 148 L 263 147 Z M 136 148 L 134 150 Q 133 152 137 151 Q 138 147 136 148 Z M 239 148 L 236 149 L 239 155 L 244 152 L 243 149 L 239 150 L 239 148 Z M 297 148 L 290 155 L 290 157 Q 289 159 292 158 L 297 150 L 297 148 Z M 368 148 L 369 152 L 372 153 Q 374 154 373 158 L 369 162 L 374 166 L 378 165 Q 384 164 387 167 L 393 167 L 387 162 L 380 163 Q 377 162 378 158 L 374 152 L 368 148 Z M 23 149 L 20 151 L 18 154 L 17 156 Q 20 157 19 155 L 24 151 Q 25 148 23 149 Z M 269 149 L 269 150 L 271 150 L 269 149 Z M 366 149 L 364 151 Q 365 153 363 152 L 359 158 L 360 160 L 360 161 L 363 160 Q 365 161 364 159 L 369 156 L 366 149 Z M 91 150 Q 92 153 89 152 Q 87 156 91 155 L 93 151 L 91 150 Z M 246 150 L 246 151 L 246 150 Z M 267 150 L 267 151 L 268 151 L 267 150 Z M 318 150 L 318 152 L 323 154 Q 325 148 318 150 Z M 347 150 L 347 151 L 347 150 Z M 388 150 L 388 151 L 388 150 Z M 43 151 L 40 154 Q 37 153 38 156 Q 42 157 41 155 L 45 152 L 43 151 Z M 47 151 L 45 155 L 37 160 L 46 164 L 50 160 L 53 153 Q 54 150 47 151 Z M 69 151 L 65 154 Q 62 155 63 152 L 57 154 L 57 157 L 53 162 Q 52 165 55 166 L 55 165 L 61 162 L 65 158 Q 64 154 70 156 L 72 159 L 68 158 L 63 166 L 63 167 L 65 166 L 68 167 L 71 167 Q 70 164 73 165 L 73 163 L 79 158 Q 83 157 81 162 L 91 163 L 95 168 L 95 170 L 97 169 L 96 163 Q 94 158 89 158 L 87 155 L 85 154 L 77 157 Q 72 158 71 155 L 72 153 L 69 151 Z M 98 151 L 93 154 Q 91 159 95 158 Q 98 160 98 165 L 100 166 L 104 162 L 100 161 Q 96 160 97 156 L 104 153 Q 102 150 98 151 Z M 170 151 L 166 156 L 161 152 Q 158 153 159 158 L 163 157 L 174 158 L 175 161 L 169 160 L 167 161 L 164 160 L 161 161 L 162 165 L 162 166 L 164 165 L 171 167 L 170 169 L 164 168 L 159 174 L 164 175 L 167 180 Q 168 184 166 185 L 164 185 L 160 181 Q 156 183 156 189 L 161 191 Q 163 192 162 190 L 166 187 Q 170 186 171 189 L 182 174 L 183 172 L 172 177 L 169 177 L 167 175 L 173 169 L 177 168 L 183 169 L 182 168 Q 183 165 180 166 L 179 163 Q 180 160 177 161 L 178 158 Q 177 155 180 156 L 180 154 L 178 154 Q 179 151 177 152 L 175 152 Q 172 151 173 155 L 170 156 L 171 154 L 170 151 Z M 265 151 L 265 152 L 266 152 L 265 151 Z M 271 151 L 270 152 Q 266 151 267 155 L 268 158 Q 267 161 271 160 L 272 161 L 271 158 L 277 154 Q 279 155 278 152 L 271 151 Z M 348 151 L 348 152 L 348 151 Z M 56 152 L 54 155 L 56 154 L 56 152 Z M 263 152 L 263 153 L 263 152 Z M 283 152 L 283 155 L 287 156 L 285 154 Q 286 151 283 152 Z M 309 152 L 306 156 L 306 157 L 309 155 L 309 152 Z M 312 152 L 311 156 L 311 157 Q 316 157 316 154 L 312 152 Z M 351 152 L 351 153 L 351 152 Z M 123 153 L 121 154 L 117 159 Q 116 161 119 160 L 123 155 L 123 153 Z M 103 155 L 100 157 L 101 159 Q 105 160 107 158 Q 109 159 108 157 Q 107 154 103 155 Z M 237 155 L 237 156 L 237 155 Z M 334 155 L 334 156 L 334 155 Z M 154 156 L 148 157 L 149 161 L 154 158 L 154 156 Z M 238 156 L 238 157 L 239 157 L 238 156 Z M 263 156 L 257 162 Q 259 168 252 165 L 249 169 L 249 179 L 247 178 L 246 180 L 244 181 L 241 180 Q 238 181 240 183 L 237 188 Q 234 189 235 187 L 232 183 L 231 184 L 226 182 Q 228 184 227 191 L 229 192 Q 231 193 230 190 L 235 189 L 237 193 L 239 192 Q 241 191 240 186 L 245 183 Q 249 182 250 185 L 252 184 L 251 181 Q 250 178 253 179 L 254 177 L 260 172 L 262 172 L 264 169 L 257 170 L 252 177 Q 249 178 250 175 L 260 167 Q 267 166 269 171 L 274 167 L 273 166 L 273 165 Q 275 166 274 163 L 270 161 Q 264 161 263 165 Q 259 166 260 164 L 266 159 Q 267 154 263 156 Z M 278 156 L 277 157 Q 271 155 273 161 L 284 169 L 274 173 Q 271 172 272 175 L 267 176 L 266 172 L 261 173 Q 258 174 259 178 L 259 180 L 258 190 L 264 194 L 266 194 L 268 191 L 276 186 L 282 187 L 281 189 L 282 191 L 281 191 L 274 199 L 275 200 L 279 195 L 282 193 Q 280 199 275 202 L 272 201 L 274 196 L 277 192 L 268 198 L 266 198 L 269 204 Q 271 208 274 204 L 277 206 L 278 204 L 283 201 L 284 204 L 293 200 Q 295 201 294 206 Q 297 207 296 204 L 304 199 L 307 199 L 310 193 L 315 191 Q 314 188 317 189 Q 318 192 320 188 Q 324 189 322 185 L 320 185 L 316 188 L 310 188 L 303 193 Q 300 194 300 198 L 295 201 Q 294 194 297 191 L 297 188 L 289 197 Q 288 199 284 198 Q 283 192 286 189 L 294 184 Q 296 183 295 186 L 297 186 L 297 188 Q 304 190 306 185 L 313 185 Q 314 181 310 180 Q 311 176 308 177 L 308 179 L 305 184 L 301 187 L 306 180 L 306 178 Q 301 181 295 181 Q 292 180 294 179 L 291 177 Q 289 173 293 174 L 295 171 L 299 169 L 300 167 L 302 164 L 304 163 L 302 167 L 307 169 L 312 168 L 317 170 Q 321 169 319 173 L 312 172 L 310 170 L 306 170 L 300 175 L 300 176 Q 305 178 307 175 Q 311 174 313 176 Q 315 175 314 178 Q 315 180 319 179 L 322 176 L 323 172 L 320 168 L 321 166 L 316 167 Q 313 168 314 165 L 316 162 L 309 162 L 309 159 L 310 157 Q 307 156 308 159 L 305 161 L 302 160 L 294 165 L 292 165 L 288 166 L 286 164 L 288 164 Q 289 160 287 161 L 285 161 L 278 156 Z M 319 156 L 319 158 L 322 157 L 321 159 L 324 159 L 323 161 L 321 160 L 319 163 L 319 164 Q 326 162 324 168 L 327 168 L 331 165 L 323 156 L 319 156 Z M 187 157 L 187 158 L 188 158 L 187 157 Z M 213 157 L 213 159 L 216 158 L 213 157 Z M 231 157 L 231 158 L 231 157 Z M 233 157 L 233 161 Q 226 160 223 166 Q 224 168 229 167 L 231 169 L 235 169 L 236 167 Q 235 163 239 165 L 241 161 L 241 158 L 240 160 L 237 161 L 236 159 Q 237 156 233 157 Z M 257 157 L 254 159 Q 256 162 257 159 L 257 157 Z M 297 157 L 291 162 L 292 164 L 301 159 Q 302 155 297 157 Z M 230 158 L 225 160 L 231 160 L 230 158 Z M 290 158 L 290 159 L 290 158 Z M 314 158 L 313 160 L 317 160 L 314 158 Z M 137 159 L 134 162 Q 135 164 132 163 L 131 160 L 129 161 L 127 164 L 129 165 L 126 172 L 127 173 L 132 167 L 134 168 L 136 163 Q 140 164 139 162 L 142 160 L 137 159 Z M 246 159 L 246 160 L 246 159 Z M 330 159 L 330 160 L 331 160 L 330 159 Z M 350 159 L 346 161 L 342 166 Q 341 169 345 168 L 352 160 L 350 159 Z M 111 160 L 106 167 L 109 168 L 114 162 L 111 160 Z M 122 160 L 119 163 Q 118 165 121 164 L 124 171 L 125 167 L 127 164 L 124 165 L 122 160 Z M 156 160 L 151 162 L 150 164 L 159 161 L 156 160 Z M 245 160 L 242 163 Q 243 166 240 165 L 241 168 L 245 163 L 245 160 Z M 249 160 L 249 162 Q 252 161 254 164 L 254 161 L 249 160 Z M 78 161 L 72 169 L 74 169 L 79 162 L 78 161 Z M 199 161 L 199 162 L 199 161 Z M 224 161 L 224 162 L 224 161 Z M 143 162 Q 142 165 145 164 Q 146 161 143 162 Z M 186 162 L 184 168 L 187 171 L 190 167 L 194 162 L 189 163 L 186 162 Z M 362 162 Q 355 167 347 168 L 347 170 L 350 170 Q 349 173 352 172 Q 355 173 355 178 L 355 175 L 358 174 Q 360 175 359 172 L 364 171 L 367 172 Q 370 173 369 171 L 364 166 L 360 168 L 361 170 L 360 170 L 358 168 Q 359 164 364 165 Q 366 161 362 162 Z M 61 163 L 55 166 L 55 169 L 51 174 L 51 178 L 51 180 L 51 184 Q 49 182 44 183 L 42 184 L 48 181 L 49 182 Q 50 179 47 180 L 47 178 L 45 177 Q 39 175 40 179 Q 39 181 38 179 Q 35 180 36 185 L 40 183 L 41 184 L 40 186 L 36 189 Q 35 191 38 190 L 38 194 L 35 199 L 37 201 Q 37 196 40 194 Q 39 191 42 192 L 43 189 L 48 186 L 50 186 L 49 191 L 50 193 L 50 192 L 51 192 L 50 200 L 53 201 L 54 204 L 51 202 L 47 202 L 46 206 L 48 208 Q 50 205 56 206 L 54 209 Q 55 211 52 210 L 49 218 L 49 220 L 55 220 L 54 217 L 54 213 L 57 207 L 64 204 Q 66 205 65 202 L 72 196 L 81 197 L 83 192 L 80 190 L 70 195 Q 66 196 67 193 L 61 196 L 60 201 L 58 202 Q 57 195 61 194 Q 60 191 63 192 L 64 190 L 70 184 L 73 184 L 72 181 Q 66 180 65 183 Q 62 182 63 185 L 64 186 L 58 184 Q 56 189 57 198 L 56 199 L 58 204 L 55 205 L 53 195 L 53 186 Q 56 184 52 183 L 55 180 L 60 182 L 65 181 L 63 179 L 67 177 L 69 177 L 68 175 L 69 171 L 68 168 L 62 169 L 60 172 L 64 171 L 67 173 L 66 174 L 57 174 L 56 172 Q 55 168 58 169 L 61 165 L 61 163 Z M 49 164 L 46 169 L 47 172 Q 44 173 45 169 Q 43 164 42 167 L 39 169 L 36 175 L 45 175 L 50 178 L 51 170 L 52 168 L 50 168 L 50 164 L 49 164 Z M 83 164 L 83 166 L 86 166 L 87 165 L 83 164 Z M 158 164 L 158 165 L 158 164 Z M 202 164 L 195 168 L 198 169 L 203 165 L 202 164 Z M 245 164 L 242 171 L 243 175 Q 242 178 245 177 L 246 172 L 249 167 Q 250 162 245 164 Z M 368 164 L 368 165 L 368 164 Z M 89 165 L 89 167 L 92 168 L 92 167 L 89 165 Z M 154 165 L 151 166 L 149 169 L 147 170 L 148 172 L 140 177 L 142 179 Q 149 179 152 175 L 157 167 Q 158 163 154 165 Z M 369 165 L 369 166 L 370 166 L 369 165 Z M 79 166 L 77 168 Q 78 170 76 169 Q 73 170 74 174 L 74 176 L 72 179 L 78 180 L 82 171 L 82 168 L 79 166 Z M 380 166 L 378 167 Q 375 168 377 170 Q 376 173 382 171 L 384 167 L 380 166 Z M 113 167 L 113 168 L 113 167 Z M 119 167 L 119 168 L 119 167 Z M 140 167 Q 139 170 135 169 L 130 181 L 134 180 Q 136 179 135 176 L 138 174 L 139 172 L 143 169 Q 144 166 140 167 Z M 117 168 L 110 174 L 111 176 L 114 174 L 115 171 L 118 170 Q 119 167 117 168 Z M 221 168 L 222 170 L 223 170 L 221 168 Z M 276 168 L 275 170 L 279 169 L 276 168 Z M 330 168 L 329 170 L 332 169 L 330 168 Z M 371 168 L 373 174 L 375 177 L 378 176 L 384 178 L 384 175 L 388 174 L 390 174 Q 392 175 391 172 Q 388 173 387 170 L 378 175 L 373 170 Q 374 167 371 168 Z M 87 169 L 84 170 L 81 180 L 81 183 L 83 186 L 86 187 L 87 185 L 86 181 L 95 175 L 94 174 Q 91 173 93 172 Q 92 168 87 169 Z M 301 169 L 298 170 L 296 173 L 295 175 L 298 174 Q 301 175 300 173 L 304 170 L 301 169 Z M 104 170 Q 102 173 103 180 L 108 184 L 107 177 L 105 173 L 106 171 L 104 170 Z M 176 170 L 171 174 L 172 175 L 177 172 Q 178 169 176 170 Z M 227 170 L 229 174 L 231 171 L 227 170 Z M 272 170 L 272 171 L 273 171 L 272 170 Z M 343 170 L 343 171 L 343 170 Z M 332 171 L 328 172 L 327 175 L 329 176 L 333 172 L 332 171 Z M 190 172 L 185 180 L 189 182 L 188 185 L 194 182 L 192 174 L 190 172 Z M 198 172 L 198 176 L 197 180 L 199 179 L 201 180 Q 200 183 203 185 L 203 193 L 206 193 Q 208 197 204 196 Q 201 197 202 201 L 212 201 L 210 197 L 211 194 L 213 200 Q 217 201 215 194 L 213 192 Q 210 191 212 190 L 209 186 L 208 187 L 206 185 Q 209 183 207 182 L 208 180 L 205 177 Q 201 178 202 175 L 199 175 L 198 172 Z M 346 172 L 346 174 L 351 176 L 351 174 L 346 172 Z M 370 172 L 370 173 L 370 172 Z M 363 173 L 363 174 Q 365 173 364 176 L 358 179 L 367 180 L 361 183 L 353 184 L 351 188 L 352 190 L 357 184 Q 361 183 359 189 L 362 189 L 363 186 Q 367 185 369 189 L 371 184 L 368 182 L 370 179 Q 372 180 371 178 Q 369 173 363 173 Z M 129 174 L 128 176 L 129 176 L 129 174 Z M 158 174 L 157 176 L 158 176 L 158 174 Z M 235 174 L 232 178 L 235 179 L 237 182 L 238 176 L 235 174 Z M 343 174 L 341 176 L 342 182 L 346 184 L 350 181 L 349 178 L 347 175 L 343 174 Z M 361 174 L 361 175 L 362 175 L 361 174 Z M 120 175 L 118 177 Q 119 179 116 178 L 115 182 L 115 183 L 120 183 Q 119 186 122 185 Q 121 179 125 177 L 120 175 Z M 230 175 L 230 176 L 230 175 Z M 229 176 L 229 177 L 229 176 Z M 325 176 L 323 177 L 319 182 Q 325 183 328 179 Q 329 174 325 176 Z M 337 176 L 332 181 L 334 187 L 336 186 L 337 184 L 337 176 Z M 127 177 Q 128 180 125 179 L 124 183 L 125 185 Q 124 187 123 185 L 121 188 L 124 194 L 124 195 L 131 193 L 135 200 L 137 196 L 140 194 L 139 191 L 133 192 L 132 189 L 129 190 L 125 189 L 129 178 L 127 177 Z M 93 178 L 88 181 L 88 182 L 92 182 L 93 180 L 93 178 Z M 162 178 L 165 182 L 165 181 L 162 178 Z M 257 178 Q 257 181 254 180 L 253 185 Q 251 190 255 189 L 257 185 L 257 178 Z M 331 178 L 331 179 L 331 178 Z M 97 179 L 95 181 Q 94 184 97 183 L 97 179 Z M 379 179 L 379 180 L 379 179 Z M 101 180 Q 98 183 99 189 L 97 188 L 95 189 Q 92 188 93 184 L 88 184 L 88 190 L 98 190 L 99 191 L 100 190 L 108 190 Q 110 189 108 188 Q 109 185 105 186 L 105 185 L 102 183 L 101 180 Z M 215 180 L 218 183 L 218 182 L 215 180 Z M 231 180 L 233 183 L 235 183 Q 235 180 231 180 Z M 372 180 L 372 181 L 372 180 Z M 373 180 L 373 182 L 376 183 L 377 184 L 376 182 Q 377 179 373 180 Z M 380 180 L 379 190 L 381 190 L 383 197 L 384 194 L 382 184 L 380 180 Z M 150 181 L 150 183 L 144 184 L 142 187 L 144 186 Q 150 185 152 188 L 152 182 L 150 181 Z M 371 181 L 371 182 L 371 181 Z M 180 182 L 177 184 L 180 184 L 180 182 Z M 199 182 L 199 183 L 199 182 Z M 78 183 L 77 185 L 78 185 L 78 183 Z M 195 183 L 192 186 L 193 188 L 198 184 L 195 183 Z M 73 184 L 73 190 L 71 190 L 70 192 L 73 192 L 76 190 L 75 186 Q 76 183 73 184 Z M 184 184 L 180 187 L 180 192 L 183 192 L 186 188 Q 188 183 184 184 Z M 214 184 L 215 188 L 218 188 L 223 193 L 225 193 L 224 187 L 223 185 L 214 184 Z M 331 184 L 327 192 L 331 193 L 333 201 L 336 202 L 338 198 L 336 192 Q 338 190 336 189 L 333 191 L 330 190 L 331 188 L 331 184 Z M 341 184 L 339 185 L 337 188 L 342 190 L 342 185 L 341 184 Z M 117 185 L 115 186 L 114 188 L 119 186 L 117 185 Z M 200 185 L 193 191 L 195 193 Q 198 192 197 196 L 197 197 L 201 195 L 201 186 L 200 185 Z M 245 185 L 247 190 Q 249 193 250 190 L 249 187 L 245 185 Z M 316 185 L 316 186 L 316 185 Z M 291 186 L 291 188 L 289 189 L 285 196 L 287 196 L 291 191 L 295 188 Q 296 184 291 186 Z M 244 188 L 243 190 L 244 190 L 244 188 Z M 273 188 L 271 190 Q 272 192 270 191 Q 265 193 269 195 L 277 189 L 273 188 Z M 305 188 L 305 189 L 305 188 Z M 348 188 L 344 193 L 347 199 Q 346 201 342 200 L 338 204 L 338 208 L 331 219 Q 332 221 329 220 L 327 229 L 324 233 Q 323 236 326 235 L 329 226 L 336 217 L 339 215 L 342 211 Q 341 207 345 208 L 347 204 L 351 201 L 355 194 L 358 193 L 357 189 L 352 193 L 349 193 L 349 188 L 348 188 Z M 67 189 L 67 190 L 68 190 L 67 189 Z M 140 189 L 139 191 L 140 191 L 140 189 Z M 145 189 L 143 191 Q 142 195 144 197 Q 143 200 147 198 Q 149 204 154 208 Q 153 210 156 209 Q 154 205 155 198 L 153 196 L 153 193 Q 149 194 150 192 Q 149 188 145 189 Z M 175 189 L 173 196 Q 174 198 171 197 L 171 199 Q 168 200 169 197 L 165 197 L 161 213 L 164 222 L 164 228 L 161 230 L 163 230 L 162 232 L 156 229 L 154 230 L 150 229 L 148 229 Q 147 231 150 230 L 150 232 L 155 232 Q 156 235 154 234 L 153 236 L 155 235 Q 159 234 157 238 L 160 238 Q 161 234 163 237 Q 165 238 164 235 Q 167 234 166 237 L 166 239 L 165 243 L 165 244 L 173 239 L 173 238 Q 165 240 167 234 L 172 231 Q 176 230 177 233 L 173 233 L 172 235 L 174 234 L 177 238 L 179 234 Q 183 232 179 230 Q 180 225 178 226 L 175 221 L 173 222 L 168 221 L 166 222 L 168 217 Q 167 214 170 215 L 170 213 L 173 213 L 172 219 L 178 219 L 179 221 L 180 216 L 179 215 L 179 206 L 175 196 L 176 194 L 175 192 Q 177 190 175 189 Z M 280 189 L 280 190 L 280 189 Z M 300 189 L 300 190 L 300 189 Z M 304 189 L 304 190 L 304 189 Z M 32 190 L 27 197 L 31 194 Q 33 195 32 193 Q 34 191 32 190 Z M 66 190 L 66 191 L 66 190 Z M 170 190 L 169 193 Q 167 194 170 195 L 170 193 Q 172 191 170 190 Z M 278 190 L 277 192 L 278 192 L 278 190 Z M 303 190 L 303 191 L 303 190 Z M 351 190 L 351 191 L 351 190 Z M 257 191 L 257 192 L 257 191 Z M 299 191 L 296 197 Q 295 199 298 198 L 300 192 L 299 191 Z M 337 191 L 337 193 L 340 194 L 340 193 L 337 191 Z M 45 192 L 40 200 L 40 201 L 46 200 L 45 198 L 46 195 Q 47 191 45 192 Z M 92 192 L 85 198 L 83 198 L 83 199 Q 89 200 92 197 L 94 194 L 92 192 Z M 105 192 L 104 194 L 108 196 Q 110 197 109 193 L 105 192 Z M 119 192 L 116 193 L 117 198 Q 113 200 105 199 L 103 199 L 104 203 L 108 201 L 112 202 L 113 202 L 113 206 L 115 206 L 121 193 L 119 192 Z M 158 192 L 156 195 L 159 206 L 161 205 Q 162 196 160 193 L 158 192 Z M 232 192 L 230 193 L 222 202 L 222 204 Q 220 205 223 206 L 226 202 Q 225 199 228 200 L 227 205 L 233 205 L 241 209 L 245 209 L 246 206 L 244 203 L 232 203 L 232 196 L 233 195 Q 234 191 232 192 Z M 242 192 L 236 197 L 237 202 L 240 201 L 242 201 L 247 203 Q 250 204 249 201 L 255 197 L 259 197 L 260 201 L 260 197 L 262 197 L 256 193 Q 250 192 249 195 Q 250 198 245 196 L 241 200 L 239 199 L 240 197 L 244 194 L 242 192 Z M 318 192 L 315 193 L 312 200 L 313 204 L 315 204 L 313 207 L 315 210 L 318 207 L 318 196 L 319 195 L 318 192 Z M 49 193 L 48 196 L 49 196 L 49 193 Z M 189 193 L 186 202 Q 182 203 185 205 L 182 210 Q 181 216 184 219 Q 183 222 187 220 L 188 215 Q 187 211 193 213 Q 195 214 194 218 L 198 215 L 197 211 L 203 207 L 200 204 L 194 206 L 192 206 L 190 207 L 188 204 L 189 201 Q 188 197 191 198 Q 192 195 189 196 L 189 193 Z M 327 193 L 327 194 L 327 193 Z M 267 194 L 267 195 L 267 194 Z M 313 194 L 309 199 L 312 198 L 313 196 L 313 194 Z M 99 195 L 97 197 Q 96 199 99 198 L 101 202 L 102 198 Q 103 193 99 195 Z M 180 195 L 181 202 L 184 197 L 180 195 Z M 217 195 L 218 201 Q 219 205 216 206 L 213 204 L 210 205 L 209 207 Q 213 205 212 209 Q 208 210 211 212 Q 212 216 208 217 Q 207 221 212 219 L 216 212 Q 217 209 221 210 Q 225 212 223 219 L 226 221 L 235 220 L 233 229 L 234 235 L 237 231 Q 238 224 236 221 L 239 223 Q 240 232 236 236 L 238 238 Q 240 239 239 236 L 241 236 L 245 243 L 246 237 Q 243 233 244 227 L 242 225 Q 243 222 240 223 L 240 221 L 246 222 L 249 218 Q 252 212 258 212 L 258 206 L 257 205 L 258 203 L 256 202 L 249 213 L 244 211 L 239 211 L 239 217 Q 235 218 236 215 L 232 215 L 231 219 L 226 218 L 226 213 L 220 207 L 220 203 L 224 197 L 217 195 Z M 324 195 L 322 197 L 323 201 L 328 201 L 324 195 Z M 328 195 L 327 197 L 330 198 L 330 196 L 328 195 Z M 33 196 L 33 197 L 33 196 Z M 342 196 L 342 198 L 345 198 L 342 196 Z M 32 197 L 32 198 L 32 197 Z M 194 197 L 191 202 Q 190 204 193 203 L 196 199 Q 197 196 194 197 Z M 321 197 L 319 199 L 320 205 L 321 202 L 321 197 Z M 30 198 L 29 200 L 30 200 L 30 198 Z M 69 198 L 67 205 L 70 205 L 73 202 L 79 200 L 79 198 L 69 198 Z M 139 198 L 138 202 Q 137 204 134 203 L 134 205 Q 133 207 136 206 L 138 210 L 142 212 Q 144 211 143 214 L 147 215 L 152 221 Q 155 220 153 224 L 158 225 L 157 217 L 144 203 L 142 200 L 139 198 Z M 200 198 L 200 199 L 201 199 L 200 198 Z M 254 198 L 250 204 L 249 208 L 250 208 Q 249 205 252 206 L 256 200 Q 257 197 254 198 Z M 97 199 L 91 208 Q 92 210 90 209 L 88 212 L 96 208 Q 95 205 98 204 L 97 199 Z M 92 201 L 91 203 L 92 203 L 92 201 Z M 123 201 L 121 202 L 119 206 L 127 206 L 127 205 L 123 201 Z M 329 201 L 329 202 L 330 202 L 329 201 Z M 28 202 L 26 206 Q 27 208 24 207 L 24 211 L 26 211 L 30 203 L 28 202 Z M 41 202 L 41 204 L 44 203 L 41 202 Z M 77 202 L 73 203 L 71 208 L 68 207 L 64 209 Q 65 211 62 210 L 62 214 L 60 215 L 56 220 L 58 221 L 64 215 L 66 216 L 65 218 L 69 215 L 73 217 L 75 216 L 78 217 L 77 213 Q 76 210 75 212 L 73 209 L 77 206 L 78 204 Q 79 201 77 202 Z M 291 202 L 285 210 L 286 215 L 286 217 L 285 221 L 286 223 Q 285 226 291 224 Q 296 228 297 234 L 305 236 L 306 236 L 303 234 Q 299 232 303 231 L 298 227 L 296 225 Q 295 221 290 222 L 294 220 L 300 223 L 300 222 L 295 217 Q 290 216 289 219 L 292 215 Q 296 217 295 213 L 292 214 Q 293 210 290 211 L 291 206 L 292 203 L 291 202 Z M 301 202 L 301 204 Q 303 207 304 204 Q 305 201 301 202 Z M 331 202 L 332 206 Q 335 207 334 205 L 331 202 Z M 110 203 L 104 207 L 109 207 Q 113 205 110 203 Z M 87 204 L 85 208 L 87 207 L 87 204 Z M 264 204 L 262 206 L 264 210 L 267 209 Q 268 211 269 209 L 264 204 Z M 280 204 L 277 211 Q 273 212 274 210 Q 273 207 271 210 Q 270 213 273 212 L 277 218 L 280 219 L 283 220 L 284 216 L 282 217 L 281 214 L 281 212 L 282 208 L 282 206 Q 283 203 280 204 Z M 309 204 L 305 209 Q 308 210 304 212 L 305 214 L 303 220 Q 307 219 308 223 L 305 227 L 310 230 L 313 230 L 310 224 Q 311 217 308 215 L 311 205 L 309 204 Z M 325 204 L 327 208 L 327 215 L 323 223 L 322 223 L 323 219 L 323 217 L 322 210 Q 324 208 322 207 L 319 208 Q 319 214 314 218 L 318 226 L 318 231 L 315 234 L 316 235 L 313 239 L 314 241 L 318 239 Q 316 234 320 235 L 329 217 L 329 214 L 332 211 L 332 208 L 328 204 L 325 204 Z M 389 205 Q 388 214 385 221 L 386 224 L 385 224 L 381 226 L 378 224 L 374 233 L 368 235 Q 364 236 365 233 Q 369 234 372 231 Q 374 232 373 228 L 368 229 Q 364 228 365 231 L 362 233 L 365 239 Q 364 244 366 246 L 365 250 L 363 239 L 361 238 L 361 247 L 362 248 L 362 249 L 359 246 L 360 232 L 358 233 Q 359 236 356 235 L 357 233 L 356 227 L 352 224 Q 353 226 351 225 L 349 225 L 351 228 L 350 233 L 353 235 Q 355 241 352 243 L 351 235 L 348 244 Q 346 249 350 248 Q 352 249 350 251 L 354 257 Q 357 258 356 256 L 363 252 L 366 256 L 373 253 L 379 256 L 379 254 Q 381 252 379 251 L 376 252 L 373 252 L 369 249 L 367 250 Q 368 240 374 235 L 375 238 L 381 232 L 396 228 L 396 227 L 391 227 L 385 229 L 387 224 L 390 222 L 393 218 L 393 211 L 391 212 Q 388 210 389 205 Z M 43 206 L 43 207 L 43 206 Z M 82 206 L 80 209 L 82 208 L 82 206 Z M 99 206 L 97 209 L 97 212 L 103 212 L 102 209 L 99 206 Z M 42 207 L 38 213 L 41 213 L 42 210 L 42 207 Z M 61 207 L 55 215 L 57 215 L 60 211 Q 59 208 62 209 Q 63 206 61 207 Z M 228 207 L 228 209 L 236 213 L 236 211 L 234 208 L 228 207 Z M 357 207 L 358 212 L 357 216 L 352 213 Q 349 214 350 211 L 345 210 L 346 214 L 350 217 L 351 216 L 356 217 L 362 225 L 363 223 Q 365 218 367 222 L 366 226 L 366 227 Q 372 228 374 226 L 369 212 L 363 215 Q 364 211 362 210 Q 359 211 360 209 L 357 207 Z M 116 208 L 116 211 L 119 212 Q 123 213 124 211 L 123 209 L 116 208 Z M 125 208 Q 124 211 127 210 Q 128 207 125 208 Z M 130 208 L 130 211 L 127 212 L 124 216 Q 126 218 133 217 L 134 219 L 134 224 L 141 224 L 143 229 L 147 226 L 150 226 L 147 223 Q 148 220 146 221 L 143 218 L 130 208 Z M 105 209 L 104 215 L 106 215 Q 105 212 108 211 Q 109 207 105 209 Z M 377 209 L 374 214 L 380 223 L 381 220 L 380 220 L 378 218 Q 377 212 379 211 Q 380 208 377 209 Z M 112 210 L 112 211 L 113 211 L 112 210 Z M 49 211 L 47 213 L 48 216 L 50 212 L 49 211 Z M 111 211 L 109 213 Q 108 215 111 214 L 111 211 Z M 284 211 L 284 212 L 284 211 Z M 302 211 L 302 212 L 302 211 Z M 92 212 L 92 214 Q 94 217 95 214 Q 96 211 92 212 Z M 115 212 L 111 216 L 115 217 L 113 218 L 111 221 L 114 220 L 117 218 Q 118 216 119 219 Q 118 222 122 220 L 120 214 L 115 212 Z M 203 212 L 199 219 L 206 213 L 203 212 Z M 266 212 L 263 217 Q 260 213 255 214 Q 254 219 258 222 Q 259 226 257 227 L 254 226 L 256 229 Q 259 230 258 228 L 267 221 L 269 222 L 268 222 L 266 225 L 268 224 L 268 226 L 263 230 L 266 234 Q 265 243 259 248 L 261 248 L 260 250 L 261 252 L 264 247 Q 266 248 265 245 Q 270 243 269 247 Q 273 248 275 245 L 279 247 L 279 246 L 286 251 L 284 246 L 281 243 Q 278 244 279 241 L 282 241 Q 281 244 284 243 L 290 254 L 288 257 L 298 257 L 298 254 L 291 245 Q 292 242 290 243 L 288 241 L 288 239 Q 290 238 289 241 Q 292 242 291 240 L 287 237 L 291 236 L 293 239 L 294 239 L 289 228 L 287 231 Q 284 232 285 229 L 283 229 L 280 224 Q 281 220 278 221 L 277 225 L 279 225 L 278 227 L 279 237 L 281 238 L 281 231 L 283 232 L 282 239 L 280 240 L 276 230 L 270 244 L 267 244 L 267 232 L 269 228 Q 273 229 271 224 L 276 225 L 276 217 L 272 217 L 269 213 L 266 212 Z M 298 212 L 296 215 Q 300 222 303 215 L 302 214 L 301 215 L 298 212 Z M 80 214 L 79 216 L 80 216 L 80 214 Z M 109 214 L 109 215 L 109 214 Z M 342 214 L 339 220 Q 340 222 337 221 L 330 235 L 336 238 L 341 228 L 347 231 L 349 230 L 345 224 L 347 220 L 346 216 L 342 214 Z M 296 215 L 296 216 L 296 215 Z M 398 215 L 397 218 L 401 218 L 402 221 Q 396 220 394 224 L 397 225 L 402 224 L 405 220 L 404 217 Q 400 218 401 215 L 398 215 Z M 85 216 L 82 220 L 87 217 L 85 216 Z M 190 216 L 189 225 L 186 229 Q 185 232 188 231 L 195 223 Q 196 220 193 221 L 190 216 Z M 253 216 L 251 220 L 254 219 L 253 216 Z M 373 216 L 373 220 L 375 221 L 374 219 Q 375 215 373 216 Z M 91 217 L 88 222 L 89 224 Q 88 226 92 225 L 94 220 L 91 217 Z M 109 217 L 108 218 L 101 218 L 103 221 Q 109 222 110 219 Q 111 216 109 217 Z M 220 217 L 213 228 Q 212 231 215 230 L 221 223 Q 222 216 220 217 Z M 205 218 L 200 224 L 203 224 Q 202 221 205 220 L 205 218 Z M 215 219 L 215 220 L 215 219 Z M 313 219 Q 311 225 314 228 Q 313 230 316 229 Q 316 222 313 219 Z M 353 219 L 358 229 L 360 230 L 359 224 L 355 219 L 353 219 Z M 62 220 L 55 225 L 57 225 L 60 224 L 62 225 L 63 223 L 62 220 Z M 214 220 L 212 223 L 214 222 L 214 220 Z M 74 221 L 72 223 Q 70 228 74 227 L 75 232 L 74 243 L 78 242 L 77 238 L 82 226 Q 79 225 78 228 L 75 227 Q 76 220 74 221 Z M 86 221 L 83 225 L 87 223 Q 88 220 86 221 Z M 116 221 L 107 226 Q 106 229 109 230 L 113 230 Q 112 227 117 228 L 118 226 L 117 223 Q 118 220 116 221 Z M 376 221 L 375 223 L 377 224 L 376 221 Z M 69 222 L 65 226 Q 64 229 68 227 L 69 235 L 69 232 L 69 230 L 70 225 Q 71 221 69 222 Z M 102 222 L 95 225 L 104 228 L 106 225 Q 106 222 102 222 Z M 123 223 L 123 224 L 124 224 L 123 223 Z M 230 223 L 227 227 Q 228 231 226 230 L 226 232 L 226 234 L 231 234 L 231 226 L 232 225 L 230 223 Z M 305 223 L 305 224 L 305 223 Z M 348 223 L 348 224 L 349 224 L 348 223 Z M 129 224 L 130 226 L 132 225 L 129 224 Z M 197 225 L 194 229 L 197 227 L 197 225 Z M 248 225 L 250 233 Q 251 238 248 239 L 254 242 Q 256 241 255 244 L 257 244 L 258 242 Q 259 237 256 237 L 256 235 L 254 235 L 254 230 L 248 225 Z M 264 225 L 264 226 L 264 225 Z M 404 225 L 403 229 L 410 228 L 411 227 Q 409 224 404 225 Z M 59 226 L 57 229 L 59 228 L 59 226 Z M 121 226 L 121 229 L 124 230 Q 128 231 126 227 L 121 226 Z M 263 226 L 263 227 L 263 226 Z M 65 227 L 64 229 L 65 229 L 65 227 Z M 95 227 L 93 230 L 94 232 Q 93 235 96 234 Q 97 229 95 227 Z M 246 227 L 247 235 L 248 235 Q 249 229 246 227 Z M 262 227 L 257 230 Q 255 235 259 234 Q 258 230 262 229 L 262 227 Z M 273 227 L 270 233 L 271 236 L 273 230 L 273 227 Z M 97 228 L 97 234 L 101 234 L 103 231 L 97 228 Z M 158 228 L 158 229 L 161 229 L 158 228 Z M 292 228 Q 290 233 295 235 L 296 235 L 292 228 Z M 56 229 L 56 230 L 56 229 Z M 60 229 L 55 234 L 57 235 L 60 233 L 60 229 Z M 88 229 L 88 232 L 91 233 Q 93 227 88 229 Z M 203 229 L 202 230 Q 197 229 199 233 L 206 238 L 208 235 L 210 236 L 209 242 L 212 241 L 211 238 Q 212 233 210 234 L 208 232 Q 206 227 205 230 L 203 229 Z M 224 229 L 224 230 L 224 229 Z M 73 230 L 71 234 Q 70 238 73 237 L 73 230 Z M 114 230 L 117 233 Q 119 229 114 230 Z M 134 230 L 132 232 L 134 232 L 135 233 Q 136 229 134 230 Z M 143 230 L 139 233 L 146 233 Q 148 229 143 230 Z M 223 230 L 223 231 L 223 230 Z M 341 230 L 339 236 L 346 239 Q 348 240 347 237 L 349 234 Q 344 236 345 232 L 341 230 Z M 196 231 Q 193 233 196 234 L 197 232 L 196 231 Z M 222 231 Q 217 234 222 236 L 222 234 Q 224 232 222 231 Z M 392 231 Q 389 234 383 233 L 379 236 L 388 236 L 389 236 Q 388 239 391 238 L 390 240 L 385 238 L 383 239 L 373 239 L 372 247 Q 378 248 381 245 Q 383 246 382 243 L 388 241 L 392 242 L 397 241 Q 399 240 397 239 Q 398 236 395 237 L 392 239 L 397 235 L 398 233 L 394 233 Q 395 230 392 231 Z M 308 232 L 308 236 L 312 237 L 313 233 L 308 232 Z M 103 233 L 102 237 L 105 235 Q 106 232 103 233 Z M 121 233 L 120 242 L 124 241 L 123 238 Q 124 234 121 235 L 121 233 Z M 263 233 L 260 234 L 259 237 Q 258 244 261 243 L 263 238 L 263 233 Z M 350 233 L 350 234 L 350 233 Z M 65 234 L 62 235 L 61 238 L 62 241 Q 61 244 64 243 L 66 238 L 65 234 Z M 83 234 L 84 241 L 86 240 L 89 244 L 90 244 L 87 239 L 93 243 L 95 243 L 95 238 L 94 238 L 92 235 L 83 234 Z M 148 234 L 145 236 L 149 236 Q 150 233 148 234 Z M 189 234 L 189 236 L 193 237 L 194 238 L 193 236 L 193 234 L 189 234 Z M 226 234 L 226 235 L 226 234 Z M 117 235 L 115 237 L 117 237 L 117 235 Z M 125 235 Q 123 239 128 238 L 130 242 L 129 244 Q 126 243 127 246 Q 126 249 121 248 L 120 253 L 114 256 L 115 258 L 119 258 L 131 249 Q 135 246 134 239 L 125 235 Z M 136 235 Q 135 238 139 237 Q 140 234 136 235 Z M 182 235 L 180 239 L 187 244 L 186 251 L 190 250 Q 192 254 194 250 L 190 248 L 188 241 L 192 243 L 191 239 L 188 239 L 182 235 Z M 199 236 L 199 239 L 202 240 L 202 238 L 199 236 Z M 223 236 Q 220 237 222 239 Q 221 242 224 241 L 225 237 L 223 236 Z M 300 236 L 301 242 L 300 252 L 304 252 L 304 248 L 308 246 L 308 244 L 311 243 Q 313 244 312 241 L 307 243 L 304 239 Q 303 236 300 236 Z M 329 236 L 328 239 L 329 239 L 329 236 Z M 56 237 L 51 240 L 54 240 L 48 249 L 57 243 L 56 245 L 57 250 L 60 246 L 59 241 Q 61 235 56 237 Z M 81 237 L 79 240 L 81 239 L 81 237 Z M 113 237 L 112 242 L 112 243 L 114 242 Q 117 241 115 247 L 118 248 L 119 249 L 118 241 L 113 237 Z M 141 237 L 139 240 Q 142 241 143 239 L 141 237 Z M 269 237 L 269 239 L 271 238 L 269 237 Z M 97 238 L 96 246 L 92 247 L 93 251 L 97 253 L 96 252 L 99 247 Q 101 248 100 246 Q 96 244 100 242 L 99 240 Q 100 237 97 238 Z M 148 238 L 147 240 L 148 240 L 148 238 Z M 152 238 Q 150 243 154 245 L 157 245 L 155 244 L 154 242 Q 155 237 152 238 Z M 194 238 L 195 247 L 200 243 L 199 241 L 194 238 Z M 107 239 L 105 243 Q 106 245 108 243 Q 110 244 109 241 L 107 239 Z M 232 239 L 228 248 Q 226 253 230 252 L 232 245 L 232 239 Z M 295 239 L 295 240 L 295 239 Z M 338 239 L 332 240 L 331 243 Q 332 245 330 244 L 327 241 L 325 242 Q 328 243 327 248 L 327 250 L 328 252 Q 327 256 332 254 L 332 258 L 336 259 Q 339 258 338 252 L 335 249 Q 332 248 333 245 L 337 243 L 341 254 L 343 253 L 344 250 L 344 245 L 341 241 L 338 239 Z M 51 240 L 48 243 Q 45 242 46 246 L 51 242 L 51 240 Z M 296 240 L 297 245 L 296 249 L 299 249 L 299 241 L 298 241 L 296 240 Z M 37 241 Q 38 244 35 243 L 34 247 L 40 244 Q 41 239 37 241 Z M 67 241 L 60 250 L 62 249 L 65 250 L 63 251 L 62 253 L 65 252 L 69 253 L 71 252 L 73 253 L 69 258 Q 68 260 71 259 L 73 256 L 74 256 L 72 266 Q 75 267 74 264 L 77 262 L 78 261 Q 77 255 79 254 Q 78 251 81 252 L 83 251 L 79 256 L 80 258 L 82 257 L 84 254 Q 83 251 86 252 L 88 249 Q 87 254 90 255 L 90 251 L 92 251 L 90 246 L 85 244 L 83 248 L 81 249 L 78 245 Q 75 244 76 247 L 68 249 L 69 244 Q 70 240 67 241 Z M 218 241 L 217 243 L 218 243 L 218 241 Z M 292 241 L 291 243 L 293 244 L 292 241 Z M 172 242 L 172 243 L 172 242 Z M 241 242 Q 238 243 240 245 L 239 247 L 236 243 L 232 255 L 234 254 Q 236 255 235 252 L 244 248 L 243 246 Q 244 243 241 244 L 241 242 Z M 74 243 L 74 244 L 74 243 Z M 136 243 L 136 245 L 136 246 L 139 244 L 136 243 Z M 142 243 L 140 245 L 142 248 L 141 250 L 139 250 L 139 252 L 133 252 L 133 250 L 131 251 Q 127 252 128 256 L 131 257 L 135 257 L 141 253 Q 143 254 142 251 L 148 246 L 149 243 L 147 244 L 142 243 Z M 202 243 L 202 252 L 206 252 L 206 246 L 205 245 Q 206 242 202 243 Z M 246 243 L 246 244 L 246 243 Z M 249 243 Q 248 247 252 248 L 253 245 L 249 243 Z M 391 243 L 390 244 L 383 244 L 383 247 L 383 248 Q 389 249 392 247 L 391 243 Z M 80 244 Q 79 247 82 246 Q 83 243 80 244 Z M 124 244 L 124 245 L 124 244 Z M 160 244 L 162 249 L 165 250 Q 168 248 163 246 Q 164 242 160 244 Z M 174 244 L 167 248 L 168 250 Q 174 249 177 252 L 180 256 Q 183 254 182 248 L 176 250 L 175 248 L 176 246 Q 177 243 174 244 Z M 226 244 L 224 248 L 225 251 L 226 248 L 226 244 Z M 150 245 L 148 248 L 150 248 Q 153 247 150 245 Z M 336 245 Q 334 248 337 247 L 336 245 Z M 71 246 L 71 247 L 72 247 L 71 246 Z M 110 246 L 109 248 L 110 248 L 110 246 Z M 312 246 L 310 247 L 310 249 L 309 251 L 312 250 L 312 246 Z M 199 247 L 191 257 L 192 261 L 191 263 Q 190 268 193 270 L 196 264 Q 197 260 194 261 L 194 258 L 198 257 L 199 252 L 199 247 Z M 218 247 L 217 252 L 218 252 L 218 247 Z M 276 247 L 272 256 L 275 257 L 277 261 L 274 265 L 272 266 L 269 262 Q 263 261 261 264 L 257 259 L 249 270 L 249 275 L 254 274 L 263 267 L 268 267 L 269 270 L 272 272 L 271 275 L 272 278 L 274 277 L 277 274 L 278 264 Q 280 259 282 262 L 285 254 L 282 250 L 281 251 L 276 250 L 276 247 Z M 280 247 L 279 249 L 281 250 L 280 247 Z M 45 248 Q 45 251 42 250 Q 41 253 45 252 L 45 248 Z M 111 248 L 110 251 L 111 251 L 111 248 Z M 138 248 L 138 249 L 138 248 Z M 148 248 L 146 251 L 148 250 L 148 248 Z M 265 248 L 262 254 L 263 257 L 264 254 L 267 252 L 268 249 L 265 248 Z M 51 249 Q 52 252 50 251 L 47 258 L 53 254 Q 55 248 51 249 Z M 160 249 L 154 257 L 156 257 L 155 260 Q 156 262 154 261 L 153 263 L 156 262 L 159 257 L 161 258 L 163 254 L 161 251 Q 162 248 160 249 Z M 248 249 L 248 250 L 248 249 Z M 323 249 L 322 252 Q 323 254 321 253 L 317 258 L 319 261 L 319 264 L 315 258 L 314 263 L 316 262 L 315 264 Q 310 261 311 253 L 308 252 Q 305 251 306 255 L 300 254 L 301 258 L 300 261 L 304 262 L 308 261 L 313 264 L 314 270 L 318 272 Q 320 271 319 274 L 322 275 L 323 270 L 330 264 Q 333 265 332 262 L 331 262 L 328 262 L 328 260 L 322 260 Q 321 253 325 252 Q 326 248 323 249 Z M 255 250 L 249 256 Q 250 258 247 257 L 248 264 L 256 254 L 255 250 Z M 271 250 L 267 255 L 265 258 L 270 256 Q 273 257 271 253 Q 273 251 271 250 Z M 101 251 L 100 252 Q 97 251 98 254 L 101 255 L 102 256 Q 104 250 101 251 Z M 42 252 L 42 253 L 42 252 Z M 202 252 L 202 253 L 202 252 Z M 217 252 L 216 254 L 217 254 L 217 252 Z M 228 252 L 227 254 L 228 254 L 228 252 Z M 242 252 L 232 261 Q 233 263 230 262 L 227 268 L 228 269 L 235 265 L 236 263 L 240 261 L 244 255 Q 245 251 242 252 Z M 166 253 L 162 259 L 164 261 Q 166 262 165 259 L 169 257 Q 170 254 166 255 L 166 253 Z M 211 253 L 212 258 L 213 254 L 211 253 Z M 347 253 L 347 256 L 351 258 L 351 256 L 347 253 Z M 64 254 L 63 256 Q 59 255 58 259 L 59 260 Q 60 256 64 257 L 64 254 Z M 145 254 Q 144 258 147 257 Q 148 253 145 254 Z M 185 254 L 182 257 Q 183 259 180 258 Q 180 265 184 271 L 184 275 L 186 276 L 188 258 L 188 256 L 185 254 Z M 361 254 L 358 257 Q 359 259 356 258 L 355 262 L 356 264 Q 358 270 355 272 L 356 274 L 365 270 L 367 271 L 373 267 L 378 266 L 381 267 Q 383 268 382 265 L 379 262 L 369 264 L 362 269 Q 358 270 359 268 L 366 263 L 379 259 L 380 257 L 372 259 L 370 259 L 373 257 L 373 256 L 369 256 L 363 260 L 359 263 L 362 258 Q 363 253 361 254 Z M 85 255 L 85 257 L 82 258 L 85 269 Q 83 261 88 260 L 87 257 Q 88 254 85 255 Z M 343 255 L 342 257 L 343 257 L 343 255 Z M 91 256 L 91 257 L 91 256 Z M 94 256 L 94 262 L 96 263 L 95 258 L 97 257 L 94 256 Z M 152 256 L 150 259 L 151 261 L 152 258 L 154 258 L 152 256 Z M 173 256 L 169 263 Q 168 269 171 268 L 175 259 Q 176 255 173 256 Z M 218 256 L 214 258 L 212 261 L 211 264 L 214 279 L 221 269 L 219 265 L 220 263 L 218 256 Z M 325 256 L 324 258 L 327 257 L 325 256 Z M 98 257 L 97 259 L 98 259 L 98 257 Z M 314 257 L 314 258 L 314 257 Z M 342 257 L 342 258 L 342 257 Z M 346 257 L 344 258 L 341 262 L 339 263 Q 345 262 347 266 L 343 271 L 345 274 L 346 281 Q 349 280 351 283 Q 354 284 355 282 L 355 279 L 350 271 L 350 261 L 346 257 Z M 67 258 L 64 262 Q 65 264 62 263 L 57 272 L 59 274 L 59 273 L 63 270 L 67 263 L 67 258 Z M 125 258 L 120 263 L 128 274 L 131 275 L 133 280 L 137 281 Q 139 280 138 283 L 142 285 Q 144 284 143 287 L 154 294 L 157 292 Q 156 289 159 290 L 158 288 L 162 276 L 161 276 Q 162 278 160 277 L 158 281 L 156 282 Q 154 280 153 283 Q 154 286 150 284 L 152 275 L 150 276 L 146 275 L 144 272 Q 143 266 146 264 Q 147 261 144 262 L 142 266 L 138 267 L 137 274 L 135 275 Q 133 277 132 275 L 133 268 L 128 267 L 127 265 L 128 262 Q 130 256 125 258 Z M 226 258 L 223 259 Q 222 263 225 262 L 226 260 L 226 258 Z M 340 258 L 338 260 Q 335 259 336 262 L 334 262 L 334 264 Q 332 265 335 266 L 339 264 L 338 261 L 341 260 Q 342 257 340 258 Z M 288 259 L 287 261 L 292 261 L 288 259 Z M 58 260 L 58 261 L 58 260 Z M 203 261 L 201 264 Q 202 267 199 266 L 198 272 L 193 275 L 193 273 L 191 276 Q 189 281 195 279 L 197 276 L 200 274 L 194 283 L 191 284 L 190 288 L 190 312 L 191 316 L 194 317 L 198 311 L 200 303 L 204 297 L 209 283 Q 210 276 208 277 L 202 268 L 203 266 L 203 264 L 203 261 Z M 273 261 L 273 262 L 273 261 Z M 299 261 L 291 263 L 293 267 L 300 265 L 301 262 L 299 261 Z M 79 262 L 79 263 L 79 262 Z M 150 262 L 146 269 L 147 271 L 148 269 L 151 267 L 150 262 Z M 158 262 L 157 266 L 159 265 L 158 262 Z M 240 262 L 239 266 Q 240 268 236 267 Q 229 270 231 281 L 235 280 L 236 278 L 239 276 L 240 273 L 243 271 Q 246 269 244 264 L 240 262 Z M 78 263 L 76 266 Q 73 265 74 268 L 78 266 L 78 263 Z M 281 263 L 279 267 L 279 275 L 281 275 L 281 263 Z M 176 264 L 176 274 L 176 276 Q 177 278 174 277 L 174 280 Q 170 281 171 279 L 167 275 L 163 285 L 167 284 Q 173 283 172 286 L 167 290 L 168 293 Q 167 298 171 296 L 172 294 L 172 296 L 175 297 L 180 296 L 180 298 Q 183 299 184 297 L 184 286 L 180 279 L 179 271 L 176 264 Z M 306 264 Q 307 267 305 266 L 306 269 L 304 268 L 301 269 L 299 272 L 305 270 L 307 272 L 302 274 L 303 279 L 307 280 Q 309 279 308 282 L 313 285 L 315 292 L 319 290 Q 324 292 323 289 Q 322 284 316 285 L 316 284 Q 318 285 317 281 Q 314 275 308 275 Q 307 271 310 270 Q 314 272 313 268 L 309 264 L 306 264 Z M 354 264 L 351 267 Q 349 271 353 270 L 354 271 L 354 264 Z M 287 265 L 285 268 Q 287 272 289 269 L 288 271 L 290 273 L 290 268 L 287 265 Z M 341 265 Q 338 268 332 267 L 329 271 L 332 270 L 336 273 L 336 272 L 345 267 Q 346 263 341 265 Z M 197 266 L 196 268 L 197 268 L 197 266 Z M 67 267 L 64 272 L 64 273 L 68 271 L 69 268 L 67 267 Z M 154 267 L 152 271 L 154 272 L 154 267 Z M 72 268 L 69 275 L 73 273 L 72 268 Z M 196 268 L 195 270 L 196 270 L 196 268 Z M 263 269 L 261 270 L 259 273 L 268 270 L 263 269 Z M 284 269 L 282 271 Q 280 277 284 277 Q 287 278 286 285 L 288 286 L 286 278 L 287 275 L 286 270 L 284 269 Z M 373 269 L 371 271 L 376 272 L 378 276 Q 379 280 384 279 L 383 273 L 377 269 L 373 269 Z M 78 270 Q 74 270 74 276 L 77 274 L 78 275 L 79 273 L 78 270 Z M 134 270 L 134 272 Q 132 273 135 274 L 136 271 L 134 270 Z M 150 271 L 148 274 L 150 273 L 150 271 Z M 156 271 L 153 277 Q 152 280 156 279 Q 158 278 156 277 L 159 273 Q 160 269 156 271 Z M 267 271 L 265 272 Q 260 274 263 276 L 262 278 L 261 280 Q 263 277 268 278 L 270 273 L 267 271 Z M 312 271 L 310 273 L 319 278 L 319 276 L 312 271 Z M 327 271 L 322 277 L 323 278 L 333 275 L 332 273 L 330 274 Q 327 275 328 271 L 327 271 Z M 153 272 L 152 274 L 153 274 L 153 272 Z M 368 272 L 364 277 L 360 275 Q 360 280 364 282 L 367 281 Q 370 280 369 276 L 369 274 Q 370 271 368 272 Z M 374 273 L 375 284 L 382 282 L 379 278 L 374 273 Z M 163 274 L 163 275 L 163 274 Z M 227 274 L 219 279 L 212 291 L 210 300 L 211 302 L 219 297 L 226 289 L 228 284 L 228 275 L 227 274 Z M 340 274 L 339 279 L 344 280 L 343 276 Q 344 273 340 274 Z M 245 275 L 243 276 L 231 289 Q 229 298 233 303 L 235 302 L 236 299 L 240 298 L 238 289 L 244 290 L 248 293 L 249 289 L 254 285 L 256 282 Q 255 279 258 280 L 258 278 L 245 285 Q 241 286 240 284 L 245 278 L 245 275 Z M 298 275 L 295 277 L 298 280 L 301 279 L 300 277 Q 301 274 298 275 Z M 335 275 L 334 276 Q 331 275 332 278 L 335 279 L 337 281 L 336 279 L 338 276 L 335 275 Z M 251 276 L 249 280 Q 253 281 254 278 Q 255 275 251 276 Z M 289 276 L 289 280 L 292 281 Q 296 283 296 289 L 306 289 L 309 292 L 304 294 L 305 296 Q 306 299 310 298 L 312 298 L 314 299 L 313 295 L 309 295 L 312 293 L 313 290 L 312 288 L 306 284 Q 303 285 304 281 L 302 282 L 299 282 L 289 276 Z M 74 278 L 74 279 L 74 278 Z M 279 278 L 276 281 L 275 285 L 277 285 L 279 281 Q 281 279 279 278 Z M 320 278 L 319 280 L 322 281 L 331 281 L 329 279 L 326 280 L 320 278 Z M 358 278 L 356 280 Q 354 285 358 284 L 360 289 L 360 291 L 358 294 L 358 296 Q 363 298 364 304 L 369 305 L 370 303 L 367 297 L 367 295 L 361 295 L 364 287 Q 365 283 363 284 L 358 278 Z M 68 279 L 66 282 L 68 281 L 68 279 Z M 283 279 L 279 285 Q 278 287 282 286 Q 287 290 290 298 L 294 290 Q 295 284 292 283 Q 289 284 291 286 L 290 288 L 286 289 L 285 283 L 283 279 Z M 246 280 L 244 283 L 246 282 L 246 280 Z M 264 280 L 255 286 L 258 289 L 261 288 L 270 289 L 272 287 L 274 280 L 268 284 L 266 284 L 266 280 L 264 280 Z M 74 281 L 74 282 L 74 281 Z M 306 281 L 307 283 L 308 283 L 306 281 Z M 337 281 L 337 283 L 333 282 L 329 283 L 326 286 L 328 289 L 332 290 L 334 289 Q 335 286 332 285 L 335 284 L 336 286 L 341 283 Q 342 279 337 281 Z M 324 283 L 324 284 L 324 283 Z M 346 283 L 346 289 L 351 289 Q 350 292 353 291 L 354 294 L 353 296 L 352 295 L 349 292 Q 346 293 347 291 L 346 291 L 348 295 L 347 299 L 340 303 L 337 303 L 336 294 Q 330 292 332 298 L 335 300 L 335 303 L 333 300 L 331 301 Q 332 303 329 302 L 327 299 L 318 302 L 324 304 L 325 304 L 325 308 L 323 309 L 327 311 Q 327 308 332 308 L 330 312 L 338 310 L 340 307 L 345 308 L 346 311 L 348 312 L 345 306 L 348 302 L 351 303 Q 353 304 352 302 L 356 299 L 355 294 L 355 292 L 356 287 L 346 283 Z M 342 284 L 342 287 L 342 289 Q 341 291 345 290 L 345 284 L 342 284 Z M 368 284 Q 364 285 365 289 L 368 288 L 368 284 Z M 380 284 L 380 285 L 381 285 L 380 284 Z M 116 286 L 116 287 L 118 287 L 116 286 Z M 168 286 L 168 287 L 168 286 Z M 119 287 L 119 288 L 120 288 L 119 287 Z M 254 287 L 248 295 L 245 293 Q 240 291 241 295 Q 243 299 250 299 L 248 302 L 249 303 L 253 302 L 254 305 L 257 306 L 259 309 Q 258 313 261 314 L 266 312 L 269 307 Q 268 304 271 305 L 270 302 L 271 298 Q 268 297 269 300 L 263 305 L 261 305 L 265 302 L 267 299 L 262 300 Q 259 299 260 303 L 257 303 L 252 298 L 252 295 Q 253 292 255 294 Q 257 293 256 296 Q 257 299 262 298 L 261 297 L 263 293 L 261 293 L 262 290 L 259 292 Q 260 294 258 293 L 254 287 Z M 282 289 L 282 290 L 282 289 Z M 115 290 L 114 291 Q 111 290 112 293 L 107 293 Q 106 296 109 295 L 108 297 Q 109 299 106 298 Q 105 301 109 300 L 114 293 Q 119 295 118 292 L 115 290 Z M 163 290 L 163 291 L 163 290 Z M 270 290 L 265 293 L 264 297 L 269 298 L 269 294 L 272 293 Q 274 294 273 292 L 270 290 Z M 282 290 L 282 293 L 286 296 L 285 292 L 282 290 Z M 358 290 L 357 292 L 358 292 L 358 290 Z M 162 291 L 158 293 Q 155 295 158 296 Q 160 297 159 294 L 162 293 L 162 291 Z M 279 291 L 276 293 L 275 295 Q 277 294 276 297 L 273 298 L 272 301 L 281 301 L 283 303 L 286 302 Q 291 304 290 300 Q 285 301 284 296 Q 281 297 282 295 L 279 293 L 279 291 Z M 295 291 Q 296 294 293 293 L 292 297 L 299 300 L 302 302 Q 305 304 304 309 Q 301 310 302 306 L 297 306 L 291 303 L 291 305 Q 294 304 293 307 L 285 312 L 288 313 L 291 312 Q 297 311 300 314 L 299 316 L 292 319 Q 289 321 292 322 Q 295 321 293 325 L 298 326 Q 300 325 299 328 L 300 328 L 299 323 L 300 319 L 305 316 L 322 314 L 323 311 L 313 313 Q 307 315 308 311 L 311 308 L 322 306 L 312 305 L 310 304 L 311 302 L 309 300 L 306 309 L 305 309 L 306 305 Q 305 297 302 293 Q 299 294 300 291 L 295 291 Z M 318 292 L 317 293 Q 313 292 314 295 L 316 296 L 325 298 L 326 294 Q 324 290 318 292 Z M 337 292 Q 336 296 339 295 Q 340 291 337 292 Z M 120 293 L 120 298 L 122 298 L 122 293 L 120 293 Z M 139 293 L 137 295 L 139 298 L 140 298 Q 141 294 139 293 Z M 165 293 L 162 294 L 160 299 L 157 301 L 155 298 L 148 300 L 149 304 L 147 307 L 151 312 Q 153 313 152 311 L 152 309 L 151 304 L 153 304 L 153 302 L 160 302 L 161 301 L 161 303 L 164 302 L 169 305 L 173 302 Q 174 297 169 299 Q 167 303 165 300 L 166 297 Q 167 292 165 293 Z M 329 293 L 329 294 L 330 294 L 329 293 Z M 343 293 L 343 294 L 343 293 Z M 116 294 L 116 295 L 116 294 Z M 115 295 L 111 299 L 114 299 L 115 297 L 115 295 Z M 126 295 L 124 299 L 125 299 Q 124 296 127 297 L 126 295 Z M 225 295 L 219 299 L 217 304 L 224 306 L 226 303 L 225 295 Z M 345 295 L 344 296 Q 341 295 342 298 L 342 299 L 345 298 L 345 295 Z M 150 296 L 149 298 L 151 297 L 150 296 Z M 255 296 L 254 298 L 255 298 L 255 296 Z M 135 297 L 137 300 Q 139 301 138 299 L 135 297 Z M 116 298 L 116 300 L 113 302 L 113 303 Q 117 304 118 301 Q 119 297 116 298 Z M 292 298 L 291 300 L 297 304 L 300 304 Q 297 299 292 298 Z M 127 299 L 123 304 Q 121 309 125 308 L 128 302 Q 129 298 127 299 Z M 341 299 L 341 300 L 341 299 Z M 104 300 L 104 302 L 106 301 L 104 300 Z M 145 300 L 141 303 Q 140 306 143 305 Q 144 308 146 304 Q 147 299 145 300 Z M 240 300 L 240 301 L 240 300 Z M 179 301 Q 176 302 178 304 L 177 308 L 183 313 L 181 317 L 179 316 L 179 315 Q 181 316 180 313 L 174 309 L 175 307 L 175 305 L 170 308 L 168 307 L 165 308 Q 161 309 162 306 Q 159 309 153 308 L 155 312 L 159 309 Q 162 308 161 311 L 158 312 L 158 313 L 162 312 L 162 315 L 161 318 L 163 319 L 166 315 L 167 321 L 169 318 L 167 313 L 167 311 L 171 309 L 175 318 L 174 320 L 173 322 L 176 321 L 181 322 L 179 320 Q 178 317 182 318 L 184 325 L 180 331 L 181 334 L 187 333 L 186 337 Q 183 336 184 340 L 186 339 L 188 340 L 189 340 L 188 339 L 188 327 L 185 317 L 185 306 L 184 304 Q 186 302 184 301 L 182 302 L 179 301 Z M 278 302 L 276 304 L 278 307 L 278 305 Q 280 303 278 302 Z M 354 302 L 354 306 L 357 310 L 357 304 L 354 302 Z M 160 303 L 160 304 L 161 304 L 160 303 Z M 227 303 L 226 310 L 233 312 L 235 312 Q 237 313 236 310 L 239 310 L 240 311 L 239 308 Q 236 309 237 307 L 236 306 L 238 303 L 234 305 Q 230 306 231 303 L 227 303 Z M 288 303 L 281 308 L 282 311 L 284 310 Q 286 311 285 308 Q 289 309 290 307 L 288 303 Z M 154 304 L 154 305 L 154 304 Z M 347 304 L 347 307 L 353 313 Q 355 312 354 315 L 350 312 Q 347 311 348 314 L 350 315 L 349 317 L 355 316 L 357 316 L 360 317 L 362 313 L 365 314 L 370 314 Q 369 311 368 313 Q 366 310 360 311 L 362 308 L 361 306 L 359 305 L 359 312 L 355 312 L 353 308 Q 352 303 347 304 Z M 375 304 L 373 306 L 377 314 Q 376 316 379 315 L 381 318 L 386 317 L 381 313 L 381 310 L 383 306 L 375 304 Z M 387 304 L 387 305 L 387 304 Z M 274 305 L 270 308 L 268 312 L 268 314 L 267 316 L 276 318 Q 277 314 279 317 L 285 316 L 281 312 L 273 315 Q 270 316 271 313 L 278 312 Q 281 311 278 309 L 271 312 L 269 313 L 274 307 L 274 305 Z M 386 305 L 386 306 L 386 305 Z M 129 307 L 126 308 L 125 313 L 127 312 L 129 313 L 131 308 L 129 307 Z M 204 307 L 204 308 L 204 307 Z M 218 307 L 223 317 L 223 318 L 217 318 L 218 321 L 217 323 L 223 321 L 227 321 L 234 325 L 238 320 L 239 320 L 240 318 L 245 318 Q 247 316 246 311 L 245 311 L 243 310 L 240 312 Q 242 318 238 317 L 239 315 L 238 312 Q 235 311 236 314 L 236 316 Q 237 318 233 317 L 231 313 L 227 314 L 232 320 L 232 321 L 230 318 L 228 316 L 225 314 L 224 308 L 218 307 Z M 243 307 L 243 308 L 244 308 L 243 307 Z M 253 307 L 250 308 L 248 315 L 257 315 L 258 316 L 259 316 L 258 313 L 258 311 L 255 310 L 253 307 Z M 366 307 L 366 308 L 368 308 L 373 312 L 374 312 L 373 310 Q 371 306 366 307 Z M 142 308 L 142 309 L 142 308 Z M 215 308 L 207 318 L 208 323 L 214 321 L 216 321 L 216 316 L 221 316 L 221 315 L 218 312 L 215 308 Z M 317 308 L 317 309 L 318 309 L 317 308 Z M 138 309 L 134 310 L 136 316 Q 135 318 138 317 L 141 313 L 139 312 L 138 309 Z M 339 310 Q 336 316 341 314 L 339 310 Z M 203 311 Q 203 314 200 313 L 194 326 Q 196 331 193 333 Q 195 334 194 339 L 196 340 L 201 339 L 202 334 L 202 315 L 203 314 L 203 311 Z M 147 312 L 144 313 L 141 317 L 148 316 L 149 316 Q 148 318 152 317 L 153 320 L 155 319 L 154 323 L 157 324 L 158 335 L 158 334 Q 161 328 168 328 Q 169 325 167 326 L 165 322 L 163 321 L 161 322 L 159 318 Q 160 314 155 316 L 153 313 L 147 312 Z M 335 312 L 327 316 L 329 319 L 333 318 L 341 320 L 342 322 L 342 331 L 345 333 L 351 329 Q 350 326 347 327 Q 345 331 343 328 L 349 324 L 358 325 L 364 336 Q 363 338 367 337 Q 368 330 364 328 Q 365 325 361 326 L 359 324 L 355 321 L 345 323 L 347 320 L 344 313 L 342 316 Q 337 317 336 315 Q 337 311 335 312 Z M 263 314 L 263 316 L 266 315 L 263 314 Z M 294 314 L 287 317 L 289 319 Q 291 315 296 316 Q 297 313 294 314 Z M 122 315 L 120 317 L 122 317 L 121 322 L 122 324 L 128 319 L 128 317 L 124 317 Q 125 314 122 315 Z M 250 316 L 248 317 L 245 321 L 247 322 L 251 318 Q 253 319 252 317 L 250 316 Z M 263 316 L 261 318 L 262 323 L 268 325 L 270 329 L 276 326 L 278 326 Q 282 327 284 324 L 287 325 L 291 325 L 287 321 L 285 322 Q 280 323 279 321 L 274 323 L 272 319 L 269 320 L 271 321 L 269 322 L 267 319 L 263 318 L 263 316 Z M 321 316 L 320 317 L 310 318 L 313 318 L 315 318 L 317 321 L 312 325 L 314 328 L 311 330 L 315 331 Q 317 330 316 327 L 320 325 L 327 329 L 335 327 L 336 328 Q 337 325 334 326 L 333 324 L 340 326 L 341 324 L 340 322 L 329 322 L 327 322 L 325 321 L 321 322 Q 319 324 318 322 L 319 320 L 322 318 L 321 316 Z M 323 316 L 323 317 L 323 316 Z M 364 316 L 366 323 L 368 323 L 368 317 L 364 316 Z M 370 316 L 369 324 L 373 323 Q 379 325 378 321 L 370 316 Z M 375 316 L 375 317 L 376 317 L 375 316 Z M 282 317 L 279 318 L 277 321 L 285 319 Q 286 316 282 317 Z M 361 317 L 361 318 L 361 317 Z M 377 317 L 378 319 Q 379 316 377 317 Z M 256 318 L 253 320 L 253 321 L 256 320 L 256 318 Z M 351 318 L 351 320 L 358 320 Q 356 316 351 318 Z M 362 318 L 361 320 L 363 321 L 362 318 Z M 143 319 L 140 320 L 141 323 L 140 325 L 142 324 Q 141 321 144 322 Q 145 318 143 319 Z M 324 319 L 324 320 L 325 320 L 324 319 Z M 307 320 L 305 322 L 308 323 L 310 323 L 307 320 Z M 359 320 L 359 321 L 359 320 Z M 240 321 L 235 327 L 229 325 L 229 326 Q 231 325 230 328 L 228 327 L 218 328 L 219 330 Q 222 329 221 332 L 214 336 Q 211 335 212 339 L 218 337 Q 225 336 224 339 L 233 342 L 243 337 Q 246 339 245 341 L 253 338 L 253 340 L 248 342 L 247 344 L 253 342 L 255 345 L 255 336 L 258 333 Q 259 330 257 331 Q 252 332 253 337 L 246 334 Q 241 332 243 325 Q 239 324 241 329 L 237 328 Q 236 324 239 325 L 241 322 L 240 321 Z M 250 321 L 246 325 L 253 328 L 254 331 L 258 329 L 260 326 L 258 326 L 259 322 L 258 322 L 256 322 L 256 327 L 254 327 L 254 324 L 253 326 L 249 325 L 251 322 L 250 321 Z M 311 321 L 311 322 L 311 321 Z M 364 321 L 363 324 L 364 324 L 364 321 Z M 216 323 L 216 324 L 216 323 Z M 223 323 L 222 325 L 227 325 L 223 323 Z M 208 324 L 206 331 L 207 336 L 210 334 L 212 335 L 217 332 L 211 331 Q 210 328 213 327 L 208 324 Z M 304 324 L 302 328 Q 307 329 309 326 L 304 324 Z M 264 325 L 264 326 L 264 325 Z M 177 326 L 176 328 L 177 328 L 177 326 Z M 246 326 L 244 328 L 245 332 L 251 332 L 250 330 L 246 326 Z M 266 326 L 266 327 L 266 326 Z M 283 326 L 281 328 Q 278 327 279 330 L 283 328 L 283 326 Z M 355 326 L 358 331 L 359 331 L 358 329 L 355 326 Z M 171 327 L 170 330 Q 167 329 168 333 Q 167 336 165 333 Q 166 330 162 331 L 159 340 L 161 341 L 158 342 L 156 345 L 154 346 L 159 346 L 161 346 L 163 341 L 166 339 L 167 339 L 165 342 L 172 341 L 174 345 L 179 344 L 180 342 L 180 340 L 175 341 L 177 337 Q 176 334 171 335 L 175 332 L 174 329 Q 175 325 171 327 Z M 290 327 L 281 331 L 278 331 L 274 334 L 277 335 L 279 335 L 281 336 L 283 340 L 282 342 L 287 345 L 285 343 L 290 341 L 289 338 L 284 337 L 285 335 L 290 336 Q 292 335 291 331 L 289 332 L 287 332 L 293 328 L 290 327 Z M 318 327 L 319 332 Q 317 336 322 335 Q 324 334 323 331 L 323 329 Q 322 326 318 327 Z M 139 328 L 137 330 L 134 329 L 132 333 L 138 332 L 139 330 L 139 328 Z M 267 328 L 267 329 L 267 328 Z M 276 328 L 270 332 L 271 333 L 277 329 L 276 328 Z M 264 329 L 261 331 L 258 335 L 256 338 L 262 342 Q 264 341 263 346 L 266 347 L 267 345 L 261 338 Q 260 334 265 336 L 267 331 L 264 329 Z M 300 329 L 301 333 Q 305 334 304 331 L 306 331 L 300 329 Z M 335 329 L 328 332 L 332 334 L 333 340 L 339 339 Q 340 341 341 339 L 341 335 L 339 331 L 335 329 Z M 297 331 L 293 333 L 297 334 Q 301 335 300 332 L 297 331 Z M 308 331 L 304 336 L 311 334 L 312 332 L 308 331 Z M 350 331 L 348 333 L 353 343 Q 352 346 355 345 L 355 336 L 356 335 L 353 333 Q 354 330 350 331 Z M 360 331 L 360 332 L 360 331 Z M 150 332 L 147 336 L 147 337 L 149 336 Q 151 335 150 338 L 145 340 L 140 345 L 144 346 Q 148 347 150 344 L 152 345 L 156 342 Q 153 340 154 334 L 153 334 L 150 332 Z M 273 332 L 273 333 L 273 332 Z M 346 333 L 346 342 L 350 343 L 351 344 L 350 336 L 346 333 Z M 273 334 L 273 335 L 273 334 Z M 317 334 Q 314 335 316 337 Q 315 339 319 338 L 318 336 Q 319 333 317 334 Z M 326 334 L 324 336 L 324 338 L 328 342 Q 327 344 331 343 L 332 344 L 328 338 L 328 335 L 326 334 Z M 268 335 L 268 336 L 268 335 Z M 270 335 L 268 337 L 270 340 Q 269 343 272 342 L 271 338 L 272 336 L 270 335 Z M 292 335 L 293 337 Q 295 336 294 339 L 304 340 L 305 344 L 308 345 L 309 347 L 310 354 L 312 355 Q 314 348 311 347 L 313 346 Q 315 350 314 360 L 313 363 L 314 364 L 316 361 Q 317 356 315 355 L 316 353 L 315 346 L 309 337 L 306 338 L 292 335 Z M 209 336 L 204 339 L 202 345 L 199 346 L 201 346 L 202 349 L 203 346 L 215 343 L 216 347 L 210 349 L 207 352 L 208 353 L 218 353 L 219 350 L 224 348 L 225 349 L 224 349 L 222 352 L 222 353 L 231 349 L 232 351 Q 228 350 230 354 L 228 354 Q 227 357 230 356 L 232 353 L 234 353 L 235 351 Q 237 348 238 351 L 236 354 Q 235 358 241 356 Q 242 359 244 355 L 240 353 L 240 347 L 242 346 L 243 342 L 241 342 L 236 346 L 240 341 L 238 340 L 235 344 L 231 345 L 231 343 L 229 344 L 227 344 L 223 345 Q 221 347 220 345 L 222 339 L 220 338 L 212 341 L 209 340 L 210 337 L 209 336 Z M 311 336 L 311 338 L 313 341 L 315 342 L 314 338 L 311 336 Z M 265 338 L 266 340 L 268 340 L 265 338 Z M 321 338 L 322 342 L 325 344 L 323 340 Q 324 337 321 338 Z M 242 339 L 242 340 L 242 339 Z M 275 339 L 275 345 L 277 345 L 278 343 L 277 341 Q 278 338 275 339 Z M 199 341 L 197 344 L 199 343 L 199 341 Z M 225 341 L 223 344 L 228 343 L 225 341 Z M 244 341 L 244 342 L 244 341 Z M 258 342 L 257 344 L 258 344 L 258 342 Z M 298 342 Q 292 345 299 348 L 300 344 L 298 342 Z M 358 342 L 357 344 L 358 344 L 358 342 Z M 194 343 L 191 344 Q 189 349 193 348 Q 192 345 195 344 L 194 343 Z M 188 344 L 185 345 L 184 348 L 185 351 L 184 353 L 185 359 L 189 360 L 190 358 Q 191 355 189 356 L 189 355 Q 188 352 191 353 L 192 351 L 189 352 L 187 352 L 191 349 L 189 348 L 188 344 Z M 279 344 L 280 352 Q 278 353 281 354 L 285 351 L 286 349 L 285 348 L 283 345 L 279 344 Z M 305 344 L 301 345 L 300 349 Q 299 352 302 351 L 305 346 L 305 344 Z M 318 344 L 318 350 L 319 350 Q 320 345 318 344 Z M 213 345 L 213 346 L 214 346 L 213 345 Z M 272 345 L 269 352 Q 266 353 267 351 L 268 349 L 264 352 L 261 352 L 253 365 L 254 369 L 276 357 L 277 355 L 276 354 L 273 352 Q 274 346 272 345 Z M 321 345 Q 319 352 323 355 L 326 349 L 321 345 Z M 351 345 L 352 349 Q 351 352 354 351 L 355 349 L 352 347 Q 353 344 351 345 Z M 245 346 Q 244 349 247 348 L 248 349 Q 249 344 245 346 Z M 329 346 Q 328 349 332 348 Q 333 345 329 346 Z M 243 347 L 241 351 L 244 352 Q 245 348 243 347 Z M 251 347 L 247 353 Q 248 355 245 354 L 245 357 L 241 361 Q 237 362 238 360 L 237 358 L 233 362 L 235 366 L 234 381 L 233 382 Q 232 385 235 384 L 252 352 Q 253 348 251 347 Z M 307 347 L 300 356 L 300 360 L 307 357 L 309 353 L 307 347 Z M 163 349 Q 162 352 165 351 Q 166 348 163 349 Z M 199 349 L 198 353 L 199 354 L 193 353 L 194 356 L 193 358 L 194 361 L 198 361 L 198 360 L 204 356 L 199 362 L 206 362 L 208 364 L 206 360 L 208 357 Q 209 352 205 354 L 203 354 L 200 353 L 201 351 Q 202 348 199 349 Z M 291 349 L 291 355 L 293 355 L 294 351 L 291 349 Z M 289 350 L 287 358 L 290 359 Q 291 353 289 350 Z M 223 354 L 222 355 L 218 355 Q 219 358 216 357 L 214 362 L 218 362 L 224 359 Q 228 357 225 356 Q 226 353 223 354 Z M 234 355 L 229 359 Q 224 358 226 363 L 226 364 L 230 362 Q 232 363 231 361 L 235 358 L 234 355 Z M 211 356 L 209 359 L 214 358 Q 215 355 213 356 L 211 356 Z M 179 358 L 179 359 L 179 358 Z M 181 358 L 181 360 L 179 363 L 183 364 L 186 363 L 181 358 Z M 223 361 L 221 363 L 217 363 Q 218 366 215 365 L 213 368 L 221 367 L 223 371 L 222 377 Q 221 379 217 378 L 219 369 L 215 370 L 211 369 L 212 364 L 209 366 L 207 366 L 207 370 L 210 372 L 207 377 L 212 390 L 216 395 L 217 401 L 226 414 L 227 408 L 227 399 L 228 398 L 228 380 L 230 371 L 230 366 L 228 367 L 225 368 Q 222 367 223 364 Q 225 362 223 361 Z M 286 363 L 287 368 L 288 366 Q 289 362 286 363 Z M 300 365 L 299 368 L 300 368 L 300 365 Z M 177 368 L 177 371 L 179 370 Q 180 367 177 368 Z M 177 371 L 176 372 Q 173 371 174 375 L 177 373 L 177 371 Z M 206 372 L 206 376 L 207 376 Q 208 371 206 372 Z M 221 373 L 220 376 L 221 376 L 221 373 Z M 227 414 L 227 415 L 227 414 Z "/>
  <path fill="#000000" stroke="none" opacity="1" d="M 277.5 26 L 277.5 27 L 277.5 26 Z "/>
  <path fill="#000000" stroke="none" opacity="1" d="M 69.5 93 L 69.5 94 L 69.5 93 Z "/>
  <path fill="#000000" stroke="none" opacity="1" d="M 360 132 Q 362.7 130.9 362 133.5 L 357.5 139 L 357 137.5 L 360 132 Z "/>
  <path fill="#000000" stroke="none" opacity="1" d="M 388.5 139 L 396 141.5 L 383 146 L 379.5 151 L 380 149.5 L 381 147.5 L 378 146.5 Q 381.3 140.8 388.5 139 Z M 383 143 L 383 145 L 385 144 L 383 143 Z M 382 145 L 382 146 L 382 145 Z "/>
  <path fill="#000000" stroke="none" opacity="1" d="M 375.5 157 L 375.5 158 L 375.5 157 Z "/>
  <path fill="#000000" stroke="none" opacity="1" d="M 269.5 166 L 271 166.5 L 269.5 167 L 269.5 166 Z "/>
  <path fill="#000000" stroke="none" opacity="1" d="M 292.5 171 L 292.5 172 L 292.5 171 Z "/>
  <path fill="#000000" stroke="none" opacity="1" d="M 285.5 172 L 288 173.5 L 284.5 174 L 285.5 172 Z "/>
  <path fill="#000000" stroke="none" opacity="1" d="M 281.5 174 L 283 174.5 L 278 177 L 277 181 L 289 176 L 287.5 179 L 282 181.5 L 280.5 184 L 277.5 183 L 274.5 184 L 272.5 184 L 266 183.5 L 271 181.5 L 266.5 179 L 261.5 181 L 261.5 180 L 266 179 L 266.5 177 L 269.5 180 L 271.5 180 L 274.5 180 L 281.5 174 Z "/>
  <path fill="#000000" stroke="none" opacity="1" d="M 61.5 189 L 61.5 190 L 61.5 189 Z "/>
  <path fill="#000000" stroke="none" opacity="1" d="M 32.5 217 L 32.5 218 L 32.5 217 Z "/>
  <path fill="#000000" stroke="none" opacity="1" d="M 35.5 219 L 37 222.5 Q 35.8 225 32 224 L 32.5 220 L 33 222 Q 36.1 223.1 35.5 219 Z "/>
  <path fill="#000000" stroke="none" opacity="1" d="M 172.5 223 Q 175.1 222.2 174 225.5 L 170.5 230 L 165 228.5 L 167 225 Q 171.3 226 172.5 223 Z "/>
  <path fill="#000000" stroke="none" opacity="1" d="M 86.5 237 L 86.5 238 L 86.5 237 Z "/>
  <path fill="#000000" stroke="none" opacity="1" d="M 318.5 265 L 319 266.5 L 318 266.5 L 318.5 265 Z "/>
  <path fill="#000000" stroke="none" opacity="1" d="M 62.5 282 L 62.5 283 L 62.5 282 Z "/>
  <path fill="#000000" stroke="none" opacity="1" d="M 280.5 314 L 280.5 315 L 280.5 314 Z "/>
  <path fill="#000000" stroke="none" opacity="1" d="M 232.5 329 L 236 330.5 Q 237.3 335.8 234.5 337 L 234 334.5 L 235 331.5 Q 233 328 231 332.5 Q 232.9 338.8 228 337 L 227 333 Q 224.3 331.9 225 334.5 L 224 334.5 Q 222.5 330.1 225.5 331 L 227.5 330 Q 230 334.5 232.5 329 Z "/>
  <path fill="#000000" stroke="none" opacity="1" d="M 151.5 339 L 152 341 L 147.5 342 L 147.5 341 L 151.5 339 Z "/>
  <path fill="#000000" stroke="none" opacity="1" d="M 338.5 354 L 340.5 357 L 338.5 354 Z "/>
  <path fill="#000000" stroke="none" opacity="1" d="M 196.5 367 L 197 370 L 194 368.5 L 196.5 367 Z "/>
  <path fill="#000000" stroke="none" opacity="1" d="M 187.5 369 L 192 371.5 Q 188.5 372 189 376.5 L 190.5 376 Q 194.7 374.7 193 379.5 L 189 388 Q 185 389.4 187 382.5 L 189 379.5 Q 186.8 378.3 188 373.5 Q 190.5 372 187 370.5 L 187.5 369 Z "/>
</svg>