<?xml version="1.0" encoding="utf-8"?>
<svg viewBox="0 0 246 345" version="1.1" xmlns="http://www.w3.org/2000/svg">
  <path fill="#000000" stroke="none" opacity="1" d="M 120.5 29 Q 124.3 31.5 123 38 L 128 40.5 L 124 42.5 L 126.5 47 L 130 46.5 L 129 44 L 131.5 43 L 134 44 L 133 50.5 Q 136.5 52 134 53.5 L 135 57.5 L 133 60.5 Q 134.8 63.8 136.5 60 L 139 60 Q 137.9 57.3 140.5 58 Q 142.3 54.9 144 56.5 Q 143.3 54.3 145.5 55 Q 146.6 57.8 150 57 Q 151.3 54 147.5 55 L 147.5 54 L 151 53 Q 150 49.2 152.5 48 L 154 48.5 L 153 51 L 155 51.5 L 154 54.5 L 155 57 L 157 56.5 L 156.5 55 L 158.5 54 L 160.5 54 Q 163.8 52.9 163 55.5 L 162 57.5 L 162.5 59 L 158.5 60 L 157 59.5 Q 156.1 62.5 160.5 61 L 162 60.5 L 161 63.5 L 164 65.5 L 163.5 67 Q 166.1 66.3 165 69 L 162 69.5 L 165.5 70 L 168 69 L 169 72.5 L 165 75.5 L 165.5 80 L 167.5 75 L 170.5 76 L 172.5 75 L 172.5 76 L 169.5 78 L 168 77.5 Q 169.9 82.9 166.5 82 L 164.5 85 L 167.5 86 L 170 84.5 L 165.5 91 L 163.5 90 Q 159 92 162.5 94 L 165.5 92 L 167.5 95 L 164 95.5 L 164.5 97 Q 163.3 94.8 162 97.5 L 159 103 Q 154.1 101.2 156 107.5 L 154.5 107 L 153 107.5 Q 154.2 110 158 109 L 159 111.5 L 157 112.5 L 159 113 L 158 117.5 L 160 116.5 L 160 114 L 165 114 Q 163.8 117 167.5 116 L 171 110.5 L 171 109 Q 174.8 110.5 174 107.5 L 174 105.5 L 174.5 104 L 176 107.5 L 175 110.5 L 177 113.5 L 176.5 115 Q 180.3 113.8 179 117.5 Q 176.8 118.8 179.5 120 L 181 119.5 L 180 117.5 L 182 118.5 L 183 121.5 L 180 123 Q 181.1 120.3 178.5 121 L 175.5 120 Q 174.2 122.3 173 119.5 L 175 119 L 174.5 117 L 171 118 L 170.5 120 L 169.5 118 L 169 121 L 167 121.5 L 170 122 L 171.5 126 L 173.5 126 L 177.5 123 L 180.5 125 L 183.5 124 L 187 126 L 187.5 123 L 189 123.5 Q 190.1 120.2 187.5 121 L 185.5 124 L 184 121.5 L 186 118 L 184 117.5 L 187.5 116 L 191 117.5 L 188 118 L 188 120 L 191 120 Q 189.7 124.1 193 123 Q 191.7 119.3 197.5 121 L 196.5 123 L 193.5 123 L 186 128 L 185.5 130 L 181 128.5 L 182 126 L 178.5 128 L 177.5 126 L 176.5 129 Q 174.5 126.2 170 127 L 169.5 124 L 167.5 125 L 161 120.5 Q 161.7 117.9 159 119 L 157.5 122 L 154 123 Q 155.7 117.8 152 119 L 153 121.5 L 151 122 Q 149.9 124.7 152.5 124 L 152 125.5 L 152.5 127 Q 153.8 124 158 125 L 159.5 128 L 161.5 126 L 165.5 130 Q 167.8 129.3 167 131.5 L 168 131.5 L 168.5 130 L 170.5 133 L 173 131.5 L 172 129 L 174 129.5 L 173.5 131 L 179 133 L 180.5 137 L 184 138 L 185 140.5 L 183 140.5 L 184 143.5 L 183 143.5 L 182.5 142 L 181 142.5 Q 181.7 139.5 178 141 Q 176.9 143.7 179.5 143 L 179.5 144 Q 175.1 142.5 176 145.5 L 180 145.5 L 179 149 L 176 149.5 L 179 150.5 L 177 151 L 178 154.5 L 176.5 154 L 172.5 155 L 169.5 154 L 170.5 156 Q 173.1 155.2 172 158.5 L 171.5 160 L 173.5 161 L 174.5 158 Q 176.8 158.8 176 156.5 L 177.5 157 L 180.5 158 L 182.5 157 Q 185.3 158.3 183 159.5 L 183.5 161 L 186 157 L 194 155 L 195.5 158 Q 198.5 157.2 197 161 L 200.5 161 L 202 157.5 L 201.5 155 L 199.5 156 L 196 155 L 195.5 152 L 193.5 153 L 192 152.5 Q 192.8 155.1 189.5 154 L 186 155 Q 187.1 152.3 184.5 153 L 183.5 156 Q 180.8 154.8 183 153.5 L 182 150 L 185.5 152 L 187 151.5 L 186.5 153 L 189 151.5 L 188.5 150 L 192.5 148 L 195 149 L 195.5 151 Q 198.3 149.8 196 148.5 L 196 147 L 200 147 L 199 149.5 L 201 150 L 200 153.5 L 201.5 153 L 203 153 L 203 158 L 204.5 158 L 203.5 160 L 202 160.5 L 204 161.5 L 203.5 164 L 199.5 163 L 200 164.5 L 200 166 Q 196.2 164.5 197 167.5 L 194.5 169 L 193.5 166 L 190.5 167 L 188 166 Q 189.3 170.1 186 169 L 185.5 167 L 182.5 172 L 180 172.5 L 180.5 174 L 176 173 L 174.5 170 L 173 170.5 L 173.5 172 L 168.5 171 L 169.5 174 L 166.5 172 L 165 174.5 L 165.5 176 L 162.5 175 L 163.5 177 L 166.5 178 L 167.5 176 L 170.5 177 L 172.5 177 L 178 175 Q 176.4 177.1 177 182.5 L 179 183.5 Q 177.9 180.2 180.5 181 L 184.5 178 L 186.5 179 L 188 175 L 190 175 L 190 179 L 191.5 179 L 193.5 182 L 196.5 178 L 200 180.5 L 198.5 181 L 196.5 180 Q 192.3 181.8 195 183.5 L 194 185.5 L 195.5 186 L 198 185 Q 196.3 180.9 200.5 182 L 201.5 183 L 204 181.5 L 203 184 L 209 186.5 L 209 190.5 L 208.5 192 L 204 189.5 L 206 188.5 L 202.5 188 Q 201.3 190.3 200 187.5 L 200.5 186 L 196 186.5 L 199 187 L 201 190.5 L 198 192.5 L 199 189.5 L 198 189.5 L 196.5 192 L 194 190.5 L 196 195.5 L 193 197.5 L 198 200.5 L 196 201 L 196.5 203 L 201 202 Q 199.9 199.3 202.5 200 L 202.5 199 Q 200.3 199.8 201 197.5 L 202 195 Q 199 196 200 193 Q 203 194.3 202 190.5 L 204 191.5 L 203.5 193 L 205.5 192 L 209 193 Q 210.8 197.5 205.5 196 Q 202 198 206.5 200 L 212.5 201 Q 215.3 199.8 213 198.5 L 213 197 Q 209.2 198.5 210 195.5 L 210 193.5 L 211.5 191 L 212 195 Q 215 193.8 214 197.5 L 216 201.5 L 210.5 204 L 208.5 203 L 208 205.5 Q 209.7 210.3 205.5 209 L 206.5 211 L 209 209.5 Q 208.3 205.8 210.5 205 Q 212.8 204.3 212 206.5 Q 209.2 208.3 213.5 210 L 216 209 Q 217.5 212.8 214.5 212 L 214.5 213 L 218 213 Q 217 210 220 211 Q 221.1 213.7 218.5 213 L 215 215.5 L 216.5 218 Q 221.9 216.1 221 219.5 L 224 220.5 L 221.5 222 L 220 221.5 Q 219.3 223.8 221.5 223 Q 224.2 224.3 222 225.5 Q 221.3 227.8 223.5 227 L 225.5 223 L 228 226.5 L 223 229.5 L 224 231.5 L 222.5 234 L 222 232 Q 217.5 231.2 215.5 234 L 213.5 234 L 211.5 235 L 212 233.5 L 209.5 230 Q 206.9 229.3 208 232 Q 211 231 210 234 L 204 231 L 203.5 234 L 202 233.5 Q 203.1 236.8 200.5 236 L 194.5 239 L 191.5 238 L 189.5 239 L 188 238.5 L 186.5 241 Q 183.2 239.9 184 242.5 L 185.5 242 Q 188.8 240.9 188 243.5 L 189 243.5 L 190.5 241 L 199 243 Q 197.9 240.3 200.5 241 Q 201.8 243.3 203 240.5 L 202 238.5 L 204 237.5 L 203.5 239 L 207.5 238 L 207.5 240 L 209.5 239 L 210 240.5 L 207.5 244 L 198 247 Q 196.7 251.1 200 250 L 200 254 L 193 255 L 192.5 252 L 191.5 254 L 191 250.5 L 192 247 Q 195 248.3 194 244.5 L 192.5 245 L 189 244 Q 190 247 187 246 L 187 250 L 189 250.5 L 189 252.5 Q 190.3 257.1 184.5 255 L 182.5 255 Q 176.4 256.1 174 253.5 L 176.5 252 L 186 252 L 185.5 250 L 183.5 250 L 181.5 251 L 180.5 250 L 164.5 250 Q 163.3 252.3 158.5 251 L 156 250 L 155.5 252 L 153.5 252 Q 148.8 253.2 147.5 251 L 146 253.5 L 146.5 255 L 143.5 256 L 134.5 253 L 130.5 254 L 130.5 253 L 137 252 Q 138.1 249.3 135.5 250 L 134.5 251 L 123.5 251 L 121.5 250 L 120.5 253 L 116 254 L 116 256 L 120 256 L 120 257.5 L 118 263 L 115 263 Q 116.5 267.5 112 266 L 110.5 263 L 109 263.5 L 110.5 266 L 107.5 264 L 105.5 267 L 104.5 265 L 103 270 L 101 270 L 101 267 Q 98.3 268.1 99 265.5 L 99.5 264 L 96 264 Q 97.5 260.2 94.5 261 L 94.5 260 L 97.5 259 L 99.5 260 L 102 259 L 99.5 255 L 90 253.5 L 98.5 253 L 102 255 L 102 253 Q 106.1 254.3 105 251 Q 98.8 251.8 96 247.5 Q 96.8 245.3 94.5 246 L 92.5 246 L 89 248.5 Q 91.3 249.8 88.5 251 Q 84.8 249.8 86 253.5 L 78.5 258 L 75.5 258 L 76 256.5 Q 76.8 254.3 74.5 255 L 72.5 254 Q 71.1 256.6 66.5 256 L 64.5 255 L 62 256 Q 63.7 251.9 59.5 253 L 58 252.5 Q 59.5 256.9 56.5 256 L 56 258.5 Q 56.8 260.8 54.5 260 L 55 258.5 L 57 252.5 Q 55.8 249.8 54.5 252 L 52 252.5 L 55 254.5 L 51 256 Q 52.1 253.3 49.5 254 Q 47.8 251.2 46 255.5 L 50 262.5 Q 48.8 265.3 47.5 263 L 45.5 264 L 43.5 261 L 40.5 263 L 39 261.5 L 39.5 257 L 44.5 260 L 46 256.5 L 44.5 257 L 42 255.5 Q 42.8 253.3 40.5 254 L 38 255 L 39 248.5 L 36.5 245 L 32.5 244 L 30 245 L 28.5 241 L 27 240.5 L 29 240 L 29.5 238 L 30 240 L 33 238.5 L 34 236.5 L 30 236 L 30 233 Q 27.3 234.1 28 231.5 L 26 230.5 L 25.5 232 L 22.5 230 L 22 231.5 L 27 234.5 L 23.5 235 L 16.5 231 L 16 233 Q 10.3 232.6 8 236.5 L 7 240 L 2.5 241 L 2.5 239 L 0 237.5 L 0 228.5 L 2 228 L 3 232 L 7 229.5 L 5 228.5 L 5.5 226 L 10.5 230 L 11 228 Q 14 229.3 13 225.5 L 14.5 226 L 16 225.5 L 15.5 224 L 18.5 225 L 20.5 225 L 22 225.5 L 20.5 228 Q 23.8 226.9 23 229.5 L 24 229.5 Q 22.7 225.3 27.5 227 L 27.5 226 L 25 224.5 L 26 222.5 L 24 223.5 L 23.5 225 L 23 223.5 L 24 220 L 20 218.5 L 21 216.5 L 16 214.5 L 19 212.5 L 13.5 210 L 13 212 Q 16 211 15 214 L 11.5 213 L 5.5 217 L 4.5 215 L 3 215.5 Q 3.7 212.9 1 214 L 0.5 216 L 0 208.5 L 1 208.5 L 1.5 210 L 3 207 Q 8.2 208.7 7 205 L 2 205 Q 3 208 0 207 L 1.5 199 L 7 202.5 L 6.5 204 L 13 198.5 Q 11.5 195.5 10 198.5 L 8.5 201 L 8 199 Q 5.3 200.1 6 197.5 L 4 194.5 L 6 194 L 4 190.5 L 7.5 184 L 10.5 185 L 11 182.5 L 8.5 181 L 4 182 L 5 179.5 L 3.5 175 L 1 176 L 0 171.5 L 5.5 169 L 6 170.5 L 2 172 L 2.5 174 L 5.5 173 L 8.5 174 L 13 171.5 Q 12.3 169.3 14.5 170 Q 15.8 167.8 17 170.5 L 16.5 172 Q 21.9 173.9 21 170.5 L 23.5 169 L 29 172.5 L 28 174.5 L 31.5 179 L 30 179.5 L 34.5 180 L 35.5 178 Q 32.9 178.8 34 175.5 L 34 173.5 Q 35.1 170.2 32.5 171 L 30 172.5 L 30 168.5 Q 30.7 165.5 27 167 L 27 163.5 L 29 160.5 L 27.5 161 Q 25.3 160.3 26 162.5 L 22.5 164 L 19.5 165 L 18 161 L 22 159.5 L 24 156.5 L 22 155.5 L 26.5 150 L 27 154 L 32 152.5 L 28 150.5 Q 27.3 148.3 29.5 149 L 32 150 L 33.5 153 L 35.5 150 L 38 149.5 L 34 147.5 L 38 146.5 L 36 142.5 L 39 141.5 L 38.5 140 L 40 143 L 44 143 L 44 141.5 L 47 141.5 L 47.5 143 L 48 140 Q 43.3 141 42 137.5 L 42.5 136 L 44 139 Q 46.7 140.1 46 137.5 L 42 134.5 L 44.5 133 L 46.5 137 L 47 134 L 50 134.5 L 49 137 L 56 136 L 56.5 132 L 57.5 135 L 60 131.5 Q 58.6 128.8 54 130 L 51.5 134 L 50.5 132 Q 48.8 134.8 47 130.5 L 48.5 130 L 51.5 132 Q 54.3 130.8 52 129.5 L 55 126.5 L 54 125.5 Q 53.2 122.9 56.5 124 L 58.5 125 Q 59.8 122.7 61 125.5 L 60.5 127 Q 63.1 127.7 62 125 L 66 125 L 66 123 Q 63.3 124.1 64 121.5 L 65.5 122 L 67.5 121 L 69.5 123 L 73 119.5 L 73.5 118 Q 77.3 119.5 76 125 L 79 124.5 L 77 123.5 L 82 122.5 L 80 121.5 L 80.5 120 L 78 118.5 L 79 117.5 L 77.5 115 Q 81.3 116 80 113 Q 76.6 112.3 75.5 115 L 75 112.5 L 76.5 110 Q 80.9 108.5 80 111.5 Q 81.3 114.3 82.5 112 L 85 110.5 Q 85.9 107.5 81.5 109 Q 83.1 107.3 80 105.5 L 81 104.5 L 82 100.5 L 80.5 98 L 83.5 99 L 83.5 98 L 80.5 96 L 79 96.5 L 81 93.5 L 79 93.5 L 77.5 91 L 75.5 94 L 66 92 L 65.5 90 L 63.5 91 L 61.5 88 Q 59.7 91.1 58 89.5 Q 58.7 92.1 56 91 L 56.5 88 L 58 88.5 Q 56.3 83.7 60.5 85 L 62.5 85 L 66 83.5 L 62.5 82 L 61.5 84 L 59 83 Q 57.9 80.3 60.5 81 L 64 78.5 Q 62.9 75.2 65.5 76 L 65.5 74 L 68 74 L 68 78 L 69.5 78 L 71.5 77 L 74 77.5 Q 73.8 82.3 70.5 84 L 69 83.5 Q 71.3 82.3 68.5 81 L 66 82.5 L 67 85 L 73.5 87 L 73 85.5 Q 71.9 82.2 74.5 83 L 74.5 81 L 78 82 L 77 84.5 L 77.5 86 L 75 86.5 L 81.5 91 L 83.5 90 L 88.5 93 L 92 93 L 91.5 91 Q 89.8 93.7 88 89.5 L 89 87.5 L 86 86.5 L 86.5 85 L 82 84 Q 83.1 86.7 80.5 86 L 79 86.5 L 81 82.5 L 80 81.5 L 82.5 76 L 85.5 74 L 87.5 81 L 90 80 L 91 83.5 L 90 85.5 L 93 87 L 93 90 Q 97.1 88.7 96 92 Q 93.3 90.9 94 93.5 L 95.5 96 L 98 95 Q 96.9 92.3 99.5 93 L 102 93.5 L 102 97 Q 98.2 95.5 99 98.5 L 101 98.5 L 100 100.5 L 101 103 L 104 101.5 L 104 98 L 106 98 Q 104.7 93.9 108 95 L 110 100.5 L 108.5 103 L 111.5 104 L 113.5 103 L 115 107 L 120 106 Q 118.9 103.3 121.5 104 L 121.5 106 L 123.5 105 L 123 106.5 L 122 109.5 L 129.5 114 L 133 111.5 L 131 111 Q 129.5 107.2 132.5 108 L 134.5 109 L 135.5 107 L 133 105.5 Q 132.3 102.9 135 104 L 135 102 Q 130.1 103.6 132 98 L 136 96.5 L 133.5 95 L 132.5 97 L 129.5 95 L 131 97.5 L 130.5 100 L 128.5 100 L 120.5 99 L 118 100 L 119 96.5 L 118 92.5 Q 120.3 91.3 117.5 90 Q 118.4 95.4 115.5 97 L 114 92.5 Q 116.8 91.3 116.5 87 L 121 90.5 L 120 93.5 L 121 93.5 L 123.5 88 L 127 90 L 127.5 93 L 128.5 90 L 130 90.5 L 129.5 88 Q 128.3 90.2 127 87.5 L 128 84 L 125 83.5 L 128 77.5 L 125 77 L 124.5 79 L 124 75.5 L 125.5 72 L 126.5 74 L 128.5 69 L 130 68.5 L 128 67.5 L 129 64.5 L 129 62.5 L 128 60.5 L 129.5 57 Q 131.3 59.8 133 55.5 L 126.5 53 L 124 56.5 L 125.5 57 L 127 56.5 L 125.5 61 L 124.5 59 L 122.5 64 L 121 61.5 L 121.5 60 Q 119.3 59.3 120 61.5 L 117.5 63 L 117.5 61 L 114.5 63 Q 113 59.5 111.5 62 Q 109.3 62.8 110 60.5 L 113.5 61 L 118 59 L 118.5 61 L 119 58 Q 122 59 121 56 L 124 56 L 124 54.5 L 124 52.5 Q 123.2 49.9 126.5 51 L 126.5 50 Q 122.1 51.5 123 48.5 L 123.5 47 L 119.5 46 L 118 46.5 Q 116.5 42.1 119.5 43 L 121 43.5 L 117.5 38 L 113.5 40 L 112 37.5 L 115.5 33 L 117 33.5 L 118 30 L 120.5 29 Z M 118 34 L 118 35 L 118 34 Z M 121 36 L 121 37 L 121 36 Z M 114 37 L 114 38 L 114 37 Z M 122 37 Q 120 40 123 41 Q 126 42 125 39 L 122 37 Z M 154 57 L 154 58 L 154 57 Z M 144 58 L 143 60 L 144 60 L 144 58 Z M 148 58 L 148 59 L 148 58 Z M 147 59 L 145 62 L 144 61 Q 141 60 142 63 L 140 63 L 140 61 L 138 66 L 141 65 L 142 65 L 142 69 L 145 68 Q 147 69 146 66 L 147 66 L 147 73 L 149 73 L 148 75 L 149 76 L 152 67 L 154 67 L 151 65 L 151 64 Q 153 65 152 62 Q 148 61 149 64 L 146 63 L 149 62 L 147 61 L 147 59 Z M 132 60 L 132 61 L 132 60 Z M 156 61 L 156 62 L 157 62 L 156 61 Z M 159 62 L 160 64 Q 161 61 159 62 Z M 132 63 L 132 66 L 135 65 L 132 63 Z M 157 64 L 157 65 L 158 65 L 157 64 Z M 137 66 L 134 68 L 137 69 L 138 69 L 137 66 Z M 156 66 L 156 67 L 156 66 Z M 163 67 L 163 68 L 163 67 Z M 154 68 L 154 69 L 154 68 Z M 131 69 L 131 73 L 132 73 Q 133 68 131 69 Z M 139 69 Q 137 72 140 71 L 139 69 Z M 146 71 Q 143 72 145 74 L 139 75 Q 137 73 136 76 L 136 77 L 141 77 L 141 80 L 140 78 L 139 81 L 144 80 L 144 83 L 143 82 L 139 85 L 138 80 L 134 82 Q 133 84 136 83 L 137 83 L 136 85 Q 136 87 141 87 L 143 86 L 143 87 L 147 87 L 147 85 L 144 86 L 145 84 Q 144 81 147 82 Q 148 79 145 80 L 144 78 Q 143 74 146 75 L 146 71 Z M 165 72 Q 163 75 161 74 L 161 75 L 165 75 L 165 72 Z M 128 73 L 128 75 L 130 76 Q 131 72 128 73 Z M 139 73 L 139 74 L 139 73 Z M 154 73 L 153 75 L 154 75 L 154 73 Z M 127 75 L 127 76 L 127 75 Z M 133 75 L 133 76 L 135 76 L 133 75 Z M 152 75 L 150 77 Q 149 79 153 78 L 154 80 L 154 77 L 156 77 L 152 75 Z M 85 76 L 85 77 L 85 76 Z M 157 77 L 157 78 L 157 77 Z M 135 78 L 135 79 L 135 78 Z M 65 79 L 65 80 L 65 79 Z M 83 80 L 83 81 L 83 80 Z M 131 80 Q 130 83 133 82 Q 134 79 131 80 Z M 164 80 L 164 81 L 165 81 L 164 80 Z M 167 80 L 167 81 L 167 80 Z M 84 82 L 84 83 L 84 82 Z M 131 82 L 129 84 L 131 84 L 131 82 Z M 154 82 L 152 84 L 153 86 L 151 89 Q 149 90 152 91 L 155 90 L 154 85 L 155 83 L 154 82 Z M 162 82 L 160 86 L 159 84 Q 154 82 156 90 L 158 89 Q 157 86 161 87 Q 162 90 164 86 L 162 85 L 162 82 Z M 149 83 L 149 84 L 149 83 Z M 81 84 L 81 85 L 81 84 Z M 151 85 L 151 86 L 151 85 Z M 134 86 L 132 90 L 134 89 L 135 91 L 138 90 L 135 89 L 134 86 Z M 164 87 L 164 88 L 164 87 Z M 167 87 L 167 88 L 167 87 Z M 67 88 L 67 89 L 67 88 Z M 75 88 L 74 90 L 75 90 L 75 88 Z M 140 88 L 138 91 L 140 91 L 140 88 Z M 148 89 L 147 91 L 148 91 L 148 89 Z M 77 90 L 77 91 L 77 90 Z M 80 91 L 80 92 L 80 91 Z M 131 91 L 132 93 L 133 93 L 131 91 Z M 136 91 L 135 94 L 136 94 L 136 91 Z M 155 91 L 155 95 L 155 96 L 157 95 L 160 96 Q 163 97 162 95 L 161 95 L 160 94 L 160 91 L 157 92 L 155 91 Z M 125 92 L 125 93 L 125 92 Z M 141 92 L 140 93 Q 137 92 138 95 L 136 96 L 139 99 Q 141 98 139 97 Q 138 94 142 95 Q 143 91 141 92 Z M 86 93 L 86 94 L 88 94 L 86 93 Z M 148 93 L 148 94 L 148 93 Z M 120 94 L 119 96 L 120 96 L 120 94 Z M 152 95 L 152 96 L 152 95 Z M 83 96 L 83 97 L 84 97 L 83 96 Z M 143 96 L 143 97 L 143 96 Z M 96 97 L 91 101 L 93 103 L 96 102 L 97 104 L 97 101 L 96 101 L 96 100 L 96 97 Z M 144 97 L 142 99 Q 141 101 144 100 L 146 100 L 146 102 Q 144 103 147 104 L 147 99 L 144 99 L 146 98 L 144 97 Z M 151 97 L 149 99 L 150 101 Q 149 105 152 104 Q 153 99 151 97 Z M 108 98 L 108 99 L 108 98 Z M 156 98 L 156 99 L 156 98 Z M 138 100 L 138 101 L 138 100 Z M 90 101 L 89 104 L 90 104 L 90 101 Z M 136 101 L 136 102 L 136 101 Z M 85 102 Q 84 105 87 104 Q 88 101 85 102 Z M 87 104 L 87 107 L 87 108 L 89 107 L 89 109 L 91 109 L 89 106 Q 90 103 87 104 Z M 110 104 L 110 105 L 110 104 Z M 140 104 L 138 106 L 140 106 L 140 104 Z M 100 105 L 100 107 L 104 106 L 100 105 Z M 148 105 L 147 107 L 148 107 L 148 105 Z M 98 106 L 95 113 L 97 112 L 100 113 L 102 120 L 100 119 L 99 121 Q 100 123 102 121 L 103 123 Q 102 119 105 118 L 104 114 L 110 111 L 107 109 L 107 107 L 105 108 L 105 110 L 104 112 L 103 107 L 102 110 L 102 112 L 100 112 L 98 106 Z M 108 106 L 108 107 L 108 106 Z M 114 106 L 112 110 L 115 111 L 117 111 L 114 109 L 114 106 Z M 151 106 L 148 113 L 147 113 L 148 111 L 145 109 L 145 112 L 142 111 L 140 111 L 138 115 L 137 113 L 134 112 Q 131 113 133 115 L 131 118 L 133 117 L 133 119 L 136 117 L 135 119 Q 134 121 137 120 L 138 124 L 138 119 L 140 119 Q 142 120 141 117 L 141 115 Q 144 116 143 114 L 146 113 L 146 115 L 150 116 L 151 113 L 151 106 Z M 93 107 L 92 109 L 92 111 Q 91 113 94 112 L 94 110 L 93 107 Z M 96 107 L 96 108 L 96 107 Z M 139 108 L 140 110 Q 141 107 139 108 Z M 138 109 L 138 110 L 138 109 Z M 137 110 L 137 111 L 137 110 Z M 78 111 L 78 112 L 78 111 Z M 89 111 L 89 112 L 89 111 Z M 120 111 L 116 114 Q 113 113 114 116 L 116 115 Q 119 114 118 118 L 121 116 L 120 111 Z M 123 112 L 123 114 L 125 113 L 123 112 Z M 88 113 L 89 115 L 90 115 L 88 113 Z M 108 113 L 108 114 L 108 113 Z M 97 114 L 97 115 L 97 114 Z M 126 114 Q 123 115 125 117 Q 124 119 127 118 L 127 114 L 126 114 Z M 84 115 L 82 118 L 84 119 Q 83 116 86 117 Q 87 119 88 117 L 84 115 Z M 91 115 L 91 116 L 91 115 Z M 94 115 L 94 116 L 95 116 L 94 115 Z M 112 115 L 110 118 L 109 117 L 108 119 L 108 120 L 111 119 L 112 117 L 112 115 Z M 155 115 L 153 117 L 156 117 L 155 115 Z M 162 117 L 162 118 L 162 117 Z M 88 118 L 88 119 L 88 118 Z M 107 118 L 107 119 L 107 118 Z M 128 118 L 129 120 Q 130 117 128 118 Z M 131 118 L 130 120 L 131 120 L 131 118 Z M 84 120 L 84 122 Q 87 123 86 125 L 88 124 L 91 128 L 88 126 L 87 128 L 85 129 L 87 129 L 88 133 L 91 134 L 91 133 Q 94 131 92 130 Q 91 126 95 127 L 94 126 L 96 126 L 96 122 Q 93 121 94 124 L 93 123 L 92 125 L 91 124 L 87 120 L 84 120 Z M 94 120 L 93 122 L 94 122 L 94 120 Z M 119 120 L 119 121 L 119 120 Z M 127 120 L 127 121 L 127 120 Z M 156 120 L 156 121 L 156 120 Z M 97 121 L 97 122 L 99 122 L 97 121 Z M 119 121 L 119 123 L 123 123 L 119 121 Z M 84 122 L 84 123 L 84 122 Z M 109 122 L 107 124 L 109 124 L 110 125 L 109 122 Z M 111 122 L 111 123 L 111 122 Z M 113 122 L 111 125 L 113 128 L 115 127 L 117 127 L 121 126 L 121 125 Q 115 127 116 123 L 113 122 Z M 128 122 L 125 124 L 129 125 L 128 122 Z M 133 122 L 133 123 L 133 122 Z M 73 123 L 73 124 L 73 123 Z M 100 123 L 99 125 L 100 125 L 100 123 Z M 141 123 L 141 124 L 142 124 L 141 123 Z M 70 124 L 69 126 L 70 126 L 70 124 Z M 124 124 L 121 128 L 123 128 Q 122 125 125 126 L 124 124 Z M 57 125 L 57 126 L 57 125 Z M 80 125 L 80 126 L 80 125 Z M 98 125 L 97 127 L 98 127 L 98 125 Z M 101 125 L 100 127 L 101 127 L 101 125 Z M 107 125 L 107 127 L 105 128 L 108 129 L 109 127 Q 110 124 107 125 Z M 139 125 Q 136 126 138 128 L 137 130 L 139 130 L 141 126 L 139 125 Z M 144 125 L 143 127 Q 145 126 144 129 L 145 131 Q 148 130 147 133 L 151 132 L 149 129 L 148 129 L 147 126 L 146 126 L 144 125 Z M 132 126 L 132 127 L 132 126 Z M 77 127 L 75 131 L 76 134 L 77 131 L 77 127 Z M 80 127 L 80 128 L 80 127 Z M 82 127 L 82 128 L 82 127 Z M 118 127 L 115 128 Q 113 133 117 132 L 120 128 L 118 127 Z M 125 127 Q 124 130 127 129 Q 128 126 125 127 Z M 129 127 L 129 128 L 130 128 L 129 127 Z M 134 127 L 136 129 Q 137 126 134 127 Z M 104 128 L 101 130 L 103 130 Q 104 133 106 131 L 109 132 Q 111 133 110 130 Q 105 131 104 128 Z M 159 128 L 159 129 L 159 128 Z M 97 129 L 97 132 L 99 131 Q 100 128 97 129 Z M 121 129 L 118 133 L 122 134 L 121 129 Z M 153 129 L 153 131 Q 154 133 151 132 L 151 134 L 156 134 L 155 132 Q 156 128 153 129 Z M 67 130 L 68 131 L 69 134 L 70 136 L 72 135 Q 74 136 73 134 L 72 134 L 70 132 L 67 130 Z M 129 130 Q 126 132 129 133 L 130 133 L 129 130 Z M 152 130 L 152 131 L 152 130 Z M 85 131 L 85 132 L 85 131 Z M 101 131 L 101 132 L 101 131 Z M 95 132 L 93 134 Q 92 136 95 135 L 95 132 Z M 106 132 L 106 133 L 107 133 L 106 132 Z M 124 132 L 124 133 L 124 132 Z M 137 132 L 137 133 L 137 132 Z M 143 132 L 143 136 L 145 135 Q 146 131 143 132 Z M 167 132 L 167 133 L 167 132 Z M 169 132 L 168 135 L 169 135 L 169 132 Z M 82 133 L 82 135 L 84 134 L 82 133 Z M 103 133 L 103 134 L 105 134 L 103 133 Z M 176 133 L 172 135 L 172 136 L 176 135 L 177 138 L 177 137 Q 180 135 176 133 Z M 63 134 L 63 135 L 63 134 Z M 66 134 L 65 137 L 62 136 L 61 139 L 65 142 Q 67 137 69 141 L 68 141 L 68 143 L 66 146 L 68 145 L 75 147 L 77 147 Q 80 146 79 149 L 81 148 L 81 150 L 82 151 L 81 153 L 89 152 L 89 150 L 91 151 L 91 149 L 93 150 L 92 152 Q 95 153 94 150 L 98 151 L 98 150 L 94 148 L 93 144 Q 90 145 91 141 L 87 142 L 86 140 L 87 135 L 85 136 Q 81 135 82 139 L 78 141 L 78 140 L 78 138 L 76 139 Q 74 142 73 140 L 72 143 L 71 143 L 72 140 L 71 137 L 66 134 Z M 69 134 L 69 135 L 69 134 Z M 99 134 L 98 136 L 99 136 L 99 134 Z M 140 134 L 140 135 L 140 134 Z M 93 135 L 93 136 L 93 135 Z M 59 136 L 59 137 L 59 136 Z M 98 136 L 98 137 L 98 136 Z M 102 136 L 102 141 Q 106 142 104 137 L 102 136 Z M 105 136 L 105 137 L 105 136 Z M 139 136 L 139 140 L 141 139 L 143 140 L 144 142 L 145 140 L 145 142 L 148 143 L 147 140 Q 151 141 149 137 L 147 138 L 139 136 Z M 167 136 L 167 137 L 167 136 Z M 170 136 L 170 139 L 167 140 L 168 143 Q 167 145 170 144 Q 172 143 170 142 L 172 139 L 175 141 Q 177 142 176 139 L 174 139 Q 175 136 173 137 Q 171 140 170 136 Z M 47 137 L 47 139 Q 49 142 50 139 L 47 137 Z M 81 137 L 80 139 L 81 139 L 81 137 Z M 96 137 L 94 139 L 96 139 L 96 137 Z M 107 137 L 107 139 Q 106 141 109 140 L 110 138 L 107 137 Z M 119 137 L 119 138 L 120 138 L 119 137 Z M 126 137 L 126 138 L 127 138 L 126 137 Z M 56 138 L 55 139 Q 51 138 52 141 L 54 140 L 56 143 Q 52 144 55 146 L 54 148 L 57 146 Q 58 140 56 138 Z M 87 138 L 87 140 L 89 139 L 87 138 Z M 106 138 L 106 139 L 106 138 Z M 111 138 L 111 139 L 111 138 Z M 164 138 L 162 140 L 164 142 L 166 142 L 164 138 Z M 179 138 L 179 139 L 179 138 Z M 182 138 L 181 141 L 182 141 L 182 138 Z M 99 140 L 99 141 L 99 140 Z M 106 140 L 104 142 L 107 142 Q 108 139 106 140 Z M 156 140 L 156 141 L 156 140 Z M 52 141 L 51 143 L 54 143 L 52 141 Z M 62 141 L 61 143 L 64 143 L 62 141 Z M 99 141 L 99 143 L 101 142 L 99 141 Z M 110 141 L 109 142 Q 106 141 107 144 L 110 143 L 110 141 Z M 114 141 L 114 143 L 112 143 L 113 145 L 117 143 L 114 141 Z M 137 141 L 135 143 L 136 145 L 138 144 Q 139 140 137 141 Z M 160 141 L 156 144 L 157 146 L 160 144 L 161 142 L 160 141 Z M 173 141 L 173 142 L 174 142 L 173 141 Z M 140 142 L 141 146 L 141 143 L 143 143 L 140 142 Z M 46 143 L 46 144 L 46 143 Z M 96 143 L 95 147 L 99 146 L 96 145 L 96 143 Z M 102 143 L 102 146 Q 105 145 102 143 Z M 131 143 L 131 144 L 131 143 Z M 154 143 L 152 147 L 154 146 L 154 143 Z M 164 143 L 164 144 L 164 143 Z M 166 143 L 166 144 L 166 143 Z M 58 144 L 58 146 L 60 145 L 58 144 Z M 105 144 Q 102 146 105 147 L 107 146 Q 108 143 105 144 Z M 133 144 L 133 145 L 133 144 Z M 149 144 L 149 145 L 149 144 Z M 162 144 L 158 145 L 159 149 Q 160 151 157 150 L 157 152 L 160 151 Q 162 152 161 149 Q 164 150 166 147 L 166 149 L 169 149 L 168 145 L 166 146 L 162 144 Z M 42 145 L 42 146 L 42 145 Z M 50 145 L 50 147 L 52 146 L 50 145 Z M 130 145 L 130 146 L 130 145 Z M 139 145 L 139 146 L 139 145 Z M 144 145 L 142 147 Q 141 149 144 148 L 145 146 L 148 147 Q 149 143 144 145 Z M 48 146 L 48 147 L 48 146 Z M 70 146 L 70 147 L 70 146 Z M 125 146 L 125 148 L 129 147 L 125 146 Z M 156 146 L 156 147 L 156 146 Z M 44 147 L 44 148 L 45 148 L 44 147 Z M 50 147 L 48 149 L 50 149 L 50 147 Z M 61 147 L 61 148 L 61 147 Z M 99 147 Q 97 150 100 149 L 99 147 Z M 107 147 L 107 148 L 107 147 Z M 130 147 L 130 148 L 130 147 Z M 135 147 L 135 148 L 135 147 Z M 141 147 L 141 148 L 141 147 Z M 155 147 L 155 148 L 155 147 Z M 175 147 L 175 148 L 175 147 Z M 47 148 L 47 149 L 47 148 Z M 56 148 L 56 149 L 57 149 L 56 148 Z M 73 148 Q 72 151 75 150 Q 76 147 73 148 Z M 77 148 L 77 149 L 78 149 L 77 148 Z M 104 148 L 103 150 L 104 150 L 104 148 Z M 131 148 L 129 150 Q 128 152 132 151 L 131 148 Z M 146 148 L 146 149 L 146 148 Z M 154 148 L 152 150 L 154 150 L 154 148 Z M 173 148 L 173 149 L 173 148 Z M 59 149 L 59 150 L 59 149 Z M 62 149 L 61 151 L 65 152 L 66 152 L 64 149 L 62 149 Z M 125 149 L 125 150 L 126 150 L 125 149 Z M 143 149 L 143 150 L 143 149 Z M 147 149 L 147 150 L 147 149 Z M 170 149 L 170 150 L 171 150 L 170 149 Z M 77 150 L 76 152 L 73 153 L 77 153 Q 80 152 77 150 Z M 117 150 L 115 152 L 119 152 Q 120 149 117 150 Z M 49 151 L 47 154 L 50 155 L 51 152 L 49 151 Z M 54 151 L 52 154 L 55 152 L 54 151 Z M 96 151 L 96 152 L 96 151 Z M 126 151 Q 124 154 122 153 L 123 156 L 120 157 L 124 163 L 124 156 L 126 157 L 125 159 L 126 161 L 125 165 Q 128 166 127 163 L 129 163 Q 126 160 127 155 L 131 153 L 126 151 Z M 38 152 Q 35 153 36 157 L 38 156 L 43 157 L 42 155 Q 39 156 40 154 L 38 152 Z M 59 152 L 58 154 L 59 154 L 59 152 Z M 62 152 L 59 155 Q 60 157 57 156 L 54 157 Q 55 160 52 159 L 53 161 L 57 159 L 58 157 L 58 159 Q 61 160 60 156 L 62 156 L 62 152 Z M 67 152 L 67 153 L 67 152 Z M 105 152 Q 103 155 106 154 L 105 152 Z M 146 152 L 145 154 L 150 155 Q 152 156 151 153 L 148 152 L 146 152 Z M 198 152 L 198 153 L 198 152 Z M 95 153 L 95 155 L 99 155 L 95 153 Z M 153 153 L 153 154 L 153 153 Z M 35 154 L 34 156 L 35 156 L 35 154 Z M 46 154 L 46 156 L 45 158 L 47 160 Q 50 161 49 158 L 52 157 L 52 155 L 49 157 L 48 156 L 46 154 Z M 57 154 L 57 155 L 57 154 Z M 64 154 L 64 156 L 68 155 L 64 154 Z M 71 154 L 71 155 L 71 154 Z M 75 154 L 75 156 L 74 155 L 71 156 L 73 156 L 72 159 L 75 159 L 77 156 Q 78 153 75 154 Z M 86 154 L 88 156 Q 89 153 86 154 Z M 93 154 L 92 156 L 91 158 Q 93 157 92 160 L 94 160 L 95 158 L 93 154 Z M 101 154 L 101 155 L 102 155 L 101 154 Z M 141 154 L 141 155 L 141 154 Z M 200 154 L 200 155 L 200 154 Z M 54 155 L 54 156 L 54 155 Z M 80 155 L 80 156 L 81 156 L 80 155 Z M 112 155 L 114 158 Q 117 159 116 156 L 112 155 Z M 134 155 L 134 156 L 134 155 Z M 149 155 L 148 157 L 149 157 L 149 155 Z M 156 155 L 155 157 Q 159 158 158 156 L 156 155 Z M 25 156 Q 24 159 27 158 Q 28 155 25 156 Z M 29 156 L 30 158 Q 31 155 29 156 Z M 32 156 L 33 160 Q 38 162 36 157 L 32 156 Z M 151 156 Q 150 159 153 158 L 154 160 L 155 157 L 151 156 Z M 66 157 L 66 158 Q 69 157 68 160 L 70 161 L 69 159 Q 70 156 66 157 Z M 81 157 L 81 158 L 81 157 Z M 135 157 L 133 159 L 135 162 L 135 160 Q 137 158 135 157 Z M 143 157 L 143 158 L 143 157 Z M 161 157 L 157 159 L 161 160 L 162 164 L 165 162 Q 166 159 163 160 L 163 157 L 161 157 Z M 170 157 L 170 158 L 170 157 Z M 24 158 L 24 159 L 24 158 Z M 63 158 L 63 159 L 63 158 Z M 87 158 L 87 159 L 87 158 Z M 119 158 L 119 159 L 119 158 Z M 25 159 L 25 160 L 25 159 Z M 28 159 L 28 160 L 28 159 Z M 76 159 L 75 161 L 76 161 L 76 159 Z M 81 159 L 81 160 L 82 160 L 81 159 Z M 111 159 L 111 160 L 111 159 Z M 157 159 L 157 160 L 157 159 Z M 180 159 L 181 160 L 182 161 Q 183 158 180 159 Z M 187 159 L 185 161 L 187 161 L 187 159 Z M 191 159 L 191 160 L 191 159 Z M 195 159 L 195 160 L 195 159 Z M 39 160 L 37 164 Q 42 163 43 166 L 41 169 L 42 170 L 44 169 Q 42 167 45 166 L 44 164 Q 45 161 43 162 L 41 163 L 42 161 L 41 161 L 39 160 Z M 45 160 L 45 161 L 45 160 Z M 60 160 L 54 163 Q 49 162 50 165 L 48 166 L 51 166 L 56 163 L 56 165 L 58 166 L 57 163 L 62 162 L 60 160 Z M 67 160 L 67 161 L 67 160 Z M 73 160 L 72 162 L 73 162 L 73 160 Z M 98 160 L 98 161 L 98 160 Z M 132 160 L 131 162 L 132 162 L 132 160 Z M 171 160 L 171 161 L 171 160 Z M 49 161 L 49 162 L 49 161 Z M 66 161 L 66 162 L 66 161 Z M 78 161 L 76 164 L 78 164 L 78 161 Z M 88 161 L 88 163 L 90 162 L 88 161 Z M 92 161 L 91 164 L 92 164 L 92 161 Z M 121 161 L 116 163 L 120 163 L 121 164 L 121 161 Z M 139 161 L 140 164 Q 137 163 138 166 L 140 165 Q 142 166 141 163 L 139 161 Z M 145 161 L 145 162 L 146 162 L 145 161 Z M 152 161 L 152 162 L 152 161 Z M 190 161 L 190 163 L 192 162 L 190 161 Z M 196 161 L 196 162 L 197 162 L 196 161 Z M 35 162 L 35 163 L 35 162 Z M 46 162 L 45 164 L 46 164 L 46 162 Z M 50 162 L 50 163 L 50 162 Z M 74 162 L 74 163 L 74 162 Z M 83 162 L 83 166 L 82 168 L 83 170 L 84 168 L 83 162 Z M 138 162 L 137 164 L 138 164 L 138 162 Z M 149 162 L 149 163 L 149 162 Z M 167 162 L 167 164 L 169 163 L 167 162 Z M 198 162 L 198 163 L 198 162 Z M 64 163 L 62 165 L 65 165 L 64 163 Z M 68 163 L 68 164 L 69 164 L 68 163 Z M 110 163 L 110 164 L 111 164 L 110 163 Z M 150 163 L 150 164 L 151 164 L 150 163 Z M 157 163 L 157 164 L 157 163 Z M 194 163 L 194 164 L 194 163 Z M 32 164 L 32 165 L 33 165 L 32 164 Z M 47 164 L 47 165 L 47 164 Z M 81 164 L 81 165 L 81 164 Z M 122 164 L 120 166 L 122 166 L 122 164 Z M 165 164 L 165 165 L 165 164 Z M 176 164 L 177 167 L 177 165 L 179 165 L 176 164 Z M 53 165 L 52 167 L 55 168 L 53 165 Z M 61 165 L 61 166 L 62 166 L 61 165 Z M 69 165 Q 67 168 70 167 L 69 165 Z M 78 165 L 78 166 L 79 166 L 78 165 Z M 89 165 L 87 167 L 90 168 L 90 166 L 89 165 Z M 111 165 L 112 167 Q 113 164 111 165 Z M 119 165 L 119 166 L 119 165 Z M 129 165 L 127 167 L 131 167 Q 132 164 129 165 Z M 145 165 L 143 168 L 147 169 L 150 167 L 145 165 Z M 166 165 L 166 166 L 166 165 Z M 169 165 L 167 167 L 169 167 L 169 165 Z M 174 165 L 171 167 L 174 168 L 175 166 L 174 165 Z M 63 166 L 63 167 L 63 166 Z M 118 166 L 118 167 L 118 166 Z M 125 166 L 124 169 L 125 169 L 125 166 Z M 141 166 L 137 169 L 139 169 L 141 169 L 142 167 L 141 166 Z M 161 166 L 160 168 L 164 168 L 164 167 L 163 167 L 161 166 Z M 41 167 L 41 168 L 41 167 Z M 87 167 L 86 169 L 87 169 L 87 167 Z M 92 167 L 92 168 L 92 167 Z M 100 167 L 100 168 L 102 168 L 100 167 Z M 106 167 L 106 168 L 106 167 Z M 170 167 L 170 168 L 171 168 L 170 167 Z M 182 167 L 181 170 L 182 170 L 182 167 Z M 48 168 L 48 169 L 48 168 Z M 53 168 L 52 171 L 53 171 L 53 168 Z M 56 168 L 56 169 L 56 168 Z M 59 168 L 59 169 L 59 168 Z M 70 168 L 70 169 L 70 168 Z M 93 168 L 93 169 L 94 169 L 93 168 Z M 110 168 L 110 169 L 113 169 L 110 168 Z M 121 168 L 121 169 L 121 168 Z M 152 168 L 150 171 L 152 171 L 152 168 Z M 79 169 L 79 170 L 80 170 L 79 169 Z M 98 169 L 97 171 L 98 171 L 98 169 Z M 132 169 L 131 174 L 129 173 L 128 175 L 131 176 L 130 178 L 131 181 L 126 183 L 126 186 L 124 184 L 125 181 Q 122 180 123 184 L 119 186 L 127 188 L 128 188 Q 127 190 130 189 Q 133 188 130 186 Q 127 187 128 185 L 131 183 Q 132 187 134 184 L 132 183 L 136 180 L 136 182 Q 139 183 138 179 L 134 177 L 133 180 L 132 180 L 133 175 L 132 169 Z M 142 169 L 142 170 L 142 169 Z M 167 169 Q 165 172 168 171 L 167 169 Z M 177 169 L 178 171 Q 179 168 177 169 Z M 24 170 L 23 172 L 24 172 L 24 170 Z M 66 170 L 66 171 L 66 170 Z M 84 170 L 84 171 L 85 171 L 84 170 Z M 137 170 L 137 171 L 138 171 L 137 170 Z M 141 170 L 141 171 L 141 170 Z M 156 170 L 156 171 L 157 171 L 156 170 Z M 26 171 L 26 174 Q 29 173 26 171 Z M 48 171 L 44 175 Q 43 177 46 176 L 46 178 Q 43 179 44 176 L 42 177 L 40 176 L 39 179 L 36 180 L 41 182 L 36 183 L 38 183 L 36 187 L 39 186 Q 41 185 40 188 L 39 187 L 36 191 L 38 190 L 38 192 L 38 193 Q 40 194 39 191 L 41 191 L 41 186 L 44 186 L 43 185 L 45 180 L 42 180 L 47 179 L 47 181 Q 49 182 48 179 L 50 179 L 51 177 L 48 175 L 48 171 Z M 56 171 L 56 172 L 56 171 Z M 67 171 L 67 172 L 67 171 Z M 124 171 L 124 174 L 127 173 L 124 171 Z M 153 171 L 153 172 L 153 171 Z M 16 172 L 16 173 L 16 172 Z M 43 172 L 43 173 L 44 173 L 43 172 Z M 78 172 L 77 174 L 78 174 L 78 172 Z M 90 172 Q 88 175 91 174 L 90 172 Z M 92 172 L 92 173 L 92 172 Z M 100 172 Q 97 176 101 175 L 100 172 Z M 109 172 Q 108 175 111 174 Q 112 171 109 172 Z M 117 172 L 117 173 L 119 173 L 117 172 Z M 154 172 L 154 173 L 154 172 Z M 64 173 L 64 174 L 64 173 Z M 83 173 L 83 174 L 84 174 L 83 173 Z M 121 173 L 118 177 L 121 175 L 121 173 Z M 152 173 L 151 175 L 154 175 L 152 173 Z M 7 174 L 5 178 L 8 179 L 9 176 L 8 176 L 7 174 Z M 11 174 L 10 177 L 11 179 L 9 180 L 13 180 L 15 176 Q 14 173 11 174 Z M 23 174 L 20 176 Q 22 179 24 175 L 23 174 Z M 107 174 L 107 175 L 107 174 Z M 140 174 L 141 177 L 138 177 L 139 179 L 142 178 Q 144 177 142 176 Q 143 173 140 174 Z M 60 175 L 60 176 L 60 175 Z M 107 175 L 107 177 L 109 176 L 107 175 Z M 114 175 L 112 177 L 113 179 L 115 178 L 115 180 L 114 183 L 116 184 L 116 181 Q 119 182 118 180 L 114 177 L 114 175 Z M 156 176 L 157 178 L 158 178 L 156 176 Z M 25 177 L 24 179 L 26 178 L 25 177 Z M 97 177 L 97 179 L 100 180 L 101 180 L 97 177 Z M 106 177 Q 107 179 104 181 Q 105 183 109 182 L 111 182 L 111 180 L 106 177 Z M 162 177 L 158 180 L 160 181 L 159 181 L 159 183 Q 158 185 161 184 L 163 184 L 164 184 L 163 181 L 163 179 Q 164 176 162 177 Z M 20 178 L 20 179 L 22 179 L 20 178 Z M 27 178 L 27 179 L 28 179 L 27 178 Z M 129 178 L 129 179 L 129 178 Z M 18 179 L 18 180 L 19 180 L 18 179 Z M 29 179 L 28 181 L 29 181 L 29 179 Z M 82 179 L 83 182 L 84 180 L 82 179 Z M 92 179 L 91 181 L 92 181 L 92 179 Z M 95 179 L 95 181 L 97 180 L 95 179 Z M 103 179 L 103 180 L 104 180 L 103 179 Z M 176 179 L 171 181 L 168 180 L 171 184 Q 174 185 172 181 L 174 181 Q 175 183 176 181 L 176 179 Z M 190 179 L 190 180 L 190 179 Z M 13 180 Q 12 183 15 182 Q 16 179 13 180 Z M 74 180 L 74 181 L 75 181 L 74 180 Z M 121 180 L 119 183 L 122 183 L 121 180 Z M 191 180 L 190 182 L 192 181 L 191 180 Z M 25 181 L 25 182 L 26 182 L 25 181 Z M 59 181 L 57 185 L 57 186 Q 59 187 58 185 Q 62 183 59 181 Z M 66 181 L 66 182 L 67 182 L 66 181 Z M 103 181 L 103 182 L 103 181 Z M 22 182 L 22 183 L 22 182 Z M 55 182 L 56 185 L 57 183 L 55 182 Z M 89 182 L 88 184 L 89 184 L 89 182 Z M 98 182 L 98 183 L 98 182 Z M 100 182 L 98 185 L 101 185 L 102 186 Q 103 183 100 184 L 100 182 Z M 188 182 L 183 187 L 184 189 L 182 190 L 183 188 L 182 184 L 174 185 L 175 188 L 175 186 L 180 188 L 178 189 L 179 192 L 172 193 L 173 196 L 172 198 Q 173 200 171 199 L 171 200 Q 173 199 172 202 L 171 205 L 174 207 L 178 205 L 177 204 L 173 205 L 176 201 L 176 198 L 175 200 L 173 201 L 174 197 L 177 198 L 183 198 L 183 202 L 185 203 L 184 201 L 187 200 Q 189 201 188 199 L 188 197 L 190 197 L 192 196 L 190 191 L 189 194 Q 187 192 183 193 L 183 195 L 181 195 L 181 197 L 179 195 L 180 193 Q 181 190 183 192 Q 188 193 190 190 L 186 188 L 187 185 L 188 187 L 193 185 L 188 182 Z M 28 183 L 28 184 L 29 184 L 28 183 Z M 31 183 L 31 184 L 32 184 L 31 183 Z M 48 183 L 47 186 L 48 186 L 48 183 Z M 70 183 L 70 184 L 70 183 Z M 97 183 L 97 184 L 97 183 Z M 107 183 Q 106 187 109 186 L 110 184 L 107 183 Z M 177 183 L 177 184 L 177 183 Z M 16 184 L 13 186 L 15 186 L 14 189 L 18 190 Q 20 191 19 188 L 19 186 L 16 184 Z M 45 184 L 45 185 L 45 184 Z M 71 184 L 71 185 L 71 184 Z M 104 184 L 104 185 L 105 185 L 104 184 Z M 139 184 L 139 185 L 139 184 Z M 155 184 Q 154 187 158 186 Q 159 183 155 184 Z M 173 184 L 173 185 L 173 184 Z M 54 185 L 54 186 L 55 186 L 54 185 Z M 138 185 L 138 186 L 138 185 Z M 148 185 L 148 186 L 148 185 Z M 24 186 L 24 187 L 24 186 Z M 47 186 L 47 187 L 47 186 Z M 91 186 L 89 188 L 93 188 Q 94 185 91 186 Z M 119 186 L 118 188 L 116 187 L 114 188 L 118 190 L 121 189 L 119 188 L 119 186 Z M 170 186 L 168 187 L 165 188 L 167 190 Q 168 187 171 188 Q 172 185 170 186 Z M 23 187 Q 20 189 23 190 Q 26 189 23 187 Z M 28 187 L 30 190 L 30 189 L 28 187 Z M 36 187 L 36 188 L 36 187 Z M 62 187 L 62 188 L 62 187 Z M 99 187 L 98 189 L 99 189 L 99 187 Z M 192 187 Q 188 189 193 191 L 194 189 L 192 187 Z M 8 188 L 7 190 L 9 191 L 8 188 Z M 35 188 L 34 190 L 35 190 L 35 188 Z M 48 188 L 47 190 L 48 190 L 48 188 Z M 81 188 L 78 190 L 82 190 Q 83 187 81 188 Z M 94 188 L 94 189 L 94 188 Z M 174 188 L 174 189 L 174 188 Z M 12 189 L 12 190 L 13 190 L 12 189 Z M 43 189 Q 42 192 45 191 Q 46 188 43 189 Z M 52 189 L 52 190 L 52 189 Z M 61 189 L 61 190 L 61 189 Z M 66 189 L 66 190 L 66 189 Z M 91 189 Q 90 192 93 191 Q 94 188 91 189 Z M 100 189 L 100 190 L 100 189 Z M 106 189 L 106 190 L 109 190 L 106 189 Z M 112 189 L 111 192 Q 112 194 116 193 L 114 191 Q 115 188 112 189 Z M 123 189 L 122 191 L 123 191 L 123 189 Z M 133 189 L 133 190 L 133 189 Z M 156 189 L 156 190 L 156 189 Z M 168 189 Q 167 192 170 191 Q 171 188 168 189 Z M 20 190 L 19 191 Q 16 190 17 193 L 19 192 Q 23 193 22 191 L 20 190 Z M 34 190 L 34 191 L 34 190 Z M 76 190 L 76 193 L 77 193 Q 78 189 76 190 Z M 86 190 L 86 191 L 87 191 L 86 190 Z M 166 190 L 165 192 L 159 194 L 163 194 L 165 198 L 167 197 Q 169 196 167 195 L 168 193 L 166 192 L 166 190 Z M 172 190 L 173 192 Q 174 189 172 190 Z M 14 191 L 13 193 L 14 193 L 14 191 Z M 29 191 L 28 194 L 30 194 L 29 191 Z M 94 191 L 94 192 L 94 191 Z M 106 191 L 106 193 L 109 194 L 111 193 Q 110 190 106 191 Z M 128 191 L 128 192 L 129 192 L 128 191 Z M 155 191 Q 154 194 158 193 Q 159 190 155 191 Z M 23 192 L 23 193 L 23 192 Z M 31 192 L 31 193 L 31 192 Z M 70 192 L 70 193 L 70 192 Z M 79 192 L 79 193 L 79 192 Z M 90 192 L 90 193 L 90 192 Z M 96 192 Q 95 195 98 194 Q 99 191 96 192 Z M 101 192 L 101 193 L 102 193 L 101 192 Z M 118 192 L 119 194 Q 120 191 118 192 Z M 146 192 L 145 193 Q 142 192 143 195 Q 142 197 139 196 L 137 196 L 136 198 L 138 200 L 136 199 Q 133 198 134 201 L 132 202 L 135 205 L 135 201 L 140 200 L 139 202 L 142 203 L 144 200 L 143 200 Q 140 201 141 197 L 146 197 L 144 196 Q 143 193 146 194 L 146 192 Z M 194 192 L 194 193 L 194 192 Z M 12 193 L 12 194 L 13 194 L 12 193 Z M 24 193 L 24 194 L 24 193 Z M 69 193 L 69 194 L 69 193 Z M 72 193 L 72 194 L 72 193 Z M 76 193 L 76 194 L 76 193 Z M 79 193 Q 78 196 81 195 Q 82 192 79 193 Z M 103 193 L 103 194 L 104 194 L 103 193 Z M 117 193 L 117 194 L 117 193 Z M 121 193 L 121 194 L 122 194 L 121 193 Z M 139 193 Q 138 196 142 195 Q 143 192 139 193 Z M 13 194 L 13 196 L 15 195 L 13 194 Z M 84 194 L 84 195 L 85 195 L 84 194 Z M 26 195 L 27 197 L 29 196 L 26 195 Z M 32 195 L 31 198 Q 28 197 29 200 L 32 199 L 34 196 L 32 195 Z M 83 195 L 83 196 L 83 195 Z M 131 195 L 131 196 L 132 196 L 131 195 Z M 151 195 L 149 198 L 151 198 Q 154 197 151 195 Z M 212 195 L 212 196 L 212 195 Z M 36 196 L 36 197 L 39 197 L 36 196 Z M 48 196 L 46 200 L 44 201 L 42 200 L 40 201 L 42 203 L 46 201 L 47 203 L 47 199 L 49 199 L 48 196 Z M 58 196 L 58 197 L 58 196 Z M 62 196 L 62 197 L 62 196 Z M 82 196 L 82 197 L 82 196 Z M 85 196 L 86 198 L 88 197 L 85 196 Z M 90 196 L 89 198 L 91 197 L 90 196 Z M 148 196 L 146 198 L 148 199 L 148 196 Z M 22 197 L 22 198 L 22 197 Z M 43 197 L 43 198 L 45 198 L 43 197 Z M 60 197 L 60 198 L 61 198 L 60 197 Z M 99 197 L 99 198 L 99 197 Z M 169 197 Q 167 200 170 199 L 169 197 Z M 21 198 L 21 199 L 21 198 Z M 24 198 L 24 199 L 24 198 Z M 121 198 L 121 199 L 122 199 L 121 198 Z M 125 198 L 125 199 L 126 199 L 125 198 Z M 192 198 L 192 199 L 192 198 Z M 25 199 L 25 200 L 25 199 Z M 34 199 L 32 201 L 34 201 L 34 199 Z M 50 199 L 50 200 L 53 200 L 50 199 Z M 87 199 L 87 200 L 88 200 L 87 199 Z M 90 199 L 88 201 L 91 201 Q 92 198 90 199 Z M 115 199 L 115 200 L 115 199 Z M 119 199 L 119 200 L 120 200 L 119 199 Z M 154 199 L 154 200 L 154 199 Z M 165 199 L 164 201 L 165 201 L 165 199 Z M 167 199 L 165 205 Q 168 206 167 203 L 170 201 L 167 199 Z M 178 199 L 178 200 L 178 199 Z M 190 199 L 190 200 L 191 200 L 190 199 Z M 194 199 L 194 200 L 194 199 Z M 17 200 L 15 202 L 18 202 L 17 204 L 19 206 Q 22 207 21 205 L 19 205 Q 18 202 21 203 L 21 201 L 17 200 Z M 57 200 L 58 202 L 62 201 Q 63 203 64 201 L 57 200 Z M 68 200 L 68 201 L 68 200 Z M 95 200 L 93 202 Q 92 205 95 204 L 96 201 L 95 200 Z M 127 200 L 127 201 L 127 200 Z M 130 200 L 130 201 L 130 200 Z M 153 200 L 152 202 L 153 202 L 153 200 Z M 163 200 L 162 202 L 163 202 L 163 200 Z M 205 200 Q 205 203 202 202 L 202 205 Q 205 206 204 204 Q 208 202 205 200 Z M 22 201 L 22 202 L 23 202 L 22 201 Z M 38 201 L 38 202 L 38 201 Z M 69 201 L 68 203 L 69 203 L 69 201 Z M 126 201 L 126 202 L 126 201 Z M 182 201 L 181 203 L 182 203 L 182 201 Z M 190 201 L 190 202 L 194 202 L 190 201 Z M 14 202 L 14 203 L 14 202 Z M 24 202 L 24 203 Q 26 202 25 206 Q 28 207 27 205 L 29 202 L 27 203 L 24 202 Z M 37 202 L 37 203 L 37 202 Z M 57 202 L 57 203 L 57 202 Z M 59 202 L 59 204 L 61 205 Q 62 201 59 202 Z M 129 202 L 129 203 L 129 202 Z M 162 202 L 162 203 L 162 202 Z M 195 202 L 192 203 Q 191 206 195 205 L 195 202 Z M 211 202 L 211 203 L 211 202 Z M 22 203 L 22 204 L 22 203 Z M 35 203 L 35 206 Q 39 207 38 204 L 35 203 Z M 48 203 L 47 205 L 46 204 L 39 206 L 40 208 L 38 208 Q 37 211 42 209 L 41 208 L 43 207 Q 42 209 45 208 L 45 206 L 47 207 L 51 206 L 53 206 L 56 207 Q 59 206 58 209 Q 61 210 60 206 L 59 206 Q 57 203 51 205 L 48 203 Z M 80 203 L 80 206 Q 83 205 80 203 Z M 90 203 L 90 204 L 90 203 Z M 115 203 L 115 204 L 115 203 Z M 119 203 L 121 205 L 124 205 L 119 203 Z M 157 203 L 154 205 L 158 206 L 160 205 L 157 203 Z M 176 203 L 176 204 L 176 203 Z M 10 204 L 10 206 Q 6 205 8 210 L 7 209 L 5 210 L 3 213 L 6 214 L 5 213 L 8 212 L 12 207 L 15 208 L 16 206 Q 15 203 10 204 Z M 71 204 L 71 205 L 71 204 Z M 83 204 L 83 205 L 84 205 L 83 204 Z M 98 204 L 99 206 Q 100 203 98 204 Z M 103 204 L 104 206 Q 105 203 103 204 Z M 127 204 L 127 205 L 127 204 Z M 180 204 L 180 206 L 180 207 L 182 206 Q 183 203 180 204 Z M 188 204 L 187 206 L 188 206 L 188 204 Z M 200 204 L 200 205 L 201 205 L 200 204 Z M 32 205 L 32 206 L 33 206 L 32 205 Z M 78 205 L 78 206 L 78 205 Z M 86 205 L 84 207 L 86 207 L 86 205 Z M 114 205 L 114 206 L 114 205 Z M 128 205 L 128 206 L 128 205 Z M 184 205 L 184 206 L 185 206 L 184 205 Z M 196 205 L 195 207 L 196 207 L 196 205 Z M 18 206 L 18 207 L 18 206 Z M 25 206 L 25 207 L 25 206 Z M 66 206 L 61 208 L 66 210 L 66 212 L 65 210 L 61 213 Q 57 212 58 215 L 55 216 L 54 213 L 56 210 L 53 212 L 49 210 L 50 213 L 49 215 L 48 213 L 45 212 L 44 209 L 43 211 L 38 212 L 47 214 L 47 216 Q 50 215 49 218 L 47 218 L 46 217 L 43 219 L 48 220 L 53 218 L 54 220 L 58 217 Q 60 218 59 214 L 61 214 L 60 216 L 62 218 L 63 214 L 66 215 L 67 213 L 67 211 L 71 208 L 69 207 L 66 206 Z M 89 206 L 89 207 L 90 207 L 89 206 Z M 130 206 L 130 207 L 130 206 Z M 148 206 L 148 209 L 151 208 L 151 210 L 151 212 Q 150 215 153 214 L 154 215 L 157 212 L 157 214 L 160 214 L 160 211 L 158 210 L 153 211 L 152 208 L 148 206 Z M 163 206 L 162 208 L 163 208 L 163 206 Z M 170 206 L 171 208 L 172 208 L 170 206 Z M 187 206 L 186 208 L 187 208 L 187 206 Z M 24 207 L 21 210 Q 19 208 18 211 L 23 211 L 23 213 Q 25 214 24 211 L 24 209 L 24 207 Z M 31 207 L 31 209 L 33 210 Q 34 206 31 207 Z M 94 207 L 94 208 L 94 207 Z M 104 207 L 104 208 L 105 208 L 104 207 Z M 111 207 Q 111 211 113 208 L 111 207 Z M 118 207 L 118 210 Q 121 209 118 207 Z M 127 207 L 124 209 L 127 209 L 129 209 Q 130 206 127 207 Z M 134 207 L 133 210 L 131 209 L 129 210 Q 126 209 127 212 L 124 214 L 128 214 L 129 211 L 137 210 L 137 208 L 134 209 L 134 207 Z M 157 207 L 157 208 L 157 207 Z M 169 207 L 168 209 L 169 209 L 169 207 Z M 175 207 L 175 208 L 175 207 Z M 178 207 L 178 210 L 184 209 L 183 207 L 181 208 L 178 207 Z M 199 207 L 195 213 Q 197 217 199 214 L 199 216 L 202 216 L 203 214 L 203 212 L 199 211 L 199 207 Z M 26 208 L 25 210 L 26 210 L 26 208 Z M 36 208 L 36 209 L 37 209 L 36 208 Z M 48 208 L 48 209 L 48 208 Z M 89 208 L 89 209 L 89 208 Z M 99 208 L 99 209 L 99 208 Z M 161 208 Q 157 210 162 212 L 163 212 L 161 208 Z M 164 208 L 164 209 L 165 209 L 164 208 Z M 167 208 L 167 209 L 167 208 Z M 177 208 L 177 209 L 177 208 Z M 61 209 L 61 210 L 61 209 Z M 84 209 L 84 210 L 86 210 L 84 209 Z M 88 209 L 88 210 L 88 209 Z M 172 209 L 172 210 L 173 210 L 172 209 Z M 175 209 L 173 211 Q 174 213 171 212 L 171 210 L 166 211 L 169 213 L 167 217 L 171 216 L 172 217 L 170 218 L 174 219 Q 177 218 175 222 L 177 222 L 176 218 L 179 216 Q 179 211 175 209 Z M 201 209 L 201 210 L 201 209 Z M 27 210 L 29 214 Q 31 213 29 212 Q 30 209 27 210 Z M 81 210 L 81 211 L 81 210 Z M 107 210 L 105 212 Q 104 214 107 213 L 108 211 L 107 210 Z M 181 210 L 180 212 L 181 212 L 181 210 Z M 212 210 L 207 213 L 209 213 Q 210 216 212 212 L 212 210 Z M 73 211 L 73 212 L 73 211 Z M 82 211 L 78 212 L 80 215 L 82 214 L 86 216 L 87 213 L 82 211 Z M 91 211 L 90 212 Q 87 211 88 214 L 92 213 Q 93 210 91 211 Z M 97 211 L 93 213 L 97 213 L 100 217 L 102 216 L 98 214 L 99 212 L 97 211 Z M 101 211 L 101 212 L 101 211 Z M 110 211 L 110 213 L 110 215 L 109 218 L 112 219 L 111 214 Q 115 213 114 216 Q 117 217 116 215 L 117 213 Q 113 214 114 211 L 110 211 Z M 117 211 L 117 212 L 117 211 Z M 121 211 L 121 212 L 121 211 Z M 145 211 L 145 214 L 141 215 L 139 214 L 137 217 Q 138 219 140 217 L 141 219 L 141 217 L 145 218 L 150 215 L 150 213 L 149 211 L 147 212 L 145 211 Z M 185 211 L 185 212 L 186 212 L 185 211 Z M 38 212 L 37 214 L 38 214 L 38 212 Z M 102 212 L 101 214 L 103 215 L 102 212 Z M 133 212 L 131 215 L 133 214 L 133 212 Z M 166 212 L 165 214 L 167 213 L 166 212 Z M 189 212 L 189 213 L 189 212 Z M 206 212 Q 203 213 205 215 L 202 217 L 205 217 L 206 220 L 209 219 L 207 217 L 207 216 L 206 212 Z M 25 213 L 25 214 L 25 213 Z M 119 213 L 119 214 L 119 213 Z M 190 213 L 189 215 L 190 215 L 190 213 Z M 34 214 L 36 217 L 37 216 L 34 214 Z M 93 214 L 91 216 L 94 216 Q 95 213 93 214 Z M 107 214 Q 106 217 109 216 Q 110 213 107 214 Z M 124 214 L 123 216 L 124 216 L 124 214 Z M 135 214 L 135 215 L 135 214 Z M 155 214 Q 154 217 157 216 Q 158 213 155 214 Z M 184 214 L 184 215 L 184 214 Z M 31 215 L 31 216 L 31 215 Z M 82 215 L 80 217 L 82 219 L 83 219 L 82 215 Z M 90 215 Q 90 218 87 217 L 87 220 Q 90 221 89 219 Q 93 217 90 215 Z M 128 215 Q 128 219 130 216 L 128 215 Z M 210 215 L 210 216 L 211 216 L 210 215 Z M 30 216 L 30 217 L 30 216 Z M 34 216 L 32 218 L 34 218 L 34 216 Z M 37 216 L 37 218 L 40 219 L 40 220 L 37 219 L 35 223 L 38 225 Q 37 227 36 225 L 35 227 L 39 226 L 41 227 L 40 224 L 41 222 L 43 223 L 44 224 Q 45 219 43 220 L 41 221 L 42 219 L 37 216 Z M 95 216 L 96 218 Q 97 215 95 216 Z M 105 216 L 103 218 L 107 219 Q 109 215 105 216 Z M 160 216 Q 159 219 162 218 Q 163 215 160 216 Z M 194 216 L 190 217 L 190 218 Q 197 216 196 220 Q 199 221 198 218 Q 197 215 194 216 Z M 43 217 L 43 218 L 43 217 Z M 118 217 L 118 218 L 119 218 L 118 217 Z M 187 217 L 185 219 L 186 221 L 188 218 L 187 217 Z M 211 217 L 211 218 L 211 217 Z M 26 218 L 26 222 L 30 221 L 26 218 Z M 31 218 L 31 219 L 31 218 Z M 92 218 L 92 219 L 92 218 Z M 94 218 L 94 219 L 94 218 Z M 114 218 L 114 219 L 115 219 L 114 218 Z M 129 218 L 129 219 L 131 219 L 129 218 Z M 166 218 L 164 220 L 167 220 Q 168 217 166 218 Z M 34 219 L 32 221 L 34 221 L 34 219 Z M 100 219 L 97 221 Q 94 220 95 223 L 100 222 L 100 219 Z M 104 219 L 104 220 L 104 219 Z M 109 219 L 109 220 L 109 219 Z M 150 219 L 150 220 L 150 219 Z M 180 219 L 179 222 L 181 222 L 180 219 Z M 183 219 L 183 220 L 183 219 Z M 200 219 L 201 221 Q 202 218 200 219 Z M 210 219 L 210 220 L 210 219 Z M 49 220 L 49 221 L 50 221 L 49 220 Z M 106 220 L 106 221 L 106 220 Z M 125 220 L 125 221 L 125 220 Z M 189 220 L 189 221 L 189 220 Z M 52 221 L 53 224 L 54 222 L 52 221 Z M 184 221 L 184 222 L 184 221 Z M 47 222 L 46 224 L 47 224 L 47 222 Z M 88 222 Q 88 225 86 224 L 86 225 Q 89 224 88 227 L 89 227 Q 88 224 91 225 Q 92 221 89 222 L 89 224 L 88 222 Z M 111 222 L 111 223 L 112 223 L 111 222 Z M 133 222 L 133 224 L 135 225 Q 136 221 133 222 Z M 170 222 L 170 223 L 170 222 Z M 183 222 Q 180 224 181 229 L 185 226 L 183 225 L 183 222 Z M 212 222 L 211 226 L 213 226 L 212 222 Z M 55 223 L 55 224 L 55 223 Z M 179 223 L 178 225 L 179 225 L 179 223 Z M 99 224 L 99 225 L 99 224 Z M 101 224 Q 102 227 99 226 L 99 229 L 103 230 L 103 228 Q 104 223 101 224 Z M 189 224 L 189 225 L 189 224 Z M 193 224 Q 193 228 190 227 L 192 230 L 193 228 L 196 229 L 197 228 L 198 228 L 198 231 Q 201 230 200 233 L 202 233 L 199 227 L 193 226 L 193 224 Z M 195 224 L 195 225 L 195 224 Z M 20 225 L 19 227 L 20 227 L 20 225 Z M 34 225 L 34 226 L 34 225 Z M 71 225 L 71 226 L 71 225 Z M 98 225 L 98 226 L 98 225 Z M 120 225 L 120 226 L 122 226 L 120 225 Z M 132 225 L 132 226 L 133 226 L 132 225 Z M 164 225 L 161 227 L 163 230 L 165 229 L 164 231 L 165 232 L 167 229 L 167 227 Q 168 224 164 225 Z M 177 225 L 176 228 L 180 229 L 180 226 L 177 225 Z M 219 225 L 217 227 L 219 227 L 219 225 Z M 94 226 L 91 230 L 89 231 L 94 233 L 92 236 L 95 234 Q 96 230 94 231 Q 91 230 94 228 L 95 230 Q 98 228 94 226 Z M 97 226 L 97 227 L 97 226 Z M 119 226 L 117 228 L 118 231 L 119 231 L 119 226 Z M 128 226 L 128 227 L 129 227 L 128 226 Z M 59 227 L 57 229 L 59 229 L 59 227 Z M 217 227 L 217 228 L 217 227 Z M 128 228 L 128 229 L 128 228 Z M 151 228 L 151 229 L 152 229 L 151 228 Z M 185 228 L 185 229 L 185 228 Z M 26 229 L 26 230 L 26 229 Z M 44 229 L 44 230 L 44 229 Z M 63 229 L 63 230 L 63 229 Z M 65 229 L 65 230 L 65 229 Z M 176 229 L 175 232 L 173 231 L 173 233 Q 172 235 176 234 L 177 232 L 176 229 Z M 212 229 L 212 230 L 212 229 Z M 215 229 L 215 232 Q 218 231 215 229 Z M 21 230 L 21 231 L 21 230 Z M 29 230 L 29 232 L 33 232 L 29 230 Z M 44 230 L 43 233 L 47 235 L 51 234 L 52 236 L 57 235 L 57 234 Q 54 235 55 232 Q 54 229 53 231 L 44 230 Z M 69 230 L 69 231 L 69 230 Z M 130 230 L 130 231 L 130 230 Z M 168 230 L 166 232 L 167 234 L 169 234 L 168 230 Z M 204 230 L 204 231 L 204 230 Z M 218 230 L 218 231 L 218 230 Z M 217 231 L 217 232 L 217 231 Z M 3 232 L 3 233 L 3 232 Z M 39 233 L 39 234 L 39 233 Z M 106 233 L 104 235 L 106 235 L 106 233 Z M 136 233 L 134 234 L 131 235 Q 127 234 128 238 Q 126 239 129 240 L 137 236 L 136 233 Z M 80 234 L 80 235 L 82 235 L 80 234 Z M 96 234 L 96 235 L 96 234 Z M 139 234 L 139 235 L 139 234 Z M 180 234 L 180 235 L 180 234 Z M 195 234 L 194 236 L 195 236 L 195 234 Z M 103 236 Q 102 239 105 238 Q 106 235 103 236 Z M 196 236 L 196 237 L 197 237 L 196 236 Z M 35 239 L 36 241 L 37 241 L 35 239 Z M 125 239 L 125 241 L 127 240 L 125 239 Z M 181 240 L 183 242 Q 184 239 181 240 Z M 47 241 L 47 242 L 47 241 Z M 206 241 L 206 242 L 206 241 Z M 97 242 L 97 244 L 102 248 L 99 244 Q 100 241 97 242 Z M 169 243 L 169 244 L 169 243 Z M 173 243 L 173 244 L 173 243 Z M 200 243 L 200 244 L 200 243 Z M 43 244 L 42 247 Q 45 248 43 250 L 46 251 L 47 251 L 46 249 L 46 247 Q 47 243 45 244 L 43 244 Z M 80 244 L 80 245 L 80 244 Z M 182 244 L 182 246 L 184 245 L 184 247 L 185 247 Q 186 242 182 244 Z M 196 244 L 196 247 L 195 249 L 196 250 L 197 248 Q 200 246 196 244 Z M 41 245 L 40 247 L 41 247 L 41 245 Z M 60 245 Q 57 246 58 250 L 63 250 L 60 249 L 62 248 L 63 246 L 61 247 L 60 245 Z M 79 245 L 79 246 L 79 245 Z M 132 245 L 131 248 L 125 249 L 125 250 Q 131 252 133 249 L 132 245 Z M 158 245 L 158 246 L 158 245 Z M 172 245 L 172 246 L 172 245 Z M 177 245 L 177 246 L 177 245 Z M 79 246 L 79 248 L 82 248 Q 83 244 79 246 Z M 107 246 L 106 247 Q 103 246 104 249 L 109 250 Q 111 245 107 246 Z M 119 246 Q 118 249 121 248 Q 122 245 119 246 Z M 171 247 L 171 248 L 171 247 Z M 42 248 L 42 249 L 42 248 Z M 64 248 L 64 249 L 64 248 Z M 79 248 L 78 250 L 79 250 L 79 248 Z M 183 248 L 183 249 L 183 248 Z M 162 249 L 162 250 L 162 249 Z M 70 250 L 68 252 L 70 252 L 70 250 Z M 81 250 L 80 252 L 81 252 L 81 250 Z M 86 250 L 86 251 L 86 250 Z M 118 250 L 117 252 L 119 251 L 118 250 Z M 60 251 L 60 252 L 63 252 L 60 251 Z M 64 252 Q 62 255 65 254 L 64 252 Z M 79 253 L 79 254 L 79 253 Z M 113 253 L 111 256 Q 113 259 114 256 Q 115 252 113 253 Z M 104 255 L 104 256 L 104 255 Z M 105 256 L 105 257 L 105 256 Z M 108 257 L 109 258 L 110 259 Q 111 256 108 257 Z M 105 260 L 105 261 L 105 260 Z M 107 260 Q 106 263 109 262 Q 110 259 107 260 Z M 104 261 L 104 262 L 104 261 Z "/>
  <path fill="#000000" stroke="none" opacity="1" d="M 133 39 L 137 39.5 L 135.5 42 L 133 41 L 133 39 Z "/>
  <path fill="#000000" stroke="none" opacity="1" d="M 111.5 40 L 111.5 41 L 111.5 40 Z "/>
  <path fill="#000000" stroke="none" opacity="1" d="M 102.5 42 Q 105.8 40.9 105 43.5 L 107 48 L 103 47.5 L 104.5 45 L 102.5 46 L 102 44.5 L 102.5 42 Z "/>
  <path fill="#000000" stroke="none" opacity="1" d="M 149.5 45 L 151 45.5 L 149.5 46 L 149.5 45 Z "/>
  <path fill="#000000" stroke="none" opacity="1" d="M 110.5 47 L 111 49.5 L 110.5 52 Q 108.3 52.8 109 50.5 L 110.5 47 Z "/>
  <path fill="#000000" stroke="none" opacity="1" d="M 101.5 50 L 101.5 51 L 101.5 50 Z "/>
  <path fill="#000000" stroke="none" opacity="1" d="M 120.5 51 L 122 51.5 L 120.5 52 L 120.5 51 Z "/>
  <path fill="#000000" stroke="none" opacity="1" d="M 117.5 53 L 121 54.5 L 117.5 57 L 116 54.5 L 117.5 53 Z "/>
  <path fill="#000000" stroke="none" opacity="1" d="M 104.5 54 L 105 55.5 L 103 56.5 L 104.5 54 Z "/>
  <path fill="#000000" stroke="none" opacity="1" d="M 94 55 Q 96.7 53.9 96 56.5 L 96 58.5 L 95.5 60 L 95 58 L 91 56.5 L 92.5 56 L 94 56.5 L 94 55 Z "/>
  <path fill="#000000" stroke="none" opacity="1" d="M 112.5 56 L 113.5 58 L 112.5 56 Z "/>
  <path fill="#000000" stroke="none" opacity="1" d="M 88 58 L 90 58.5 L 88.5 61 L 88 58 Z "/>
  <path fill="#000000" stroke="none" opacity="1" d="M 91.5 59 L 93 63 Q 90.3 61.9 91 64.5 L 89 65.5 L 90 63.5 L 90 61.5 L 91.5 59 Z "/>
  <path fill="#000000" stroke="none" opacity="1" d="M 106.5 59 L 108 59.5 L 107 62.5 L 107.5 64 L 105 64 L 105 68 L 103.5 68 L 103.5 66 Q 101.3 65.3 102 67.5 L 101 67.5 L 102 64.5 L 100 64.5 L 101 62 Q 98.3 63.1 99 60.5 L 102.5 63 L 106.5 59 Z "/>
  <path fill="#000000" stroke="none" opacity="1" d="M 96.5 62 L 97 63.5 L 95 64.5 L 96.5 62 Z "/>
  <path fill="#000000" stroke="none" opacity="1" d="M 78.5 63 Q 81.8 61.9 81 64.5 L 83 64.5 L 82 71 Q 79.9 72.6 74.5 72 L 74.5 71 Q 76.8 71.8 76 69.5 L 79 68.5 Q 78.3 66.3 80.5 67 L 80.5 66 Q 78.3 66.8 79 64.5 L 78.5 63 Z M 81 69 L 81 70 L 81 69 Z "/>
  <path fill="#000000" stroke="none" opacity="1" d="M 110.5 63 Q 113.1 62.2 112 65.5 L 115 66.5 L 114 68.5 Q 116.5 70 113 71.5 L 114.5 73 Q 116.8 72.3 116 74.5 L 114 77.5 L 115.5 82 L 117.5 77 L 118 80.5 Q 114.1 83.5 115 90 L 110 89.5 L 112.5 86 L 109.5 84 L 106 85.5 L 105.5 88 L 105 85.5 L 105.5 84 Q 103.3 84.8 104 82.5 L 106.5 84 L 107.5 83 Q 110.1 83.8 109 80.5 L 112 79.5 L 108.5 79 L 106 80.5 Q 105.3 78.3 107.5 79 L 107 77.5 Q 107.8 75.3 105.5 76 Q 107.2 78 103.5 80 L 102.5 78 L 102 80 Q 99 81 100 78 L 102 77.5 L 101 74 L 104 73.5 L 100 72.5 L 100 70.5 L 100.5 69 L 105.5 71 L 106 68 Q 108.7 69.1 108 66.5 L 107.5 65 L 111 64.5 L 110.5 63 Z M 110 67 L 110 70 L 113 71 L 112 70 Q 113 66 110 67 Z M 110 71 L 108 73 L 109 75 Q 113 77 112 74 L 110 74 L 111 72 L 110 71 Z M 106 73 L 106 74 L 106 73 Z M 105 75 L 105 76 L 105 75 Z M 108 75 L 108 76 L 109 76 L 108 75 Z M 113 81 L 113 82 L 114 82 L 113 81 Z M 113 83 L 114 85 L 115 85 L 113 83 Z "/>
  <path fill="#000000" stroke="none" opacity="1" d="M 125 63 Q 128 62 127 65 Q 124 66 125 63 Z "/>
  <path fill="#000000" stroke="none" opacity="1" d="M 118.5 65 L 119 67 L 117 66.5 L 118.5 65 Z "/>
  <path fill="#000000" stroke="none" opacity="1" d="M 120.5 65 L 122.5 66 Q 123.7 63.8 125 66.5 L 123.5 69 L 120.5 65 Z "/>
  <path fill="#000000" stroke="none" opacity="1" d="M 148.5 66 L 148.5 67 L 148.5 66 Z "/>
  <path fill="#000000" stroke="none" opacity="1" d="M 97.5 67 L 100 67.5 L 93.5 72 L 94.5 70 L 98 68.5 L 97.5 67 Z "/>
  <path fill="#000000" stroke="none" opacity="1" d="M 85.5 68 L 85 69.5 L 86 72.5 L 84.5 73 L 83 70.5 L 85.5 68 Z "/>
  <path fill="#000000" stroke="none" opacity="1" d="M 125.5 68 L 126 70.5 L 125 70.5 L 125.5 68 Z "/>
  <path fill="#000000" stroke="none" opacity="1" d="M 176.5 69 L 179 69.5 Q 176.8 70.7 179.5 72 L 181 72.5 Q 179.6 75.1 175 74.5 L 177 75 Q 178 78 175 77 L 174 72.5 L 176.5 69 Z M 176 72 L 176 73 L 176 72 Z "/>
  <path fill="#000000" stroke="none" opacity="1" d="M 86.5 70 L 88 70.5 L 86.5 71 L 86.5 70 Z "/>
  <path fill="#000000" stroke="none" opacity="1" d="M 119.5 71 L 120 72.5 L 119 72.5 L 119.5 71 Z "/>
  <path fill="#000000" stroke="none" opacity="1" d="M 122.5 71 L 123.5 73 L 122.5 71 Z "/>
  <path fill="#000000" stroke="none" opacity="1" d="M 62.5 72 L 62.5 73 L 62.5 72 Z "/>
  <path fill="#000000" stroke="none" opacity="1" d="M 87.5 72 L 87.5 73 L 87.5 72 Z "/>
  <path fill="#000000" stroke="none" opacity="1" d="M 72.5 73 Q 75.1 72.3 74 75 L 71 74.5 L 72.5 73 Z "/>
  <path fill="#000000" stroke="none" opacity="1" d="M 75 73 L 79 74.5 L 76.5 76 L 75 73 Z "/>
  <path fill="#000000" stroke="none" opacity="1" d="M 96.5 73 L 99 74.5 L 95 76 L 96.5 73 Z "/>
  <path fill="#000000" stroke="none" opacity="1" d="M 62.5 74 L 62.5 75 L 62.5 74 Z "/>
  <path fill="#000000" stroke="none" opacity="1" d="M 89.5 74 Q 91.8 73.3 91 75.5 L 89.5 74 Z "/>
  <path fill="#000000" stroke="none" opacity="1" d="M 121.5 75 Q 124.5 74.1 123 78.5 L 121 79.5 L 122 76.5 L 121.5 75 Z "/>
  <path fill="#000000" stroke="none" opacity="1" d="M 79.5 76 L 80 77.5 L 79 77.5 L 79.5 76 Z "/>
  <path fill="#000000" stroke="none" opacity="1" d="M 93.5 76 L 94 77.5 L 93 77.5 L 93.5 76 Z "/>
  <path fill="#000000" stroke="none" opacity="1" d="M 97.5 77 L 97.5 78 L 97.5 77 Z "/>
  <path fill="#000000" stroke="none" opacity="1" d="M 75.5 79 L 75.5 80 L 75.5 79 Z "/>
  <path fill="#000000" stroke="none" opacity="1" d="M 77.5 79 Q 79.8 78.3 79 80.5 L 77.5 79 Z "/>
  <path fill="#000000" stroke="none" opacity="1" d="M 56.5 82 L 56.5 83 L 56.5 82 Z "/>
  <path fill="#000000" stroke="none" opacity="1" d="M 121.5 82 L 121.5 83 L 121.5 82 Z "/>
  <path fill="#000000" stroke="none" opacity="1" d="M 123.5 82 L 123.5 83 L 123.5 82 Z "/>
  <path fill="#000000" stroke="none" opacity="1" d="M 118 83 L 122 85.5 L 120.5 85 Q 116.8 86 118 83 Z "/>
  <path fill="#000000" stroke="none" opacity="1" d="M 55.5 84 L 55.5 85 L 55.5 84 Z "/>
  <path fill="#000000" stroke="none" opacity="1" d="M 96 84 Q 99.7 82.5 99 85.5 L 100.5 85 Q 102.8 84.3 102 86.5 L 102.5 88 L 98.5 86 L 97.5 88 L 96 84 Z "/>
  <path fill="#000000" stroke="none" opacity="1" d="M 124.5 85 L 124.5 86 L 124.5 85 Z "/>
  <path fill="#000000" stroke="none" opacity="1" d="M 120.5 87 L 120.5 88 L 120.5 87 Z "/>
  <path fill="#000000" stroke="none" opacity="1" d="M 94.5 88 L 94.5 89 L 94.5 88 Z "/>
  <path fill="#000000" stroke="none" opacity="1" d="M 62.5 92 L 66 93.5 Q 64.9 96.8 67.5 96 L 73 97 L 72.5 95 L 71 95.5 Q 70.3 93.3 72.5 94 L 76 96.5 L 68.5 101 L 65.5 99 L 64 99.5 Q 64.8 97.3 62.5 98 L 63.5 96 Q 66.1 96.7 65 94 L 62.5 92 Z "/>
  <path fill="#000000" stroke="none" opacity="1" d="M 190.5 93 L 193 93.5 L 191 96.5 Q 194 97.5 193 102.5 L 191.5 102 L 189 103.5 L 190 106.5 Q 188.3 104.9 186.5 108 L 184.5 106 Q 181.9 106.8 183 103.5 L 185 100 L 189 99 Q 188.3 95.6 191 94.5 L 190.5 93 Z M 191 98 Q 189 101 192 100 L 191 98 Z M 187 102 L 186 104 L 187 104 L 187 102 Z M 188 104 L 188 105 L 188 104 Z "/>
  <path fill="#000000" stroke="none" opacity="1" d="M 180 94 Q 183.8 92.5 183 95.5 Q 181.5 98.5 180 95.5 L 180 94 Z "/>
  <path fill="#000000" stroke="none" opacity="1" d="M 173.5 96 L 179 98.5 Q 177.6 101.3 173 100 L 173.5 96 Z "/>
  <path fill="#000000" stroke="none" opacity="1" d="M 116.5 98 L 117 100 L 115 99.5 L 116.5 98 Z "/>
  <path fill="#000000" stroke="none" opacity="1" d="M 163.5 98 L 163.5 99 L 163.5 98 Z "/>
  <path fill="#000000" stroke="none" opacity="1" d="M 124.5 101 L 128 101 Q 125.9 106.2 130.5 105 L 129.5 107 L 124.5 101 Z "/>
  <path fill="#000000" stroke="none" opacity="1" d="M 130.5 103 L 132 103.5 L 130.5 104 L 130.5 103 Z "/>
  <path fill="#000000" stroke="none" opacity="1" d="M 50.5 104 L 52 104.5 L 51 107 L 57.5 108 L 61 106 L 60 108.5 L 62 109.5 L 60.5 110 Q 59.3 107.8 58 110.5 L 62 112.5 L 63 114.5 L 59 116.5 Q 61.3 117.8 58.5 119 L 58.5 117 L 57 116.5 L 59 115.5 L 53 112 Q 54.5 108.3 51.5 109 L 48 110 Q 46.9 107.3 49.5 108 L 49 106.5 L 50.5 104 Z M 55 110 L 55 111 L 56 111 L 55 110 Z "/>
  <path fill="#000000" stroke="none" opacity="1" d="M 60.5 104 L 60.5 105 L 60.5 104 Z "/>
  <path fill="#000000" stroke="none" opacity="1" d="M 73.5 104 L 75 107 Q 69.8 108.7 71 105 L 73.5 104 Z "/>
  <path fill="#000000" stroke="none" opacity="1" d="M 47.5 105 L 47.5 106 L 47.5 105 Z "/>
  <path fill="#000000" stroke="none" opacity="1" d="M 126.5 106 L 126.5 107 L 126.5 106 Z "/>
  <path fill="#000000" stroke="none" opacity="1" d="M 128.5 108 L 129 109.5 L 128 109.5 L 128.5 108 Z "/>
  <path fill="#000000" stroke="none" opacity="1" d="M 194.5 108 L 194.5 109 L 194.5 108 Z "/>
  <path fill="#000000" stroke="none" opacity="1" d="M 184.5 109 L 184.5 110 L 184.5 109 Z "/>
  <path fill="#000000" stroke="none" opacity="1" d="M 180.5 110 L 182 110.5 L 180.5 111 L 180.5 110 Z "/>
  <path fill="#000000" stroke="none" opacity="1" d="M 191 110 L 193 110.5 L 192 114 L 190 113.5 L 191 110 Z "/>
  <path fill="#000000" stroke="none" opacity="1" d="M 196.5 110 L 196.5 111 L 196.5 110 Z "/>
  <path fill="#000000" stroke="none" opacity="1" d="M 194.5 111 L 195 112.5 L 193 113.5 L 194.5 111 Z "/>
  <path fill="#000000" stroke="none" opacity="1" d="M 202.5 111 L 203 113 L 205 113.5 L 201 114 L 202.5 111 Z "/>
  <path fill="#000000" stroke="none" opacity="1" d="M 186.5 112 Q 188.8 111.3 188 113.5 Q 186.7 116.3 185.5 114 L 184 113.5 L 186.5 112 Z "/>
  <path fill="#000000" stroke="none" opacity="1" d="M 53.5 113 Q 56.5 114.5 53.5 116 L 53.5 113 Z "/>
  <path fill="#000000" stroke="none" opacity="1" d="M 48.5 114 L 51 114.5 L 49.5 117 L 47.5 117 L 46 116.5 L 48.5 114 Z "/>
  <path fill="#000000" stroke="none" opacity="1" d="M 198.5 116 L 201 116.5 L 198.5 117 L 198.5 116 Z "/>
  <path fill="#000000" stroke="none" opacity="1" d="M 194.5 117 L 193.5 119 L 194.5 117 Z "/>
  <path fill="#000000" stroke="none" opacity="1" d="M 50 120 L 54 120.5 L 50 122 L 50 120 Z "/>
  <path fill="#000000" stroke="none" opacity="1" d="M 55.5 121 L 58 121.5 L 55 123 L 55.5 121 Z "/>
  <path fill="#000000" stroke="none" opacity="1" d="M 59.5 122 L 59.5 123 L 59.5 122 Z "/>
  <path fill="#000000" stroke="none" opacity="1" d="M 159 122 Q 162 121 161 124 Q 158 125 159 122 Z "/>
  <path fill="#000000" stroke="none" opacity="1" d="M 41.5 123 L 44.5 125 L 45.5 127 L 41.5 128 L 40 124.5 L 41.5 123 Z "/>
  <path fill="#000000" stroke="none" opacity="1" d="M 50.5 123 Q 53.1 122.2 52 125.5 L 51 125.5 L 50.5 123 Z "/>
  <path fill="#000000" stroke="none" opacity="1" d="M 46.5 128 L 46.5 129 L 46.5 128 Z "/>
  <path fill="#000000" stroke="none" opacity="1" d="M 40 129 Q 43 128 42 131 Q 39 132 40 129 Z "/>
  <path fill="#000000" stroke="none" opacity="1" d="M 89 130 L 91 130.5 L 89 131.5 L 89 130 Z "/>
  <path fill="#000000" stroke="none" opacity="1" d="M 40.5 132 L 40.5 133 L 40.5 132 Z "/>
  <path fill="#000000" stroke="none" opacity="1" d="M 192.5 132 Q 195.1 131.2 194 134.5 L 193 134.5 L 192.5 132 Z "/>
  <path fill="#000000" stroke="none" opacity="1" d="M 38.5 133 L 39 138 L 35.5 139 L 35 137.5 L 35.5 135 L 38.5 133 Z "/>
  <path fill="#000000" stroke="none" opacity="1" d="M 195.5 133 L 195.5 134 L 195.5 133 Z "/>
  <path fill="#000000" stroke="none" opacity="1" d="M 185.5 134 L 185.5 135 L 185.5 134 Z "/>
  <path fill="#000000" stroke="none" opacity="1" d="M 26.5 136 Q 28.8 135.3 28 137.5 Q 26.5 140.5 25 137.5 L 26.5 136 Z "/>
  <path fill="#000000" stroke="none" opacity="1" d="M 29.5 136 L 29.5 137 L 29.5 136 Z "/>
  <path fill="#000000" stroke="none" opacity="1" d="M 40.5 137 L 41 138.5 L 40 138.5 L 40.5 137 Z "/>
  <path fill="#000000" stroke="none" opacity="1" d="M 84.5 137 L 85 138.5 L 84 138.5 L 84.5 137 Z "/>
  <path fill="#000000" stroke="none" opacity="1" d="M 189.5 137 L 192.5 138 L 194 137.5 Q 194.9 140.5 190.5 139 L 189.5 137 Z "/>
  <path fill="#000000" stroke="none" opacity="1" d="M 203 137 Q 205.7 135.9 205 138.5 L 201.5 141 L 201.5 140 Q 204.5 140.7 203 137 Z "/>
  <path fill="#000000" stroke="none" opacity="1" d="M 63.5 138 L 63.5 139 L 63.5 138 Z "/>
  <path fill="#000000" stroke="none" opacity="1" d="M 188.5 139 L 189 141 L 186 140.5 L 188.5 139 Z "/>
  <path fill="#000000" stroke="none" opacity="1" d="M 195.5 139 L 197 139.5 L 195.5 140 L 195.5 139 Z "/>
  <path fill="#000000" stroke="none" opacity="1" d="M 36.5 140 L 36.5 141 L 36.5 140 Z "/>
  <path fill="#000000" stroke="none" opacity="1" d="M 42.5 141 L 42.5 142 L 42.5 141 Z "/>
  <path fill="#000000" stroke="none" opacity="1" d="M 34.5 142 L 35 143.5 L 33 144.5 L 34.5 142 Z "/>
  <path fill="#000000" stroke="none" opacity="1" d="M 198.5 142 L 200 142.5 L 198 143 L 197.5 145 L 196.5 143 L 198.5 142 Z "/>
  <path fill="#000000" stroke="none" opacity="1" d="M 88.5 143 Q 91.1 142.3 90 145 L 87 144.5 L 88.5 143 Z "/>
  <path fill="#000000" stroke="none" opacity="1" d="M 193.5 143 L 194 144.5 L 193 144.5 L 193.5 143 Z "/>
  <path fill="#000000" stroke="none" opacity="1" d="M 201.5 143 Q 203.8 142.3 203 144.5 L 206 149 L 202 148 L 200 144.5 L 201.5 143 Z "/>
  <path fill="#000000" stroke="none" opacity="1" d="M 30.5 144 Q 32.8 143.3 32 145.5 L 30.5 144 Z "/>
  <path fill="#000000" stroke="none" opacity="1" d="M 71.5 144 L 71.5 145 L 71.5 144 Z "/>
  <path fill="#000000" stroke="none" opacity="1" d="M 79.5 145 L 79.5 146 L 79.5 145 Z "/>
  <path fill="#000000" stroke="none" opacity="1" d="M 85.5 146 Q 87.8 145.3 87 147.5 L 88.5 147 L 90 147.5 L 85.5 149 L 83 148.5 Q 82.3 146.3 84.5 147 L 85.5 146 Z "/>
  <path fill="#000000" stroke="none" opacity="1" d="M 31.5 148 L 31.5 149 L 31.5 148 Z "/>
  <path fill="#000000" stroke="none" opacity="1" d="M 16.5 154 L 18 154.5 L 16.5 155 L 16.5 154 Z "/>
  <path fill="#000000" stroke="none" opacity="1" d="M 204.5 154 L 204.5 155 L 204.5 154 Z "/>
  <path fill="#000000" stroke="none" opacity="1" d="M 180.5 155 L 180.5 156 L 180.5 155 Z "/>
  <path fill="#000000" stroke="none" opacity="1" d="M 20.5 156 L 21 157.5 L 19 158.5 L 20.5 156 Z "/>
  <path fill="#000000" stroke="none" opacity="1" d="M 9.5 166 L 9.5 167 L 9.5 166 Z "/>
  <path fill="#000000" stroke="none" opacity="1" d="M 11.5 167 Q 13.8 166.3 13 168.5 Q 11.5 171.5 10 168.5 L 11.5 167 Z "/>
  <path fill="#000000" stroke="none" opacity="1" d="M 17.5 168 Q 19.8 167.3 19 169.5 L 17.5 168 Z "/>
  <path fill="#000000" stroke="none" opacity="1" d="M 31.5 174 L 32 175.5 L 31 175.5 L 31.5 174 Z "/>
  <path fill="#000000" stroke="none" opacity="1" d="M 172.5 174 L 172.5 175 L 172.5 174 Z "/>
  <path fill="#000000" stroke="none" opacity="1" d="M 180.5 178 L 180.5 179 L 180.5 178 Z "/>
  <path fill="#000000" stroke="none" opacity="1" d="M 107.5 179 L 107.5 180 L 107.5 179 Z "/>
  <path fill="#000000" stroke="none" opacity="1" d="M 0.5 181 L 0.5 182 L 0.5 181 Z "/>
  <path fill="#000000" stroke="none" opacity="1" d="M 211.5 181 L 210.5 183 L 211.5 181 Z "/>
  <path fill="#000000" stroke="none" opacity="1" d="M 212.5 183 L 213.5 185 Q 210.7 185.7 212.5 183 Z "/>
  <path fill="#000000" stroke="none" opacity="1" d="M 0 186 L 2 186 Q 0.9 188.7 3.5 188 L 2.5 190 L 0 186 Z "/>
  <path fill="#000000" stroke="none" opacity="1" d="M 211.5 187 L 211.5 188 L 211.5 187 Z "/>
  <path fill="#000000" stroke="none" opacity="1" d="M 214.5 187 L 219 187.5 L 216.5 189 Q 215.3 186.8 214 189.5 L 213.5 191 L 213 188.5 L 214.5 187 Z "/>
  <path fill="#000000" stroke="none" opacity="1" d="M 165.5 195 L 165.5 196 L 165.5 195 Z "/>
  <path fill="#000000" stroke="none" opacity="1" d="M 0.5 197 L 2 197.5 L 0.5 198 L 0.5 197 Z "/>
  <path fill="#000000" stroke="none" opacity="1" d="M 186.5 197 L 187 199 L 185 198.5 L 186.5 197 Z "/>
  <path fill="#000000" stroke="none" opacity="1" d="M 197.5 197 L 200 198 L 199.5 200 L 197.5 197 Z "/>
  <path fill="#000000" stroke="none" opacity="1" d="M 218.5 205 L 221 206.5 L 218 207 L 217.5 209 Q 214 207 218.5 205 Z "/>
  <path fill="#000000" stroke="none" opacity="1" d="M 225.5 206 L 225.5 207 L 225.5 206 Z "/>
  <path fill="#000000" stroke="none" opacity="1" d="M 222.5 207 Q 225.1 206.2 224 209.5 L 222 209.5 L 221.5 211 L 220 208.5 L 222.5 207 Z "/>
  <path fill="#000000" stroke="none" opacity="1" d="M 174.5 211 L 177 215 Q 174.3 216.1 175 213.5 L 174.5 211 Z "/>
  <path fill="#000000" stroke="none" opacity="1" d="M 112.5 212 L 112.5 213 L 112.5 212 Z "/>
  <path fill="#000000" stroke="none" opacity="1" d="M 197.5 212 L 197.5 213 L 197.5 212 Z "/>
  <path fill="#000000" stroke="none" opacity="1" d="M 147.5 213 L 147.5 214 L 147.5 213 Z "/>
  <path fill="#000000" stroke="none" opacity="1" d="M 170 213 Q 173 212 172 215 Q 169 216 170 213 Z "/>
  <path fill="#000000" stroke="none" opacity="1" d="M 173.5 214 L 174 215.5 L 173 215.5 L 173.5 214 Z "/>
  <path fill="#000000" stroke="none" opacity="1" d="M 11.5 215 L 11.5 216 L 11.5 215 Z "/>
  <path fill="#000000" stroke="none" opacity="1" d="M 222.5 215 L 222.5 216 L 222.5 215 Z "/>
  <path fill="#000000" stroke="none" opacity="1" d="M 51.5 216 L 53 216.5 L 51.5 217 L 51.5 216 Z "/>
  <path fill="#000000" stroke="none" opacity="1" d="M 225.5 218 L 225.5 219 L 225.5 218 Z "/>
  <path fill="#000000" stroke="none" opacity="1" d="M 227.5 221 Q 229.8 220.3 229 222.5 L 227.5 221 Z "/>
  <path fill="#000000" stroke="none" opacity="1" d="M 230.5 221 L 232 221.5 L 230.5 222 L 230.5 221 Z "/>
  <path fill="#000000" stroke="none" opacity="1" d="M 230.5 223 L 230.5 224 L 230.5 223 Z "/>
  <path fill="#000000" stroke="none" opacity="1" d="M 231 227 L 236 229.5 L 235 232.5 L 237 231.5 L 237.5 230 L 238 231.5 L 238 233.5 L 237.5 236 L 236.5 233 L 233.5 237 L 238 237 L 238 243 L 233 241 Q 234.3 237.3 228.5 239 L 228.5 238 L 231 236.5 L 231 234.5 L 231 227 Z M 233 235 L 233 236 L 233 235 Z "/>
  <path fill="#000000" stroke="none" opacity="1" d="M 229.5 231 L 229.5 232 L 229.5 231 Z "/>
  <path fill="#000000" stroke="none" opacity="1" d="M 206.5 235 L 206.5 236 L 206.5 235 Z "/>
  <path fill="#000000" stroke="none" opacity="1" d="M 208.5 235 L 211 236.5 L 209 237.5 L 208.5 235 Z "/>
  <path fill="#000000" stroke="none" opacity="1" d="M 219 238 L 224 239 L 219.5 245 Q 214.7 246.3 216 243 L 219 243 L 219 238 Z "/>
  <path fill="#000000" stroke="none" opacity="1" d="M 196.5 240 L 196.5 241 L 196.5 240 Z "/>
  <path fill="#000000" stroke="none" opacity="1" d="M 24.5 244 L 24.5 245 L 24.5 244 Z "/>
  <path fill="#000000" stroke="none" opacity="1" d="M 226.5 244 L 226.5 245 L 226.5 244 Z "/>
  <path fill="#000000" stroke="none" opacity="1" d="M 233.5 244 Q 235.8 243.3 235 245.5 L 236.5 245 Q 239.5 244.5 238 251.5 L 237 251.5 L 235 247 L 231 245.5 L 233.5 244 Z "/>
  <path fill="#000000" stroke="none" opacity="1" d="M 229.5 245 L 229.5 246 L 229.5 245 Z "/>
  <path fill="#000000" stroke="none" opacity="1" d="M 228.5 247 Q 233.3 247.3 235 250.5 Q 233.8 253 230 252 L 228.5 247 Z "/>
  <path fill="#000000" stroke="none" opacity="1" d="M 34.5 250 L 37 252.5 L 37 254.5 L 35.5 257 L 32 252 Q 34.8 253 34.5 250 Z "/>
  <path fill="#000000" stroke="none" opacity="1" d="M 201 250 Q 205.7 249.1 208 251.5 L 201 252 L 201 250 Z "/>
  <path fill="#000000" stroke="none" opacity="1" d="M 99.5 251 L 100.5 253 L 99.5 251 Z "/>
  <path fill="#000000" stroke="none" opacity="1" d="M 217.5 251 L 221 251.5 L 217.5 252 L 217.5 251 Z "/>
  <path fill="#000000" stroke="none" opacity="1" d="M 223.5 251 L 223.5 252 L 223.5 251 Z "/>
  <path fill="#000000" stroke="none" opacity="1" d="M 227.5 251 L 228 252.5 L 227 252.5 L 227.5 251 Z "/>
  <path fill="#000000" stroke="none" opacity="1" d="M 87.5 252 L 89 254.5 L 87 253.5 L 87.5 252 Z "/>
  <path fill="#000000" stroke="none" opacity="1" d="M 127 253 L 129 253.5 L 127 254.5 L 127 253 Z "/>
  <path fill="#000000" stroke="none" opacity="1" d="M 230.5 254 L 230.5 256 L 235 256.5 L 224.5 257 L 223.5 255 L 226.5 256 L 230.5 254 Z "/>
  <path fill="#000000" stroke="none" opacity="1" d="M 237.5 255 L 237.5 256 L 237.5 255 Z "/>
  <path fill="#000000" stroke="none" opacity="1" d="M 72.5 261 L 72.5 262 L 72.5 261 Z "/>
  <path fill="#000000" stroke="none" opacity="1" d="M 103.42 263.436 L 111.617 265.559 L 136.206 265.559 L 141.328 266.621 C 143.103 269.877 142.079 272 138.254 272.991 C 125.686 273.557 115.784 273.203 108.543 271.929 C 110.046 269.452 105.606 268.744 95.225 269.806 L 90.102 268.744 C 88.463 266.621 90.17 265.913 95.225 266.621 C 97.001 268.178 101.099 268.532 107.518 267.682 L 107.518 266.621 L 88.054 265.028 L 103.42 263.436 Z" style="" transform="matrix(0, 1, -1, 0, 383.457161, 153.23101)"/>
</svg>