<svg viewBox="0 0 587 320" version="1.1" xmlns="http://www.w3.org/2000/svg"><path fill="#000000"  stroke="none" opacity="1" d="M 321.5 6 L 324.5 7 L 328 6.5 L 327.5 8 Q 330.1 7.2 329 10.5 L 332 15.5 L 329.5 21 Q 327.3 20.3 328 22.5 Q 329.3 25.3 330.5 23 Q 336.4 20.9 335 25.5 L 336.5 28 L 338 27.5 L 339 29.5 L 338 31.5 Q 340.3 32.7 339 37.5 L 338.5 39 Q 340.8 39.8 340 37.5 Q 341.2 35 345 36 L 347.5 32 L 349.5 33 L 352.5 32 L 354 32.5 L 355 30.5 L 354.5 29 Q 359.3 27.3 358 31.5 Q 354.5 33 357 34.5 Q 354.7 41.7 362.5 39 L 364.5 36 L 366.5 36 L 369 35.5 L 368.5 34 Q 372.9 35.5 372 32.5 L 371.5 31 L 378.5 34 L 380 33.5 L 378 38 L 375 39.5 Q 374.3 41.8 376.5 41 L 379 40 L 379.5 37 L 380 40 L 382 40.5 L 375 44 Q 373.9 47.3 378 46 Q 376.8 43 380.5 44 L 383 43 L 384 39 L 381 37.5 L 386.5 34 L 387 36 L 389.5 37 L 390 35 L 392.5 34 L 393.5 36 L 395.5 32 L 397.5 33 L 399 32.5 L 401 39.5 L 398.5 43 L 395.5 42 L 395 43.5 L 398.5 45 Q 402.3 44.3 403 46.5 L 402.5 48 Q 404.8 48.8 404 46.5 L 405 44 L 408.5 43 L 411.5 45 L 415 43 Q 414 39.2 416.5 38 L 417.5 41 L 420.5 40 L 422 41.5 L 421.5 45 L 426 45.5 L 421 47 L 420.5 45 L 418 46 L 418.5 50 Q 419.8 47.8 421 50.5 L 417 52.5 L 420 54.5 Q 416.5 56 419 57.5 L 417.5 61 L 414 60 L 412.5 63 L 408 62 L 406.5 59 L 406 60.5 L 406.5 62 L 402 62.5 L 403.5 65 L 405 64.5 L 399 76.5 L 399 80 L 404.5 82 L 408.5 78 L 411.5 78 L 414.5 84 L 419.5 85 L 422 84 L 423.5 81 L 425 81 L 425 77 L 418 75 L 417.5 77 L 411 73 Q 409.9 70.3 412.5 71 L 427.5 64 L 430.5 66 Q 433.5 65.5 433 61.5 L 430.5 58 L 434.5 56 Q 436.5 58.8 441 58 L 443.5 62 L 447.5 64 L 449.5 63 L 453 65.5 L 451 73.5 L 456.5 77 Q 457.7 74.8 459 77.5 L 460.5 81 L 464 82 L 463 89 L 468.5 92 L 471.5 92 L 475.5 91 L 471.5 96 L 465.5 95 L 466.5 97 L 469 96 L 469 99 Q 466.3 97.9 467 100.5 L 463 107.5 L 468.5 111 L 474.5 108 L 474.5 110 L 480.5 109 L 484 111 L 483 116 L 481 116.5 L 484 117.5 Q 485.5 121.9 482.5 121 L 480 120 L 479.5 118 L 478 118.5 L 476.5 116 L 471.5 114 L 465 117 L 464 122 L 468 124.5 L 467.5 126 Q 470.4 128.6 476.5 128 L 479.5 130 Q 481 126.5 482.5 129 L 485.5 128 L 487.5 128 L 493 131.5 L 493.5 133 Q 496.3 127.3 499 132.5 L 497.5 135 L 495 134 L 495 136.5 L 492 140.5 L 497.5 144 L 500 143 L 498.5 146 Q 496.3 145.3 497 147.5 L 497 149.5 Q 496.2 152.1 499.5 151 L 503 152 L 503.5 154 L 505.5 154 L 509.5 155 L 512 153.5 Q 511.1 156.5 515.5 155 L 520 155.5 L 519 158.5 L 521.5 160 L 523.5 160 L 525 160.5 L 524.5 162 L 529 160 Q 527.9 162.7 530.5 162 L 530 163.5 L 530 168 L 528 168 Q 529.1 170.7 526.5 170 L 519.5 173 L 514 170.5 Q 514.8 168.3 512.5 169 L 508.5 169 L 507 170.5 Q 507.5 174.5 504.5 175 L 501.5 176 L 500 175.5 L 500.5 178 L 503 177 Q 504.1 179.7 501.5 179 L 499 180.5 L 498.5 179 L 496 180 Q 497.1 177.3 494.5 178 Q 491.7 179.3 494 180.5 L 494.5 182 L 496.5 181 L 496.5 182 L 495 182.5 L 497 183.5 L 493.5 185 L 490 183.5 Q 490.9 180.5 486.5 182 L 484.5 181 L 483.5 183 L 487 184.5 L 486 187.5 L 485.5 189 L 482.5 188 L 478.5 190 L 476 189 L 475.5 186 L 471.5 188 L 468.5 188 L 465 186 L 466.5 183 L 468 182.5 L 467 180 L 463 181.5 L 464 184.5 L 462 185.5 L 461.5 184 L 459 185.5 L 456.5 181 Q 453.3 182.2 454 186 Q 449.8 185 448.5 188 L 447 185.5 L 449.5 182 L 442 186.5 L 440.5 189 L 437.5 190 L 435 189 L 434.5 187 L 434 189 Q 431.3 190.1 432 187.5 Q 435.8 185.8 432.5 184 L 428.5 190 L 427.5 186 Q 423.8 188 425.5 190 Q 422.9 189.2 424 192.5 L 422.5 195 L 422 193.5 L 423 188.5 L 421 188.5 L 422 182.5 L 420 182.5 L 421 180.5 L 417.5 181 L 412.5 180 L 410 181.5 L 413.5 183 L 415.5 182 L 414 184.5 L 415 185.5 L 413.5 188 L 411.5 189 L 411 187 L 409 187.5 L 410 189.5 L 408 189.5 Q 408.7 192.1 406 191 L 406 194 L 404 194 L 405 189 L 403 189 L 403 191 Q 400.3 189.9 401 192.5 L 400 192.5 L 401 190.5 L 398.5 188 L 396 188.5 L 397 191.5 L 394 192.5 L 394.5 194 L 393 193.5 L 392.5 195 L 390.5 191 L 390 194 L 384.5 197 L 382.5 197 Q 379.5 196.1 381 200.5 L 377.5 203 L 377 200.5 L 378.5 198 L 380 197.5 L 377.5 197 L 375.5 198 L 376.5 196 L 379 194.5 L 376 194 L 374.5 191 L 371.5 190 L 370 193 L 367 191.5 L 372 185.5 L 372 183.5 L 368 182.5 L 369 185.5 L 366.5 184 L 365 184.5 L 367 187.5 L 364 187.5 Q 365.1 183.3 361 185 Q 362.7 189.1 358.5 188 Q 357.3 185.8 356 188.5 L 355.5 193 L 355 189 Q 352.3 187.9 353 190.5 L 351.5 193 L 351 191.5 L 352 189.5 L 348 192.5 L 347.5 194 L 347 190.5 L 349 186.5 L 347 187.5 L 343.5 194 L 343 192.5 L 346 187.5 L 344.5 188 L 341 186.5 L 343.5 182 L 345 181.5 L 342.5 181 Q 340.8 183.8 339 179.5 L 340 177.5 L 339 174 L 333 176.5 L 333.5 178 L 332 178.5 L 335 180.5 L 333 183.5 L 333 185.5 Q 333.8 188.1 330.5 187 L 328.5 186 L 326 186.5 L 327 192.5 L 326 192.5 L 325.5 188 Q 322.6 189.6 323.5 195 L 323 191 Q 318.9 189.3 320 193.5 L 318 193.5 Q 318.7 196.5 315 195 L 313.5 190 L 311.5 194 L 307 192 L 309 197.5 L 307.5 197 L 304 198 L 303.5 200 L 302 197 Q 299 195.8 300 199.5 L 297 201.5 Q 298 197 295.5 196 L 295 217.5 L 297 223.5 L 297 234.5 L 299 238.5 L 299 247.5 L 302 264.5 L 301 264.5 L 299.5 260 L 299 268 Q 302 266.8 301 270.5 Q 298.7 271.8 301.5 273 L 303 272.5 L 304 276.5 L 303 276.5 Q 304.3 272.8 300.5 274 L 300.5 275 L 302 275.5 L 301.5 279 Q 304.9 278.1 303 283.5 Q 300.5 285 304 286.5 L 305.5 290 L 306 286.5 L 304 280.5 L 305 280.5 Q 306.8 293.2 315.5 299 L 317.5 296 L 318.5 298 L 320 295 Q 317.3 296.1 318 293.5 L 320 292.5 Q 318.9 295.8 321.5 295 L 323 293.5 Q 322.1 288.1 324.5 286 L 325 288.5 L 323 294.5 L 324.5 297 L 327.5 292 Q 330.8 290.9 330 293.5 L 333 291.5 L 335.5 287 L 336 288.5 L 331 295.5 L 336 291.5 L 337.5 289 L 339 289.5 L 337 293.5 L 337.5 295 L 339.5 294 L 338.5 296 L 336.5 297 L 336.5 295 L 331 297 L 331.5 299 Q 333 296.5 338.5 298 L 337.5 300 L 334 301.5 Q 335.3 304.3 336.5 302 Q 338.8 301.3 338 303.5 L 339 303.5 L 339.5 301 L 341.5 301 L 345.5 300 L 349 302.5 L 354 310.5 L 339.5 311 L 337.5 312 L 335 310.5 L 336 308.5 Q 334.8 306 331 307 L 329.5 310 L 327.5 307 L 317.5 305 L 318 306.5 Q 317.3 308.8 319.5 308 L 325 310.5 L 321.5 311 L 314.5 307 L 303 305 Q 301.9 307.7 304.5 307 L 307.5 310 L 315 311.5 L 311.5 312 L 308.5 311 L 305.5 310 L 303.5 311 L 293.5 308 L 289 309 L 288 305.5 L 290 302 L 287 303.5 L 286.5 305 L 284.5 304 Q 282 305.2 283 309 L 280 310.5 Q 279.1 313.5 283.5 312 L 288 308.5 L 283.5 313 L 278.5 314 L 279 312.5 L 283 302.5 L 281.5 303 L 269.5 308 Q 262.7 306.7 259.5 309 L 260.5 307 Q 272.2 302.2 280 293.5 L 283 285.5 L 284 277.5 L 283 276.5 L 283 256.5 L 282 255.5 L 281 236.5 L 272 215.5 L 272 207.5 Q 275 204.5 274 197.5 L 270.5 190 L 268 191.5 Q 267.3 193.8 269.5 193 L 270.5 195 L 269.5 194 L 266.5 197 L 265 196.5 L 266 193 L 263.5 192 L 262 192.5 L 261.5 189 L 261 193 L 258 194.5 L 258.5 196 L 257 196.5 L 257 198.5 L 256.5 201 L 256 198 L 254 198.5 L 255 201.5 L 253 202.5 Q 255.2 201.3 252.5 200 Q 250.3 200.8 251 198.5 L 249.5 196 L 249 199.5 L 250 203.5 L 249 203.5 Q 250.3 198.7 247 200 L 246.5 202 L 246 198.5 L 247 196.5 L 245 197.5 L 243.5 201 L 243 199.5 L 244 197 L 239.5 200 L 240 198.5 L 241 196.5 L 239 193.5 Q 241.3 192.3 238.5 191 L 235.5 199 L 233.5 198 L 231.5 201 L 229.5 202 L 231 199.5 L 231 198 Q 227.2 199.5 228 196.5 L 226 197.5 L 225.5 200 L 223.5 196 L 222 196.5 L 228 192 Q 226.9 189.3 229.5 190 L 229.5 189 L 227.5 189 Q 222.3 194.8 214 197.5 L 209 203.5 L 210 208 L 204 211.5 Q 204.8 214.1 201.5 213 L 199.5 214 Q 198.3 211.8 197 214.5 Q 197.8 220.3 193.5 221 L 190.5 223 L 188 224 Q 189.3 227.3 184.5 226 L 183.5 228 L 185 228.5 L 182.5 230 Q 175 229 172 231 L 171.5 233 L 169.5 232 L 167 233 L 166 235.5 L 167.5 236 L 169 235.5 L 165.5 240 L 163 239.5 L 163.5 238 Q 160.9 237.2 162 240.5 L 155 243.5 L 155.5 245 Q 152.5 248 146.5 248 L 144 250.5 Q 144.8 252.8 142.5 252 L 137.5 253 L 135.5 253 Q 129.3 251.8 128 255.5 L 126.5 258 L 124.5 257 L 120.5 261 L 119.5 260 L 116 258.5 L 116 256.5 L 115.5 255 L 114 255.5 L 113 252 L 117.5 253 L 119.5 252 L 126 253 L 128.5 249 Q 133.3 249.8 134 246.5 L 133 243.5 L 134 241.5 L 130.5 238 L 127.5 239 L 125.5 238 L 121.5 239 L 121.5 237 Q 118.9 236.3 120 239 L 118 239 L 118 240.5 L 120 240.5 Q 118.6 243.6 113.5 243 Q 112.3 240.8 111 243.5 L 109.5 246 L 104.5 249 L 102.5 249 Q 99.2 250.1 100 247.5 L 98 248.5 Q 99.3 252.3 95.5 251 L 94 249.5 L 97 246.5 L 96 245.5 L 97 241.5 Q 95.4 238.5 90 240 L 89.5 243 L 88 240.5 L 89 236.5 Q 87.8 233.7 86.5 236 L 84.5 235 L 82.5 236 L 80.5 235 L 75 237 L 74.5 240 L 72.5 240 Q 67.9 239.4 66.5 242 L 65.5 239 L 60.5 241 L 59.5 239 L 57.5 243 L 55 242 L 54 233.5 L 58.5 228 L 64.5 227 L 66.5 227 Q 68.8 227.8 68 225.5 L 69.5 226 L 71 225.5 L 69 222.5 L 69 220.5 L 73 216.5 Q 73.8 214.3 71.5 215 L 69.5 216 L 70 214.5 L 70 213 L 73 213 Q 71.9 210.3 74.5 211 L 76.5 212 L 75.5 210 Q 69.8 211.6 72 206 L 77.5 205 L 79.5 206 L 84 203.5 Q 82.8 200.7 81.5 203 L 78 201.5 Q 76.9 198.2 79.5 199 L 83 194 L 87 194 L 87 195.5 L 88 195.5 L 88 194 L 90 194 Q 88.9 191.3 91.5 192 L 93.5 191 L 97.5 193 L 98 190 L 96 189.5 L 100 187.5 Q 100.8 185.3 98.5 186 L 96.5 186 L 93.5 187 L 91 186 L 94.5 181 Q 96.8 181.8 96 179.5 L 95 173 L 101 175 L 101.5 172 L 103 177 Q 106.7 178.3 105 172.5 L 108 171 L 109 168.5 L 107.5 168 L 106 168.5 L 105.5 167 L 104 167.5 L 104.5 166 L 102.5 167 L 100 166 L 99.5 169 L 96.5 165 Q 94.3 165.8 95 163.5 Q 96.2 161 100 162 L 100.5 164 L 101 161 L 94.5 161 L 94 159.5 L 94 157.5 Q 92.9 153.3 97 155 Q 95.3 159.5 100.5 158 L 101.5 156 L 98 157 L 99.5 154 L 104 152.5 L 101 150.5 L 98.5 147 L 97 146.5 L 103.5 142 L 105.5 143 L 104 140.5 Q 103.3 138.3 105.5 139 L 107 136 L 112 137.5 L 111.5 139 Q 114.8 137.9 114 140.5 L 112 141.5 L 111.5 140 L 110 143 L 114.5 144 L 117.5 142 L 118.5 144 L 121 143 L 119.5 139 L 115 138 L 116 132 L 118.5 133 L 121.5 131 L 121 132.5 L 121.5 138 L 123 135.5 L 122.5 134 L 127.5 133 L 130.5 137 L 132 136.5 L 130.5 139 L 134.5 137 L 133.5 140 Q 138 141 139 138.5 L 138.5 136 L 137 135.5 L 138.5 135 L 141 136.5 L 142 133.5 L 138.5 133 L 136.5 134 L 134 133.5 L 138 128.5 L 138 126.5 Q 135.3 123.3 130 124 Q 131.1 126.7 128.5 126 L 127 125.5 L 125.5 129 L 122.5 130 L 122.5 129 L 125.5 127 L 125.5 126 Q 121.8 127.3 123 123.5 L 123.5 122 L 121.5 121 Q 119.5 125 117.5 121 Q 115.3 120.3 116 122.5 Q 114.8 125.2 113.5 123 L 112 123 L 112 119 L 110.5 119 L 110 116.5 L 114.5 112 L 117.5 114 L 118 112 L 116 111.5 L 117.5 109 L 120.5 110 L 122.5 109 Q 124 112.5 125.5 110 L 128 109.5 L 127.5 108 Q 128.8 110.3 130 107.5 Q 126.5 106 129 104.5 L 130.5 102 L 132 101.5 L 130 98.5 L 132.5 95 L 133.5 97 L 136 95.5 L 136.5 97 L 137 93.5 L 135.5 94 L 134 93.5 L 136 92.5 L 134 92 L 134.5 90 L 136 90.5 L 136 89 L 140 89 Q 138.8 92 142.5 91 L 146 90 Q 147.3 86.7 142.5 88 L 141 84 L 143.5 84 Q 144.9 79.3 150 80 Q 149 83 152 82 Q 150.9 79.3 153.5 80 L 156.5 78 L 161 79 L 159 82.5 L 160.5 86 L 165 82.5 L 162 82 Q 159.9 76.8 164.5 78 L 166.5 77 L 168 80 L 170 80 Q 168.9 77.3 171.5 78 L 171.5 77 Q 168.9 77.7 170 75 L 173 73.5 Q 172.3 71.3 174.5 72 Q 177.3 73.3 175 74.5 L 175.5 77 L 182.5 66 L 186.5 67 L 187.5 65 L 188 66.5 L 187.5 68 L 189.5 69 L 190 63 L 194 65 L 193 60.5 L 196 59 L 196.5 62 L 198 61.5 L 199 63.5 L 199 65.5 L 199.5 67 L 202 65.5 L 200 64.5 L 202.5 64 L 205.5 66 L 207.5 63 L 204.5 64 L 204.5 62 L 203 61.5 L 204 58 L 206.5 57 L 208.5 58 L 207 55.5 L 211.5 49 L 211 50.5 Q 210.3 54.3 212.5 55 L 213 52 L 217.5 53 L 219 51.5 L 217.5 49 L 221 47.5 L 220 44.5 L 222.5 46 L 224.5 44 L 226 43.5 L 225 41.5 L 229 39.5 L 228 36.5 L 230.5 33 L 230.5 35 Q 232.8 34.3 232 36.5 L 231.5 38 Q 233.8 38.8 233 36.5 L 236 34.5 L 233 40 L 236.5 42 L 241 42 Q 239.3 36.8 243 38 L 242 42.5 L 247.5 45 L 247.5 44 L 245 42.5 L 247 42.5 L 247.5 41 L 248 43 Q 251.7 44.5 251 41.5 L 251 39.5 L 252 34 Q 254.7 32.9 254 35.5 L 256 34.5 L 256.5 32 L 257.5 35 L 260.5 31 L 263.5 36 L 266 35 L 269 43.5 L 269 45.5 Q 268.3 47.8 270.5 47 L 273.5 49 L 277 47 L 276 43 L 274 42.5 L 275.5 42 L 277 42.5 Q 277.7 39.9 275 41 L 275 39 L 279 37 L 279 33 L 275 31.5 L 276 27 L 280 24.5 Q 279.2 21.9 282.5 23 L 287.5 27 L 289.5 27 L 294.5 25 L 297 26 L 297.5 24 L 299.5 25 L 301 24.5 Q 301.8 26.8 299.5 26 L 297 27.5 L 299.5 28 L 303 27 L 303.5 30 L 305.5 29 L 305.5 30 L 304 30 Q 305.5 33.8 302.5 33 Q 301.2 35.2 296.5 34 Q 295 30.5 293.5 33 L 290 34 L 289 37.5 L 293 40 L 294.5 37 L 297 38.5 Q 296.2 41.1 299.5 40 L 301.5 41 L 306 38.5 Q 302.3 36.8 305.5 35 L 307 34.5 L 306 32 L 311.5 33 L 312.5 30 Q 313.8 32.3 315 29.5 L 316 25.5 L 313 24.5 L 315 24 L 316 19.5 L 315.5 16 L 317.5 17 Q 320 15.8 319 12 Q 321.7 13.1 321 10.5 L 319 7 L 321.5 6 Z M 326 8 L 326 9 L 326 8 Z M 324 12 L 324 13 L 324 12 Z M 330 13 L 327 15 L 330 15 L 330 13 Z M 323 15 Q 318 17 322 19 L 323 17 L 323 15 Z M 327 17 L 327 18 L 327 17 Z M 321 19 L 320 21 L 321 21 L 321 19 Z M 324 19 L 325 21 Q 326 18 324 19 Z M 327 20 L 327 21 L 327 20 Z M 319 22 L 318 23 Q 315 22 316 25 L 318 25 L 317 29 L 319 32 L 320 28 L 319 22 Z M 322 22 L 322 23 L 323 23 L 322 22 Z M 329 24 L 329 25 L 329 24 Z M 322 26 L 322 27 L 323 27 L 322 26 Z M 325 26 L 325 27 L 326 27 L 325 26 Z M 329 26 L 329 27 L 330 27 L 329 26 Z M 332 26 L 332 27 L 332 26 Z M 285 27 L 282 30 L 283 31 L 287 28 L 285 27 Z M 328 27 L 328 28 L 328 27 Z M 331 27 L 331 28 L 331 27 Z M 291 28 L 288 31 L 289 32 L 291 31 Q 294 30 291 28 Z M 321 28 L 321 29 L 321 28 Z M 336 28 L 336 29 L 336 28 Z M 296 29 L 296 30 L 296 29 Z M 321 30 L 321 31 L 322 31 L 321 30 Z M 327 30 L 327 31 L 327 30 Z M 330 30 L 332 33 L 333 33 L 330 30 Z M 336 30 L 334 32 L 335 34 L 338 34 L 336 30 Z M 357 30 L 357 31 L 357 30 Z M 303 31 L 303 32 L 303 31 Z M 315 31 L 315 32 L 315 31 Z M 288 32 L 287 34 L 288 34 L 288 32 Z M 325 32 L 325 33 L 325 32 Z M 284 33 L 284 34 L 284 33 Z M 328 33 L 328 34 L 328 33 Z M 334 33 L 333 36 L 335 36 L 334 33 Z M 349 33 L 349 34 L 349 33 Z M 311 34 L 311 35 L 311 34 Z M 323 34 L 323 35 L 323 34 Z M 329 34 L 329 37 L 331 36 Q 332 33 329 34 Z M 355 34 L 352 37 L 353 42 Q 353 37 356 35 L 355 34 Z M 308 35 L 308 36 L 308 35 Z M 350 35 L 349 38 L 351 38 L 350 35 Z M 372 35 L 372 36 L 374 36 L 372 35 Z M 397 35 L 397 36 L 397 35 Z M 322 36 L 320 38 Q 319 40 322 39 Q 325 38 322 36 Z M 346 36 L 346 37 L 346 36 Z M 326 37 L 326 38 L 327 38 L 326 37 Z M 342 37 L 342 38 L 342 37 Z M 295 38 L 295 39 L 295 38 Z M 389 38 L 388 40 L 392 40 L 392 39 L 391 39 L 389 38 Z M 325 39 L 326 41 L 327 41 L 325 39 Z M 330 39 L 330 42 L 331 42 Q 332 38 330 39 Z M 338 39 L 338 40 L 338 39 Z M 357 39 L 355 41 L 357 41 L 357 39 Z M 387 39 L 386 41 L 387 41 L 387 39 Z M 233 40 L 232 42 L 233 42 L 233 40 Z M 321 40 L 321 41 L 321 40 Z M 346 40 L 346 41 L 346 40 Z M 348 40 L 348 41 L 348 40 Z M 286 41 L 286 42 L 286 41 Z M 315 41 L 315 42 L 315 41 Z M 417 41 L 417 42 L 417 41 Z M 232 42 L 229 45 L 231 47 Q 233 48 232 46 L 232 44 L 232 42 Z M 261 42 L 261 43 L 261 42 Z M 285 42 L 285 43 L 285 42 Z M 319 42 L 319 43 L 319 42 Z M 324 42 L 324 43 L 324 42 Z M 332 42 L 332 43 L 333 43 L 332 42 Z M 347 42 L 347 43 L 347 42 Z M 357 42 L 353 47 L 355 47 L 358 43 L 357 42 Z M 367 42 L 367 43 L 367 42 Z M 386 42 L 385 44 L 386 44 L 386 42 Z M 390 42 L 390 43 L 390 42 Z M 241 43 L 241 44 L 241 43 Z M 290 43 L 288 44 L 288 45 L 292 44 L 290 43 Z M 297 43 L 297 44 L 297 43 Z M 302 43 L 302 44 L 302 43 Z M 389 43 L 389 44 L 389 43 Z M 393 43 L 392 45 L 393 45 L 393 43 Z M 236 44 L 236 45 L 236 44 Z M 240 44 L 240 45 L 240 44 Z M 328 44 L 328 45 L 328 44 Z M 390 44 L 389 46 L 390 46 L 390 44 Z M 254 45 L 254 46 L 254 45 Z M 267 45 L 267 46 L 267 45 Z M 310 45 L 310 46 L 311 46 L 310 45 Z M 323 45 L 323 46 L 324 46 L 323 45 Z M 380 45 L 380 46 L 380 45 Z M 383 45 L 383 46 L 383 45 Z M 224 46 L 223 48 L 224 48 L 224 46 Z M 240 46 L 240 47 L 240 46 Z M 245 46 L 245 47 L 246 47 L 245 46 Z M 287 46 L 287 47 L 288 47 L 287 46 Z M 309 46 L 309 47 L 309 46 Z M 317 46 L 317 47 L 317 46 Z M 325 46 L 325 47 L 325 46 Z M 328 46 L 328 47 L 328 46 Z M 379 46 L 379 47 L 379 46 Z M 244 47 L 244 48 L 244 47 Z M 247 47 L 247 48 L 247 47 Z M 361 47 L 361 48 L 361 47 Z M 371 47 L 371 48 L 371 47 Z M 385 47 L 385 48 L 385 47 Z M 389 47 Q 390 50 388 49 L 388 51 L 387 50 L 384 51 L 386 51 L 387 54 L 387 57 Q 384 56 385 59 L 399 56 Q 398 53 397 55 L 394 54 L 389 55 L 393 50 Q 395 51 394 48 L 389 47 Z M 235 48 L 235 49 L 235 48 Z M 237 48 L 237 49 L 237 48 Z M 277 48 L 277 49 L 277 48 Z M 301 48 L 301 49 L 302 49 L 301 48 Z M 306 48 L 306 49 L 307 49 L 306 48 Z M 316 48 L 316 49 L 316 48 Z M 322 48 L 322 49 L 322 48 Z M 345 48 L 345 49 L 345 48 Z M 370 48 Q 367 49 368 53 Q 373 54 376 50 L 371 48 L 370 51 L 370 50 L 370 48 Z M 397 48 L 397 50 L 401 49 L 397 48 Z M 234 49 L 234 50 L 234 49 Z M 245 49 L 245 50 L 245 49 Z M 249 49 L 249 50 L 249 49 Z M 362 49 L 362 50 L 362 49 Z M 256 50 L 256 51 L 256 50 Z M 270 50 Q 271 53 268 52 Q 264 54 268 56 L 267 58 L 270 59 L 274 58 L 273 57 L 276 53 L 270 50 Z M 287 50 L 285 52 L 288 52 L 287 50 Z M 344 50 L 344 51 L 344 50 Z M 354 50 L 354 51 L 355 51 L 354 50 Z M 366 50 Q 364 53 360 52 L 361 54 L 367 52 L 366 50 Z M 406 50 L 406 51 L 406 50 Z M 414 50 L 415 51 L 416 52 Q 417 49 414 50 Z M 239 51 L 239 52 L 240 52 L 239 51 Z M 303 51 L 303 52 L 304 52 L 303 51 Z M 350 51 L 350 52 L 350 51 Z M 360 51 L 360 52 L 360 51 Z M 382 51 L 382 52 L 383 52 L 382 51 Z M 396 51 L 396 52 L 396 51 Z M 224 52 L 224 53 L 225 53 L 224 52 Z M 232 52 L 232 53 L 232 52 Z M 258 52 L 258 53 L 258 52 Z M 300 52 L 300 53 L 300 52 Z M 341 52 L 341 53 L 341 52 Z M 347 52 L 347 53 L 347 52 Z M 377 52 L 377 53 L 379 53 L 377 52 Z M 381 52 L 380 55 L 381 55 L 381 52 Z M 384 52 L 384 53 L 384 52 Z M 233 53 L 234 55 L 235 55 L 233 53 Z M 355 53 L 355 54 L 356 54 L 355 53 Z M 411 53 L 411 54 L 411 53 Z M 217 54 L 217 55 L 217 54 Z M 244 54 L 243 56 L 244 56 L 244 54 Z M 248 54 L 248 55 L 248 54 Z M 327 54 L 327 55 L 327 54 Z M 329 54 Q 328 57 331 56 Q 332 53 329 54 Z M 342 54 L 341 57 L 342 57 L 342 54 Z M 350 54 L 351 56 Q 352 53 350 54 Z M 374 54 L 374 55 L 374 54 Z M 412 54 L 413 56 L 414 56 L 412 54 Z M 209 55 L 209 56 L 209 55 Z M 224 55 L 225 58 L 229 56 L 224 55 Z M 242 55 L 242 56 L 242 55 Z M 286 55 L 286 56 L 286 55 Z M 328 55 L 328 56 L 328 55 Z M 364 55 L 364 56 L 364 55 Z M 372 55 L 372 56 L 372 55 Z M 384 55 L 384 56 L 384 55 Z M 406 55 L 405 58 L 406 58 L 406 55 Z M 231 56 L 231 57 L 231 56 Z M 295 56 L 295 57 L 295 56 Z M 309 56 L 309 57 L 309 56 Z M 347 56 L 347 57 L 348 57 L 347 56 Z M 380 56 L 380 57 L 380 56 Z M 277 57 L 277 58 L 278 58 L 277 57 Z M 343 57 L 341 59 L 343 60 L 343 57 Z M 411 57 L 410 60 L 413 61 L 411 57 Z M 210 58 L 210 59 L 210 58 Z M 276 58 L 274 61 L 277 61 L 276 58 Z M 312 58 L 312 59 L 312 58 Z M 397 58 L 397 59 L 397 58 Z M 231 59 L 230 61 L 231 61 L 231 59 Z M 236 59 L 232 62 L 236 62 L 236 59 Z M 240 59 L 241 62 L 242 60 L 240 59 Z M 264 59 L 264 60 L 265 60 L 264 59 Z M 331 59 L 331 60 L 331 59 Z M 336 59 L 336 60 L 336 59 Z M 348 59 L 348 60 L 348 59 Z M 390 59 L 390 61 L 387 62 L 389 62 L 388 64 Q 387 66 390 65 Q 389 62 392 61 Q 393 58 390 59 Z M 400 59 L 400 60 L 400 59 Z M 403 59 L 402 61 L 403 61 L 403 59 Z M 195 60 L 195 61 L 195 60 Z M 206 60 L 206 61 L 206 60 Z M 288 60 L 288 61 L 288 60 Z M 294 60 L 294 61 L 295 61 L 294 60 Z M 318 60 L 318 61 L 318 60 Z M 330 60 L 330 61 L 330 60 Z M 341 60 L 340 62 L 341 62 L 341 60 Z M 385 60 L 385 61 L 386 61 L 385 60 Z M 399 60 L 399 61 L 399 60 Z M 220 61 L 220 62 L 221 62 L 220 61 Z M 227 61 L 227 62 L 227 61 Z M 230 61 L 228 63 L 230 63 L 230 61 Z M 237 61 L 237 63 L 239 62 L 237 61 Z M 244 61 L 244 62 L 244 61 Z M 255 61 L 255 62 L 255 61 Z M 273 61 L 273 62 L 274 62 L 273 61 Z M 329 61 L 329 62 L 329 61 Z M 345 61 L 345 62 L 345 61 Z M 353 61 L 353 62 L 356 62 L 353 61 Z M 379 61 L 379 62 L 379 61 Z M 383 61 L 383 62 L 383 61 Z M 269 62 L 269 63 L 269 62 Z M 286 62 L 285 64 L 286 64 L 286 62 Z M 316 62 L 316 63 L 316 62 Z M 339 62 L 339 63 L 339 62 Z M 347 62 L 347 63 L 347 62 Z M 381 62 L 381 63 L 382 63 L 381 62 Z M 396 62 L 395 64 Q 397 63 396 67 L 398 66 L 396 62 Z M 256 63 L 255 65 L 256 65 L 256 63 Z M 261 63 L 261 64 L 261 63 Z M 350 63 L 350 64 L 351 64 L 350 63 Z M 371 63 L 371 64 L 371 63 Z M 376 63 L 376 64 L 376 63 Z M 379 63 L 380 65 Q 381 62 379 63 Z M 401 63 L 401 64 L 401 63 Z M 440 63 L 438 64 L 437 66 L 441 64 L 440 63 Z M 443 63 L 441 66 L 444 65 Q 446 66 445 64 L 443 63 Z M 211 64 L 211 65 L 211 64 Z M 218 64 L 217 66 L 218 66 L 218 64 Z M 260 64 L 258 67 L 259 69 L 260 69 L 260 64 Z M 267 64 L 266 66 L 267 66 L 267 64 Z M 294 64 L 293 66 L 294 66 L 294 64 Z M 309 64 L 308 66 L 309 66 L 309 64 Z M 316 64 L 316 65 L 316 64 Z M 346 64 L 346 65 L 346 64 Z M 222 65 L 222 66 L 222 65 Z M 287 65 L 287 66 L 287 65 Z M 319 65 L 319 66 L 319 65 Z M 327 65 L 326 67 L 327 67 L 327 65 Z M 351 65 L 351 66 L 351 65 Z M 376 65 L 376 66 L 376 65 Z M 384 65 L 384 66 L 386 66 L 384 65 Z M 392 65 L 392 66 L 392 65 Z M 402 65 L 402 66 L 402 65 Z M 208 66 L 208 69 L 210 68 L 208 66 Z M 244 66 L 244 67 L 244 66 Z M 252 66 L 252 67 L 253 67 L 252 66 Z M 264 66 L 264 67 L 264 66 Z M 274 66 L 274 67 L 274 66 Z M 291 66 L 291 67 L 291 66 Z M 302 66 L 302 67 L 303 67 L 302 66 Z M 349 66 L 349 67 L 349 66 Z M 369 66 L 367 68 Q 366 70 369 69 L 369 66 Z M 387 66 L 387 67 L 388 67 L 387 66 Z M 400 66 L 400 67 L 401 67 L 400 66 Z M 441 66 L 441 67 L 441 66 Z M 445 66 L 445 67 L 445 66 Z M 193 67 L 191 69 Q 190 72 193 71 L 193 67 Z M 262 67 L 262 68 L 262 67 Z M 287 67 L 287 68 L 287 67 Z M 315 67 L 315 68 L 315 67 Z M 319 67 L 319 69 L 321 68 L 319 67 Z M 364 67 L 363 69 L 366 69 L 364 67 Z M 374 67 L 374 68 L 374 67 Z M 448 67 L 448 68 L 448 67 Z M 255 68 L 255 69 L 255 68 Z M 309 68 L 309 69 L 309 68 Z M 318 68 L 318 69 L 318 68 Z M 322 68 L 322 69 L 322 68 Z M 334 68 L 334 69 L 336 69 L 334 68 Z M 340 68 L 339 70 L 340 70 L 340 68 Z M 342 68 L 342 69 L 342 68 Z M 349 68 L 349 69 L 349 68 Z M 378 68 L 378 69 L 378 68 Z M 440 68 L 440 69 L 440 68 Z M 184 69 L 184 70 L 184 69 Z M 219 69 L 219 70 L 219 69 Z M 227 69 L 227 70 L 227 69 Z M 238 69 L 238 70 L 238 69 Z M 256 69 L 256 71 L 258 70 L 256 69 Z M 261 69 L 261 70 L 261 69 Z M 279 69 L 279 70 L 280 70 L 279 69 Z M 290 69 L 290 70 L 290 69 Z M 296 69 L 296 70 L 296 69 Z M 302 69 L 302 70 L 302 69 Z M 351 69 L 351 70 L 351 69 Z M 377 69 L 377 70 L 377 69 Z M 381 69 L 381 70 L 383 70 L 381 69 Z M 386 69 L 386 70 L 386 69 Z M 399 69 L 398 71 L 400 70 L 399 69 Z M 188 70 L 188 71 L 188 70 Z M 199 70 L 199 71 L 199 70 Z M 253 70 L 253 71 L 253 70 Z M 269 70 L 269 71 L 269 70 Z M 278 70 L 278 71 L 278 70 Z M 347 70 L 347 71 L 347 70 Z M 367 70 L 367 71 L 367 70 Z M 376 70 L 376 71 L 376 70 Z M 183 71 L 182 72 Q 179 71 180 74 L 183 73 L 183 71 Z M 220 71 L 220 72 L 220 71 Z M 256 71 L 256 72 L 256 71 Z M 268 71 L 268 72 L 268 71 Z M 394 71 L 394 72 L 394 71 Z M 434 71 L 433 73 L 434 73 L 434 71 Z M 446 71 L 446 72 L 447 72 L 446 71 Z M 208 72 L 208 73 L 209 73 L 208 72 Z M 229 72 L 229 73 L 229 72 Z M 233 72 L 233 73 L 233 72 Z M 250 72 L 250 73 L 250 72 Z M 272 72 L 272 73 L 272 72 Z M 336 72 L 336 73 L 336 72 Z M 347 72 L 346 74 L 347 74 L 347 72 Z M 356 72 L 356 73 L 356 72 Z M 358 72 L 358 73 L 358 72 Z M 379 72 L 380 74 L 381 74 L 379 72 Z M 398 72 L 398 73 L 398 72 Z M 438 72 L 438 73 L 438 72 Z M 449 72 L 449 73 L 450 73 L 449 72 Z M 214 73 L 214 74 L 214 73 Z M 243 73 L 243 74 L 243 73 Z M 252 73 L 252 74 L 252 73 Z M 273 73 L 273 74 L 273 73 Z M 302 73 L 302 74 L 302 73 Z M 341 73 L 340 75 L 341 75 L 341 73 Z M 344 73 L 344 74 L 345 74 L 344 73 Z M 364 73 L 364 74 L 364 73 Z M 397 73 L 397 74 L 397 73 Z M 444 73 L 445 75 Q 446 72 444 73 Z M 187 74 L 183 75 L 184 77 L 188 76 L 187 74 Z M 257 74 L 257 75 L 257 74 Z M 365 74 L 365 75 L 365 74 Z M 369 74 L 368 76 L 370 75 L 369 74 Z M 390 74 L 390 75 L 392 75 L 390 74 Z M 174 75 L 174 76 L 174 75 Z M 194 75 L 194 76 L 194 75 Z M 198 75 L 198 76 L 198 75 Z M 207 75 L 207 76 L 207 75 Z M 240 75 L 240 76 L 240 75 Z M 261 75 L 261 76 L 261 75 Z M 300 75 L 300 76 L 300 75 Z M 311 75 L 311 76 L 311 75 Z M 316 75 L 316 76 L 316 75 Z M 347 75 L 345 77 L 347 77 L 347 75 Z M 364 75 L 364 76 L 364 75 Z M 438 75 L 439 77 Q 440 74 438 75 Z M 272 76 L 272 77 L 272 76 Z M 278 76 L 278 77 L 278 76 Z M 290 76 L 290 77 L 290 76 Z M 335 76 L 335 77 L 335 76 Z M 379 76 L 379 77 L 379 76 Z M 440 76 Q 439 79 442 78 Q 443 75 440 76 Z M 242 77 L 241 79 L 242 79 L 242 77 Z M 249 77 L 248 80 L 249 80 L 249 77 Z M 277 77 L 277 78 L 277 77 Z M 318 77 L 318 78 L 318 77 Z M 341 77 L 341 78 L 341 77 Z M 349 77 L 349 78 L 350 78 L 349 77 Z M 354 77 L 354 78 L 354 77 Z M 371 77 L 371 78 L 371 77 Z M 383 77 L 383 78 L 383 77 Z M 386 77 L 386 78 L 388 78 L 386 77 Z M 432 77 L 430 78 L 430 79 L 433 78 L 432 77 Z M 447 77 L 447 78 L 448 78 L 447 77 Z M 182 78 Q 181 81 185 80 Q 186 77 182 78 Z M 218 78 L 217 80 L 218 80 L 218 78 Z M 232 78 L 232 79 L 232 78 Z M 257 78 L 257 79 L 257 78 Z M 267 78 L 267 79 L 267 78 Z M 294 78 L 294 79 L 295 79 L 294 78 Z M 309 78 L 309 79 L 310 79 L 309 78 Z M 221 79 L 221 80 L 221 79 Z M 272 79 L 272 80 L 272 79 Z M 278 79 L 278 80 L 278 79 Z M 284 79 L 284 80 L 284 79 Z M 342 79 L 342 80 L 342 79 Z M 204 80 L 204 81 L 204 80 Z M 222 80 L 222 81 L 222 80 Z M 339 80 L 339 81 L 339 80 Z M 356 80 L 356 81 L 357 81 L 356 80 Z M 360 80 L 360 81 L 361 81 L 360 80 Z M 370 80 L 370 81 L 371 81 L 370 80 Z M 384 80 L 384 81 L 387 81 L 384 80 Z M 431 80 L 428 82 L 431 82 L 431 80 Z M 436 80 L 436 81 L 436 80 Z M 149 81 L 149 82 L 149 81 Z M 181 81 L 181 82 L 181 81 Z M 217 81 L 217 82 L 217 81 Z M 271 81 L 270 83 L 271 83 L 271 81 Z M 312 81 L 312 82 L 312 81 Z M 456 81 L 456 82 L 456 81 Z M 218 82 L 219 84 Q 220 81 218 82 Z M 222 82 L 222 83 L 222 82 Z M 248 82 L 248 83 L 248 82 Z M 264 82 L 264 83 L 264 82 Z M 287 82 L 286 84 L 287 84 L 287 82 Z M 308 82 L 308 83 L 308 82 Z M 340 82 L 340 83 L 340 82 Z M 343 82 L 343 83 L 344 83 L 343 82 Z M 363 82 L 362 84 L 363 84 L 363 82 Z M 459 82 L 457 84 L 459 84 L 459 82 Z M 148 83 L 147 85 L 148 85 L 148 83 Z M 177 83 L 177 84 L 177 83 Z M 215 83 L 215 84 L 215 83 Z M 247 83 L 246 85 L 247 85 L 247 83 Z M 261 83 Q 259 86 262 85 L 261 83 Z M 269 83 L 269 84 L 269 83 Z M 276 83 L 276 84 L 276 83 Z M 337 83 L 336 85 L 337 85 L 337 83 Z M 339 83 L 339 84 L 339 83 Z M 448 83 L 447 86 L 449 86 L 450 84 L 448 83 Z M 150 84 L 149 87 L 151 87 Q 152 90 154 86 L 150 84 Z M 217 84 L 217 85 L 217 84 Z M 242 84 L 241 87 L 242 87 L 242 84 Z M 284 84 L 284 85 L 284 84 Z M 333 84 L 333 85 L 333 84 Z M 353 84 L 353 85 L 353 84 Z M 454 84 L 454 85 L 454 84 Z M 460 84 Q 459 87 462 86 Q 463 83 460 84 Z M 156 85 L 155 87 Q 157 86 156 89 L 160 88 L 163 89 Q 165 90 164 87 Q 158 88 156 85 Z M 268 85 L 268 86 L 268 85 Z M 436 85 L 436 86 L 437 86 L 436 85 Z M 444 85 L 443 87 L 444 87 L 444 85 Z M 147 86 L 147 87 L 147 86 Z M 166 86 L 166 87 L 166 86 Z M 168 86 L 168 87 L 168 86 Z M 170 86 L 170 87 L 170 86 Z M 265 86 L 264 88 L 265 88 L 265 86 Z M 307 86 L 307 87 L 307 86 Z M 324 86 L 324 87 L 324 86 Z M 327 86 L 327 87 L 327 86 Z M 335 86 L 335 87 L 335 86 Z M 377 86 L 377 87 L 380 87 L 377 86 Z M 420 86 L 422 89 L 422 88 L 420 86 Z M 172 87 L 172 88 L 172 87 Z M 186 87 L 186 88 L 187 88 L 186 87 Z M 206 87 L 206 88 L 206 87 Z M 209 87 L 209 88 L 209 87 Z M 287 87 L 287 89 L 289 88 L 287 87 Z M 337 87 L 337 88 L 337 87 Z M 339 87 L 338 89 L 339 89 L 339 87 Z M 433 87 L 432 89 L 433 89 L 433 87 Z M 434 87 L 434 89 Q 436 92 438 88 L 434 87 Z M 191 88 L 191 89 L 191 88 Z M 203 88 L 203 89 L 203 88 Z M 251 88 L 251 89 L 251 88 Z M 291 88 L 291 89 L 291 88 Z M 369 88 L 369 89 L 369 88 Z M 371 88 L 371 89 L 371 88 Z M 450 88 L 449 90 L 450 90 L 450 88 Z M 453 88 L 453 89 L 453 88 Z M 460 88 L 460 89 L 460 88 Z M 183 89 L 183 90 L 183 89 Z M 188 89 L 188 90 L 188 89 Z M 267 89 L 267 90 L 267 89 Z M 272 89 L 271 91 L 272 91 L 272 89 Z M 278 89 L 278 90 L 278 89 Z M 327 89 L 327 90 L 327 89 Z M 341 89 L 341 90 L 341 89 Z M 344 89 L 342 90 L 342 91 L 346 90 L 344 89 Z M 348 89 L 346 92 L 348 92 L 348 89 Z M 366 89 Q 367 92 364 94 Q 363 97 366 96 Q 365 93 368 92 Q 369 88 366 89 Z M 375 89 L 374 91 L 377 90 L 375 89 Z M 379 89 L 378 91 L 379 91 L 379 89 Z M 382 89 L 382 90 L 383 90 L 382 89 Z M 412 89 L 410 91 Q 418 90 423 93 L 425 92 L 420 89 L 416 90 L 412 89 Z M 153 90 L 153 91 L 155 91 L 153 90 Z M 159 90 L 159 91 L 159 90 Z M 430 90 L 430 91 L 431 91 L 430 90 Z M 438 90 Q 437 93 440 92 L 439 96 L 440 98 L 444 95 L 442 92 L 438 90 Z M 455 90 L 455 93 Q 458 92 455 90 Z M 457 90 L 457 91 L 457 90 Z M 459 90 L 459 91 L 460 91 L 459 90 Z M 184 91 L 183 93 L 184 93 L 184 91 Z M 187 91 L 187 92 L 187 91 Z M 339 91 L 339 92 L 339 91 Z M 428 91 L 428 92 L 428 91 Z M 433 91 L 434 93 L 436 92 L 433 91 Z M 450 91 L 449 93 L 452 93 L 450 91 Z M 463 91 L 463 93 L 465 92 L 463 91 Z M 158 92 L 158 93 Q 160 92 159 96 L 162 95 Q 163 90 158 92 Z M 171 92 L 171 93 L 171 92 Z M 193 92 L 193 93 L 193 92 Z M 295 92 L 295 93 L 295 92 Z M 444 92 Q 443 95 446 94 Q 447 91 444 92 Z M 156 93 L 156 94 L 157 94 L 156 93 Z M 273 93 L 273 94 L 273 93 Z M 284 93 L 284 94 L 284 93 Z M 288 93 L 288 94 L 289 94 L 288 93 Z M 292 93 L 292 94 L 292 93 Z M 314 93 L 314 94 L 314 93 Z M 362 93 L 362 94 L 363 94 L 362 93 Z M 374 93 L 373 95 L 376 94 L 374 93 Z M 378 93 L 376 95 L 379 96 L 381 95 L 378 93 Z M 420 93 L 421 96 L 423 95 L 420 93 Z M 453 93 L 452 95 L 453 95 L 453 93 Z M 459 93 L 459 94 L 459 93 Z M 152 94 L 150 99 Q 153 100 152 97 Q 154 95 152 94 Z M 175 94 L 175 95 L 175 94 Z M 196 94 L 196 95 L 196 94 Z M 199 94 L 199 95 L 199 94 Z M 290 94 L 291 96 Q 292 93 290 94 Z M 296 94 L 296 95 L 296 94 Z M 343 94 L 343 95 L 343 94 Z M 200 95 L 200 96 L 200 95 Z M 242 95 L 242 96 L 242 95 Z M 273 95 L 273 96 L 273 95 Z M 311 95 L 311 96 L 311 95 Z M 316 95 L 316 96 L 316 95 Z M 413 95 L 416 98 L 418 98 L 413 95 Z M 418 95 L 418 96 L 418 95 Z M 423 95 Q 422 98 426 97 Q 427 94 423 95 Z M 454 95 L 454 96 L 454 95 Z M 162 96 L 162 97 L 162 96 Z M 180 96 L 180 97 L 180 96 Z M 195 96 L 195 97 L 195 96 Z M 202 96 L 202 97 L 202 96 Z M 217 96 L 217 97 L 217 96 Z M 263 96 L 263 97 L 263 96 Z M 274 96 L 274 97 L 274 96 Z M 278 96 L 278 97 L 278 96 Z M 296 96 L 296 97 L 296 96 Z M 299 96 L 299 97 L 299 96 Z M 304 96 L 304 97 L 304 96 Z M 322 96 L 322 97 L 322 96 Z M 357 96 L 355 99 L 354 101 L 359 98 Q 360 95 357 96 Z M 372 96 L 371 98 L 372 98 L 372 96 Z M 431 96 L 431 98 Q 430 101 433 100 L 432 98 Q 433 95 431 96 Z M 216 97 L 216 98 L 216 97 Z M 321 97 L 321 98 L 321 97 Z M 362 97 L 362 98 L 362 97 Z M 443 97 L 443 99 L 446 98 L 443 97 Z M 462 97 L 462 98 L 462 97 Z M 464 97 L 463 100 L 464 100 L 464 97 Z M 133 98 L 131 100 L 133 100 L 133 98 Z M 154 98 L 154 99 L 154 98 Z M 209 98 L 209 99 L 209 98 Z M 226 98 L 226 99 L 226 98 Z M 397 98 L 396 100 L 397 100 L 397 98 Z M 454 98 L 453 100 L 457 100 L 454 98 Z M 143 99 L 143 100 L 143 99 Z M 281 99 L 281 100 L 281 99 Z M 375 99 L 372 102 Q 371 104 374 103 L 372 107 L 374 107 Q 376 106 375 102 L 379 100 L 375 99 Z M 400 99 L 396 101 Q 394 107 400 105 L 400 99 Z M 407 99 L 402 100 L 403 102 L 405 101 L 407 101 L 414 104 L 414 100 L 411 101 L 407 99 Z M 422 99 L 420 102 L 422 101 L 424 102 L 422 99 Z M 437 99 L 439 102 L 440 101 Q 441 98 437 99 Z M 452 99 L 452 100 L 452 99 Z M 459 99 L 459 100 L 459 99 Z M 136 100 L 132 105 L 133 107 L 137 101 L 136 100 Z M 240 100 L 240 101 L 240 100 Z M 275 100 L 275 101 L 275 100 Z M 365 100 L 362 104 L 365 102 L 365 100 Z M 369 100 L 369 101 L 369 100 Z M 152 101 L 152 102 L 152 101 Z M 189 101 L 189 102 L 189 101 Z M 193 101 L 193 102 L 195 102 L 193 101 Z M 276 101 L 276 102 L 276 101 Z M 322 101 L 322 102 L 322 101 Z M 358 101 L 358 102 L 358 101 Z M 366 101 Q 365 105 368 104 Q 369 100 366 101 Z M 444 101 L 444 102 L 444 101 Z M 460 101 L 460 102 L 460 101 Z M 142 102 L 142 103 L 142 102 Z M 177 102 L 177 103 L 177 102 Z M 213 102 L 213 103 L 214 103 L 213 102 Z M 217 102 L 217 103 L 217 102 Z M 323 102 L 323 103 L 323 102 Z M 327 102 L 327 103 L 327 102 Z M 334 102 L 334 103 L 334 102 Z M 405 102 L 405 103 L 405 102 Z M 420 102 L 420 103 L 420 102 Z M 451 102 L 447 103 L 448 105 L 451 104 L 454 105 L 453 107 L 452 108 L 454 110 L 452 109 L 447 110 L 453 113 L 455 112 L 454 108 L 455 105 L 457 102 L 455 103 L 451 102 Z M 461 102 Q 459 105 462 104 L 461 102 Z M 137 103 L 135 105 Q 134 107 137 106 L 137 103 Z M 141 103 L 141 104 L 141 103 Z M 147 103 Q 146 105 149 104 L 150 105 Q 151 102 147 103 Z M 178 103 L 178 104 L 178 103 Z M 232 103 L 232 104 L 232 103 Z M 300 103 L 300 104 L 300 103 Z M 353 103 L 351 105 L 353 105 L 353 103 Z M 404 103 L 403 105 Q 405 108 406 105 L 404 103 Z M 152 104 L 152 105 L 152 104 Z M 179 104 L 179 105 L 179 104 Z M 325 104 L 324 106 L 325 106 L 325 104 Z M 337 104 L 337 105 L 337 104 Z M 359 104 L 360 106 L 362 105 L 359 104 Z M 378 104 L 378 105 L 378 104 Z M 412 104 L 412 105 L 412 104 Z M 423 104 L 420 105 L 420 108 L 426 108 Q 427 105 423 106 L 423 104 Z M 463 104 L 463 105 L 463 104 Z M 154 105 L 154 106 L 154 105 Z M 296 105 L 296 106 L 296 105 Z M 300 105 L 300 106 L 300 105 Z M 331 105 L 331 106 L 331 105 Z M 334 105 L 334 106 L 334 105 Z M 348 105 L 348 106 L 348 105 Z M 351 105 L 351 106 L 351 105 Z M 355 105 L 355 106 L 357 106 L 355 105 Z M 365 105 L 359 108 L 357 107 L 356 109 Q 361 110 363 107 L 366 108 Q 367 104 365 105 Z M 379 105 L 379 106 L 379 105 Z M 430 105 Q 430 109 432 106 L 430 105 Z M 141 106 L 141 107 L 141 106 Z M 142 106 L 142 109 L 144 108 Q 145 105 142 106 Z M 173 106 L 172 108 L 173 108 L 173 106 Z M 317 106 L 317 107 L 317 106 Z M 319 106 L 319 107 L 319 106 Z M 327 106 L 327 107 L 327 106 Z M 353 106 L 353 107 L 354 107 L 353 106 Z M 358 106 L 358 107 L 359 107 L 358 106 Z M 371 106 L 370 108 L 371 108 L 371 106 Z M 406 106 L 403 110 L 406 110 L 406 106 Z M 132 107 L 131 109 L 134 110 L 132 107 Z M 136 107 L 136 108 L 136 107 Z M 140 107 L 140 108 L 140 107 Z M 146 107 Q 144 110 147 109 L 146 107 Z M 149 107 L 149 108 L 149 107 Z M 162 107 L 162 108 L 163 108 L 162 107 Z M 187 107 L 187 108 L 187 107 Z M 208 107 L 208 108 L 208 107 Z M 280 107 L 280 108 L 280 107 Z M 290 107 L 290 108 L 290 107 Z M 334 107 L 334 108 L 334 107 Z M 348 107 L 348 108 L 348 107 Z M 352 107 L 352 108 L 352 107 Z M 379 107 L 379 108 L 379 107 Z M 459 107 L 457 110 L 459 111 L 459 107 Z M 150 108 Q 148 111 151 110 L 150 108 Z M 153 108 L 153 109 L 153 108 Z M 178 108 L 178 109 L 178 108 Z M 212 108 L 212 109 L 212 108 Z M 233 108 L 233 109 L 233 108 Z M 350 108 L 350 109 L 351 109 L 350 108 Z M 372 108 Q 369 110 372 111 L 374 110 L 372 108 Z M 400 108 L 395 111 L 401 111 Q 402 107 400 108 Z M 410 108 L 410 109 L 410 108 Z M 413 108 L 413 109 L 416 109 L 413 108 Z M 463 108 L 463 109 L 463 108 Z M 130 109 L 130 110 L 131 110 L 130 109 Z M 138 109 L 138 110 L 139 110 L 138 109 Z M 159 109 L 158 111 L 159 111 L 159 109 Z M 173 109 L 173 110 L 173 109 Z M 189 109 L 189 110 L 189 109 Z M 299 109 L 299 110 L 299 109 Z M 428 109 L 428 110 L 429 110 L 428 109 Z M 146 110 L 146 111 L 146 110 Z M 168 110 L 167 112 L 168 112 L 168 110 Z M 179 110 L 179 111 L 179 110 Z M 357 110 L 354 112 L 359 112 Q 360 109 357 110 Z M 361 110 L 361 112 L 363 111 Q 366 110 365 113 L 361 114 Q 358 116 361 117 L 370 113 L 371 111 L 369 112 Q 366 109 361 110 Z M 419 110 L 419 112 L 423 111 L 419 110 Z M 427 110 L 426 114 L 431 114 L 427 113 L 429 112 L 427 110 Z M 461 110 L 461 111 L 461 110 Z M 173 111 L 173 112 L 173 111 Z M 201 111 L 201 112 L 201 111 Z M 218 111 L 218 112 L 218 111 Z M 228 111 L 228 112 L 228 111 Z M 298 111 L 298 112 L 298 111 Z M 409 111 L 408 114 L 410 114 L 411 112 L 409 111 Z M 437 111 L 435 112 L 436 114 L 439 112 L 437 111 Z M 130 112 L 130 113 L 130 112 Z M 175 112 L 175 113 L 175 112 Z M 214 112 L 214 113 L 214 112 Z M 217 112 L 217 113 L 217 112 Z M 219 112 L 219 113 L 219 112 Z M 270 112 L 270 113 L 270 112 Z M 294 112 L 294 113 L 294 112 Z M 323 112 L 323 113 L 323 112 Z M 348 112 L 348 113 L 348 112 Z M 375 112 L 373 113 L 372 115 L 376 114 L 375 112 Z M 377 112 L 377 113 L 378 113 L 377 112 Z M 400 112 Q 399 114 402 113 Q 403 115 404 113 L 400 112 Z M 443 112 L 441 113 L 440 115 Q 444 116 446 114 L 443 112 Z M 475 112 L 475 115 L 477 114 Q 480 115 479 113 L 478 113 L 475 112 Z M 122 113 L 122 114 L 122 113 Z M 124 113 L 124 114 L 124 113 Z M 159 113 L 159 114 L 159 113 Z M 167 113 L 167 114 L 167 113 Z M 169 113 L 169 114 L 169 113 Z M 420 113 L 420 114 L 420 113 Z M 135 114 L 135 115 L 136 115 L 135 114 Z M 163 114 L 163 115 L 163 114 Z M 190 114 L 190 115 L 190 114 Z M 229 114 L 229 115 L 229 114 Z M 345 114 L 345 115 L 346 115 L 345 114 Z M 414 114 L 414 115 L 414 114 Z M 416 114 Q 415 118 418 117 L 419 115 L 416 114 Z M 124 115 L 124 116 L 125 116 L 124 115 Z M 128 115 L 127 117 L 128 117 L 128 115 Z M 132 115 L 132 116 L 132 115 Z M 134 115 L 134 116 L 134 115 Z M 232 115 L 231 117 L 232 117 L 232 115 Z M 371 115 L 371 116 L 371 115 Z M 396 115 L 399 119 L 400 117 Q 401 113 396 115 Z M 112 116 L 112 117 L 112 116 Z M 221 116 L 221 117 L 221 116 Z M 318 116 L 318 117 L 318 116 Z M 439 116 L 436 117 Q 433 119 436 120 L 438 119 L 439 121 L 439 118 L 448 118 L 449 119 L 452 118 Q 447 114 439 116 Z M 113 117 L 113 118 L 113 117 Z M 135 117 L 135 118 L 135 117 Z M 314 117 L 314 118 L 314 117 Z M 360 117 L 360 118 L 360 117 Z M 374 117 L 372 118 L 372 119 L 376 118 L 374 117 Z M 395 117 L 395 118 L 396 118 L 395 117 Z M 411 117 L 411 118 L 413 118 L 411 117 Z M 419 117 L 419 119 L 416 121 L 421 121 Q 423 120 421 119 Q 422 116 419 117 Z M 430 117 L 430 119 L 432 118 L 430 117 Z M 118 118 L 118 119 L 118 118 Z M 121 118 Q 120 120 124 120 L 126 120 Q 127 117 121 118 Z M 218 118 L 218 119 L 218 118 Z M 394 118 L 394 119 L 394 118 Z M 402 118 L 405 122 L 405 121 L 405 119 L 402 118 Z M 427 118 Q 427 122 429 119 L 427 118 Z M 223 119 L 223 120 L 223 119 Z M 379 119 L 376 121 L 371 120 L 369 123 L 372 122 L 374 123 Q 378 123 380 120 L 379 119 Z M 385 119 L 385 120 L 385 119 Z M 392 119 L 392 120 L 393 120 L 392 119 Z M 425 119 L 425 120 L 426 120 L 425 119 Z M 441 119 L 441 120 L 442 120 L 441 119 Z M 115 120 L 115 121 L 115 120 Z M 388 120 L 388 122 Q 387 124 390 123 Q 392 119 388 120 Z M 415 120 L 415 121 L 415 120 Z M 159 121 L 159 122 L 159 121 Z M 216 121 L 216 122 L 216 121 Z M 363 121 L 363 122 L 363 121 Z M 386 121 L 386 122 L 386 121 Z M 396 121 L 396 122 L 396 121 Z M 403 121 L 403 122 L 403 121 Z M 413 121 L 413 122 L 414 122 L 413 121 Z M 425 121 L 425 123 Q 421 121 422 125 L 424 124 L 427 126 L 428 125 Q 424 123 427 122 L 425 121 Z M 434 121 L 429 124 L 431 125 L 430 127 L 426 128 L 428 132 L 429 128 L 432 127 L 432 130 L 433 132 L 436 130 L 437 128 L 436 128 Q 432 129 433 127 L 436 125 L 433 124 L 435 123 Q 436 120 434 121 Z M 221 122 L 221 123 L 221 122 Z M 385 122 L 385 123 L 385 122 Z M 399 122 L 397 123 L 397 125 Q 398 127 395 126 L 395 127 Q 399 128 398 126 L 402 124 L 399 122 Z M 412 122 L 412 123 L 412 122 Z M 443 122 L 443 123 L 444 123 L 443 122 Z M 166 123 L 165 125 L 166 125 L 166 123 Z M 168 123 L 168 124 L 168 123 Z M 210 123 L 210 124 L 210 123 Z M 411 123 L 411 124 L 411 123 Z M 442 123 L 442 124 L 442 123 Z M 179 124 L 179 125 L 179 124 Z M 314 124 L 314 125 L 314 124 Z M 383 124 L 383 125 L 383 124 Z M 373 125 L 374 127 L 372 127 L 372 128 Q 379 130 378 126 L 373 125 Z M 382 125 Q 380 128 383 127 L 382 125 Z M 442 125 L 442 126 L 442 125 Z M 463 125 L 463 126 L 464 126 L 463 125 Z M 165 126 L 163 128 L 165 128 L 165 126 Z M 183 126 L 184 128 Q 185 125 183 126 Z M 191 126 L 191 127 L 191 126 Z M 219 126 L 219 127 L 219 126 Z M 233 126 L 233 127 L 233 126 Z M 392 126 L 391 128 L 392 128 L 392 126 Z M 465 126 L 465 127 L 466 127 L 465 126 Z M 228 127 L 228 128 L 228 127 Z M 302 127 L 302 128 L 302 127 Z M 311 127 L 311 128 L 311 127 Z M 175 128 L 175 129 L 175 128 Z M 246 128 L 246 129 L 246 128 Z M 267 128 L 267 129 L 267 128 Z M 304 128 L 304 129 L 304 128 Z M 310 128 L 310 129 L 310 128 Z M 382 128 L 377 131 L 379 131 L 380 133 L 381 131 L 385 129 L 382 128 Z M 423 128 L 423 129 L 424 129 L 423 128 Z M 451 128 L 451 129 L 451 128 Z M 457 128 L 457 129 L 457 128 Z M 466 128 L 466 129 L 466 128 Z M 472 128 L 471 129 Q 466 128 467 131 L 472 130 L 472 128 Z M 145 129 L 142 131 L 142 132 L 145 131 L 145 129 Z M 224 129 L 224 130 L 224 129 Z M 386 129 L 387 131 L 388 131 L 386 129 Z M 391 129 L 389 131 Q 388 134 391 133 L 391 129 Z M 394 129 L 392 132 L 396 131 L 394 129 Z M 397 129 L 397 130 L 397 129 Z M 444 129 L 441 130 L 440 132 L 445 130 L 444 129 Z M 450 129 L 450 130 L 450 129 Z M 489 129 L 489 130 L 489 129 Z M 204 130 L 204 132 L 207 131 L 204 130 Z M 255 130 Q 253 133 257 135 L 257 136 L 262 136 L 261 131 L 259 134 L 258 132 L 255 130 Z M 413 130 L 410 132 L 412 132 L 413 138 L 416 137 Q 417 134 414 135 L 415 131 L 413 130 Z M 456 130 L 454 133 L 456 136 L 462 137 L 463 138 L 463 136 L 460 136 Q 461 133 459 134 L 456 130 Z M 140 131 L 140 132 L 140 131 Z M 182 131 L 184 133 Q 185 130 182 131 Z M 189 131 L 189 132 L 189 131 Z M 232 131 L 232 132 L 232 131 Z M 241 131 L 240 133 L 241 133 L 241 131 Z M 377 131 L 377 132 L 377 131 Z M 399 131 L 396 134 Q 398 137 399 134 L 399 131 Z M 403 131 L 402 132 Q 399 131 400 134 Q 402 137 403 134 L 403 131 Z M 451 131 L 448 135 L 452 136 L 451 131 Z M 484 131 L 484 132 L 484 131 Z M 212 132 L 212 133 L 212 132 Z M 419 132 L 419 135 L 421 134 Q 422 131 419 132 Z M 445 132 L 445 133 L 445 132 Z M 473 132 L 471 134 L 473 134 L 473 132 Z M 476 132 L 474 134 L 476 134 L 476 132 Z M 487 132 L 487 134 L 482 135 L 480 138 L 487 136 L 489 133 L 487 132 Z M 497 132 L 497 133 L 497 132 Z M 168 133 L 169 135 L 172 135 L 168 133 Z M 176 133 L 179 136 L 183 136 L 181 134 L 179 134 L 176 133 Z M 245 133 L 245 134 L 245 133 Z M 308 133 L 308 134 L 308 133 Z M 370 133 L 370 134 L 370 133 Z M 382 133 L 381 135 L 381 136 L 386 135 Q 385 132 384 134 L 382 133 Z M 404 133 Q 403 136 406 135 Q 407 132 404 133 Z M 434 133 L 434 136 L 437 135 L 434 133 Z M 464 133 L 464 134 L 464 133 Z M 482 133 L 482 134 L 482 133 Z M 120 134 L 120 135 L 120 134 Z M 207 134 L 207 135 L 207 134 Z M 234 134 L 234 135 L 234 134 Z M 236 134 L 236 135 L 236 134 Z M 251 134 L 248 136 L 251 136 L 251 134 Z M 367 134 L 367 135 L 367 134 Z M 393 134 L 391 136 L 394 137 L 394 135 L 393 134 Z M 407 134 L 407 138 Q 410 139 409 137 L 409 135 L 407 134 Z M 422 134 L 421 136 L 423 135 L 422 134 Z M 465 134 Q 464 137 467 136 Q 468 133 465 134 Z M 469 134 L 469 136 L 471 135 L 469 134 Z M 492 134 L 488 137 L 489 138 L 494 136 Q 495 133 492 134 Z M 200 135 L 200 136 L 200 135 Z M 219 135 L 219 136 L 220 136 L 219 135 Z M 230 135 L 228 138 L 230 137 L 230 135 Z M 239 135 L 239 136 L 239 135 Z M 426 135 Q 423 136 425 138 L 424 138 L 423 140 L 430 137 Q 432 138 431 136 L 430 136 L 426 135 Z M 145 136 L 146 138 L 147 138 L 145 136 Z M 225 136 L 226 138 Q 227 135 225 136 Z M 396 136 L 396 137 L 397 137 L 396 136 Z M 404 136 Q 401 140 406 139 L 404 136 Z M 436 136 Q 435 140 440 138 Q 441 134 436 136 Z M 127 137 L 125 140 L 127 139 L 127 137 Z M 130 137 L 130 138 L 130 137 Z M 142 137 L 142 138 L 142 137 Z M 144 137 L 144 138 L 144 137 Z M 263 137 L 264 138 L 265 139 Q 266 136 263 137 Z M 362 137 L 362 138 L 362 137 Z M 386 137 L 384 139 L 390 141 L 390 139 L 387 139 Q 388 136 386 137 Z M 485 137 L 485 138 L 485 137 Z M 145 138 L 145 139 L 145 138 Z M 168 138 L 169 140 L 170 140 L 168 138 Z M 254 138 L 254 139 L 254 138 Z M 339 138 L 339 139 L 339 138 Z M 432 138 Q 431 142 436 140 L 437 143 L 438 139 L 432 138 Z M 442 138 L 442 139 L 443 139 L 442 138 Z M 124 139 Q 122 142 125 141 L 124 139 Z M 149 139 L 147 141 L 149 141 L 149 139 Z M 151 139 L 151 141 L 154 142 L 153 141 Q 154 138 151 139 Z M 158 139 L 158 140 L 158 139 Z M 177 139 L 177 140 L 177 139 Z M 364 139 L 364 140 L 364 139 Z M 429 139 L 429 140 L 429 139 Z M 446 139 L 446 140 L 449 140 L 446 139 Z M 480 139 L 481 141 L 483 140 L 480 139 Z M 487 139 L 487 140 L 487 139 Z M 204 140 L 204 141 L 204 140 Z M 365 140 L 365 141 L 365 140 Z M 381 140 L 382 142 L 383 142 L 381 140 Z M 398 140 L 396 142 L 399 142 Q 400 139 398 140 Z M 401 140 L 401 141 L 402 141 L 401 140 Z M 407 140 L 407 141 L 407 140 Z M 428 140 L 428 141 L 428 140 Z M 440 140 Q 439 143 443 142 Q 444 139 440 140 Z M 452 140 L 452 141 L 453 141 L 452 140 Z M 490 140 L 490 141 L 491 141 L 490 140 Z M 128 141 L 128 142 L 130 142 L 128 141 Z M 135 141 L 135 142 L 135 141 Z M 157 141 L 157 142 L 157 141 Z M 163 141 L 163 142 L 163 141 Z M 176 141 L 176 142 L 176 141 Z M 178 141 L 178 142 L 179 142 L 178 141 Z M 228 141 L 228 142 L 228 141 Z M 266 141 L 266 142 L 266 141 Z M 379 141 L 379 142 L 379 141 Z M 430 141 L 429 144 L 429 146 Q 428 148 431 147 L 432 144 L 430 143 L 430 141 Z M 434 141 L 433 145 L 434 145 L 434 141 Z M 446 141 L 447 143 L 449 142 L 446 141 Z M 492 141 L 492 142 L 492 141 Z M 137 142 L 134 145 L 135 148 L 139 148 L 137 147 L 136 145 L 140 144 L 137 142 Z M 141 142 L 141 144 L 143 143 L 141 142 Z M 150 142 L 150 143 L 150 142 Z M 155 142 L 155 143 L 155 142 Z M 167 142 L 167 143 L 167 142 Z M 172 142 L 172 143 L 172 142 Z M 229 142 L 229 143 L 229 142 Z M 326 142 L 326 143 L 326 142 Z M 356 142 L 355 144 L 356 144 L 356 142 Z M 371 142 L 371 145 L 373 144 L 371 142 Z M 427 142 L 427 143 L 427 142 Z M 439 142 L 439 143 L 439 142 Z M 475 142 L 473 145 L 476 145 L 475 142 Z M 479 142 L 479 143 L 480 143 L 479 142 Z M 488 142 L 485 144 L 485 145 L 490 144 Q 491 141 488 142 Z M 153 143 L 153 144 L 153 143 Z M 362 143 L 362 144 L 362 143 Z M 380 143 L 376 145 L 380 145 L 380 143 Z M 389 143 L 390 145 L 391 145 L 389 143 Z M 420 143 L 420 144 L 420 143 Z M 423 143 L 423 144 L 424 144 L 423 143 Z M 124 144 L 124 145 L 124 144 Z M 144 144 L 144 145 L 144 144 Z M 149 144 L 146 147 L 149 148 L 152 146 Q 153 143 149 144 Z M 158 144 L 158 145 L 158 144 Z M 161 144 L 161 145 L 161 144 Z M 449 144 L 444 147 L 446 148 L 444 149 L 449 149 L 450 147 L 449 144 Z M 479 144 L 479 145 L 480 145 L 479 144 Z M 103 145 L 103 146 L 103 145 Z M 106 145 L 106 146 L 108 146 L 106 145 Z M 115 145 L 115 146 L 115 145 Z M 131 145 L 131 146 L 131 145 Z M 217 145 L 217 146 L 218 146 L 217 145 Z M 235 145 L 235 146 L 236 146 L 235 145 Z M 393 145 L 393 146 L 393 145 Z M 421 145 L 420 147 L 422 148 L 421 145 Z M 425 145 Q 424 148 427 147 Q 428 144 425 145 Z M 443 145 L 442 147 L 444 146 L 443 145 Z M 457 145 L 457 146 L 457 145 Z M 478 145 L 478 146 L 478 145 Z M 482 145 L 480 147 L 482 149 L 485 148 L 482 147 L 482 145 Z M 142 146 L 142 147 L 142 146 Z M 145 146 L 143 148 L 146 149 L 145 146 Z M 367 146 L 366 149 L 366 150 Q 368 151 367 148 L 369 148 L 367 146 Z M 370 146 L 370 147 L 370 146 Z M 381 146 L 379 148 L 380 149 L 382 148 L 381 146 Z M 385 146 L 386 149 L 385 152 L 384 150 Q 380 149 381 152 L 385 154 Q 387 155 386 153 Q 388 154 390 151 L 395 152 L 396 150 Q 393 151 394 148 L 392 148 L 392 147 L 391 146 Q 388 147 390 149 L 390 150 L 389 149 L 389 147 L 385 146 Z M 410 146 L 410 147 L 410 146 Z M 417 146 L 418 148 Q 419 145 417 146 Z M 455 146 L 455 147 L 456 147 L 455 146 Z M 464 146 L 464 147 L 465 147 L 464 146 Z M 471 146 L 468 148 L 472 150 L 473 148 L 472 148 L 471 146 Z M 121 147 Q 119 150 116 149 Q 115 152 118 151 L 118 152 L 114 152 L 115 149 Q 112 148 113 151 L 109 154 L 111 154 Q 112 157 114 153 L 116 154 L 119 153 Q 120 155 121 153 Q 122 150 120 151 L 120 150 Q 122 151 121 148 L 123 148 L 121 147 Z M 399 147 L 399 148 L 399 147 Z M 403 147 L 400 148 L 401 152 Q 403 151 401 150 L 403 149 L 405 152 Q 408 150 404 149 Q 405 146 403 147 Z M 411 147 L 411 148 L 411 147 Z M 450 147 L 450 149 L 452 148 L 450 147 Z M 463 147 L 462 149 L 459 150 L 456 154 Q 459 155 458 153 Q 459 150 463 151 L 463 147 Z M 466 147 L 465 149 L 466 149 L 466 147 Z M 152 148 L 152 149 L 153 149 L 152 148 Z M 163 148 L 163 149 L 163 148 Z M 169 148 L 172 151 Q 173 153 174 151 L 169 148 Z M 267 148 L 267 149 L 267 148 Z M 398 148 L 398 149 L 398 148 Z M 415 148 L 415 150 L 419 150 L 415 148 Z M 427 148 Q 426 151 429 150 Q 430 147 427 148 Z M 476 148 L 474 150 L 477 151 Q 478 147 476 148 Z M 490 148 L 490 149 L 490 148 Z M 162 149 L 162 150 L 162 149 Z M 224 149 L 224 150 L 225 150 L 224 149 Z M 369 149 L 368 151 L 371 152 L 373 152 L 369 149 Z M 374 149 L 374 150 L 374 149 Z M 424 149 L 424 150 L 424 149 Z M 486 149 L 487 151 L 489 150 L 486 149 Z M 105 150 L 105 151 L 105 150 Z M 111 150 L 111 151 L 112 151 L 111 150 Z M 146 150 Q 145 153 148 152 Q 149 149 146 150 Z M 229 150 L 230 152 Q 231 149 229 150 Z M 365 150 L 365 151 L 365 150 Z M 420 150 L 418 152 L 420 152 L 420 150 Z M 452 150 L 448 153 L 452 153 Q 455 152 452 150 Z M 209 151 L 209 152 L 209 151 Z M 216 151 L 216 152 L 216 151 Z M 410 151 L 410 152 L 410 151 Z M 413 151 L 413 152 L 413 151 Z M 423 151 L 423 153 L 420 154 L 418 152 L 415 153 Q 414 155 417 154 L 417 157 L 414 158 L 413 155 L 409 157 L 411 158 L 405 159 L 409 160 L 423 159 Q 426 158 423 156 L 420 157 L 422 157 L 422 158 Q 416 160 418 155 L 423 154 Q 425 155 424 152 L 427 152 L 423 151 Z M 495 151 L 493 153 L 495 153 L 496 154 Q 497 150 495 151 Z M 134 152 L 134 153 L 136 153 L 134 152 Z M 141 152 L 141 153 L 142 153 L 141 152 Z M 149 152 L 149 153 L 149 152 Z M 157 152 L 157 153 L 157 152 Z M 171 152 L 171 153 L 171 152 Z M 211 152 L 209 154 L 213 155 L 211 152 Z M 231 152 L 231 153 L 231 152 Z M 489 152 L 485 154 L 486 157 L 484 159 L 485 161 L 485 160 L 491 156 L 491 159 Q 493 163 495 160 L 497 163 L 501 161 L 499 160 L 500 157 L 498 156 Q 495 157 497 159 L 495 159 L 496 157 L 494 155 L 493 157 L 492 157 Q 493 153 489 155 L 489 154 L 489 152 Z M 146 153 L 146 154 L 146 153 Z M 155 153 L 155 154 L 155 153 Z M 356 153 L 356 154 L 356 153 Z M 358 153 Q 357 156 361 155 Q 362 152 358 153 Z M 366 153 L 366 154 L 372 156 L 375 155 L 366 153 Z M 391 153 L 391 154 L 392 154 L 391 153 Z M 468 153 L 469 155 Q 470 152 468 153 Z M 498 153 L 498 154 L 498 153 Z M 125 154 L 125 155 L 125 154 Z M 134 154 L 136 156 Q 137 153 134 154 Z M 449 154 L 449 155 L 452 155 L 449 154 Z M 461 154 L 463 156 Q 464 153 461 154 Z M 476 154 L 474 157 L 477 156 Q 478 153 476 154 Z M 500 154 L 499 156 L 500 156 L 500 154 Z M 108 155 L 108 156 L 110 156 L 108 155 Z M 152 155 L 151 157 L 152 157 L 152 155 Z M 175 155 L 175 156 L 175 155 Z M 365 155 L 365 157 Q 360 156 359 160 L 361 160 L 363 160 L 366 161 L 368 161 L 367 159 L 369 159 L 372 159 L 365 155 Z M 376 155 L 376 156 L 376 155 Z M 379 155 L 380 157 Q 381 154 379 155 Z M 409 155 L 409 156 L 409 155 Z M 457 155 L 457 157 L 459 156 L 457 155 Z M 512 155 L 511 157 L 512 158 Q 506 159 504 156 L 503 159 L 509 160 L 514 159 L 512 155 Z M 119 156 L 118 158 L 120 157 L 119 156 Z M 132 156 L 131 158 L 133 157 L 132 156 Z M 146 156 L 146 157 L 146 156 Z M 168 156 L 168 157 L 168 156 Z M 178 156 Q 176 160 180 159 L 180 157 L 178 156 Z M 183 156 L 183 157 L 183 156 Z M 197 156 L 197 157 L 197 156 Z M 217 156 L 217 158 L 217 159 L 221 157 L 217 156 Z M 387 156 L 388 157 L 389 158 Q 390 155 387 156 Z M 438 156 L 438 157 L 438 156 Z M 451 156 Q 449 161 456 159 L 457 157 L 455 158 L 451 156 Z M 469 156 L 466 159 L 471 159 L 469 156 Z M 103 157 L 101 159 L 102 161 L 106 159 Q 107 156 103 157 Z M 159 157 L 158 159 L 160 158 L 159 157 Z M 170 157 L 170 158 L 170 157 Z M 203 157 L 203 158 L 207 160 Q 210 161 209 159 Q 208 156 207 158 L 203 157 Z M 355 157 L 354 158 Q 351 157 352 160 L 352 162 L 355 166 L 361 164 L 363 165 L 365 165 L 364 163 L 355 163 L 359 162 L 356 160 L 356 159 Q 357 156 355 157 Z M 460 157 L 460 158 L 460 157 Z M 472 157 L 472 158 L 472 157 Z M 147 158 L 147 160 L 149 159 L 147 158 Z M 175 158 L 175 159 L 176 159 L 175 158 Z M 404 158 L 404 159 L 404 158 Z M 459 158 L 459 159 L 459 158 Z M 463 158 L 463 160 L 465 159 L 463 158 Z M 474 158 L 474 159 L 475 159 L 474 158 Z M 120 159 L 122 161 Q 123 158 120 159 Z M 136 159 L 136 160 L 136 159 Z M 167 159 L 167 160 L 167 159 Z M 427 159 L 424 164 L 428 165 Q 427 161 430 160 L 427 159 Z M 481 159 L 480 161 L 481 161 L 481 159 Z M 110 160 L 110 161 L 110 160 Z M 183 160 L 183 161 L 183 160 Z M 400 160 L 400 161 L 402 161 L 400 160 Z M 421 160 L 417 161 L 417 162 Q 421 163 422 161 L 421 160 Z M 432 160 L 432 163 L 435 162 Q 436 158 432 160 Z M 437 160 L 436 162 L 437 162 L 437 160 Z M 444 160 L 444 161 L 444 160 Z M 446 160 L 443 163 L 444 165 Q 446 166 445 163 L 448 163 L 448 162 L 446 160 Z M 455 160 L 454 165 L 458 163 Q 459 158 455 160 Z M 462 160 L 461 162 L 463 161 L 462 160 Z M 479 160 L 479 161 L 479 160 Z M 487 160 L 487 162 L 489 163 Q 490 159 487 160 Z M 505 160 L 504 162 L 505 162 L 505 160 Z M 507 160 L 507 161 L 507 160 Z M 515 160 L 515 162 L 517 161 L 515 160 Z M 105 161 L 105 162 L 105 161 Z M 133 161 Q 132 164 135 163 Q 136 160 133 161 Z M 204 161 L 204 162 L 204 161 Z M 222 161 L 222 162 L 223 162 L 222 161 Z M 324 161 L 324 162 L 327 162 L 324 161 Z M 404 161 L 406 163 L 408 163 L 416 165 L 418 164 L 404 161 Z M 483 161 L 483 162 L 483 161 Z M 509 161 L 508 163 L 509 163 L 509 161 Z M 517 161 Q 516 164 519 163 Q 520 165 521 163 L 517 161 Z M 103 162 L 104 165 Q 106 166 105 163 L 103 162 Z M 120 162 L 120 163 L 120 162 Z M 205 162 Q 204 165 207 164 Q 208 161 205 162 Z M 328 162 L 328 163 L 328 162 Z M 331 162 L 332 164 Q 333 161 331 162 Z M 365 162 L 365 163 L 365 162 Z M 452 162 L 450 164 Q 452 167 453 164 Q 454 161 452 162 Z M 460 162 L 460 163 L 460 162 Z M 478 162 L 478 165 L 480 164 L 478 162 Z M 481 162 L 481 163 L 481 162 Z M 492 162 L 491 164 L 492 164 L 492 162 Z M 501 162 L 501 163 L 501 162 Z M 513 162 L 513 163 L 514 163 L 513 162 Z M 121 163 Q 118 167 122 166 L 123 164 L 121 163 Z M 209 163 L 209 164 L 209 163 Z M 318 163 L 318 164 L 318 163 Z M 351 163 L 351 164 L 352 164 L 351 163 Z M 471 163 L 471 164 L 471 163 Z M 488 163 L 488 164 L 488 163 Z M 504 163 L 504 164 L 504 163 Z M 107 164 L 107 165 L 108 165 L 107 164 Z M 128 164 L 129 166 Q 130 163 128 164 Z M 316 164 L 314 166 L 315 167 L 317 166 Q 318 163 316 164 Z M 434 164 L 434 165 L 434 164 Z M 458 164 L 458 165 L 460 165 L 458 164 Z M 493 164 Q 492 167 495 166 Q 496 163 493 164 Z M 499 164 L 500 165 L 501 166 Q 502 163 499 164 Z M 516 164 L 516 165 L 517 165 L 516 164 Z M 100 165 L 100 166 L 100 165 Z M 207 165 L 207 166 L 207 165 Z M 275 165 L 275 166 L 275 165 Z M 320 165 L 318 167 L 321 168 L 321 166 L 320 165 Z M 424 165 L 424 166 L 425 166 L 424 165 Z M 431 165 L 431 166 L 431 165 Z M 437 165 L 437 166 L 437 165 Z M 469 165 L 469 166 L 469 165 Z M 479 165 L 479 167 L 481 166 L 479 165 Z M 486 165 L 486 166 L 487 166 L 486 165 Z M 497 165 L 496 167 L 497 167 L 497 165 Z M 503 165 Q 501 167 504 169 L 502 172 L 499 173 L 498 175 L 502 174 L 506 169 L 505 166 L 503 165 Z M 509 165 L 509 166 L 509 165 Z M 107 166 L 107 167 L 107 166 Z M 117 166 L 117 167 L 118 167 L 117 166 Z M 120 166 L 120 167 L 120 166 Z M 207 166 L 210 170 L 212 169 L 207 166 Z M 322 166 L 322 167 L 323 167 L 322 166 Z M 426 166 L 426 167 L 428 167 L 426 166 Z M 434 166 L 434 167 L 436 167 L 434 166 Z M 443 166 Q 441 169 444 168 L 443 166 Z M 448 166 L 448 167 L 448 166 Z M 488 166 Q 486 169 489 168 L 488 166 Z M 500 166 L 500 167 L 500 166 Z M 514 166 L 514 168 L 516 167 L 514 166 Z M 528 166 L 527 168 L 528 168 L 528 166 Z M 231 167 L 231 168 L 231 167 Z M 329 167 L 327 169 Q 326 173 331 171 L 332 168 L 329 167 Z M 371 167 L 371 168 L 371 167 Z M 455 167 L 455 168 L 455 167 Z M 473 167 Q 468 169 471 171 L 470 171 L 471 173 Q 474 174 473 171 Q 474 168 476 170 Q 480 171 481 169 L 473 167 Z M 501 167 L 500 169 L 501 169 L 501 167 Z M 518 167 L 518 168 L 518 167 Z M 115 168 L 110 169 L 109 173 L 110 174 L 115 172 L 116 176 L 116 172 Q 119 171 118 175 L 121 173 Q 122 170 119 171 Q 118 168 121 169 L 121 168 L 115 170 L 115 168 Z M 155 168 L 155 169 L 155 168 Z M 276 168 L 273 172 L 274 177 L 276 178 L 275 175 L 277 175 L 278 173 Q 279 169 276 170 L 276 168 Z M 316 168 L 316 169 L 316 168 Z M 434 168 L 434 169 L 436 169 L 434 168 Z M 452 168 L 452 169 L 453 169 L 452 168 Z M 508 168 L 508 169 L 508 168 Z M 126 169 L 126 170 L 127 170 L 126 169 Z M 137 169 L 137 170 L 137 169 Z M 146 169 L 146 170 L 147 170 L 146 169 Z M 152 169 L 152 170 L 152 169 Z M 170 169 L 170 170 L 170 169 Z M 281 169 L 281 170 L 281 169 Z M 371 169 L 371 171 L 370 173 L 373 171 Q 374 168 371 169 Z M 430 169 L 428 171 L 430 171 L 430 169 Z M 449 169 L 449 170 L 449 169 Z M 495 169 L 492 171 L 495 171 L 495 169 Z M 498 169 L 498 170 L 498 169 Z M 500 169 L 498 171 L 500 171 L 500 169 Z M 520 169 L 520 171 L 523 171 L 520 169 Z M 133 170 L 133 171 L 133 170 Z M 145 170 L 145 171 L 145 170 Z M 151 170 L 151 171 L 151 170 Z M 184 170 L 183 173 L 184 173 L 184 170 Z M 322 170 L 322 171 L 322 170 Z M 325 170 L 324 172 L 325 172 L 325 170 Z M 376 170 Q 373 175 381 173 Q 384 172 381 170 L 377 172 L 376 170 Z M 439 170 L 439 171 L 439 170 Z M 442 170 L 444 172 Q 445 169 442 170 Z M 481 170 Q 482 173 479 172 L 480 175 L 480 173 L 483 172 Q 484 169 481 170 Z M 171 171 L 171 172 L 171 171 Z M 191 171 L 191 172 L 192 172 L 191 171 Z M 226 171 L 226 173 L 228 172 L 226 171 Z M 345 171 L 345 172 L 346 172 L 345 171 Z M 416 171 L 416 174 L 419 173 Q 421 174 420 171 L 418 172 L 416 171 Z M 437 171 L 437 172 L 437 171 Z M 147 172 L 147 173 L 147 172 Z M 150 172 L 150 173 L 150 172 Z M 189 172 L 189 173 L 189 172 Z M 415 172 L 415 173 L 415 172 Z M 441 172 L 441 173 L 442 173 L 441 172 Z M 462 172 L 462 175 Q 465 176 464 174 L 462 172 Z M 113 173 L 112 176 L 114 176 L 113 173 Z M 176 173 L 176 174 L 176 173 Z M 180 173 L 180 174 L 180 173 Z M 237 173 L 237 174 L 237 173 Z M 279 173 L 279 174 L 279 173 Z M 316 173 L 316 174 L 316 173 Z M 382 173 Q 382 176 387 175 Q 388 171 382 173 Z M 388 173 L 388 175 Q 386 176 389 177 L 391 176 L 394 177 L 396 176 L 388 173 Z M 395 173 Q 394 175 398 174 L 399 175 Q 400 171 395 173 Z M 410 173 L 410 175 L 409 177 Q 406 178 411 180 L 418 177 L 418 175 L 415 177 L 413 176 L 411 177 Q 412 172 410 173 Z M 413 173 L 413 174 L 413 173 Z M 474 173 L 474 174 L 476 174 L 474 173 Z M 140 174 L 140 175 L 140 174 Z M 167 174 L 167 175 L 167 174 Z M 188 174 L 187 177 L 188 177 L 188 174 Z M 201 174 L 201 175 L 201 174 Z M 236 174 L 236 175 L 236 174 Z M 444 174 L 440 176 L 437 180 Q 440 181 439 178 L 445 177 L 445 175 L 444 174 Z M 102 175 L 101 177 L 102 177 L 102 175 Z M 107 175 L 106 177 L 107 177 L 107 175 Z M 118 175 L 116 178 L 119 178 L 118 175 Z M 126 175 L 126 176 L 127 176 L 126 175 Z M 154 175 L 154 176 L 154 175 Z M 161 175 L 161 176 L 161 175 Z M 174 175 L 174 176 L 174 175 Z M 207 175 L 207 176 L 207 175 Z M 210 175 L 210 176 L 210 175 Z M 227 175 L 227 176 L 227 175 Z M 232 175 L 230 178 L 232 177 L 232 175 Z M 237 175 L 237 176 L 238 176 L 237 175 Z M 240 175 L 240 176 L 240 175 Z M 373 175 Q 373 179 375 176 L 373 175 Z M 403 175 L 403 178 L 405 177 Q 408 178 407 176 L 406 176 L 403 175 Z M 465 175 L 465 177 L 469 178 L 477 185 L 479 184 L 480 182 Q 477 183 478 181 L 476 182 L 473 179 L 465 175 Z M 473 175 L 473 176 L 473 175 Z M 120 176 L 120 177 L 120 176 Z M 179 176 L 179 177 L 179 176 Z M 206 176 L 206 177 L 206 176 Z M 234 176 L 234 177 L 235 177 L 234 176 Z M 371 176 L 371 177 L 371 176 Z M 381 176 L 381 177 L 381 176 Z M 399 176 Q 396 180 400 179 L 399 176 Z M 464 176 L 464 177 L 464 176 Z M 476 176 L 476 177 L 476 176 Z M 97 177 L 98 179 Q 99 176 97 177 Z M 146 177 L 146 178 L 146 177 Z M 153 177 L 153 178 L 153 177 Z M 157 177 L 157 178 L 158 178 L 157 177 Z M 164 177 L 164 178 L 164 177 Z M 172 177 L 172 178 L 172 177 Z M 180 177 Q 178 180 181 179 L 180 177 Z M 184 177 L 184 178 L 184 177 Z M 192 177 L 192 178 L 192 177 Z M 226 177 L 223 182 L 223 184 L 230 183 L 226 182 L 234 180 L 234 179 L 228 180 L 228 179 Q 229 176 226 177 Z M 268 177 L 268 178 L 268 177 Z M 278 177 L 278 178 L 278 177 Z M 328 177 L 328 178 L 329 178 L 328 177 Z M 376 177 L 376 178 L 376 177 Z M 378 177 L 378 178 L 378 177 Z M 437 177 L 437 178 L 437 177 Z M 477 177 L 477 178 L 479 178 L 477 177 Z M 148 178 L 148 179 L 148 178 Z M 200 178 L 200 179 L 200 178 Z M 212 178 L 212 179 L 212 178 Z M 222 178 L 218 180 L 220 181 L 217 183 L 217 182 L 213 181 L 212 185 L 219 185 L 223 180 Q 224 177 222 178 Z M 331 178 L 331 179 L 331 178 Z M 377 178 L 375 180 L 378 181 L 377 178 Z M 379 178 L 379 179 L 379 178 Z M 405 178 L 405 179 L 406 179 L 405 178 Z M 408 178 L 408 179 L 408 178 Z M 99 179 L 100 181 Q 101 178 99 179 Z M 158 179 L 158 180 L 158 179 Z M 176 179 L 176 180 L 176 179 Z M 276 179 L 276 180 L 277 180 L 276 179 Z M 332 179 L 331 182 L 333 182 L 332 179 Z M 381 179 L 381 180 L 381 179 Z M 382 179 L 385 184 L 385 181 L 382 179 Z M 397 179 L 397 180 L 397 179 Z M 441 179 L 441 180 L 441 179 Z M 468 179 L 468 180 L 468 179 Z M 110 180 L 110 181 L 110 180 Z M 117 180 L 117 181 L 117 180 Z M 151 180 L 151 181 L 151 180 Z M 159 180 L 159 182 L 161 181 L 159 180 Z M 192 180 L 192 181 L 193 181 L 192 180 Z M 323 180 L 323 181 L 323 180 Z M 372 180 L 372 183 Q 376 184 375 181 L 372 180 Z M 390 180 L 388 182 L 392 183 L 394 183 L 390 180 Z M 394 180 L 394 181 L 394 180 Z M 410 180 L 410 181 L 410 180 Z M 431 180 L 429 182 L 430 184 L 432 183 L 431 180 Z M 463 180 L 463 181 L 463 180 Z M 163 181 L 163 182 L 163 181 Z M 176 181 L 176 182 L 177 182 L 176 181 Z M 267 181 L 267 182 L 267 181 Z M 103 182 L 102 185 L 103 185 L 103 182 Z M 107 182 L 107 183 L 108 183 L 107 182 Z M 242 182 L 242 183 L 242 182 Z M 262 182 L 262 183 L 262 182 Z M 265 182 L 265 183 L 265 182 Z M 326 182 L 326 183 L 326 182 Z M 371 182 L 371 183 L 371 182 Z M 443 182 L 440 184 L 443 184 L 443 182 Z M 454 182 L 454 183 L 454 182 Z M 95 183 L 95 184 L 95 183 Z M 158 183 L 158 184 L 158 183 Z M 313 183 L 313 184 L 313 183 Z M 436 183 L 436 184 L 436 183 Z M 110 184 L 110 185 L 110 184 Z M 167 184 L 167 185 L 167 184 Z M 197 184 L 197 185 L 197 184 Z M 221 184 L 219 186 Q 218 188 221 187 L 222 185 L 221 184 Z M 292 184 L 291 186 L 292 186 L 292 184 Z M 315 184 L 315 185 L 316 185 L 315 184 Z M 327 184 L 327 185 L 327 184 Z M 374 184 L 374 186 L 374 187 L 376 186 Q 377 183 374 184 Z M 429 184 L 429 185 L 429 184 Z M 451 184 L 451 185 L 451 184 Z M 482 184 L 482 185 L 482 184 Z M 413 185 L 413 186 L 413 185 Z M 439 185 L 439 186 L 439 185 Z M 480 185 Q 478 188 481 187 L 480 185 Z M 102 186 L 102 187 L 102 186 Z M 152 186 L 152 187 L 152 186 Z M 352 186 L 352 187 L 352 186 Z M 409 186 L 409 187 L 409 186 Z M 414 186 L 414 187 L 414 186 Z M 103 187 L 103 188 L 103 187 Z M 106 187 L 106 188 L 107 188 L 106 187 Z M 119 187 L 118 189 L 120 188 L 119 187 Z M 198 187 L 198 188 L 198 187 Z M 290 187 L 288 190 L 290 189 L 290 187 Z M 315 187 L 314 189 L 317 189 L 315 187 Z M 321 187 Q 320 191 323 190 Q 324 186 321 187 Z M 401 187 L 401 188 L 401 187 Z M 108 188 L 108 189 L 108 188 Z M 150 188 L 148 190 L 150 190 L 150 188 Z M 163 188 L 163 189 L 163 188 Z M 216 188 L 216 189 L 216 188 Z M 218 188 L 218 189 L 220 189 L 218 188 Z M 224 188 L 224 189 L 225 189 L 224 188 Z M 259 188 L 259 189 L 260 189 L 259 188 Z M 267 188 L 267 189 L 267 188 Z M 110 189 L 109 192 L 110 192 L 110 189 Z M 145 189 L 145 190 L 145 189 Z M 222 189 L 222 190 L 223 190 L 222 189 Z M 233 189 L 233 190 L 233 189 Z M 265 189 L 264 192 L 265 192 L 265 189 Z M 281 189 L 281 190 L 281 189 Z M 378 189 L 378 190 L 378 189 Z M 382 189 L 382 191 L 380 194 L 383 192 Q 385 193 384 191 L 382 189 Z M 183 190 Q 183 194 185 191 L 183 190 Z M 280 190 L 277 197 L 278 200 L 280 194 L 280 190 Z M 320 190 L 320 191 L 320 190 Z M 189 191 L 189 192 L 189 191 Z M 231 191 L 228 195 L 232 192 L 231 191 Z M 243 191 L 243 192 L 243 191 Z M 288 191 L 286 193 L 287 195 L 288 193 L 288 191 Z M 388 191 L 388 192 L 388 191 Z M 139 192 L 138 195 L 139 195 L 139 192 Z M 187 192 L 187 193 L 188 193 L 187 192 Z M 259 192 L 259 193 L 259 192 Z M 267 192 L 267 193 L 267 192 Z M 318 192 L 318 193 L 318 192 Z M 101 193 L 100 195 L 101 195 L 101 193 Z M 129 193 L 129 194 L 129 193 Z M 152 193 L 152 194 L 153 194 L 152 193 Z M 168 193 L 168 194 L 168 193 Z M 194 193 L 194 194 L 194 193 Z M 218 193 L 218 194 L 219 194 L 218 193 Z M 236 193 L 236 194 L 236 193 Z M 110 194 L 110 195 L 110 194 Z M 149 194 L 149 195 L 150 195 L 149 194 Z M 162 194 L 161 196 L 162 196 L 162 194 Z M 191 194 L 191 195 L 191 194 Z M 197 194 L 197 195 L 197 194 Z M 227 194 L 227 195 L 227 194 Z M 387 194 L 387 195 L 387 194 Z M 85 195 L 85 196 L 85 195 Z M 108 195 L 108 196 L 108 195 Z M 134 195 L 133 197 L 134 197 L 134 195 Z M 203 195 L 203 196 L 203 195 Z M 233 195 L 233 196 L 233 195 Z M 235 195 L 234 198 L 235 198 L 235 195 Z M 256 195 L 256 196 L 257 196 L 256 195 Z M 286 195 L 283 198 L 285 201 L 286 198 L 286 195 Z M 298 195 L 298 196 L 298 195 Z M 385 195 L 385 196 L 385 195 Z M 117 196 L 117 197 L 117 196 Z M 169 196 L 169 197 L 169 196 Z M 245 196 L 245 197 L 245 196 Z M 83 197 Q 82 200 85 199 Q 86 196 83 197 Z M 89 197 L 87 200 L 87 201 L 91 199 L 89 197 Z M 98 197 L 98 198 L 98 197 Z M 131 197 L 131 198 L 132 198 L 131 197 Z M 183 198 L 184 200 Q 185 197 183 198 Z M 92 199 L 92 200 L 92 199 Z M 95 199 L 93 201 L 94 202 L 98 200 L 95 199 Z M 123 199 L 123 201 L 125 200 L 123 199 Z M 254 199 L 254 200 L 254 199 Z M 84 200 L 84 201 L 84 200 Z M 104 200 L 104 201 L 104 200 Z M 126 200 L 126 201 L 126 200 Z M 181 200 L 182 202 Q 183 199 181 200 Z M 380 200 L 380 201 L 380 200 Z M 80 201 L 80 202 L 80 201 Z M 284 201 L 282 206 L 281 205 L 280 205 L 280 212 L 286 224 L 287 220 Q 289 222 288 227 L 288 229 L 290 231 L 292 230 L 291 238 L 293 237 L 292 239 L 295 246 L 297 243 L 297 240 L 296 242 L 295 242 L 296 239 L 296 237 L 296 224 L 295 228 L 291 226 L 292 228 L 290 228 L 291 225 L 290 223 Q 291 220 288 221 L 288 218 L 284 211 L 284 201 Z M 118 202 Q 116 205 119 204 L 118 202 Z M 145 202 L 145 203 L 145 202 Z M 206 202 L 206 203 L 206 202 Z M 89 203 L 90 205 L 93 204 L 89 203 Z M 97 204 L 97 205 L 97 204 Z M 113 204 L 113 205 Q 115 204 114 208 L 116 208 L 117 206 Q 114 207 115 204 L 113 204 Z M 277 204 L 277 206 L 279 205 L 277 204 Z M 95 205 L 94 207 L 96 206 L 95 205 Z M 99 205 L 100 207 Q 101 204 99 205 Z M 109 205 L 109 206 L 109 205 Z M 112 205 L 112 206 L 112 205 Z M 137 205 L 137 206 L 137 205 Z M 121 206 L 117 209 L 118 210 L 121 209 L 121 206 Z M 90 207 L 90 209 L 89 213 L 91 212 Q 93 206 90 207 Z M 112 207 L 110 210 L 112 210 L 112 207 Z M 163 207 L 163 209 Q 162 211 165 210 Q 167 206 163 207 Z M 74 208 L 74 209 L 74 208 Z M 98 208 L 95 210 Q 90 209 92 213 L 95 212 Q 97 213 96 210 L 100 210 L 100 209 L 98 208 Z M 134 208 L 134 209 L 134 208 Z M 145 208 L 145 209 L 146 209 L 145 208 Z M 143 209 L 142 211 L 143 211 L 143 209 Z M 147 209 L 147 210 L 147 209 Z M 115 210 L 114 212 L 115 212 L 115 210 Z M 117 210 L 116 213 L 117 213 L 117 210 Z M 126 210 L 124 211 L 123 213 L 126 212 L 126 210 Z M 132 210 L 132 211 L 132 210 Z M 148 210 L 148 211 L 148 210 Z M 109 211 L 109 212 L 109 211 Z M 111 211 L 109 213 L 111 214 L 111 211 Z M 131 211 L 131 212 L 131 211 Z M 133 211 Q 132 214 135 213 Q 136 210 133 211 Z M 140 211 L 140 212 L 140 211 Z M 144 211 L 144 212 L 144 211 Z M 157 211 L 157 213 L 159 212 L 157 211 Z M 129 212 Q 126 213 128 215 Q 127 218 131 216 L 132 213 L 131 213 L 129 212 Z M 141 212 L 140 215 L 146 214 L 144 213 Q 142 216 141 212 Z M 178 212 L 178 213 L 178 212 Z M 108 213 L 104 216 L 108 217 L 109 215 Q 110 212 108 213 Z M 118 213 L 118 214 L 120 214 L 118 213 Z M 139 213 L 139 214 L 139 213 Z M 82 214 L 82 215 L 82 214 Z M 95 214 L 95 215 L 95 214 Z M 97 214 L 95 218 L 96 218 Q 95 215 98 216 Q 99 213 97 214 Z M 114 214 L 115 216 Q 116 213 114 214 Z M 127 214 L 127 215 L 127 214 Z M 149 214 L 149 215 L 149 214 Z M 177 214 Q 176 216 179 215 L 180 216 Q 181 212 177 214 Z M 119 215 L 118 217 L 119 217 L 119 215 Z M 136 215 Q 135 218 138 217 Q 139 214 136 215 Z M 171 215 L 171 216 L 171 215 Z M 74 216 L 74 218 L 76 217 L 74 216 Z M 82 216 L 82 217 L 82 216 Z M 87 216 Q 85 219 89 218 L 90 220 L 90 217 L 87 216 Z M 103 216 L 101 218 L 103 218 L 103 216 Z M 143 216 L 142 217 Q 139 216 140 219 L 143 218 L 143 216 Z M 158 216 Q 156 219 159 218 L 158 216 Z M 178 216 L 178 217 L 178 216 Z M 81 217 L 80 219 L 81 219 L 81 217 Z M 99 217 L 99 218 L 99 217 Z M 117 217 L 115 219 L 117 221 L 118 218 L 117 217 Z M 123 217 L 123 218 L 124 218 L 123 217 Z M 132 217 L 131 219 L 134 218 L 132 217 Z M 144 217 L 144 219 L 147 219 L 144 217 Z M 153 217 L 153 218 L 153 217 Z M 155 217 L 150 226 L 153 226 L 154 227 L 153 225 L 155 221 L 155 217 Z M 170 217 L 170 218 L 170 217 Z M 74 218 L 74 219 L 74 218 Z M 97 218 L 96 220 L 97 220 L 97 218 Z M 110 218 L 110 219 L 110 218 Z M 135 218 L 135 219 L 135 218 Z M 138 218 L 138 219 L 138 218 Z M 169 218 L 169 219 L 169 218 Z M 189 218 L 189 219 L 189 218 Z M 73 219 L 72 225 L 75 226 L 73 224 L 74 222 L 73 219 Z M 77 219 L 75 221 L 77 221 L 77 219 Z M 102 219 L 102 222 L 104 221 Q 105 218 102 219 Z M 123 219 L 123 220 L 124 220 L 123 219 Z M 133 219 L 132 221 L 134 220 L 133 219 Z M 149 219 L 147 223 L 148 224 L 151 222 L 149 219 Z M 173 219 L 173 220 L 174 220 L 173 219 Z M 295 219 L 295 220 L 295 219 Z M 84 220 L 82 222 Q 81 224 84 223 Q 87 222 84 220 Z M 161 220 L 156 223 L 160 224 L 159 223 L 161 222 L 161 220 Z M 167 220 L 165 222 Q 162 221 163 224 L 166 225 L 167 222 L 167 220 Z M 187 220 L 187 221 L 187 220 Z M 81 221 L 80 223 L 81 223 L 81 221 Z M 87 221 L 86 223 L 87 223 L 87 221 Z M 89 221 L 89 224 L 91 223 L 89 221 Z M 93 221 L 93 222 L 93 221 Z M 115 221 L 115 222 L 115 221 Z M 120 221 L 120 222 L 120 221 Z M 129 221 L 129 222 L 129 221 Z M 173 221 L 173 222 L 173 221 Z M 185 221 L 185 222 L 186 222 L 185 221 Z M 295 221 L 294 223 L 295 223 L 295 221 Z M 77 222 L 77 223 L 77 222 Z M 94 222 L 90 227 L 87 225 L 85 226 L 83 225 L 79 228 Q 80 230 82 228 L 82 231 L 85 231 L 84 229 L 86 228 Q 85 230 88 229 L 90 229 Q 92 230 91 227 L 93 227 L 94 230 L 96 226 L 95 226 L 94 222 Z M 116 222 L 116 223 L 116 222 Z M 122 222 L 122 223 L 122 222 Z M 144 222 L 141 226 L 144 224 L 144 222 Z M 108 223 L 108 226 L 111 226 L 112 224 L 111 224 L 108 223 Z M 139 223 L 139 224 L 139 223 Z M 169 223 L 168 227 L 170 226 L 169 223 Z M 173 223 L 173 224 L 173 223 Z M 181 223 L 181 226 L 183 227 Q 184 222 181 223 Z M 76 224 L 76 225 L 76 224 Z M 78 224 L 80 226 Q 81 223 78 224 Z M 106 224 L 103 226 L 105 226 L 106 227 L 106 224 Z M 131 224 Q 130 227 133 226 L 134 229 L 135 229 Q 137 222 131 224 Z M 155 224 L 155 225 L 155 224 Z M 162 224 L 162 225 L 162 224 Z M 161 225 L 161 226 L 161 225 Z M 77 226 L 77 227 L 77 226 Z M 158 226 Q 157 229 160 228 Q 161 225 158 226 Z M 128 227 L 124 229 Q 125 231 130 230 L 131 232 L 131 230 L 128 227 Z M 151 227 L 151 229 L 153 228 L 151 227 Z M 71 228 L 71 229 L 72 229 L 71 228 Z M 108 228 L 107 231 L 111 231 L 110 230 Q 111 227 108 228 Z M 123 228 L 122 230 L 123 230 L 123 228 Z M 138 228 L 138 229 L 138 228 Z M 145 228 L 145 229 L 145 228 Z M 169 228 L 167 230 L 168 232 Q 172 230 169 228 Z M 175 228 L 175 229 L 176 229 L 175 228 Z M 77 229 L 76 231 L 77 231 L 77 229 Z M 86 229 L 86 230 L 86 229 Z M 101 229 L 99 231 L 100 232 L 102 231 L 103 232 Q 104 228 101 229 Z M 157 229 L 157 230 L 158 230 L 157 229 Z M 174 229 L 174 230 L 174 229 Z M 59 230 L 57 232 L 60 232 Q 61 229 59 230 Z M 63 230 L 62 232 L 63 232 L 63 230 Z M 65 230 L 65 231 L 66 231 L 65 230 Z M 97 230 L 97 231 L 97 230 Z M 106 230 L 104 232 L 106 232 L 106 230 Z M 136 230 L 136 231 L 136 230 Z M 146 230 L 146 231 L 146 230 Z M 153 230 L 150 234 L 143 237 L 142 239 L 151 235 Q 150 232 153 233 Q 156 232 153 230 Z M 162 230 L 162 232 L 161 234 L 163 234 Q 165 233 163 232 Q 164 229 162 230 Z M 73 231 L 73 232 L 73 231 Z M 76 231 L 76 232 L 76 231 Z M 79 231 Q 78 234 74 233 L 70 237 L 74 238 L 73 237 Q 72 234 75 235 L 80 234 Q 81 230 79 231 Z M 90 231 L 88 234 L 90 233 L 90 231 Z M 96 231 L 94 233 L 96 233 L 96 231 Z M 119 231 Q 118 234 121 233 Q 122 230 119 231 Z M 145 231 L 145 232 L 145 231 Z M 150 231 L 150 232 L 150 231 Z M 159 231 L 159 233 L 161 232 L 159 231 Z M 65 232 L 65 234 L 67 233 L 65 232 Z M 70 232 L 69 234 L 70 234 L 70 232 Z M 84 232 L 84 233 L 84 232 Z M 86 232 L 86 233 L 86 232 Z M 107 232 L 107 233 L 108 233 L 107 232 Z M 123 232 L 123 233 L 123 232 Z M 149 232 L 149 233 L 149 232 Z M 291 232 L 291 233 L 291 232 Z M 101 233 L 96 238 L 99 238 L 101 235 L 101 233 Z M 131 233 L 131 234 L 131 233 Z M 108 234 L 108 235 L 108 234 Z M 118 234 L 118 235 L 118 234 Z M 164 234 L 164 235 L 164 234 Z M 64 235 L 63 237 Q 67 238 66 236 L 64 235 Z M 67 235 L 67 237 L 69 236 L 67 235 Z M 106 235 L 105 237 L 107 236 L 106 235 Z M 117 235 L 116 238 L 117 238 L 117 235 Z M 154 235 L 154 238 L 157 236 L 154 235 Z M 163 235 L 163 236 L 163 235 Z M 56 236 L 56 237 L 56 236 Z M 115 236 L 113 239 L 115 238 L 115 236 Z M 151 236 L 148 239 L 151 240 L 152 237 L 151 236 Z M 108 237 L 103 240 L 105 241 Q 102 242 103 246 Q 106 247 105 245 L 104 244 L 108 240 L 108 237 Z M 124 237 L 124 238 L 124 237 Z M 98 239 L 98 240 L 99 240 L 98 239 Z M 102 239 L 102 240 L 102 239 Z M 115 239 L 115 240 L 115 239 Z M 141 239 L 141 240 L 141 239 Z M 148 239 L 148 240 L 148 239 Z M 102 241 L 102 242 L 102 241 Z M 117 241 L 117 242 L 117 241 Z M 101 242 Q 98 243 98 247 L 101 245 L 101 242 Z M 108 243 L 107 245 L 108 245 L 108 243 Z M 143 244 L 141 246 L 142 247 L 149 245 L 149 244 L 145 245 L 143 244 Z M 297 245 L 296 247 L 297 247 L 297 245 Z M 142 247 L 142 249 Q 144 252 145 249 L 142 247 Z M 139 248 L 138 250 L 140 251 L 139 248 Z M 97 249 L 97 250 L 97 249 Z M 298 249 L 298 250 L 298 249 Z M 298 252 L 298 253 L 298 252 Z M 117 254 L 117 255 L 117 254 Z M 122 254 L 120 256 L 121 257 L 124 256 Q 125 253 122 254 Z M 299 254 L 299 255 L 299 254 Z M 299 258 L 299 259 L 299 258 Z M 297 263 L 297 264 L 297 263 Z M 295 279 L 295 280 L 295 279 Z M 295 281 L 293 284 L 295 291 L 295 296 L 297 296 L 295 299 L 297 299 Q 298 302 295 301 Q 293 305 297 304 L 298 304 L 296 307 L 298 307 L 300 307 L 300 309 L 304 310 L 305 310 L 302 308 L 302 305 L 299 299 L 300 297 L 298 297 L 298 293 L 296 292 L 296 290 L 296 286 L 295 281 Z M 307 291 L 306 293 L 307 293 L 307 291 Z M 337 292 L 337 293 L 337 292 Z M 306 293 L 306 294 L 306 293 Z M 307 294 L 307 295 L 307 294 Z M 335 294 L 335 295 L 335 294 Z M 292 296 L 291 301 L 293 300 L 292 296 Z M 328 296 L 328 297 L 328 296 Z M 307 297 L 307 298 L 307 297 Z M 324 297 L 324 298 L 324 297 Z M 308 298 L 307 300 L 308 300 L 308 298 Z M 310 298 L 310 299 L 310 298 Z M 318 298 L 317 300 L 318 300 L 318 298 Z M 309 300 L 309 301 Q 312 300 311 304 L 315 305 L 314 304 Q 315 301 312 302 L 312 300 L 309 300 Z M 333 300 L 332 302 L 334 301 L 333 300 Z M 291 301 L 291 302 L 291 301 Z M 345 301 L 345 302 L 346 302 L 345 301 Z M 346 302 L 346 304 L 348 303 L 346 302 Z M 334 303 L 333 305 L 334 305 L 334 303 Z M 338 304 L 338 305 L 338 304 Z M 316 305 L 316 306 L 316 305 Z M 333 305 L 333 306 L 333 305 Z M 337 305 L 335 307 L 337 307 L 337 305 Z M 330 307 L 330 308 L 330 307 Z "/><path fill="#000000"  stroke="none" opacity="1" d="M 236.5 37 L 240 39.5 Q 240.8 42.1 237.5 41 Q 235 40 236.5 37 Z "/><path fill="#000000"  stroke="none" opacity="1" d="M 223.5 41 L 223.5 42 L 223.5 41 Z "/><path fill="#000000"  stroke="none" opacity="1" d="M 214.5 50 L 214.5 51 L 214.5 50 Z "/><path fill="#000000"  stroke="none" opacity="1" d="M 421.5 53 L 424 53.5 L 421.5 54 L 421.5 53 Z "/><path fill="#000000"  stroke="none" opacity="1" d="M 136.5 137 L 136.5 138 L 136.5 137 Z "/><path fill="#000000"  stroke="none" opacity="1" d="M 149.5 145 L 149.5 146 L 149.5 145 Z "/><path fill="#000000"  stroke="none" opacity="1" d="M 104.5 169 L 104.5 170 L 104.5 169 Z "/><path fill="#000000"  stroke="none" opacity="1" d="M 328.5 169 L 328.5 170 L 328.5 169 Z "/><path fill="#000000"  stroke="none" opacity="1" d="M 274.5 172 L 274.5 173 L 274.5 172 Z "/><path fill="#000000"  stroke="none" opacity="1" d="M 93.5 178 L 94 179.5 L 93 179.5 L 93.5 178 Z "/><path fill="#000000"  stroke="none" opacity="1" d="M 227.5 201 L 227.5 202 L 227.5 201 Z "/><path fill="#000000"  stroke="none" opacity="1" d="M 225.5 203 L 225.5 204 L 225.5 203 Z "/><path fill="#000000"  stroke="none" opacity="1" d="M 286.5 218 L 286.5 219 L 286.5 218 Z "/><path fill="#000000"  stroke="none" opacity="1" d="M 300.5 266 L 300.5 267 L 300.5 266 Z "/><path fill="#000000"  stroke="none" opacity="1" d="M 302.5 269 L 303 270.5 L 302 270.5 L 302.5 269 Z "/><path fill="#000000"  stroke="none" opacity="1" d="M 328.5 286 L 329 290 Q 326.3 291.1 327 288.5 L 328.5 286 Z "/><path fill="#000000"  stroke="none" opacity="1" d="M 332.5 286 L 332 287.5 L 331.5 290 L 331 287.5 L 332.5 286 Z "/><path fill="#000000"  stroke="none" opacity="1" d="M 320.5 290 L 320.5 291 L 320.5 290 Z "/><path fill="#000000"  stroke="none" opacity="1" d="M 284.5 307 L 286 307.5 L 284.5 308 L 284.5 307 Z "/><path fill="#000000"  stroke="none" opacity="1" d="M 257.5 309 L 257.5 310 L 257.5 309 Z "/><path fill="#000000"  stroke="none" opacity="1" d="M 316.5 312 L 319 313.5 L 317.5 314 L 316.5 312 Z "/><path fill="#000000"  stroke="none" opacity="1" d="M 320.5 314 L 322 314.5 L 320.5 315 L 320.5 314 Z "/></svg>