<svg viewBox="0 0 247 256" version="1.1" xmlns="http://www.w3.org/2000/svg"><path fill="#000000"  stroke="none" opacity="1" d="M 167.5 6 L 175.5 6 L 177 7.5 L 176 20.5 Q 172 23.5 172 30.5 L 163 39.5 L 162 46.5 L 158.5 50 L 154 53.5 L 152 60.5 L 159.5 66 L 169.5 61 L 186.5 56 L 204.5 55 L 210 58.5 L 207.5 57 L 185.5 58 L 180.5 61 L 170.5 64 L 168.5 63 L 168.5 65 L 166 64 L 165.5 66 L 164 65.5 L 163.5 67 L 161.5 67 Q 158.9 66.2 160 69.5 L 157 74 L 154.5 74 L 147 80.5 L 144.5 85 L 143 85.5 L 143.5 87 L 141.5 86 Q 138.5 86.5 139 90.5 L 139.5 92 Q 138.3 89.8 137 92.5 L 142 95.5 L 140.5 96 L 135.5 93 L 131 98.5 L 131.5 100 L 129.5 97 L 131 97.5 Q 131.8 95.3 129.5 96 L 130 94.5 L 129.5 93 L 128 93.5 Q 130.3 92.3 127.5 91 L 127 95.5 L 128 99.5 L 127 99.5 L 125.5 94 L 124 96.5 Q 127.3 98 126 103 L 130.5 101 L 132.5 102 L 134.5 101 L 143.5 106 L 147.5 101 L 158 92.5 L 155 88.5 L 159.5 92 L 162.5 89 L 171 85.5 L 165.5 79 L 171.5 85 L 173.5 83 L 180.5 82 L 193 75.5 L 190 72.5 L 191 71.5 L 189.5 69 L 195 73.5 L 192.5 72 L 191 72.5 Q 191.5 76.5 196.5 76 L 207 74 L 204 69.5 L 207.5 72 Q 209.8 72.8 209 70.5 L 215 66 L 211 59.5 L 213 60.5 L 216 65.5 L 212 68.5 L 209 74 Q 206.1 76.9 198.5 76 L 180 84 Q 178.9 86.7 181.5 86 L 187.5 91 L 198.5 89 L 211.5 89 L 227.5 94 L 241 104.5 L 244 114 Q 239.8 117 230.5 116 L 227.5 114 L 213.5 114 L 209.5 112 L 193.5 111 L 193.5 112 L 202 115 L 209 126.5 L 209 129 L 199.5 130 L 196.5 129 L 196.5 131 Q 191.8 133.3 183.5 132 L 180.5 127 L 180 130.5 L 181.5 133 L 174.5 134 L 171.5 133 L 170 136 L 161.5 136 L 154.5 139 L 151.5 142 L 147.5 142 L 144.5 141 L 143 144 L 135.5 143 L 132 145.5 L 136.5 155 L 137 151 L 146.5 155 L 150 153 L 151 156.5 L 150 158.5 L 152 157.5 L 153.5 155 L 156 158.5 L 151.5 165 L 150 165.5 L 153 167.5 Q 150.3 169.8 151 175.5 L 154 176.5 L 153 180.5 L 155 182.5 L 156 188 Q 159 186.8 158 190.5 L 158 192.5 L 157 198.5 L 154.5 201 L 145 203 L 146 222 L 149 223.5 Q 146.8 224.8 148 229.5 L 145.5 233 L 142 231.5 L 139.5 225 L 139 227 Q 136.3 228.1 137 225.5 L 143 220.5 Q 144.2 210.2 142 205 L 133.5 205 L 132 203.5 L 130.5 201 Q 127.9 201.8 129 198.5 L 129 196.5 L 131 192.5 L 128 188 L 125.5 189 L 124 186 L 122 186.5 L 123 187.5 L 123 199.5 L 122 204.5 L 122 206.5 L 124 218.5 Q 121.5 220 123 225.5 L 125 229.5 Q 121.8 230.8 123 236.5 Q 125.3 237.7 124 242.5 L 128 248.5 L 128 251.5 L 126.5 251 Q 120.7 253.1 122 248.5 L 120 249.5 L 121 251.5 L 119 252 L 120 248.5 L 117 248 Q 118.3 243.9 115 245 L 117 253 Q 114.3 254.1 115 251.5 L 113 251.5 L 112.5 248 L 110.5 252 L 108.5 251 L 107 251.5 L 109 248.5 L 107.5 246 L 104.5 252 L 102.5 249 L 101.5 251 L 98.5 249 L 94.5 250 L 92 249 Q 91 246 94 247 Q 92.9 249.7 95.5 249 Q 97 245.5 98.5 248 L 102 246.5 L 102 242.5 Q 101.4 237.1 103 235 Q 105.7 236.1 105 233.5 L 103 223.5 Q 105.8 221.8 105 216.5 L 103 211.5 L 105 208.5 L 104 203.5 L 105 202.5 L 105 193.5 L 103 190.5 L 106 185.5 L 106 169.5 Q 103.3 170.1 104 167 Q 107.3 168.3 106 163.5 L 107 158.5 L 103.5 153 L 101 154 L 101 150 Q 105.1 151.7 104 147.5 Q 102.6 144.8 98 146 L 97.5 144 L 95.5 147 Q 94.3 144.8 93 147.5 Q 93.8 149.8 91.5 149 L 88.5 150 Q 87 147.5 85.5 151 L 77.5 155 L 78 153.5 Q 77.3 151.3 79.5 152 L 83.5 151 L 86 148.5 Q 83.8 147.3 85 142.5 L 87 143.5 L 86 147.5 L 87 147.5 L 88 139.5 L 87 139.5 L 86.5 141 L 86 139.5 Q 87.5 136.5 89 139.5 L 89 148 L 92 148 L 94.5 139 L 95.5 145 L 96 137.5 L 92 132.5 L 99 138.5 L 99.5 144 L 101 136.5 L 100 131.5 L 96 125.5 L 97.5 125 L 99.5 126 L 99.5 124 Q 104.8 126.2 105 133.5 L 104 133.5 L 103.5 131 L 103 135.5 L 104.5 139 L 106.5 132 L 108 132.5 L 105 125.5 L 107 125.5 L 107.5 124 L 108 126 L 110 125.5 L 109 123.5 L 110 120.5 L 108 119.5 L 107.5 123 L 106.5 122 L 95.5 122 L 81 133.5 L 75.5 150 L 74 142.5 L 75 137.5 L 79.5 131 L 81 130.5 Q 79.8 127.8 74.5 129 L 67.5 131 Q 65.3 130.3 66 126.5 L 68 122 L 62 119.5 L 61.5 118 Q 58.9 121.4 51.5 120 L 48.5 118 L 43.5 121 L 30.5 122 L 28.5 121 L 23.5 124 L 17.5 124 L 11.5 126 L 5 125 L 6 121 L 3 119.5 L 10.5 108 L 23.5 102 L 40.5 98 L 48 97.5 L 47 94.5 L 52 92 Q 53.4 88.3 47.5 90 Q 46.3 87.8 41.5 89 L 39 86.5 L 39.5 85 Q 35.7 87.7 27.5 86 L 12 78.5 Q 11.5 73.5 15.5 73 L 23.5 69 L 48.5 69 L 70.5 76 L 68 72.5 Q 65.9 65.1 60.5 61 L 58 59.5 L 56 54.5 L 52 50.5 L 51 46.5 L 53.5 45 L 53.5 46 Q 50.9 45.2 52 48.5 L 53 51 L 57 53.5 L 58 57.5 L 67 66.5 L 72.5 76 L 77.5 74 L 77.5 75 L 74 77.5 L 85.5 83 L 89.5 81 L 89.5 82 L 87 83.5 L 89.5 84 Q 92.5 82.5 91 76.5 L 87.5 70 L 86 70.5 L 87 69.5 L 80.5 63 L 71 54.5 L 75.5 58 L 83.5 64 L 85 63.5 Q 82.3 65.3 86.5 67 L 87 64.5 L 83.5 59 L 71.5 50 L 62.5 47 L 62.5 49 L 55 46 L 55.5 44 L 58.5 46 L 68.5 47 L 76.5 52 L 77 50.5 L 75 46.5 L 75.5 45 L 71.5 44 L 63 36.5 L 60 31.5 Q 62.3 30.3 59.5 29 Q 51.5 27.9 49 21.5 Q 48.3 17.8 50.5 17 Q 55.5 14 64.5 15 L 71.5 17 L 83 26 L 97 45.5 L 100.5 53 L 102 47.5 L 101 46.5 L 101 38.5 L 102 36 L 105 37.5 L 108.5 49 L 112 40.5 L 118.5 33 L 125.5 34 Q 126.7 31.8 131.5 33 L 133.5 34 L 138 32 Q 139.1 25.4 144.5 22 L 158.5 11 L 167.5 6 Z M 170 7 L 159 13 L 145 24 Q 140 27 139 33 L 136 34 Q 132 36 133 44 L 126 52 L 122 66 L 119 70 L 120 72 L 118 72 L 119 74 L 119 75 L 118 73 L 116 76 L 117 78 L 117 76 L 119 77 Q 113 83 110 94 L 112 100 L 112 96 L 113 96 Q 114 102 110 105 L 111 108 L 115 102 L 114 99 L 115 99 Q 114 102 117 101 Q 118 97 115 95 L 116 90 L 117 94 L 118 91 L 119 95 L 121 93 Q 120 88 122 87 L 121 85 L 123 82 L 124 82 L 123 88 L 127 87 L 126 86 L 124 87 L 125 82 Q 130 78 132 71 L 133 79 Q 137 77 134 76 L 134 73 L 138 66 L 139 68 L 140 65 L 142 64 L 138 73 L 138 72 L 138 68 L 135 76 L 138 74 L 140 76 L 145 73 L 144 72 L 146 63 L 148 60 L 134 64 L 122 75 L 125 71 Q 128 69 126 68 L 129 66 L 128 65 L 132 58 L 131 55 L 129 51 Q 131 50 130 53 L 134 55 L 137 48 L 142 43 Q 143 45 144 43 L 143 41 L 146 37 L 150 34 L 157 24 L 159 23 L 152 33 L 149 35 L 148 38 L 149 40 L 148 39 L 133 62 L 133 63 Q 134 60 139 61 L 139 60 Q 135 61 136 58 L 141 58 L 139 57 L 139 56 Q 142 57 141 54 L 147 56 L 141 57 L 149 58 L 140 59 L 140 60 L 151 59 Q 151 55 154 53 Q 153 50 156 51 L 161 46 L 161 40 L 171 29 L 171 26 L 175 20 L 176 9 Q 175 6 170 7 Z M 60 16 L 50 20 L 51 22 L 59 28 Q 63 27 62 30 L 68 28 L 69 29 L 61 32 L 62 34 L 73 43 L 76 44 Q 80 45 82 43 L 83 44 L 77 46 L 80 55 L 86 60 L 87 59 L 88 60 L 86 60 L 88 64 L 93 82 L 96 86 L 94 86 L 95 89 Q 94 91 97 90 L 98 87 L 106 87 L 106 86 L 106 84 L 103 72 L 103 63 L 94 44 L 91 42 L 89 38 L 78 27 L 77 24 L 70 18 L 60 16 Z M 81 26 L 81 27 L 81 26 Z M 82 27 L 82 28 L 82 27 Z M 83 28 L 83 29 L 83 28 Z M 84 30 L 84 31 L 84 30 Z M 85 31 L 85 32 L 85 31 Z M 120 34 L 113 42 L 109 51 L 114 71 L 114 70 L 117 71 L 115 68 L 116 66 L 116 68 L 117 68 L 116 64 L 118 62 L 119 54 L 119 62 L 118 65 L 119 68 L 120 65 L 120 63 L 122 61 L 124 52 L 126 50 L 124 49 L 128 48 L 132 42 L 131 40 L 133 36 L 130 34 L 128 35 L 120 34 Z M 104 38 L 103 56 L 104 58 L 109 61 L 109 56 L 107 56 L 104 51 L 106 51 L 104 47 L 106 47 L 104 38 Z M 146 39 L 146 40 L 146 39 Z M 145 40 L 145 41 L 145 40 Z M 142 44 L 140 47 L 142 46 L 142 44 Z M 140 47 L 140 48 L 140 47 Z M 139 48 L 138 50 L 139 50 L 139 48 Z M 138 50 L 137 52 L 138 52 L 138 50 Z M 107 51 L 107 52 L 107 51 Z M 78 52 L 78 53 L 78 52 Z M 137 52 L 135 55 L 137 54 L 137 52 Z M 135 55 L 134 57 L 135 57 L 135 55 Z M 134 57 L 134 58 L 134 57 Z M 133 58 L 132 60 L 133 60 L 133 58 Z M 104 59 L 103 61 L 104 61 L 104 59 Z M 106 60 L 105 62 L 109 64 L 109 65 L 104 63 Q 103 71 106 76 L 110 79 L 109 82 L 111 83 Q 113 77 110 76 Q 109 70 111 69 L 110 61 L 109 63 L 106 60 Z M 132 60 L 132 61 L 132 60 Z M 150 60 Q 146 62 146 67 L 146 69 L 147 73 L 147 70 L 148 70 Q 147 73 150 72 L 153 65 L 150 60 Z M 131 62 Q 129 65 132 64 L 131 62 Z M 172 62 L 172 63 L 172 62 Z M 130 64 L 130 65 L 130 64 Z M 156 65 L 156 69 Q 155 71 158 70 Q 159 66 156 65 Z M 88 67 L 88 68 L 88 67 Z M 153 68 L 153 74 L 155 73 L 153 68 Z M 112 69 L 111 73 L 112 73 L 112 69 Z M 26 70 L 18 73 L 13 79 L 31 85 L 33 85 Q 38 86 41 83 L 43 80 L 40 81 L 42 78 L 44 77 L 43 79 L 45 78 L 46 79 Q 41 82 41 88 L 53 89 L 54 89 L 53 91 Q 54 93 60 92 Q 58 90 63 87 L 60 91 L 62 91 L 64 90 L 63 92 Q 62 94 65 93 Q 69 91 66 90 L 72 84 L 73 85 L 75 84 Q 73 88 72 85 Q 67 87 70 89 L 64 95 Q 67 99 75 98 L 81 93 L 78 97 L 73 101 L 77 103 L 87 106 L 89 103 L 91 102 L 86 108 L 92 110 L 93 108 L 93 110 L 98 112 L 99 110 L 100 110 L 97 114 L 99 116 L 101 115 Q 102 117 103 115 L 101 114 Q 100 109 103 107 L 103 104 L 102 106 L 100 107 L 101 105 L 104 103 L 103 102 L 104 99 L 100 96 L 98 97 Q 99 95 96 94 L 97 93 L 87 86 L 87 88 L 82 86 L 84 85 L 70 77 L 67 78 L 65 78 L 67 77 L 45 70 L 26 70 Z M 156 71 L 156 72 L 156 71 Z M 116 72 L 115 74 L 116 74 L 116 72 Z M 115 74 L 115 75 L 115 74 Z M 146 74 L 145 76 L 146 76 L 146 74 Z M 148 74 L 148 75 L 148 74 Z M 150 74 L 150 75 L 150 74 Z M 152 74 L 152 75 L 152 74 Z M 144 75 L 143 77 L 144 77 L 144 75 Z M 151 75 L 151 76 L 151 75 Z M 115 76 L 115 77 L 115 76 Z M 139 76 L 138 78 L 139 78 L 139 76 Z M 142 76 L 142 77 L 142 76 Z M 149 76 L 149 77 L 149 76 Z M 107 77 L 107 78 L 107 77 Z M 137 77 L 137 78 L 137 77 Z M 147 77 L 146 79 L 147 79 L 147 77 Z M 108 78 Q 106 81 109 80 L 108 78 Z M 116 78 L 116 79 L 116 78 Z M 136 78 L 131 89 L 132 93 L 134 86 L 135 92 L 138 90 Q 139 87 137 88 Q 134 87 136 86 L 136 78 Z M 140 78 L 139 81 L 140 81 L 140 78 Z M 143 78 L 142 80 L 143 80 L 143 78 Z M 132 79 L 132 82 Q 135 81 132 79 Z M 108 81 L 107 83 L 110 84 L 108 81 Z M 130 81 L 128 84 L 130 83 L 130 81 Z M 141 81 L 141 82 L 141 81 Z M 144 81 Q 144 84 142 83 L 141 85 L 144 84 Q 147 83 144 81 Z M 92 83 L 91 86 L 92 86 L 92 83 Z M 132 83 L 130 85 L 131 87 L 132 85 L 132 83 Z M 41 84 L 41 85 L 41 84 Z M 111 84 L 111 85 L 111 84 Z M 139 84 L 138 87 L 139 87 L 139 84 Z M 175 84 L 175 85 L 175 84 Z M 177 84 L 177 85 L 177 84 Z M 85 85 L 85 86 L 86 86 L 85 85 Z M 109 85 L 109 86 L 109 85 Z M 112 85 L 112 86 L 112 85 Z M 109 86 L 109 88 L 111 89 Q 112 85 109 86 Z M 176 86 L 169 91 Q 170 94 174 93 L 172 91 L 176 93 L 185 91 L 179 86 L 176 86 Z M 107 87 L 99 89 L 98 92 L 104 96 L 106 95 L 105 97 L 107 98 L 107 87 Z M 129 87 L 127 89 Q 129 92 130 89 Q 131 86 129 87 Z M 69 88 L 69 89 L 69 88 Z M 68 89 L 68 90 L 68 89 Z M 125 89 L 125 90 L 125 89 Z M 127 89 L 126 91 L 127 91 L 127 89 Z M 167 89 L 167 90 L 167 89 Z M 98 90 L 98 91 L 98 90 Z M 110 90 L 110 91 L 110 90 Z M 124 90 L 124 91 L 124 90 Z M 109 91 L 109 92 L 109 91 Z M 134 91 L 133 93 L 134 93 L 134 91 Z M 168 91 L 168 94 L 171 94 L 168 91 Z M 195 91 L 193 93 L 191 92 L 184 94 L 181 93 L 172 97 L 169 96 L 168 98 L 166 97 L 166 99 L 152 105 L 156 110 L 156 111 L 152 105 L 145 108 L 146 110 L 150 112 L 149 111 L 148 113 Q 149 115 151 113 L 151 115 Q 153 114 152 117 L 174 110 Q 179 112 178 109 L 178 107 L 179 110 Q 182 111 181 107 Q 184 106 183 110 L 185 110 L 183 105 L 184 103 L 186 111 L 188 110 L 192 111 L 197 110 L 194 102 L 195 100 L 197 108 L 205 111 Q 212 110 215 113 L 226 112 L 227 113 L 226 110 L 227 108 L 226 106 L 227 102 L 228 111 Q 231 112 229 114 L 234 115 L 241 114 L 242 113 L 239 105 Q 233 97 224 94 L 212 91 L 201 91 L 200 92 L 195 91 Z M 161 92 L 161 93 L 161 92 Z M 167 92 L 167 93 L 167 92 Z M 52 93 Q 52 97 54 94 L 52 93 Z M 61 93 L 60 95 Q 59 97 58 95 L 56 98 L 59 98 L 62 95 L 61 93 Z M 98 93 L 98 94 L 98 93 Z M 133 93 L 133 94 L 133 93 Z M 165 93 L 166 95 L 167 95 L 165 93 Z M 48 94 L 48 96 L 51 95 L 48 94 Z M 57 94 L 57 95 L 57 94 Z M 59 94 L 59 95 L 59 94 Z M 99 94 L 99 95 L 100 95 L 99 94 Z M 122 94 L 122 95 L 122 94 Z M 163 94 Q 160 96 163 97 L 165 96 L 163 94 Z M 52 95 L 52 96 L 52 95 Z M 54 95 L 54 96 L 54 95 Z M 56 95 L 56 96 L 56 95 Z M 101 95 L 101 96 L 101 95 Z M 157 95 L 157 96 L 158 96 L 157 95 Z M 51 96 L 51 97 L 51 96 Z M 53 96 L 53 97 L 53 96 Z M 55 96 L 55 97 L 55 96 Z M 63 96 L 63 97 L 63 96 Z M 102 96 L 102 97 L 102 96 Z M 120 96 L 120 97 L 120 96 Z M 161 96 L 161 97 L 161 96 Z M 52 97 L 52 98 L 52 97 Z M 65 97 L 65 98 L 65 97 Z M 103 97 L 103 98 L 104 98 L 103 97 Z M 123 97 L 122 99 L 123 99 L 123 97 Z M 160 97 L 160 98 L 160 97 Z M 105 98 L 105 99 L 105 98 Z M 120 98 L 120 99 L 120 98 Z M 163 98 L 163 99 L 164 99 L 163 98 Z M 47 99 L 26 103 L 13 108 L 9 112 L 7 123 L 7 124 L 23 123 L 29 120 Q 28 117 31 118 L 32 116 L 33 116 L 32 120 L 32 121 L 46 119 Q 48 118 46 117 L 48 117 L 49 113 Q 47 107 51 108 L 50 111 L 51 114 L 50 118 Q 52 121 58 119 L 58 117 L 60 118 L 64 115 L 63 120 L 71 121 L 74 116 L 76 115 L 75 117 Q 76 120 74 119 L 75 121 L 79 120 L 78 122 L 84 123 L 86 122 Q 92 123 91 121 L 89 121 L 91 117 L 89 116 L 88 121 L 87 121 L 88 115 L 92 115 L 92 113 L 91 113 L 91 111 L 88 113 L 88 112 Q 89 109 87 110 L 85 108 L 72 101 Q 65 102 62 99 L 47 99 Z M 106 99 L 106 100 L 106 99 Z M 111 100 L 111 101 L 111 100 Z M 120 100 L 119 103 L 120 103 L 120 100 Z M 157 100 L 157 101 L 158 101 L 157 100 Z M 106 101 L 103 109 L 104 110 L 105 108 L 106 105 L 106 101 Z M 124 101 L 122 103 L 123 106 L 124 106 L 124 101 Z M 154 101 L 154 102 L 156 102 L 154 101 Z M 152 102 L 152 103 L 153 103 L 152 102 Z M 130 103 L 127 105 L 123 109 L 122 113 L 123 115 L 124 112 L 126 111 L 124 114 L 124 123 L 126 123 L 128 119 L 127 114 Q 127 107 131 104 L 130 103 Z M 133 103 Q 130 104 132 106 L 132 107 L 131 105 L 129 108 L 130 111 L 129 121 L 127 123 L 129 127 Q 128 122 131 120 L 133 121 Q 132 123 136 122 L 137 114 L 138 118 L 139 113 L 140 119 L 139 118 L 138 122 L 141 121 Q 143 120 142 123 L 144 122 L 143 113 L 141 109 Q 139 104 133 103 Z M 151 103 L 151 104 L 151 103 Z M 119 104 L 118 106 L 119 106 L 119 104 Z M 117 105 L 117 106 L 117 105 Z M 121 106 L 120 108 L 121 108 L 121 106 Z M 123 106 L 123 107 L 123 106 Z M 116 107 L 115 109 L 116 109 L 116 107 Z M 143 107 L 143 108 L 143 107 Z M 109 108 L 108 112 L 109 112 L 109 108 Z M 144 108 L 144 109 L 144 108 Z M 119 109 L 119 110 L 119 109 Z M 122 109 L 116 117 L 118 117 L 115 123 L 116 126 L 116 125 L 119 123 Q 118 115 122 112 L 122 109 Z M 145 109 L 145 110 L 145 109 Z M 111 110 L 111 111 L 111 110 Z M 116 110 L 115 112 L 116 112 L 116 110 Z M 118 110 L 118 111 L 118 110 Z M 146 110 L 146 111 L 146 110 Z M 105 111 L 105 112 L 105 111 Z M 145 111 L 145 115 Q 144 121 147 120 L 148 121 Q 148 114 145 111 Z M 181 111 L 171 113 L 168 115 L 166 114 L 164 115 Q 160 114 161 117 L 155 120 L 155 119 L 154 118 Q 151 119 153 121 L 132 135 L 134 135 L 135 135 Q 131 136 132 142 L 131 142 L 132 136 L 129 138 L 131 145 L 138 141 L 140 142 Q 141 138 138 139 L 139 136 L 140 138 L 141 136 L 143 141 L 147 139 L 151 141 Q 153 140 151 139 L 152 132 L 153 139 L 162 134 L 168 135 Q 170 134 168 133 L 170 133 L 172 132 L 172 124 L 174 117 L 175 117 L 173 132 L 176 133 Q 179 134 180 132 L 178 129 L 180 125 L 182 129 L 185 131 L 184 129 L 185 127 L 187 130 L 195 130 L 193 129 L 191 124 L 193 124 L 192 122 L 193 119 L 195 125 L 202 129 L 207 128 L 201 116 L 191 112 Q 184 113 181 111 Z M 104 112 L 103 114 L 104 114 L 104 112 Z M 112 112 L 111 114 L 112 114 L 112 112 Z M 129 112 L 129 113 L 129 112 Z M 229 112 L 229 113 L 229 112 Z M 50 113 L 49 115 L 50 115 L 50 113 Z M 107 113 L 107 114 L 107 113 Z M 109 114 L 108 117 L 109 117 L 109 114 Z M 115 114 L 114 116 L 115 116 L 115 114 Z M 149 114 L 148 116 L 149 116 L 149 114 Z M 96 115 L 92 122 L 94 122 L 96 117 L 96 115 Z M 105 115 L 105 116 L 105 115 Z M 7 116 L 7 117 L 7 116 Z M 93 116 L 93 117 L 93 116 Z M 122 116 L 120 118 L 121 124 L 123 123 L 122 116 Z M 150 116 L 150 117 L 150 116 Z M 159 116 L 159 117 L 159 116 Z M 6 117 L 6 118 L 6 117 Z M 92 117 L 91 120 L 92 120 L 92 117 Z M 98 117 L 98 118 L 98 117 Z M 152 117 L 152 118 L 152 117 Z M 156 117 L 156 118 L 157 118 L 156 117 Z M 97 119 L 97 120 L 97 119 Z M 101 119 L 101 120 L 101 119 Z M 106 120 L 106 121 L 106 120 Z M 151 120 L 151 121 L 151 120 Z M 74 121 L 71 123 Q 73 126 74 123 L 74 121 Z M 76 122 L 73 127 L 74 128 L 76 127 L 75 126 Q 74 123 77 124 L 76 122 Z M 92 122 L 92 123 L 92 122 Z M 147 122 L 147 123 L 147 122 Z M 80 123 L 81 126 L 83 126 L 80 123 Z M 112 123 L 111 125 L 112 125 L 112 123 Z M 120 123 L 120 124 L 120 123 Z M 145 123 L 145 124 L 146 124 L 145 123 Z M 70 124 L 70 125 L 70 124 Z M 72 124 L 71 126 L 72 126 L 72 124 Z M 89 124 L 89 125 L 89 124 Z M 114 124 L 113 127 L 114 127 L 114 124 Z M 119 124 L 119 125 L 119 124 Z M 134 124 L 134 125 L 134 124 Z M 143 124 L 134 130 L 135 131 L 144 125 L 143 124 Z M 79 125 L 79 126 L 79 125 Z M 123 125 L 122 130 L 123 130 L 123 125 Z M 126 125 L 125 128 L 126 128 L 126 125 Z M 135 125 L 134 127 L 135 127 L 135 125 Z M 86 126 L 86 127 L 86 126 Z M 101 126 L 100 128 L 102 129 L 101 126 Z M 111 126 L 110 128 L 111 128 L 111 126 Z M 120 126 L 119 131 L 120 131 L 120 126 Z M 132 126 L 132 127 L 132 126 Z M 194 126 L 194 127 L 194 126 Z M 68 127 L 67 129 L 68 129 L 68 127 Z M 70 127 Q 68 130 71 129 L 70 127 Z M 72 127 L 72 128 L 72 127 Z M 118 127 L 117 133 L 118 133 L 118 127 Z M 133 127 L 131 129 L 133 129 L 133 127 Z M 195 127 L 195 128 L 195 127 Z M 112 128 L 112 129 L 112 128 Z M 196 128 L 196 129 L 196 128 Z M 103 129 L 102 131 L 103 131 L 103 129 Z M 113 129 L 113 133 L 114 133 L 113 129 Z M 131 129 L 131 130 L 131 129 Z M 124 130 L 123 132 L 124 132 L 124 130 Z M 133 130 L 128 136 L 130 136 L 133 132 L 133 130 Z M 122 132 L 121 135 L 122 135 L 122 132 Z M 128 132 L 128 133 L 128 132 Z M 109 133 L 108 136 L 109 136 L 109 133 Z M 112 133 L 112 134 L 112 133 Z M 116 133 L 115 135 L 116 135 L 116 133 Z M 102 134 L 102 135 L 102 134 Z M 79 135 L 79 136 L 79 135 Z M 107 135 L 106 139 L 107 139 L 107 135 Z M 119 135 L 119 136 L 119 135 Z M 125 135 L 125 136 L 125 135 Z M 110 136 L 109 141 L 110 141 L 110 136 Z M 115 136 L 114 139 L 117 139 L 117 137 L 115 136 Z M 120 136 L 120 137 L 120 136 Z M 123 136 L 120 140 L 123 138 L 123 136 Z M 128 136 L 126 139 L 128 138 L 128 136 Z M 78 137 L 78 138 L 78 137 Z M 106 139 L 105 143 L 108 144 Q 109 140 106 141 L 106 139 Z M 125 139 L 124 141 L 125 141 L 125 139 Z M 129 139 L 127 141 L 128 145 L 129 145 L 129 139 Z M 102 140 Q 101 143 104 142 Q 105 139 102 140 Z M 120 140 L 120 141 L 120 140 Z M 122 141 L 121 143 L 122 143 L 122 141 Z M 142 141 L 142 142 L 142 141 Z M 76 142 L 75 145 L 76 145 L 76 142 Z M 115 142 L 115 143 L 115 142 Z M 126 142 L 126 143 L 126 142 Z M 111 143 L 109 145 L 111 145 L 111 143 Z M 116 143 Q 115 146 118 145 Q 119 142 116 143 Z M 120 144 L 120 145 L 120 144 Z M 125 144 L 125 145 L 125 144 Z M 105 145 L 105 146 L 106 146 L 105 145 Z M 119 146 L 116 150 L 119 149 L 119 146 Z M 126 146 L 126 147 L 127 147 L 126 146 Z M 131 146 L 131 147 L 131 146 Z M 114 147 L 114 148 L 114 147 Z M 106 148 L 106 149 L 106 148 Z M 128 148 L 125 149 L 122 153 Q 121 155 124 154 Q 125 158 122 161 L 124 161 L 125 163 L 127 160 L 132 157 L 130 150 L 128 148 Z M 132 148 L 131 150 L 132 150 L 132 148 Z M 109 149 L 108 151 L 109 151 L 109 149 Z M 112 150 L 112 151 L 112 150 Z M 115 150 L 115 151 L 115 150 Z M 133 150 L 132 152 L 133 152 L 133 150 Z M 103 151 L 103 152 L 103 151 Z M 119 151 L 119 152 L 119 151 Z M 116 152 L 116 153 L 117 153 L 116 152 Z M 134 152 L 133 156 L 134 156 L 134 152 Z M 115 153 L 115 154 L 115 153 Z M 118 153 L 116 155 Q 118 156 117 161 L 117 163 L 116 165 L 118 165 Q 117 159 120 158 L 118 153 Z M 139 153 L 139 155 L 139 158 L 143 160 L 141 155 L 139 153 Z M 149 154 L 147 158 L 149 159 L 149 154 Z M 108 155 L 107 157 L 108 157 L 108 155 Z M 136 155 L 135 160 L 137 159 L 136 155 Z M 144 155 L 144 159 L 146 160 Q 147 156 144 155 Z M 115 156 L 115 157 L 115 156 Z M 154 156 L 152 159 Q 153 161 150 160 L 150 164 L 152 164 L 154 161 L 154 156 Z M 114 157 L 114 158 L 114 157 Z M 115 158 L 115 159 L 115 158 Z M 132 158 Q 130 161 133 160 L 132 158 Z M 139 158 L 137 162 L 139 162 L 140 163 Q 141 159 139 158 Z M 110 159 L 110 161 L 112 160 L 110 159 Z M 115 160 L 114 162 L 115 162 L 115 160 Z M 133 160 L 134 165 L 136 166 L 135 162 Q 136 159 133 160 Z M 137 160 L 137 161 L 137 160 Z M 148 160 L 146 163 L 146 165 Q 145 167 148 166 L 149 164 L 148 160 Z M 131 161 L 130 164 L 133 165 L 131 161 Z M 143 161 L 142 166 L 144 165 L 143 161 Z M 145 161 L 145 162 L 145 161 Z M 111 162 L 110 164 L 111 164 L 111 162 Z M 114 162 L 114 163 L 114 162 Z M 116 162 L 116 163 L 116 162 Z M 121 162 L 121 163 L 121 162 Z M 127 162 L 126 165 L 128 166 L 127 162 Z M 115 163 L 114 165 L 115 165 L 115 163 Z M 141 163 L 141 164 L 141 163 Z M 124 164 L 124 167 Q 127 166 124 164 Z M 139 164 L 137 167 Q 139 170 140 167 L 139 164 Z M 109 166 L 108 169 L 109 169 L 109 166 Z M 117 166 L 117 167 L 117 166 Z M 119 166 L 119 167 L 119 166 Z M 132 166 L 132 168 Q 135 167 134 170 L 137 170 L 137 169 L 132 166 Z M 142 166 L 141 168 L 142 168 L 142 166 Z M 112 167 L 112 168 L 112 167 Z M 121 167 L 121 168 L 121 167 Z M 123 167 L 122 181 Q 122 182 127 181 L 128 182 Q 127 179 130 180 L 129 174 L 123 172 L 123 167 Z M 126 167 L 125 169 L 127 170 L 126 167 Z M 129 167 L 128 169 L 131 170 L 131 168 L 129 167 Z M 144 167 L 143 169 L 144 169 L 144 167 Z M 149 167 L 149 168 L 149 167 Z M 152 167 L 151 169 L 152 169 L 152 167 Z M 114 168 L 114 169 L 114 168 Z M 120 168 L 120 169 L 120 168 Z M 111 169 L 111 170 L 111 169 Z M 113 169 L 111 171 L 112 173 L 113 173 L 113 169 Z M 118 169 L 118 170 L 119 170 L 118 169 Z M 149 169 L 149 170 L 149 169 Z M 151 169 L 150 171 L 151 171 L 151 169 Z M 116 170 L 116 176 L 118 175 L 114 180 L 116 180 L 115 182 L 116 185 L 119 179 L 119 182 L 120 182 L 119 173 L 116 170 Z M 128 170 L 128 171 L 129 171 L 128 170 Z M 142 170 L 141 172 L 142 172 L 142 170 Z M 145 170 L 145 171 L 145 170 Z M 147 170 L 146 172 L 145 174 L 147 173 L 147 170 Z M 150 171 L 150 172 L 150 171 Z M 129 172 L 129 173 L 129 172 Z M 131 172 L 131 173 L 131 172 Z M 136 173 L 136 174 L 136 173 Z M 115 174 L 113 178 L 115 178 L 115 174 Z M 134 174 L 134 175 L 134 174 Z M 135 175 L 135 176 L 135 175 Z M 142 175 L 142 176 L 142 175 Z M 147 175 L 147 176 L 147 175 Z M 131 176 L 131 177 L 132 177 L 131 176 Z M 145 176 L 144 179 L 145 179 L 145 176 Z M 150 176 L 148 179 L 150 178 L 150 176 Z M 137 178 L 137 179 L 137 178 Z M 139 178 Q 137 181 140 180 L 139 178 Z M 142 178 L 141 180 L 142 180 L 142 178 Z M 153 178 L 150 182 L 153 180 L 153 178 Z M 133 179 L 133 180 L 133 179 Z M 112 180 L 112 181 L 112 180 Z M 134 180 L 135 182 Q 136 179 134 180 Z M 149 180 L 148 182 L 149 182 L 149 180 Z M 113 181 L 113 182 L 113 181 Z M 122 181 L 121 183 L 124 184 L 122 181 Z M 131 181 Q 129 184 132 183 L 131 181 Z M 138 181 L 138 182 L 138 181 Z M 143 181 L 143 184 L 145 183 L 143 181 Z M 119 182 L 118 184 L 119 184 L 119 182 Z M 127 182 L 126 186 L 127 186 L 127 182 Z M 134 182 L 134 183 L 134 182 Z M 140 182 L 140 183 L 140 182 Z M 148 182 L 148 183 L 148 182 Z M 111 183 L 111 184 L 111 183 Z M 135 183 L 135 184 L 135 183 Z M 137 183 L 137 184 L 137 183 Z M 142 183 L 142 184 L 142 183 Z M 147 183 L 147 184 L 147 183 Z M 150 183 L 150 184 L 150 183 Z M 154 183 L 152 185 L 154 185 L 154 183 Z M 122 184 L 122 185 L 122 184 Z M 128 184 L 128 186 L 130 187 Q 131 183 128 184 Z M 138 184 L 138 185 L 139 185 L 138 184 Z M 148 184 L 148 185 L 149 185 L 148 184 Z M 113 185 L 113 186 L 113 185 Z M 118 185 L 118 186 L 118 185 Z M 133 185 L 133 186 L 133 185 Z M 108 186 Q 105 187 106 191 L 108 190 L 108 186 Z M 114 186 L 114 187 L 114 186 Z M 121 186 L 121 187 L 121 186 Z M 135 186 L 135 187 L 135 186 Z M 146 186 L 145 188 L 146 188 L 146 186 Z M 149 186 L 149 187 L 149 186 Z M 152 186 L 151 188 L 152 188 L 152 186 Z M 155 186 L 155 187 L 155 186 Z M 118 187 L 117 189 L 120 189 L 118 187 Z M 132 187 L 132 188 L 132 187 Z M 113 188 L 113 189 L 113 188 Z M 115 188 L 115 189 L 115 188 Z M 148 188 L 148 189 L 148 188 Z M 153 188 L 152 190 L 153 190 L 153 188 Z M 111 189 L 111 190 L 111 189 Z M 116 189 L 116 190 L 116 189 Z M 131 189 L 131 190 L 131 189 Z M 144 189 L 143 191 L 144 191 L 144 189 Z M 149 189 L 148 191 L 149 191 L 149 189 Z M 155 189 L 153 191 Q 152 193 155 192 L 155 189 Z M 157 189 L 156 191 L 157 191 L 157 189 Z M 110 190 L 110 191 L 110 190 Z M 112 190 L 111 193 L 112 193 L 112 190 Z M 117 190 Q 118 195 115 197 L 117 197 L 113 202 Q 112 204 115 203 Q 117 199 119 201 L 118 197 L 120 197 L 120 193 L 118 193 L 119 191 L 117 190 Z M 152 190 L 152 191 L 152 190 Z M 121 191 L 121 192 L 121 191 Z M 140 191 L 140 192 L 140 191 Z M 150 191 L 149 194 L 151 194 L 150 191 Z M 107 192 L 107 194 L 109 193 L 107 192 Z M 115 192 L 114 194 L 115 194 L 115 192 Z M 144 192 L 144 193 L 144 192 Z M 156 192 L 155 195 L 156 195 L 156 192 Z M 113 193 L 113 194 L 113 193 Z M 141 193 L 140 196 L 142 196 L 141 193 Z M 143 193 L 143 194 L 143 193 Z M 145 193 L 144 195 L 145 195 L 145 193 Z M 154 193 L 152 196 L 154 195 L 154 193 Z M 110 195 L 111 197 Q 112 194 110 195 Z M 138 195 L 137 197 L 139 198 L 138 195 Z M 149 195 L 149 196 L 149 195 Z M 155 195 L 155 196 L 155 195 Z M 113 196 L 113 197 L 113 196 Z M 147 196 L 147 197 L 148 197 L 147 196 Z M 151 196 L 151 197 L 151 196 Z M 110 197 L 110 198 L 110 197 Z M 114 197 L 113 199 L 114 199 L 114 197 Z M 133 197 L 133 198 L 133 197 Z M 142 197 L 142 198 L 142 197 Z M 154 197 L 146 200 L 152 201 L 156 198 L 154 197 Z M 144 198 L 144 199 L 144 198 Z M 121 199 L 120 201 L 121 201 L 121 199 Z M 131 199 L 131 200 L 131 199 Z M 136 199 L 138 201 L 140 201 Q 141 197 136 199 Z M 112 200 L 112 201 L 112 200 Z M 132 200 L 132 201 L 134 201 L 132 200 Z M 141 201 L 138 202 L 139 204 L 141 203 L 141 201 Z M 146 201 L 146 202 L 146 201 Z M 111 202 L 110 204 L 111 204 L 111 202 Z M 117 202 Q 114 203 116 205 L 113 210 L 117 211 L 118 216 L 119 213 Q 119 209 117 208 L 116 210 L 115 210 L 117 207 L 117 202 Z M 120 202 L 120 203 L 120 202 Z M 135 203 L 135 204 L 137 204 L 135 203 Z M 111 205 L 110 207 L 111 207 L 111 205 Z M 114 205 L 112 208 L 114 207 L 114 205 Z M 108 206 L 108 207 L 108 206 Z M 121 206 L 121 207 L 121 206 Z M 119 207 L 119 208 L 119 207 Z M 113 211 L 113 212 L 113 211 Z M 145 211 L 144 218 L 145 218 L 145 211 Z M 114 212 L 114 215 L 115 215 Q 116 211 114 212 Z M 112 213 L 112 214 L 112 213 Z M 122 214 L 121 217 L 122 217 L 122 214 Z M 110 216 L 110 217 L 110 216 Z M 112 216 L 112 217 L 112 216 Z M 116 216 L 116 218 L 113 223 L 114 226 Q 117 225 116 222 L 117 219 Q 118 215 116 216 Z M 119 216 L 118 219 L 119 219 L 119 216 Z M 108 218 L 108 219 L 108 218 Z M 107 219 L 107 220 L 107 219 Z M 113 219 L 112 221 L 113 221 L 113 219 Z M 121 220 L 119 222 Q 118 225 121 224 L 121 220 Z M 108 221 L 108 222 L 108 221 Z M 118 222 L 118 223 L 118 222 Z M 145 223 L 144 225 L 146 226 L 145 223 Z M 109 226 L 109 227 L 109 226 Z M 116 226 L 115 230 L 116 230 L 116 226 Z M 121 226 L 121 228 Q 122 231 119 230 L 120 236 L 118 236 L 119 242 L 121 241 L 121 243 L 123 244 L 122 242 L 122 231 L 123 230 L 122 228 Q 123 225 121 226 Z M 145 226 L 146 229 Q 148 230 147 227 L 145 226 Z M 111 227 L 110 229 L 113 230 L 111 227 Z M 107 228 L 107 229 L 108 229 L 107 228 Z M 119 228 L 119 229 L 119 228 Z M 118 229 L 117 231 L 118 231 L 118 229 Z M 111 230 L 110 232 L 111 232 L 111 230 Z M 106 231 L 106 232 L 106 231 Z M 113 232 L 112 234 L 113 234 L 113 232 Z M 108 233 L 107 235 L 108 235 L 108 233 Z M 118 233 L 117 235 L 118 235 L 118 233 Z M 114 234 L 114 238 L 112 240 L 115 241 L 116 238 Q 118 233 114 234 Z M 113 237 L 113 238 L 113 237 Z M 104 239 L 104 244 L 106 245 L 105 243 L 106 241 Q 107 238 104 239 Z M 114 241 L 114 242 L 114 241 Z M 117 241 L 118 245 Q 120 244 118 243 Q 119 240 117 241 Z M 113 242 L 113 243 L 113 242 Z M 110 243 L 109 245 L 110 245 L 110 243 Z M 115 243 L 114 245 L 115 245 L 115 243 Z M 105 246 L 104 249 L 105 249 L 105 246 Z M 113 246 L 113 247 L 113 246 Z M 123 246 L 122 248 L 123 248 L 123 246 Z M 125 246 L 124 248 L 125 248 L 125 246 Z M 124 249 L 124 250 L 124 249 Z "/><path fill="#000000"  stroke="none" opacity="1" d="M 169.5 11 L 170 13 L 164 17.5 L 163.5 19 L 163 17.5 L 169.5 11 Z "/><path fill="#000000"  stroke="none" opacity="1" d="M 157.5 17 L 157.5 18 L 157.5 17 Z "/><path fill="#000000"  stroke="none" opacity="1" d="M 155.5 18 L 156 19.5 L 155 19.5 L 155.5 18 Z "/><path fill="#000000"  stroke="none" opacity="1" d="M 153.5 19 L 153.5 20 L 153.5 19 Z "/><path fill="#000000"  stroke="none" opacity="1" d="M 152.5 21 L 152.5 22 L 152.5 21 Z "/><path fill="#000000"  stroke="none" opacity="1" d="M 154.5 21 L 154.5 22 L 154.5 21 Z "/><path fill="#000000"  stroke="none" opacity="1" d="M 168.5 21 L 168.5 22 L 168.5 21 Z "/><path fill="#000000"  stroke="none" opacity="1" d="M 64.5 22 L 66 22.5 L 60.5 25 L 60.5 24 L 64.5 22 Z "/><path fill="#000000"  stroke="none" opacity="1" d="M 153.5 23 L 153.5 24 L 153.5 23 Z "/><path fill="#000000"  stroke="none" opacity="1" d="M 160.5 24 L 160.5 25 L 160.5 24 Z "/><path fill="#000000"  stroke="none" opacity="1" d="M 163.5 24 L 170 24.5 L 163.5 25 L 163.5 24 Z "/><path fill="#000000"  stroke="none" opacity="1" d="M 69.5 25 L 69.5 26 L 69.5 25 Z "/><path fill="#000000"  stroke="none" opacity="1" d="M 148.5 25 L 148.5 26 L 148.5 25 Z "/><path fill="#000000"  stroke="none" opacity="1" d="M 66.5 26 L 66.5 27 L 66.5 26 Z "/><path fill="#000000"  stroke="none" opacity="1" d="M 145.5 26 L 147 28.5 L 146 28.5 L 145.5 26 Z "/><path fill="#000000"  stroke="none" opacity="1" d="M 64.5 27 L 64.5 28 L 64.5 27 Z "/><path fill="#000000"  stroke="none" opacity="1" d="M 147.5 30 L 147.5 31 L 147.5 30 Z "/><path fill="#000000"  stroke="none" opacity="1" d="M 74.5 32 L 74.5 33 L 74.5 32 Z "/><path fill="#000000"  stroke="none" opacity="1" d="M 69.5 33 L 73 33.5 L 69.5 34 L 69.5 33 Z "/><path fill="#000000"  stroke="none" opacity="1" d="M 73.5 38 L 75 38.5 L 72.5 40 L 73.5 38 Z "/><path fill="#000000"  stroke="none" opacity="1" d="M 123.5 38 L 123.5 39 L 123.5 38 Z "/><path fill="#000000"  stroke="none" opacity="1" d="M 77.5 39 L 79 39.5 L 75.5 41 L 75.5 40 L 77.5 39 Z "/><path fill="#000000"  stroke="none" opacity="1" d="M 126.5 39 L 126.5 40 L 126.5 39 Z "/><path fill="#000000"  stroke="none" opacity="1" d="M 150.5 39 L 154 39.5 L 150.5 40 L 150.5 39 Z "/><path fill="#000000"  stroke="none" opacity="1" d="M 119.5 40 L 119.5 41 L 119.5 40 Z "/><path fill="#000000"  stroke="none" opacity="1" d="M 80.5 41 L 80.5 42 L 80.5 41 Z "/><path fill="#000000"  stroke="none" opacity="1" d="M 77.5 42 L 79 42.5 L 77.5 43 L 77.5 42 Z "/><path fill="#000000"  stroke="none" opacity="1" d="M 116.5 42 L 117.5 44 L 116.5 42 Z "/><path fill="#000000"  stroke="none" opacity="1" d="M 114.5 44 L 118 46.5 L 116.5 47 L 114.5 44 Z "/><path fill="#000000"  stroke="none" opacity="1" d="M 121.5 44 L 122 47.5 L 120 48.5 L 121.5 44 Z "/><path fill="#000000"  stroke="none" opacity="1" d="M 113.5 46 L 116 48.5 L 115 49.5 L 116.5 52 L 114 49.5 L 115 48.5 L 113.5 46 Z "/><path fill="#000000"  stroke="none" opacity="1" d="M 123.5 46 L 126 46.5 L 123.5 47 L 123.5 46 Z "/><path fill="#000000"  stroke="none" opacity="1" d="M 144.5 46 L 145.5 48 Q 142.7 48.7 144.5 46 Z "/><path fill="#000000"  stroke="none" opacity="1" d="M 134.5 47 L 134.5 48 L 134.5 47 Z "/><path fill="#000000"  stroke="none" opacity="1" d="M 58.5 48 L 58.5 49 L 58.5 48 Z "/><path fill="#000000"  stroke="none" opacity="1" d="M 64.5 49 L 64.5 50 L 64.5 49 Z "/><path fill="#000000"  stroke="none" opacity="1" d="M 90.5 49 L 90.5 50 L 90.5 49 Z "/><path fill="#000000"  stroke="none" opacity="1" d="M 117.5 49 L 117.5 50 L 117.5 49 Z "/><path fill="#000000"  stroke="none" opacity="1" d="M 88.5 50 L 88.5 51 L 88.5 50 Z "/><path fill="#000000"  stroke="none" opacity="1" d="M 94.5 50 L 93.5 52 L 94.5 50 Z "/><path fill="#000000"  stroke="none" opacity="1" d="M 58.5 51 L 60 51.5 L 58.5 52 L 58.5 51 Z "/><path fill="#000000"  stroke="none" opacity="1" d="M 67.5 51 L 68.5 53 L 67.5 51 Z "/><path fill="#000000"  stroke="none" opacity="1" d="M 86.5 51 L 86.5 52 L 86.5 51 Z "/><path fill="#000000"  stroke="none" opacity="1" d="M 121.5 51 L 123 51.5 L 121.5 52 L 121.5 51 Z "/><path fill="#000000"  stroke="none" opacity="1" d="M 131.5 51 L 131.5 52 L 131.5 51 Z "/><path fill="#000000"  stroke="none" opacity="1" d="M 91.5 52 L 91.5 53 L 91.5 52 Z "/><path fill="#000000"  stroke="none" opacity="1" d="M 144.5 52 L 148 52.5 L 144.5 53 L 144.5 52 Z "/><path fill="#000000"  stroke="none" opacity="1" d="M 89.5 53 L 88.5 55 L 87 54.5 L 89.5 53 Z "/><path fill="#000000"  stroke="none" opacity="1" d="M 113.5 53 L 116 54.5 L 114.5 55 L 113.5 53 Z "/><path fill="#000000"  stroke="none" opacity="1" d="M 127.5 53 L 130 57.5 L 129 57.5 L 127.5 53 Z "/><path fill="#000000"  stroke="none" opacity="1" d="M 74.5 54 L 74.5 55 L 74.5 54 Z "/><path fill="#000000"  stroke="none" opacity="1" d="M 91.5 54 L 90.5 56 L 91.5 54 Z "/><path fill="#000000"  stroke="none" opacity="1" d="M 104.5 54 L 106 56.5 L 105 56.5 L 104.5 54 Z "/><path fill="#000000"  stroke="none" opacity="1" d="M 139.5 54 L 139.5 55 L 139.5 54 Z "/><path fill="#000000"  stroke="none" opacity="1" d="M 95.5 55 L 95.5 56 L 95.5 55 Z "/><path fill="#000000"  stroke="none" opacity="1" d="M 87.5 56 L 89 56.5 L 87.5 57 L 87.5 56 Z "/><path fill="#000000"  stroke="none" opacity="1" d="M 93.5 56 L 93.5 57 L 93.5 56 Z "/><path fill="#000000"  stroke="none" opacity="1" d="M 107.5 57 L 107.5 58 L 107.5 57 Z "/><path fill="#000000"  stroke="none" opacity="1" d="M 66.5 58 L 70 58.5 L 63.5 60 L 63.5 59 L 66.5 58 Z "/><path fill="#000000"  stroke="none" opacity="1" d="M 96.5 58 L 98 58.5 L 92.5 61 L 92.5 60 L 96.5 58 Z "/><path fill="#000000"  stroke="none" opacity="1" d="M 125.5 58 L 125.5 59 L 125.5 58 Z "/><path fill="#000000"  stroke="none" opacity="1" d="M 69.5 60 L 74 60.5 L 70.5 62 L 68.5 62 L 66.5 63 L 67.5 61 L 69.5 60 Z "/><path fill="#000000"  stroke="none" opacity="1" d="M 88.5 61 L 91 61.5 L 88.5 62 L 88.5 61 Z "/><path fill="#000000"  stroke="none" opacity="1" d="M 113.5 61 L 113.5 62 L 113.5 61 Z "/><path fill="#000000"  stroke="none" opacity="1" d="M 74.5 62 L 76 62.5 L 70.5 65 L 71.5 63 L 74.5 62 Z "/><path fill="#000000"  stroke="none" opacity="1" d="M 93.5 62 L 96 62.5 L 93 63.5 L 96 64.5 L 91.5 66 L 91.5 65 L 93 64.5 L 89 63.5 L 93.5 62 Z "/><path fill="#000000"  stroke="none" opacity="1" d="M 185.5 63 L 185.5 64 L 185.5 63 Z "/><path fill="#000000"  stroke="none" opacity="1" d="M 187.5 64 L 187.5 65 L 187.5 64 Z "/><path fill="#000000"  stroke="none" opacity="1" d="M 189.5 65 L 193.5 69 Q 195.3 66.3 197 70.5 Q 196.3 72.8 198.5 72 L 198.5 73 Q 191.1 71.3 189.5 65 Z M 195 69 L 195 70 L 195 69 Z "/><path fill="#000000"  stroke="none" opacity="1" d="M 71.5 66 L 71.5 67 L 71.5 66 Z "/><path fill="#000000"  stroke="none" opacity="1" d="M 94.5 66 L 93.5 68 L 92 67.5 L 94.5 66 Z "/><path fill="#000000"  stroke="none" opacity="1" d="M 106.5 66 L 107.5 68 L 106.5 66 Z "/><path fill="#000000"  stroke="none" opacity="1" d="M 123.5 66 L 123.5 67 L 123.5 66 Z "/><path fill="#000000"  stroke="none" opacity="1" d="M 197.5 66 L 201 69.5 L 200 70.5 L 201.5 73 L 198 69.5 L 199 68.5 L 197.5 66 Z M 200 69 L 200 70 L 200 69 Z "/><path fill="#000000"  stroke="none" opacity="1" d="M 205.5 66 L 206.5 68 L 205.5 66 Z "/><path fill="#000000"  stroke="none" opacity="1" d="M 74.5 67 L 77 67.5 L 73.5 69 L 74.5 67 Z "/><path fill="#000000"  stroke="none" opacity="1" d="M 148.5 67 L 148.5 68 L 148.5 67 Z "/><path fill="#000000"  stroke="none" opacity="1" d="M 142.5 68 L 142.5 69 L 142.5 68 Z "/><path fill="#000000"  stroke="none" opacity="1" d="M 182.5 68 L 183.5 70 L 182.5 68 Z "/><path fill="#000000"  stroke="none" opacity="1" d="M 76.5 69 L 78 69.5 L 76.5 70 L 76.5 69 Z "/><path fill="#000000"  stroke="none" opacity="1" d="M 84.5 69 L 84.5 70 L 84.5 69 Z "/><path fill="#000000"  stroke="none" opacity="1" d="M 92 69 L 94 69.5 L 92 70.5 L 92 69 Z "/><path fill="#000000"  stroke="none" opacity="1" d="M 121.5 69 L 121.5 70 L 121.5 69 Z "/><path fill="#000000"  stroke="none" opacity="1" d="M 132.5 69 L 132.5 70 L 132.5 69 Z "/><path fill="#000000"  stroke="none" opacity="1" d="M 163.5 69 L 165.5 72 L 163.5 69 Z "/><path fill="#000000"  stroke="none" opacity="1" d="M 74.5 70 L 74.5 71 L 74.5 70 Z "/><path fill="#000000"  stroke="none" opacity="1" d="M 106.5 70 L 109 71.5 L 107.5 72 L 106.5 70 Z "/><path fill="#000000"  stroke="none" opacity="1" d="M 123.5 70 L 120.5 74 L 123.5 70 Z "/><path fill="#000000"  stroke="none" opacity="1" d="M 41.5 71 L 43 71.5 L 41.5 72 L 41.5 71 Z "/><path fill="#000000"  stroke="none" opacity="1" d="M 141.5 71 L 141.5 72 L 141.5 71 Z "/><path fill="#000000"  stroke="none" opacity="1" d="M 75.5 72 L 75.5 73 L 75.5 72 Z "/><path fill="#000000"  stroke="none" opacity="1" d="M 99.5 72 L 101 72.5 L 99.5 73 L 99.5 72 Z "/><path fill="#000000"  stroke="none" opacity="1" d="M 176.5 72 L 177.5 74 L 176.5 72 Z "/><path fill="#000000"  stroke="none" opacity="1" d="M 73.5 73 L 73.5 74 L 73.5 73 Z "/><path fill="#000000"  stroke="none" opacity="1" d="M 79.5 73 L 79.5 74 L 79.5 73 Z "/><path fill="#000000"  stroke="none" opacity="1" d="M 92.5 73 L 98 73.5 L 92.5 74 L 92.5 73 Z "/><path fill="#000000"  stroke="none" opacity="1" d="M 171.5 73 L 174 76.5 L 171 74.5 L 171.5 73 Z "/><path fill="#000000"  stroke="none" opacity="1" d="M 180.5 73 L 183.5 77 L 180.5 73 Z "/><path fill="#000000"  stroke="none" opacity="1" d="M 183.5 73 L 183.5 74 L 183.5 73 Z "/><path fill="#000000"  stroke="none" opacity="1" d="M 21.5 75 L 19.5 78 L 21.5 75 Z "/><path fill="#000000"  stroke="none" opacity="1" d="M 79.5 75 L 79.5 76 L 79.5 75 Z "/><path fill="#000000"  stroke="none" opacity="1" d="M 177.5 75 L 179 77.5 L 177 76.5 L 177.5 75 Z "/><path fill="#000000"  stroke="none" opacity="1" d="M 77.5 76 L 77.5 77 L 77.5 76 Z "/><path fill="#000000"  stroke="none" opacity="1" d="M 98.5 76 L 100 76.5 L 98.5 77 L 98.5 76 Z "/><path fill="#000000"  stroke="none" opacity="1" d="M 121.5 76 L 119.5 79 L 121.5 76 Z "/><path fill="#000000"  stroke="none" opacity="1" d="M 80.5 77 L 80.5 78 L 80.5 77 Z "/><path fill="#000000"  stroke="none" opacity="1" d="M 124.5 77 L 125 78.5 L 124 78.5 L 124.5 77 Z "/><path fill="#000000"  stroke="none" opacity="1" d="M 126.5 77 L 126.5 78 L 126.5 77 Z "/><path fill="#000000"  stroke="none" opacity="1" d="M 175.5 77 L 177.5 80 L 174 78.5 L 175.5 77 Z M 176 78 L 176 79 L 176 78 Z "/><path fill="#000000"  stroke="none" opacity="1" d="M 47.5 78 L 47.5 79 L 47.5 78 Z "/><path fill="#000000"  stroke="none" opacity="1" d="M 82.5 78 L 82.5 79 L 82.5 78 Z "/><path fill="#000000"  stroke="none" opacity="1" d="M 86.5 78 L 88 78.5 L 86.5 79 L 86.5 78 Z "/><path fill="#000000"  stroke="none" opacity="1" d="M 159.5 78 L 159.5 79 L 159.5 78 Z "/><path fill="#000000"  stroke="none" opacity="1" d="M 35.5 79 L 36 80.5 L 34 81.5 L 35.5 79 Z "/><path fill="#000000"  stroke="none" opacity="1" d="M 70.5 79 L 70.5 80 L 70.5 79 Z "/><path fill="#000000"  stroke="none" opacity="1" d="M 84.5 79 L 84.5 80 L 84.5 79 Z "/><path fill="#000000"  stroke="none" opacity="1" d="M 156.5 79 L 159.5 83 L 156.5 79 Z "/><path fill="#000000"  stroke="none" opacity="1" d="M 82.5 80 L 82.5 81 L 82.5 80 Z "/><path fill="#000000"  stroke="none" opacity="1" d="M 86.5 80 L 86.5 81 L 86.5 80 Z "/><path fill="#000000"  stroke="none" opacity="1" d="M 101.5 80 L 101.5 81 L 101.5 80 Z "/><path fill="#000000"  stroke="none" opacity="1" d="M 153.5 80 L 153.5 81 L 153.5 80 Z "/><path fill="#000000"  stroke="none" opacity="1" d="M 45.5 81 L 45.5 82 L 45.5 81 Z "/><path fill="#000000"  stroke="none" opacity="1" d="M 95.5 81 L 95.5 82 L 95.5 81 Z "/><path fill="#000000"  stroke="none" opacity="1" d="M 49.5 82 L 49.5 83 L 49.5 82 Z "/><path fill="#000000"  stroke="none" opacity="1" d="M 53.5 82 L 52.5 84 L 53.5 82 Z "/><path fill="#000000"  stroke="none" opacity="1" d="M 102.5 82 L 104 82.5 L 102.5 83 L 102.5 82 Z "/><path fill="#000000"  stroke="none" opacity="1" d="M 119.5 82 L 120 83.5 L 119 83.5 L 119.5 82 Z "/><path fill="#000000"  stroke="none" opacity="1" d="M 149.5 82 L 152 83.5 L 150.5 83 L 149.5 82 Z "/><path fill="#000000"  stroke="none" opacity="1" d="M 156.5 82 L 157.5 84 L 156.5 82 Z "/><path fill="#000000"  stroke="none" opacity="1" d="M 163.5 82 L 165.5 85 L 163.5 82 Z "/><path fill="#000000"  stroke="none" opacity="1" d="M 44.5 83 L 43.5 85 L 44.5 83 Z "/><path fill="#000000"  stroke="none" opacity="1" d="M 96.5 83 L 99 83.5 L 96.5 84 L 96.5 83 Z "/><path fill="#000000"  stroke="none" opacity="1" d="M 97.5 85 L 102 85.5 L 97.5 86 L 97.5 85 Z "/><path fill="#000000"  stroke="none" opacity="1" d="M 158.5 85 L 160.5 88 L 158.5 85 Z "/><path fill="#000000"  stroke="none" opacity="1" d="M 161.5 85 L 161.5 86 L 161.5 85 Z "/><path fill="#000000"  stroke="none" opacity="1" d="M 50.5 86 L 50.5 87 L 50.5 86 Z "/><path fill="#000000"  stroke="none" opacity="1" d="M 52.5 86 L 52.5 87 L 52.5 86 Z "/><path fill="#000000"  stroke="none" opacity="1" d="M 74.5 86 L 70.5 91 L 74.5 86 Z "/><path fill="#000000"  stroke="none" opacity="1" d="M 114.5 86 L 115 87.5 L 113.5 90 L 113 88.5 L 114.5 86 Z "/><path fill="#000000"  stroke="none" opacity="1" d="M 118.5 86 L 119 89.5 L 118 89.5 L 118.5 86 Z "/><path fill="#000000"  stroke="none" opacity="1" d="M 145.5 87 L 146.5 89 L 145.5 87 Z "/><path fill="#000000"  stroke="none" opacity="1" d="M 80.5 88 L 79.5 90 L 80.5 88 Z "/><path fill="#000000"  stroke="none" opacity="1" d="M 150.5 88 L 154 92.5 L 153 92.5 L 150.5 88 Z "/><path fill="#000000"  stroke="none" opacity="1" d="M 175.5 88 L 177.5 91 Q 175.8 87.9 174 89.5 L 175.5 88 Z "/><path fill="#000000"  stroke="none" opacity="1" d="M 140.5 89 L 140.5 90 L 140.5 89 Z "/><path fill="#000000"  stroke="none" opacity="1" d="M 100.5 91 L 100.5 92 L 100.5 91 Z "/><path fill="#000000"  stroke="none" opacity="1" d="M 113.5 91 L 114 93.5 L 113 93.5 L 113.5 91 Z "/><path fill="#000000"  stroke="none" opacity="1" d="M 148.5 91 L 151 92 L 150.5 94 L 148.5 91 Z "/><path fill="#000000"  stroke="none" opacity="1" d="M 91.5 92 L 91.5 93 L 91.5 92 Z "/><path fill="#000000"  stroke="none" opacity="1" d="M 94.5 92 L 94.5 93 L 94.5 92 Z "/><path fill="#000000"  stroke="none" opacity="1" d="M 141.5 92 L 142.5 94 L 141.5 92 Z "/><path fill="#000000"  stroke="none" opacity="1" d="M 88.5 94 L 92 95.5 L 89.5 96 L 88.5 94 Z "/><path fill="#000000"  stroke="none" opacity="1" d="M 200.5 94 L 200.5 95 L 200.5 94 Z "/><path fill="#000000"  stroke="none" opacity="1" d="M 74.5 95 L 74.5 96 L 74.5 95 Z "/><path fill="#000000"  stroke="none" opacity="1" d="M 80.5 95 L 80.5 96 L 80.5 95 Z "/><path fill="#000000"  stroke="none" opacity="1" d="M 95.5 95 L 97 98.5 L 93 99.5 L 95.5 95 Z "/><path fill="#000000"  stroke="none" opacity="1" d="M 145.5 95 L 148 96.5 L 146.5 97 L 145.5 95 Z "/><path fill="#000000"  stroke="none" opacity="1" d="M 191.5 95 L 191.5 96 L 191.5 95 Z "/><path fill="#000000"  stroke="none" opacity="1" d="M 138.5 96 L 138.5 97 L 138.5 96 Z "/><path fill="#000000"  stroke="none" opacity="1" d="M 143.5 96 L 143.5 97 L 143.5 96 Z "/><path fill="#000000"  stroke="none" opacity="1" d="M 81.5 97 L 79.5 100 L 81.5 97 Z "/><path fill="#000000"  stroke="none" opacity="1" d="M 90.5 97 L 90.5 98 L 90.5 97 Z "/><path fill="#000000"  stroke="none" opacity="1" d="M 199.5 97 L 199.5 98 L 199.5 97 Z "/><path fill="#000000"  stroke="none" opacity="1" d="M 87.5 98 L 86.5 100 L 87.5 98 Z "/><path fill="#000000"  stroke="none" opacity="1" d="M 137.5 98 L 138.5 100 L 137.5 98 Z "/><path fill="#000000"  stroke="none" opacity="1" d="M 89.5 99 L 88.5 101 L 89.5 99 Z "/><path fill="#000000"  stroke="none" opacity="1" d="M 143.5 99 L 146 100.5 L 144.5 100 L 143.5 99 Z "/><path fill="#000000"  stroke="none" opacity="1" d="M 55.5 100 L 58 100.5 L 55.5 101 L 55.5 100 Z "/><path fill="#000000"  stroke="none" opacity="1" d="M 96.5 100 L 97 101.5 L 95 102.5 L 96.5 100 Z "/><path fill="#000000"  stroke="none" opacity="1" d="M 140.5 100 L 140.5 101 L 140.5 100 Z "/><path fill="#000000"  stroke="none" opacity="1" d="M 225.5 100 L 225.5 101 L 225.5 100 Z "/><path fill="#000000"  stroke="none" opacity="1" d="M 41.5 101 L 51 101.5 L 41.5 102 L 41.5 101 Z "/><path fill="#000000"  stroke="none" opacity="1" d="M 179.5 101 L 180.5 103 L 179.5 101 Z "/><path fill="#000000"  stroke="none" opacity="1" d="M 39.5 102 L 39.5 103 L 39.5 102 Z "/><path fill="#000000"  stroke="none" opacity="1" d="M 31.5 103 L 31.5 104 L 31.5 103 Z "/><path fill="#000000"  stroke="none" opacity="1" d="M 62.5 103 L 63 107.5 L 62 107.5 L 62.5 103 Z "/><path fill="#000000"  stroke="none" opacity="1" d="M 29.5 104 L 29.5 105 L 29.5 104 Z "/><path fill="#000000"  stroke="none" opacity="1" d="M 70.5 104 L 70.5 105 L 70.5 104 Z "/><path fill="#000000"  stroke="none" opacity="1" d="M 157.5 104 L 158.5 106 L 157.5 104 Z "/><path fill="#000000"  stroke="none" opacity="1" d="M 181.5 104 L 181.5 105 L 181.5 104 Z "/><path fill="#000000"  stroke="none" opacity="1" d="M 192.5 104 L 194 107.5 L 193 107.5 L 192.5 104 Z "/><path fill="#000000"  stroke="none" opacity="1" d="M 219.5 104 L 222 105 L 221.5 107 L 219.5 104 Z "/><path fill="#000000"  stroke="none" opacity="1" d="M 231.5 104 L 231.5 105 L 231.5 104 Z "/><path fill="#000000"  stroke="none" opacity="1" d="M 65.5 105 L 66 107.5 L 65 107.5 L 65.5 105 Z "/><path fill="#000000"  stroke="none" opacity="1" d="M 94.5 105 L 94.5 106 L 94.5 105 Z "/><path fill="#000000"  stroke="none" opacity="1" d="M 167.5 105 L 171 109.5 L 169 108.5 L 167.5 105 Z "/><path fill="#000000"  stroke="none" opacity="1" d="M 20.5 106 L 22 106.5 L 20.5 107 L 20.5 106 Z "/><path fill="#000000"  stroke="none" opacity="1" d="M 78.5 106 L 79.5 108 L 81 107.5 L 79.5 110 L 78.5 106 Z "/><path fill="#000000"  stroke="none" opacity="1" d="M 89.5 106 L 89.5 107 L 89.5 106 Z "/><path fill="#000000"  stroke="none" opacity="1" d="M 215.5 106 L 218 110.5 L 216 109.5 L 215.5 108 L 214.5 110 L 214 108.5 L 215.5 106 Z "/><path fill="#000000"  stroke="none" opacity="1" d="M 232.5 106 L 232.5 107 L 232.5 106 Z "/><path fill="#000000"  stroke="none" opacity="1" d="M 18.5 107 L 18.5 108 L 18.5 107 Z "/><path fill="#000000"  stroke="none" opacity="1" d="M 74.5 107 L 73.5 109 L 74.5 107 Z "/><path fill="#000000"  stroke="none" opacity="1" d="M 136.5 107 L 136 108.5 L 135.5 111 L 135 108.5 L 136.5 107 Z "/><path fill="#000000"  stroke="none" opacity="1" d="M 156.5 107 L 156.5 108 L 156.5 107 Z "/><path fill="#000000"  stroke="none" opacity="1" d="M 159.5 107 L 161 109.5 L 159 108.5 L 159.5 107 Z "/><path fill="#000000"  stroke="none" opacity="1" d="M 53.5 108 L 54 109.5 L 53 109.5 L 53.5 108 Z "/><path fill="#000000"  stroke="none" opacity="1" d="M 67.5 108 L 68 112.5 L 66.5 115 L 66 112.5 L 67.5 108 Z "/><path fill="#000000"  stroke="none" opacity="1" d="M 97.5 108 L 97.5 109 L 97.5 108 Z "/><path fill="#000000"  stroke="none" opacity="1" d="M 130.5 108 L 130.5 109 L 130.5 108 Z "/><path fill="#000000"  stroke="none" opacity="1" d="M 138.5 108 L 138.5 109 L 138.5 108 Z "/><path fill="#000000"  stroke="none" opacity="1" d="M 147.5 108 L 147.5 109 L 147.5 108 Z "/><path fill="#000000"  stroke="none" opacity="1" d="M 188.5 108 L 188.5 109 L 188.5 108 Z "/><path fill="#000000"  stroke="none" opacity="1" d="M 31.5 109 L 32 110.5 L 31 110.5 L 31.5 109 Z "/><path fill="#000000"  stroke="none" opacity="1" d="M 37.5 109 L 38 111.5 L 36.5 114 L 36 112.5 L 37.5 109 Z "/><path fill="#000000"  stroke="none" opacity="1" d="M 62.5 109 L 63 110.5 L 62 110.5 L 62.5 109 Z "/><path fill="#000000"  stroke="none" opacity="1" d="M 64.5 109 L 65 111.5 L 64 111.5 L 64.5 109 Z "/><path fill="#000000"  stroke="none" opacity="1" d="M 157.5 109 L 160 112.5 L 158 111.5 L 157.5 109 Z "/><path fill="#000000"  stroke="none" opacity="1" d="M 233.5 109 L 234 110.5 L 233 110.5 L 233.5 109 Z "/><path fill="#000000"  stroke="none" opacity="1" d="M 56.5 110 L 57 111.5 L 55.5 115 L 55 111.5 L 56.5 110 Z "/><path fill="#000000"  stroke="none" opacity="1" d="M 83.5 110 L 83.5 111 L 83.5 110 Z "/><path fill="#000000"  stroke="none" opacity="1" d="M 162.5 110 L 163.5 112 L 162.5 110 Z "/><path fill="#000000"  stroke="none" opacity="1" d="M 53.5 111 L 54 112.5 L 53 112.5 L 53.5 111 Z "/><path fill="#000000"  stroke="none" opacity="1" d="M 72.5 111 L 73 112.5 L 70.5 119 L 70 117.5 L 72.5 111 Z "/><path fill="#000000"  stroke="none" opacity="1" d="M 151.5 111 L 153.5 114 Q 151.3 114.8 152 112.5 L 151.5 111 Z "/><path fill="#000000"  stroke="none" opacity="1" d="M 26.5 112 L 27 113.5 L 26 113.5 L 26.5 112 Z "/><path fill="#000000"  stroke="none" opacity="1" d="M 58.5 112 L 59 114 L 57 113.5 L 58.5 112 Z "/><path fill="#000000"  stroke="none" opacity="1" d="M 69.5 112 L 70 115.5 L 68 116.5 L 69.5 112 Z "/><path fill="#000000"  stroke="none" opacity="1" d="M 82.5 112 L 83.5 114 L 84.5 112 L 85 113.5 L 82.5 118 L 81 117.5 L 80.5 119 L 80 116.5 L 82 115.5 L 82.5 117 L 83 114.5 L 82.5 112 Z "/><path fill="#000000"  stroke="none" opacity="1" d="M 21.5 113 L 21.5 114 L 21.5 113 Z "/><path fill="#000000"  stroke="none" opacity="1" d="M 41.5 113 L 42 115.5 L 41 115.5 L 41.5 113 Z "/><path fill="#000000"  stroke="none" opacity="1" d="M 61.5 113 L 61.5 114 L 61.5 113 Z "/><path fill="#000000"  stroke="none" opacity="1" d="M 78.5 113 L 79 115.5 L 77 116.5 L 78.5 113 Z "/><path fill="#000000"  stroke="none" opacity="1" d="M 131.5 113 L 131.5 114 L 131.5 113 Z "/><path fill="#000000"  stroke="none" opacity="1" d="M 134.5 113 L 135 117.5 L 134 117.5 L 134.5 113 Z "/><path fill="#000000"  stroke="none" opacity="1" d="M 46.5 114 L 46.5 115 L 46.5 114 Z "/><path fill="#000000"  stroke="none" opacity="1" d="M 125.5 114 L 126 116.5 L 125 116.5 L 125.5 114 Z "/><path fill="#000000"  stroke="none" opacity="1" d="M 175.5 114 L 175.5 115 L 175.5 114 Z "/><path fill="#000000"  stroke="none" opacity="1" d="M 12.5 115 L 12.5 116 L 12.5 115 Z "/><path fill="#000000"  stroke="none" opacity="1" d="M 14.5 115 L 15 117.5 L 13 118.5 L 14.5 115 Z "/><path fill="#000000"  stroke="none" opacity="1" d="M 131.5 115 L 132 116.5 L 131 116.5 L 131.5 115 Z "/><path fill="#000000"  stroke="none" opacity="1" d="M 140.5 115 Q 142.8 115.8 142 119.5 L 141 119.5 L 140.5 115 Z "/><path fill="#000000"  stroke="none" opacity="1" d="M 178.5 115 L 178.5 116 L 178.5 115 Z "/><path fill="#000000"  stroke="none" opacity="1" d="M 36.5 116 L 37 117.5 L 36 117.5 L 36.5 116 Z "/><path fill="#000000"  stroke="none" opacity="1" d="M 65.5 116 L 65.5 117 L 65.5 116 Z "/><path fill="#000000"  stroke="none" opacity="1" d="M 85.5 116 L 85.5 117 L 85.5 116 Z "/><path fill="#000000"  stroke="none" opacity="1" d="M 27.5 117 L 27.5 118 L 27.5 117 Z "/><path fill="#000000"  stroke="none" opacity="1" d="M 38.5 117 L 39 118.5 L 38 118.5 L 38.5 117 Z "/><path fill="#000000"  stroke="none" opacity="1" d="M 191.5 117 L 191.5 118 L 191.5 117 Z "/><path fill="#000000"  stroke="none" opacity="1" d="M 11.5 118 L 11.5 119 L 11.5 118 Z "/><path fill="#000000"  stroke="none" opacity="1" d="M 84.5 118 L 86 120.5 L 85 120.5 L 84.5 118 Z "/><path fill="#000000"  stroke="none" opacity="1" d="M 161.5 119 Q 164.3 120.3 162 121.5 L 161.5 133 L 161.5 119 Z "/><path fill="#000000"  stroke="none" opacity="1" d="M 200.5 119 L 204 125.5 L 201 123.5 L 200.5 119 Z "/><path fill="#000000"  stroke="none" opacity="1" d="M 12.5 120 L 12.5 121 L 12.5 120 Z "/><path fill="#000000"  stroke="none" opacity="1" d="M 83.5 120 L 83.5 121 L 83.5 120 Z "/><path fill="#000000"  stroke="none" opacity="1" d="M 10.5 121 L 10.5 122 L 10.5 121 Z "/><path fill="#000000"  stroke="none" opacity="1" d="M 158.5 121 L 158.5 122 L 158.5 121 Z "/><path fill="#000000"  stroke="none" opacity="1" d="M 176.5 121 L 176.5 122 L 176.5 121 Z "/><path fill="#000000"  stroke="none" opacity="1" d="M 166.5 122 L 167 133.5 L 166 133.5 L 165 123.5 L 166.5 122 Z "/><path fill="#000000"  stroke="none" opacity="1" d="M 185.5 122 L 186 123.5 L 185 123.5 L 185.5 122 Z "/><path fill="#000000"  stroke="none" opacity="1" d="M 176.5 123 L 177 127.5 L 176 127.5 L 176.5 123 Z "/><path fill="#000000"  stroke="none" opacity="1" d="M 183.5 123 L 184 124.5 L 183 124.5 L 183.5 123 Z "/><path fill="#000000"  stroke="none" opacity="1" d="M 197.5 123 L 200 123.5 L 199 125.5 L 199.5 127 Q 195.9 125.9 197.5 123 Z "/><path fill="#000000"  stroke="none" opacity="1" d="M 151.5 125 L 151 126.5 L 150.5 128 L 150 126.5 L 151.5 125 Z "/><path fill="#000000"  stroke="none" opacity="1" d="M 186.5 125 L 187 126.5 L 186 126.5 L 186.5 125 Z "/><path fill="#000000"  stroke="none" opacity="1" d="M 157.5 126 L 158 127.5 L 157 127.5 L 157.5 126 Z "/><path fill="#000000"  stroke="none" opacity="1" d="M 169.5 126 Q 172.5 127.5 169.5 129 L 169.5 126 Z "/><path fill="#000000"  stroke="none" opacity="1" d="M 187.5 128 L 187.5 129 L 187.5 128 Z "/><path fill="#000000"  stroke="none" opacity="1" d="M 153.5 129 L 155 134.5 L 154 134.5 L 153.5 129 Z "/><path fill="#000000"  stroke="none" opacity="1" d="M 176.5 129 L 177 130.5 L 176 130.5 L 176.5 129 Z "/><path fill="#000000"  stroke="none" opacity="1" d="M 97.5 131 L 97.5 132 L 97.5 131 Z "/><path fill="#000000"  stroke="none" opacity="1" d="M 145 131 L 149 133 L 149 136 Q 146.3 134.9 147 137.5 L 146 137.5 L 145 131 Z "/><path fill="#000000"  stroke="none" opacity="1" d="M 163.5 131 L 163.5 132 L 163.5 131 Z "/><path fill="#000000"  stroke="none" opacity="1" d="M 90.5 133 L 92 137.5 L 91 137.5 L 90.5 133 Z "/><path fill="#000000"  stroke="none" opacity="1" d="M 140.5 133 L 140.5 134 L 140.5 133 Z "/><path fill="#000000"  stroke="none" opacity="1" d="M 143.5 133 L 144 138.5 L 143 138.5 L 143.5 133 Z "/><path fill="#000000"  stroke="none" opacity="1" d="M 85.5 136 L 86 137.5 L 85 137.5 L 85.5 136 Z "/><path fill="#000000"  stroke="none" opacity="1" d="M 153.5 136 L 153.5 137 L 153.5 136 Z "/><path fill="#000000"  stroke="none" opacity="1" d="M 83.5 137 L 83.5 138 L 83.5 137 Z "/><path fill="#000000"  stroke="none" opacity="1" d="M 89.5 137 L 89.5 138 L 89.5 137 Z "/><path fill="#000000"  stroke="none" opacity="1" d="M 84.5 139 L 85 140.5 L 84 140.5 L 84.5 139 Z "/><path fill="#000000"  stroke="none" opacity="1" d="M 92.5 139 L 93 140.5 L 92 140.5 L 92.5 139 Z "/><path fill="#000000"  stroke="none" opacity="1" d="M 82.5 141 L 83 143.5 L 82 143.5 L 82.5 141 Z "/><path fill="#000000"  stroke="none" opacity="1" d="M 90.5 141 L 90.5 142 L 90.5 141 Z "/><path fill="#000000"  stroke="none" opacity="1" d="M 80.5 144 L 82 147.5 L 80 146.5 L 80.5 144 Z "/><path fill="#000000"  stroke="none" opacity="1" d="M 83.5 145 L 84 147.5 L 83 147.5 L 83.5 145 Z "/><path fill="#000000"  stroke="none" opacity="1" d="M 78.5 146 L 78.5 147 L 78.5 146 Z "/><path fill="#000000"  stroke="none" opacity="1" d="M 129.5 249 L 132.5 250 L 139 250.5 L 134.5 252 L 130.5 252 L 129 250.5 L 129.5 249 Z "/></svg>