<?xml version="1.0" encoding="utf-8"?>
<svg viewBox="0 0 306 304" version="1.1" xmlns="http://www.w3.org/2000/svg">
  <path fill="#000000" stroke="none" opacity="1" d="M 153 11 C 154.8 10.267 155.467 10.767 155 12.5 L 157 13.5 L 158.5 11 L 161 15.5 L 158 19.5 L 161.5 22 L 161.5 20 L 164.5 18 L 168.5 18 C 170.033 17.533 170.533 18.033 170 19.5 L 171.5 22 L 173.5 21 L 172.5 24 C 176.367 22.867 177.867 23.533 177 26 L 174 27.5 L 178.5 31 L 180 24.5 L 177 19.5 L 180 21.5 L 180.5 23 L 183 21.5 L 182 18 L 184 18 C 183.133 20.733 183.8 21.733 186 21 L 186.5 18 L 188 22.5 L 186 23.5 L 189 24 L 189.5 21 L 193 21.5 L 189 15 L 191.5 16 L 193.5 11 L 195.5 15 L 196 13 L 198 13 L 198 16 C 200 15.2 200.667 16.033 200 18.5 L 196.5 21 L 194.5 20 L 196 22.5 C 195.267 24.7 195.767 25.533 197.5 25 L 199 21 C 201.2 21.733 201.867 20.733 201 18 L 206 18 L 206 15.5 L 208 14.5 L 210.5 18 L 215 16 L 214 20 C 215.8 19.267 216.467 19.767 216 21.5 L 215.5 23 L 218 24.5 L 213 26.5 C 214.333 28.967 215.667 29.633 217 28.5 L 217.5 32 L 224 29.5 L 220 24.5 L 223.5 24 L 225 24.5 L 226.5 20 L 229.5 26 L 233.5 24 L 234 27 C 232 26.333 231.333 27 232 29 L 234.5 30 L 235.5 27 L 237 31 C 238.8 31.733 239.467 31.233 239 29.5 L 241 28.5 L 242 31.5 L 241 34 L 245 35.5 C 244.2 37.367 242.033 37.867 238.5 37 L 235.5 35 L 232.5 37 L 231 36.5 L 229 40.5 L 229.5 43 C 232.433 44 233.6 43.5 233 41.5 L 235 41.5 L 235.5 40 L 237 40.5 C 236.267 38.3 236.767 37.467 238.5 38 L 238 39.5 L 240.5 44 L 245 42 L 244 46 L 248.5 45 L 249.5 50 L 252.5 48 C 254.967 49.467 254.467 50.967 251 52.5 C 250.533 54.233 251.2 54.733 253 54 L 253 56 L 248 58.5 L 251 59.5 C 250.667 62.167 251.5 63.667 253.5 64 L 256 58.5 L 255 53.5 L 257 54.5 L 259.5 58 L 261 51 C 263.667 50.067 264.333 51.9 263 56.5 L 262.5 58 L 269 55 L 268 57.5 L 269 59.5 L 267 65.5 L 268.5 66 L 272 64 L 271 67.5 L 273.5 68 C 275.7 66.867 275.533 65.7 273 64.5 C 271.733 60.9 272.233 59.4 274.5 60 C 275.233 61.867 276.733 62.533 279 62 L 279 64 C 280.8 63.267 281.467 63.767 281 65.5 L 280.5 67 L 284 68.5 L 279.5 70 L 275.5 68 C 274.167 69.867 272 70.533 269 70 L 270 75 C 268.2 74.267 267.533 74.767 268 76.5 L 266 79.5 L 267 81.5 C 265.333 82.5 265 84.833 266 88.5 L 267 90.5 L 266 93 L 270 92 L 268 95.5 L 272 97.5 L 272 99 L 266.5 99 L 266 100.5 L 271 103 C 271.733 106.667 271.233 109.333 269.5 111 L 267.5 106 L 267 107.5 L 268 110.5 L 266 109.5 L 263.5 105 C 261.767 105.533 261.267 104.7 262 102.5 L 260 103.5 L 259.5 115 L 257.5 100 L 249.5 102 L 242.5 106 L 228.5 107 L 227.5 108 L 223.5 107 L 219 110.5 L 219 129.5 L 218 130.5 L 217.5 140 L 216 138.5 L 216 119.5 L 214.5 115 C 210.767 120.933 204.767 124.6 196.5 126 C 195.5 124.333 193.167 124 189.5 125 L 184 128.5 L 185 134 C 195.133 137 203.133 142.5 209 150.5 L 217 160.5 L 228 183 L 273.5 184 L 274.5 183 L 295.5 183 L 295.5 184 L 282.5 184 L 281.5 185 L 277.5 184 C 276.5 186.333 275.5 186.667 274.5 185 L 271.5 186 L 269.5 185 L 266.5 186 L 262.5 185 L 258.5 186 L 256.5 185 L 254 185.5 L 253.5 187 L 252.5 185 L 250 186.5 L 250.5 185 L 248.5 186 L 245.5 184 L 245 186 L 242 187.5 L 240.5 190 L 241 188.5 L 242 186.5 L 238 185 L 239 188.5 L 237 187.5 L 235.5 185 L 233 188.5 L 235 189.5 L 235.5 188 L 236.5 190 L 235 190.5 L 245 199.5 L 251.5 209 L 262.5 210 L 274.5 214 L 288 224.5 L 289 228.5 L 280.5 221 C 275.367 216.2 267.7 213.867 257.5 214 L 255 214.5 L 262 230.5 L 265 248 L 262 248.5 L 265 249.5 L 264 250.5 L 265.5 253 C 264.033 253.533 263.533 253.033 264 251.5 L 262 252.5 L 263 254.5 L 261 253.5 L 253 225.5 L 244.5 213 C 241.833 212.667 240.333 213.5 240 215.5 L 240 220.5 L 242 225.5 L 242 230.5 L 245 243.5 L 245 256 L 249 256.5 L 244.5 258 L 243 257.5 L 244 259.5 L 242 258.5 C 242.6 256.5 241.433 256 238.5 257 L 238.5 256 C 242.367 257.133 243.867 256.467 243 254 L 240 254 L 240 246.5 L 235.5 222 L 233 229.5 L 232 249.5 L 233 253 L 230 253.5 L 233 254.5 C 233.533 256.033 233.033 256.533 231.5 256 L 231.5 257 L 233 257.5 L 231 258.5 L 229.5 254 L 228 254.5 L 229 253.5 L 229 239.5 L 229 237.5 L 230 226.5 L 234 216.5 L 234 212.5 L 229 195.5 L 222.5 188 L 218.5 186 L 216 187 L 215.5 184 L 213 184.5 L 215 187.5 L 212.5 186 C 211.033 185.533 210.533 186.033 211 187.5 L 210 187.5 L 210 186 L 206 186 L 206 184.5 L 204 185.5 L 202.5 188 L 201 187.5 L 203 186.5 L 200 185 L 199 188.5 L 206 197.5 L 209.5 205 L 215 209.5 L 222 226.5 L 223 238.5 L 224 239.5 L 224 254.5 L 222.5 257 L 220.5 257 L 217 256.5 L 220 254.5 L 219 253.5 L 219 240 L 217 239.5 C 218.8 238.367 219.133 235.7 218 231.5 C 216.267 229.567 215.6 226.567 216 222.5 L 209.5 211 C 206.367 210.533 204.533 211.367 204 213.5 L 201 219.5 L 201 223.5 L 207.5 234 C 208.3 232.533 209.133 232.7 210 234.5 L 208 234.5 L 214 253.5 L 212 254.5 L 215 255 L 214.5 258 L 213 257.5 L 213 261 C 215 260.333 215.667 261 215 263 L 212 263 C 212.867 261 212.033 260.333 209.5 261 L 208 261.5 L 209 258 L 205 257.5 L 211 254.5 L 208 252.5 L 207 244.5 L 204 236 C 202 236.867 201.333 236.033 202 233.5 L 199 232 L 199 237.5 C 200.8 237.1 201.467 237.933 201 240 L 198 240.5 L 198 242.5 L 199 248.5 C 198 250.5 197 250.5 196 248.5 C 196.867 245.367 196.533 243.367 195 242.5 L 195 236.5 L 196 228.5 L 187.5 221 L 187 223.5 C 188.867 224.633 189.533 226.967 189 230.5 L 188 232.5 C 190.333 233.5 190.667 234.5 189 235.5 L 189 239.5 L 192 248.5 C 190.267 249.433 189.6 251.433 190 254.5 L 190.5 256 L 188 254.5 L 190 258.5 L 189 258.5 L 187 254.5 L 187.5 253 C 185.5 252.4 185 253.567 186 256.5 L 187 261 L 183 259.5 C 182.4 254.767 180.567 251.267 177.5 249 L 176 257.5 L 177.5 262 L 179 261.5 L 177.5 264 L 175 265.5 L 177 266.5 L 175.5 267 L 174 265.5 L 175.5 263 L 173 262.5 L 176 261.5 L 174.5 259 L 176 258.5 L 173 258 L 170.5 262 L 170 260 L 168 260.5 L 168.5 262 L 166.5 262 C 165.033 261.533 164.533 262.033 165 263.5 L 162 264.5 L 162.5 266 L 164.5 265 L 164.5 266 L 161.5 268 C 159.633 267.2 159.467 266.367 161 265.5 C 160.267 263.3 160.767 262.467 162.5 263 L 161.5 261 L 160 261.5 L 160.5 260 L 159 259.5 L 161.5 258 L 161.5 260 L 163 259.5 L 163 245.5 L 167 228.5 L 166 223 C 164 222.2 163.333 223.033 164 225.5 L 159 238.5 L 157 258.5 L 158 261 L 155.5 260 L 154 262.5 L 154.5 264 L 153 263.5 L 153 253.5 L 154 252.5 L 154 244.5 C 155.733 242.567 156.4 239.567 156 235.5 L 160 221 L 155 222 L 154 224.5 L 154 235 L 150 236 L 149 239.5 L 150 241.5 L 148 241.5 C 148.533 243.033 148.033 243.533 146.5 243 L 145 241.5 L 148 238.5 L 148 237 L 146 236.5 L 146 226.5 C 144.667 224.167 143.333 224.5 142 227.5 L 142 235.5 L 140.5 236 C 138.7 235.2 138.533 234.367 140 233.5 L 139.5 229 C 136.167 232 134.333 236.5 134 242.5 C 139.467 246.033 142.133 252.367 142 261.5 C 140.333 262.5 140.667 263.5 143 264.5 L 141.5 266 L 140 265.5 L 139.5 267 L 139 265.5 L 139 263.5 C 139 256.5 137.167 251.333 133.5 248 L 131.5 247 L 128 253.5 L 126.5 264 C 125.7 262.533 124.867 262.7 124 264.5 L 125 269 L 122 267.5 L 121 265.5 L 122.5 266 L 124 265.5 C 122.533 264.7 122.2 262.7 123 259.5 L 128 241.5 L 133 232.5 L 131.5 232 L 124 237.5 L 123.5 240 C 122.367 238.2 121.2 238.7 120 241.5 L 111 253.5 L 108 261 L 103 261 L 103 259.5 C 106.333 251.5 111 244.833 117 239.5 C 115.533 238.633 115.7 237.8 117.5 237 L 118.5 238 L 128 228.5 L 126.5 228 L 120 230 L 121.5 227 L 132 223.5 L 131 221.5 L 132 221.5 C 131.533 223.233 132.2 223.733 134 223 L 134.5 221 C 135.5 223.333 136.5 223.667 137.5 222 L 140 222 L 140 214 L 133.5 211 L 115.5 211 L 99.5 214 L 85 219.5 L 82 223.5 L 76.5 238 C 74.7 238.4 74.2 236.567 75 232.5 L 78 223 C 71.8 225.6 66.467 229.433 62 234.5 C 58 238.167 55.333 242.667 54 248 C 51.467 248.667 49.8 248.167 49 246.5 C 51.8 239.633 55.967 234.133 61.5 230 C 68.633 223.133 76.967 217.467 86.5 213 L 115.5 206 L 133.5 206 L 140 203 C 139.067 196.267 140.067 191.1 143 187.5 L 141.5 187 C 132.167 190.333 124.5 195.333 118.5 202 L 118 199.5 L 124.5 192 L 136 185.5 L 134.5 185 L 129.5 186 L 127.5 186 L 124.5 187 L 122 186 L 121.5 183 L 121 185 L 116.5 184 L 117.5 187 C 117.167 184.667 115.5 183.667 112.5 184 L 112.5 185 L 114 185.5 L 112 186.5 L 110.5 184 L 109.5 187 L 106.5 184 L 93 184 L 92.5 188 L 91 184 L 85 184.5 C 85.867 186.367 86.7 186.533 87.5 185 C 90.033 184.2 90.867 185.033 90 187.5 L 89 187.5 L 88.5 186 L 86.5 188 L 84 187.5 L 84.5 186 L 82 186.5 L 83 188.5 L 82 188.5 L 81.5 187 L 79.5 188 L 78 187.5 L 77.5 189 L 76.5 187 L 75 187.5 L 74.5 186 L 73.5 188 L 72.5 186 L 69.5 188 L 67.5 188 L 64.5 187 L 62.5 188 L 60.5 187 L 60.5 189 L 54 186 C 54.733 187.8 54.233 188.467 52.5 188 C 51.5 185.667 50.5 185.333 49.5 187 L 46.5 188 L 46.5 186 L 44.5 185 L 38.5 189 L 38 187 L 33 187 L 33 188.5 L 31 189.5 L 30.5 188 L 29.5 190 L 26.5 189 L 25 189.5 L 26 186.5 L 23.5 186 L 20 186.5 L 20.5 188 L 17.5 185 L 15.5 185 L 12.5 186 L 10.5 185 L 8.5 185 L 5 184.5 L 19.5 184 L 21 182.5 L 22.5 180 L 30.5 178 L 29 178.5 C 28.267 180.7 28.767 181.533 30.5 181 L 36 180 C 36.733 178.2 36.233 177.533 34.5 178 L 33 178.5 L 44 178.5 L 44.5 181 L 48.5 183 L 46 179.5 L 51 178 C 50 180.467 50.5 181.467 52.5 181 L 52 179.5 C 51.533 178.033 52.033 177.533 53.5 178 L 64 178 C 65.8 178.733 68.5 178 68.5 178 C 68.5 178 74.7 179.2 76.5 180 L 79 179.5 L 85.5 178 L 115 180.5 L 113 181.5 L 115.5 183 L 116.5 182 L 134.5 182 L 137.5 183 C 141.1 183.4 143.6 183.067 145 182 L 148.5 176 C 150.033 176.533 150.533 176.033 150 174.5 L 154 171.5 C 153.533 170.033 154.033 169.533 155.5 170 L 166 158.5 C 168.4 157.233 169.4 154.567 169 150.5 L 167 146.5 L 167 138.5 L 164 125.5 C 161.867 120.367 158.7 116.2 154.5 113 L 145 109 L 145 164.5 L 143.5 168 L 142 166.5 L 142 154.5 L 140.5 153 L 138 160 C 135.8 160.867 135.133 159.7 136 156.5 L 141 147.5 L 141 111.5 L 140 106 C 133.4 105 127.733 103 123 100 L 118.5 94 L 108.5 86 C 98.433 86.4 91.267 83.9 87 78.5 L 85.5 76 L 78 74 L 79 78.5 L 78 79.5 L 77.5 88 C 75.7 86.133 75.033 83.133 75.5 79 C 73.767 79.933 73.1 81.933 73.5 85 L 73 74.5 L 71.5 73 L 68 70.5 L 71 70 L 71.5 72 L 74 70.5 L 71 65 L 75.5 68 L 77 64.5 L 74.5 64 L 70 60.5 C 69.533 58.767 70.2 58.267 72 59 L 72 56.5 C 73.2 57.567 74.367 57.067 75.5 55 L 77.5 57 L 79.5 58 L 81.5 55 C 78.833 55.333 77.333 54.5 77 52.5 L 76 48.5 L 78 48.5 L 78.5 44 L 79.5 46 L 80 43 C 81.8 42.267 82.467 42.767 82 44.5 L 83 47 L 87 45 L 87 47 C 85.2 46.267 84.533 46.767 85 48.5 L 87.5 49 L 89.5 47 L 92 48.5 L 92.5 47 L 94 47.5 L 90.5 41 L 86.5 44 L 86 41 L 88 40.5 C 85.4 39.433 84.4 36.767 85 32.5 L 87 31.5 C 86.467 33.233 87.3 33.733 89.5 33 L 91 33.5 C 90.333 31.033 91 30.2 93 31 L 94.5 35 L 96 34.5 L 93 41.5 L 95.5 45 L 96 42 L 99 43.5 L 97 44.5 L 100.5 46 C 102.233 46.533 102.733 45.7 102 43.5 L 105 42.5 L 105.5 41 L 106 43 L 110 42 L 110 40 C 107.533 41 106.533 40.5 107 38.5 C 104.867 37.567 104.2 35.4 105 32 L 107.5 33 L 108.5 30 L 111 31.5 L 112.5 29 L 113 33 L 115.5 32 L 117 35.5 L 114.5 40 L 113 40.5 L 115 44 L 118 42.5 C 117.533 40.767 118.2 40.267 120 41 C 121 43.533 120.5 44.533 118.5 44 L 119.5 46 C 121.7 46.733 122.533 46.233 122 44.5 L 121 41.5 L 121.5 40 C 120.033 40.533 119.533 40.033 120 38.5 L 122 37.5 L 124.5 41 L 127.5 37 C 129.5 36.4 130 37.567 129 40.5 L 128.5 42 C 130.7 41.267 131.533 41.767 131 43.5 L 133 42.5 L 132 37.5 C 133.533 36.7 133.367 35.867 131.5 35 L 127.5 35 L 123 30.5 C 122.467 28.767 123.3 28.267 125.5 29 L 129.5 23 L 131.5 26 L 134 25 C 133.2 27 134.033 27.667 136.5 27 L 136 28.5 L 134 35 L 137.5 34 L 139.5 38 L 141 31.5 L 137.5 25 L 130 19.5 L 131 15 L 134 13.5 L 134.5 12 L 136 17 L 138 17 L 138 15 L 142 13 L 142.5 15 C 144.033 11.467 145.533 10.967 147 13.5 L 146 16.5 L 148.5 17 L 149.5 14 C 150.633 15.867 151.8 15.367 153 12.5 L 153 11 Z M 155 14 L 154 16 L 155 16 L 155 14 Z M 158 14 L 157 17 L 158 17 L 158 14 Z M 135 15 L 134 21 L 136 22 C 136.667 18.667 136.333 16.333 135 15 Z M 194 15 L 193 18 L 194 18 L 194 15 Z M 140 16 L 139 21 L 138 23 L 141 22 L 140 16 Z M 142 16 L 141 18 L 142 18 L 142 16 Z M 151 16 L 152 18 L 153 18 L 151 16 Z M 197 16 L 196 18 L 197 18 L 197 16 Z M 208 17 L 207 19 L 208 19 L 208 17 Z M 132 18 L 132 19 L 132 18 Z M 138 18 L 137 20 L 138 20 L 138 18 Z M 150 18 L 148 21 L 144 22 L 141 26 C 141.667 30 143.667 32.667 147 34 L 150 33 L 151 37 C 152.333 36.333 152.667 34.333 152 31 C 148.667 31.667 146.333 31 145 29 C 144.333 25.667 145.667 24.667 149 26 L 149 24 L 151 24 L 153 23 L 155 26 L 158 24 L 157 20 C 153.667 20.667 151.333 20 150 18 Z M 154 18 L 154 19 L 154 18 Z M 213 18 L 213 19 L 213 18 Z M 133 19 L 132 21 L 133 21 L 133 19 Z M 147 19 L 147 20 L 147 19 Z M 212 19 L 210 21 L 212 21 L 212 19 Z M 166 20 L 165 23 L 168 24 L 166 20 Z M 204 20 L 205 22 L 206 22 L 204 20 Z M 214 20 L 213 22 L 214 22 L 214 20 Z M 202 21 L 201 27 L 203 28 L 202 21 Z M 170 22 L 170 23 L 170 22 Z M 165 23 L 165 24 L 165 23 Z M 182 23 L 183 25 C 183.667 23 183.333 22.333 182 23 Z M 193 23 L 189 25 C 185 23.667 183.667 25 185 29 L 188 29 C 187.333 27 188 26.333 190 27 L 192 30 C 194 30.667 195.333 30.333 196 29 L 194 25 C 194.667 23 194.333 22.333 193 23 Z M 204 23 L 204 24 L 204 23 Z M 205 23 L 205 26 L 207 25 C 207.667 23 207 22.333 205 23 Z M 211 23 L 211 24 L 214 25 L 215 25 C 214.333 23 213 22.333 211 23 Z M 162 24 L 165 27 C 167 27.667 167.667 27 167 25 L 162 24 Z M 169 24 L 169 25 L 169 24 Z M 160 25 L 158 27 C 157.333 28.333 158 28.667 160 28 L 160 25 Z M 172 25 C 172 27.667 172.667 28 174 26 L 172 25 Z M 210 25 L 208 27 L 210 29 C 212 29.667 212.667 29 212 27 L 210 25 Z M 223 25 L 223 26 L 223 25 Z M 227 25 L 227 26 L 228 26 L 227 25 Z M 130 26 L 129 29 L 130 29 L 130 26 Z M 151 26 L 151 27 L 151 26 Z M 156 26 L 155 28 L 157 27 L 156 26 Z M 181 26 L 182 31 L 183 31 C 184.333 27 183.667 25.333 181 26 Z M 224 26 L 224 27 L 225 27 L 224 26 Z M 231 26 L 230 28 L 232 27 L 231 26 Z M 147 27 L 150 30 L 149 29 C 149.667 27 149 26.333 147 27 Z M 172 27 L 170 29 L 173 33 L 176 32 L 175 30 L 172 27 Z M 199 27 L 199 30 C 201.667 30.667 202.667 30.333 202 29 L 199 27 Z M 226 27 L 226 28 L 226 27 Z M 133 28 L 133 29 L 133 28 Z M 135 29 L 134 31 L 135 31 L 135 29 Z M 159 29 L 160 31 L 161 31 L 159 29 Z M 166 29 L 166 30 L 167 30 L 166 29 Z M 169 29 L 167 31 C 165 30.333 164.333 31 165 33 L 168 34 L 170 33 L 169 29 Z M 181 29 L 180 31 L 181 31 L 181 29 Z M 198 29 L 198 30 L 198 29 Z M 214 29 L 213 31 L 215 32 L 214 29 Z M 230 29 L 232 31 C 232.667 29 232 28.333 230 29 Z M 126 30 L 125 32 L 129 34 L 130 34 L 126 30 Z M 129 30 L 129 31 L 129 30 Z M 185 30 C 184.333 32 185 32.667 187 32 C 187.667 30 187 29.333 185 30 Z M 191 30 L 190 33 C 191.333 35 192.333 35 193 33 L 191 32 L 191 30 Z M 209 30 L 209 31 L 210 31 L 209 30 Z M 226 30 L 224 32 L 225 35 L 223 36 L 224 38 L 216 37 L 217 40 L 219 39 L 217 44 C 219 44.667 219.667 44 219 42 C 221 41.333 222.667 42 224 44 L 225 41 C 224.333 39 225 38.333 227 39 L 228 41 L 229 38 L 226 30 Z M 159 31 L 159 32 L 159 31 Z M 178 31 L 178 32 L 178 31 Z M 189 31 L 189 32 L 189 31 Z M 196 31 L 196 32 L 198 32 L 196 31 Z M 229 31 L 228 33 L 232 34 L 233 34 L 229 31 Z M 112 32 L 112 37 L 113 35 L 112 32 Z M 142 32 L 142 33 L 142 32 Z M 155 32 L 154 35 L 157 40 L 163 37 L 161 33 L 160 33 L 155 32 Z M 183 32 L 183 33 L 184 33 L 183 32 Z M 201 32 C 199 33.333 199 34.333 201 35 L 202 33 L 201 32 Z M 205 32 L 204 34 L 206 35 L 205 32 Z M 207 32 L 211 38 L 212 36 L 207 32 Z M 211 32 L 211 33 L 211 32 Z M 213 32 L 213 33 L 213 32 Z M 220 32 L 218 34 L 222 35 L 224 34 L 220 32 Z M 235 32 L 235 33 L 237 33 L 235 32 Z M 110 33 L 109 36 L 110 36 L 110 33 Z M 143 33 L 143 34 L 143 33 Z M 171 33 L 170 35 L 171 35 L 171 33 Z M 175 33 L 173 35 L 175 35 L 175 33 Z M 178 33 L 176 36 L 177 38 L 179 37 L 178 33 Z M 186 33 C 185.333 34.333 186.333 35 189 35 C 189.667 36.333 190.333 36.333 191 35 L 186 33 Z M 195 33 L 195 34 L 195 33 Z M 87 34 L 86 36 L 88 37 L 87 34 Z M 92 34 L 91 38 L 92 38 L 92 34 Z M 107 34 C 105.667 36 106 36.667 108 36 L 107 34 Z M 144 34 L 144 35 L 144 34 Z M 166 34 L 167 36 C 167.667 34 167.333 33.333 166 34 Z M 194 34 L 194 35 L 194 34 Z M 197 34 L 196 36 L 198 35 L 197 34 Z M 204 34 L 201 38 C 200.333 39.333 201 39.667 203 39 L 202 44 L 206 44 L 206 43 C 204 43.667 203.333 43.333 204 42 L 207 41 C 207.667 37.667 207.333 36.333 206 37 L 204 34 Z M 90 35 L 90 36 L 90 35 Z M 142 35 L 142 36 L 143 36 L 142 35 Z M 144 35 C 143.333 37 144 37.667 146 37 C 146.667 35 146 34.333 144 35 Z M 173 35 L 173 36 L 173 35 Z M 183 35 L 183 36 L 183 35 Z M 185 35 L 185 36 L 185 35 Z M 215 35 L 215 36 L 215 35 Z M 218 35 L 218 36 L 218 35 Z M 239 35 L 239 36 L 239 35 Z M 135 36 L 135 37 L 135 36 Z M 148 36 L 146 38 L 148 39 L 148 36 Z M 168 36 L 168 37 L 168 36 Z M 175 36 L 175 37 L 175 36 Z M 181 36 L 178 40 L 179 42 C 179.667 45.333 179.333 47.667 178 49 L 184 47 L 186 48 L 181 43 L 182 41 L 186 43 L 185 40 L 181 36 Z M 184 36 L 184 37 L 184 36 Z M 186 36 L 184 38 L 187 38 L 186 36 Z M 188 36 L 188 37 L 188 36 Z M 195 36 L 194 39 L 198 41 C 200 41.667 200.333 40.333 199 37 L 198 37 L 195 36 Z M 94 37 L 92 39 L 94 39 L 94 37 Z M 115 37 L 115 38 L 115 37 Z M 134 37 L 134 38 L 134 37 Z M 138 37 L 137 39 L 138 39 L 138 37 Z M 190 37 L 188 38 L 189 40 L 192 38 L 190 37 Z M 114 38 L 114 39 L 114 38 Z M 135 38 L 135 39 L 135 38 Z M 165 38 L 165 39 L 166 39 L 165 38 Z M 173 38 L 173 39 L 174 39 L 173 38 Z M 176 38 L 176 39 L 176 38 Z M 209 38 L 209 42 L 210 42 L 209 38 Z M 128 39 L 128 40 L 128 39 Z M 136 39 L 136 40 L 136 39 Z M 149 39 L 147 41 L 149 41 L 149 39 Z M 160 39 L 160 40 L 160 39 Z M 162 39 L 159 43 L 163 45 L 163 40 L 162 39 Z M 168 39 L 167 40 C 164.333 39.333 163.667 40.333 165 43 L 171 41 L 168 39 Z M 127 40 L 125 42 L 126 44 L 127 42 L 127 40 Z M 140 40 L 137 42 C 137.667 43.333 139.333 43.667 142 43 L 140 40 Z M 158 40 L 156 43 L 159 41 L 158 40 Z M 176 40 L 174 45 L 176 46 L 176 40 Z M 188 40 L 187 43 L 189 44 L 188 40 Z M 189 40 C 188.333 42 189 42.667 191 42 C 191.667 40 191 39.333 189 40 Z M 192 40 L 193 43 L 195 42 L 192 40 Z M 213 40 L 212 43 L 213 43 L 213 40 Z M 111 41 C 109.667 44.333 110.333 45.667 113 45 C 114.333 41.667 113.667 40.333 111 41 Z M 123 41 L 122 44 L 123 44 L 123 41 Z M 152 41 L 152 42 L 152 41 Z M 172 41 L 172 42 L 172 41 Z M 135 42 L 135 44 C 136.333 46 137.333 46 138 44 L 135 42 Z M 146 42 L 146 43 L 149 43 L 146 42 Z M 151 42 L 147 45 L 152 45 L 151 42 Z M 198 42 L 198 43 L 198 42 Z M 209 42 L 209 43 L 209 42 Z M 130 43 L 130 44 L 130 43 Z M 165 43 L 165 44 L 165 43 Z M 169 43 L 169 44 L 169 43 Z M 171 43 L 169 46 L 171 46 L 171 43 Z M 194 43 L 192 45 L 194 45 L 194 43 Z M 199 43 L 199 44 L 199 43 Z M 210 43 L 210 44 L 210 43 Z M 226 43 L 225 45 L 226 45 L 226 43 Z M 235 43 L 234 45 L 238 48 L 235 43 Z M 239 43 L 238 45 L 239 45 L 239 43 Z M 94 44 L 94 45 L 94 44 Z M 106 44 L 106 45 L 106 44 Z M 115 44 L 114 47 L 115 47 L 115 44 Z M 124 44 L 124 45 L 124 44 Z M 128 44 L 128 45 L 129 45 L 128 44 Z M 139 44 L 139 45 L 140 45 L 139 44 Z M 143 44 L 142 46 L 143 46 L 143 44 Z M 156 44 L 156 45 L 158 45 L 156 44 Z M 168 44 L 168 45 L 168 44 Z M 173 44 L 173 45 L 173 44 Z M 185 44 L 186 46 L 188 46 L 185 44 Z M 196 44 L 193 48 L 197 50 L 198 48 C 195.333 46.667 195 45.667 197 45 L 196 44 Z M 216 44 L 216 45 L 216 44 Z M 222 44 L 222 45 L 223 45 L 222 44 Z M 229 44 L 229 45 L 229 44 Z M 231 44 L 228 46 L 228 47 L 231 46 L 230 48 C 229.333 49.333 230 49.667 232 49 L 233 46 L 231 44 Z M 95 45 L 95 46 L 95 45 Z M 107 45 L 107 46 L 107 45 Z M 109 45 L 108 47 L 109 47 L 109 45 Z M 131 45 L 131 46 L 131 45 Z M 134 45 L 134 46 L 135 46 L 134 45 Z M 145 45 L 141 47 L 142 50 L 141 51 C 140.333 52.333 141 52.667 143 52 L 146 47 C 146.667 45 146.333 44.333 145 45 Z M 154 45 L 151 48 L 154 53 L 155 50 C 156.333 46 156 44.333 154 45 Z M 161 45 L 161 46 L 161 45 Z M 167 45 L 167 46 L 167 45 Z M 174 45 L 174 46 L 174 45 Z M 203 45 L 204 50 L 201 48 L 198 54 L 203 57 L 209 56 L 207 51 L 206 48 C 206.667 44.667 205.667 43.667 203 45 Z M 207 45 L 207 47 L 209 46 L 207 45 Z M 217 45 L 217 46 L 218 46 L 217 45 Z M 82 46 C 80.667 49.333 81 51.333 83 52 L 84 52 L 82 46 Z M 97 46 L 95 48 L 99 49 L 97 46 Z M 104 46 C 102.667 48 103 48.667 105 48 L 104 46 Z M 124 46 L 124 47 L 125 47 L 124 46 Z M 158 46 L 159 47 L 160 48 C 160.667 46 160 45.333 158 46 Z M 162 46 L 162 47 L 163 47 L 162 46 Z M 172 46 L 172 47 L 172 46 Z M 202 46 L 202 47 L 202 46 Z M 213 46 L 211 49 L 213 48 L 213 46 Z M 100 47 L 102 50 C 103.333 50.667 103.667 50.333 103 49 L 100 47 Z M 111 47 L 110 49 L 112 48 L 111 47 Z M 119 47 L 119 48 L 119 47 Z M 134 47 L 132 49 L 133 50 L 136 48 L 134 47 Z M 138 47 L 135 52 C 136.333 54 137.667 53.667 139 51 L 138 47 Z M 216 47 L 218 50 C 220 50.667 221.333 50.333 222 49 L 216 47 Z M 80 48 L 80 49 L 80 48 Z M 114 48 L 109 50 L 111 54 L 116 51 L 114 48 Z M 121 48 L 121 50 L 124 50 L 121 48 Z M 125 48 L 125 49 L 125 48 Z M 157 48 L 157 50 L 162 50 L 157 48 Z M 172 48 L 172 52 L 175 51 L 172 48 Z M 190 48 L 190 49 L 190 48 Z M 234 48 L 233 52 L 234 52 L 234 48 Z M 236 48 C 234 52 234.333 53.667 237 53 L 238 56 L 238 49 L 236 48 Z M 240 48 L 239 50 L 240 50 L 240 48 Z M 90 49 L 89 52 L 92 54 L 90 49 Z M 95 49 L 95 53 L 98 52 L 95 51 L 95 49 Z M 109 49 L 109 50 L 109 49 Z M 126 49 L 126 50 L 126 49 Z M 146 49 L 146 50 L 147 50 L 146 49 Z M 149 49 L 145 52 C 146.333 54 147.667 53.667 149 51 L 149 49 Z M 167 49 L 167 50 L 167 49 Z M 169 49 L 170 51 C 170.667 49 170.333 48.333 169 49 Z M 182 49 L 182 50 L 183 50 L 182 49 Z M 186 49 L 185 51 L 186 51 L 186 49 Z M 194 49 L 194 50 L 194 49 Z M 225 49 C 223 50.333 223 51.333 225 52 L 226 52 L 225 49 Z M 230 49 L 229 51 L 230 51 L 230 49 Z M 243 49 C 242.333 51 243 51.667 245 51 C 245.667 49 245 48.333 243 49 Z M 246 49 L 246 52 L 248 51 C 248.667 49 248 48.333 246 49 Z M 78 50 L 78 53 L 82 54 L 81 52 L 78 50 Z M 85 50 L 85 51 L 87 51 L 85 50 Z M 99 50 L 99 51 L 99 50 Z M 101 50 L 101 51 L 101 50 Z M 104 50 L 104 51 L 105 51 L 104 50 Z M 120 50 L 119 52 L 120 52 L 120 50 Z M 125 50 L 125 51 L 125 50 Z M 156 50 C 154.667 52 155 52.667 157 52 L 156 50 Z M 164 50 C 163.333 52.667 164 53.667 166 53 C 166.667 50.333 166 49.333 164 50 Z M 188 50 L 184 53 L 183 51 L 179 52 L 181 58 C 181.667 59.333 181.333 59.667 180 59 L 176 53 L 172 57 L 169 67 L 171 66 L 173 66 L 173 71 L 175 71 L 177 68 L 176 67 L 173 64 L 173 62 L 177 63 L 176 61 C 177.333 58.333 179 58.667 181 62 L 183 59 L 183 63 L 185 62 L 184 58 L 187 59 L 190 55 L 188 50 Z M 212 50 L 213 53 L 214 51 L 212 50 Z M 242 50 L 241 52 L 242 52 L 242 50 Z M 102 51 L 102 52 L 102 51 Z M 123 51 L 124 53 C 124.667 51 124.333 50.333 123 51 Z M 126 51 L 126 52 L 126 51 Z M 129 51 L 127 56 L 130 54 L 129 51 Z M 132 51 L 133 53 C 133.667 51 133.333 50.333 132 51 Z M 159 51 L 158 53 L 163 54 L 163 53 C 162.333 51 161.667 50.667 161 52 L 159 51 Z M 191 51 C 189.667 53 190 53.667 192 53 L 191 51 Z M 209 51 L 209 52 L 209 51 Z M 223 51 L 223 52 L 223 51 Z M 231 51 L 231 52 L 231 51 Z M 251 51 L 251 52 L 251 51 Z M 87 52 L 87 53 L 87 52 Z M 100 52 L 96 56 L 99 56 C 101.667 54.667 102 53.333 100 52 Z M 105 52 L 105 53 L 105 52 Z M 117 52 L 113 56 L 116 59 L 116 55 L 120 57 L 117 52 Z M 121 52 L 121 55 C 123 54.333 123 53.333 121 52 Z M 127 52 L 127 53 L 127 52 Z M 149 52 L 149 53 L 149 52 Z M 210 52 L 209 54 L 210 54 L 210 52 Z M 228 52 L 228 55 L 229 55 C 229.667 52.333 229.333 51.333 228 52 Z M 243 52 L 243 53 L 243 52 Z M 88 53 L 88 54 L 88 53 Z M 94 53 L 94 54 L 94 53 Z M 96 53 L 96 54 L 96 53 Z M 107 53 L 105 55 L 103 54 L 100 58 C 100.667 59.333 102.667 59.667 106 59 L 106 62 L 103 63 L 107 64 L 107 62 L 110 62 L 107 61 L 109 60 L 107 53 Z M 139 53 L 137 57 L 139 56 L 139 53 Z M 141 53 L 142 56 L 145 56 L 141 53 Z M 144 53 L 144 54 L 146 54 L 144 53 Z M 150 53 L 150 55 L 152 54 L 150 53 Z M 196 53 L 195 55 L 196 55 L 196 53 Z M 219 53 L 219 54 L 219 53 Z M 231 53 L 230 55 L 231 55 L 231 53 Z M 235 53 L 233 55 L 235 55 L 235 53 Z M 241 53 L 241 54 L 241 53 Z M 244 53 L 244 54 L 244 53 Z M 89 54 L 89 56 L 87 55 C 85 54.333 84.333 55 85 57 L 89 59 L 90 57 C 90.667 54.333 90.333 53.333 89 54 Z M 123 54 L 123 55 L 123 54 Z M 135 54 L 135 55 L 135 54 Z M 158 54 L 156 57 L 156 58 L 161 57 L 158 54 Z M 161 54 L 161 55 L 162 55 L 161 54 Z M 167 54 L 167 55 L 167 54 Z M 168 54 C 166.667 57.333 167.333 58.667 170 58 L 171 56 L 168 54 Z M 226 54 L 226 55 L 226 54 Z M 243 54 L 240 58 L 242 58 C 244.667 56.667 245 55.333 243 54 Z M 262 54 L 261 57 L 262 57 L 262 54 Z M 126 55 C 124 57.667 124.333 58.667 127 58 L 126 55 Z M 136 55 L 135 57 L 136 57 L 136 55 Z M 150 55 L 150 56 L 150 55 Z M 153 55 L 153 58 C 155 57.333 155 56.333 153 55 Z M 163 55 L 163 56 L 163 55 Z M 213 55 L 213 56 L 213 55 Z M 217 55 L 217 56 L 217 55 Z M 222 55 L 222 57 L 218 58 L 216 58 L 215 61 L 211 60 L 210 62 C 214 61.333 216.667 62.667 218 66 L 219 61 C 220.333 61.667 220.667 63.333 220 66 C 222 66.667 222.667 66.333 222 65 L 225 64 C 225.667 61.333 224.667 60.667 222 62 L 222 60 L 224 60 C 225.333 56 224.667 54.333 222 55 Z M 227 55 L 227 56 L 227 55 Z M 83 56 C 81 58.667 81.333 59.667 84 59 L 83 56 Z M 95 56 L 95 57 L 95 56 Z M 111 56 L 111 57 L 111 56 Z M 123 56 L 123 57 L 123 56 Z M 132 56 L 133 58 L 134 58 L 132 56 Z M 148 56 L 148 57 L 148 56 Z M 195 56 L 193 58 L 195 58 L 194 62 L 196 63 L 199 60 C 200.333 60.667 200.667 60 200 58 L 195 56 Z M 232 56 L 232 57 L 232 56 Z M 236 56 L 236 57 L 236 56 Z M 247 56 L 246 58 L 247 58 L 247 56 Z M 257 56 L 257 59 C 256.333 60.333 257 60.667 259 60 L 257 56 Z M 76 57 L 76 61 L 77 61 L 76 57 Z M 91 57 L 91 60 L 95 61 L 96 59 L 91 57 Z M 110 57 L 109 59 L 110 59 L 110 57 Z M 120 57 L 120 59 L 122 58 L 120 57 Z M 124 57 L 124 58 L 124 57 Z M 129 57 L 129 58 L 129 57 Z M 131 57 L 130 59 L 132 60 L 131 57 Z M 140 57 L 137 59 L 140 59 L 140 57 Z M 148 57 L 148 59 L 151 60 L 151 59 L 148 57 Z M 163 57 L 163 58 L 164 58 L 163 57 Z M 210 57 L 210 58 L 210 57 Z M 227 57 L 227 60 L 230 58 L 227 57 Z M 233 57 L 233 61 C 232.333 62.333 233.333 62.667 236 62 C 236.667 60 236.333 59.333 235 60 L 233 57 Z M 235 57 L 235 58 L 235 57 Z M 237 57 L 237 58 L 237 57 Z M 245 57 L 243 60 C 243 62 244 63.333 246 64 L 247 62 L 245 57 Z M 81 58 L 78 62 C 77.333 63.333 78 63.667 80 63 L 81 60 L 81 58 Z M 98 58 L 97 62 L 100 62 L 98 58 Z M 118 58 L 117 60 L 118 60 L 118 58 Z M 128 58 L 127 60 L 128 60 L 128 58 Z M 142 58 L 142 59 L 142 58 Z M 145 58 L 144 60 L 146 59 L 145 58 Z M 154 58 L 153 60 L 154 60 L 154 58 Z M 160 58 L 160 59 L 160 58 Z M 190 58 L 188 61 L 190 60 L 190 58 Z M 201 58 L 202 60 L 206 59 L 201 58 Z M 226 58 L 225 60 L 226 60 L 226 58 Z M 265 58 L 265 59 L 266 59 L 265 58 Z M 268 58 L 268 59 L 268 58 Z M 75 59 L 75 60 L 75 59 Z M 85 59 L 83 62 L 89 64 L 89 63 L 92 64 L 91 60 L 89 61 L 85 59 Z M 101 59 L 101 60 L 101 59 Z M 125 59 C 121.667 60.333 121.333 61.667 124 63 L 125 61 L 125 59 Z M 134 59 L 134 60 L 134 59 Z M 147 59 L 146 61 L 147 61 L 147 59 Z M 159 59 L 159 60 L 159 59 Z M 165 59 L 162 61 L 167 64 L 167 62 L 170 62 L 165 59 Z M 209 59 L 209 60 L 209 59 Z M 239 59 L 238 61 L 239 61 L 239 59 Z M 248 59 L 248 60 L 248 59 Z M 264 59 L 264 60 L 264 59 Z M 101 60 L 100 63 L 102 68 L 103 61 L 101 60 Z M 116 60 L 116 61 L 116 60 Z M 122 60 L 122 61 L 122 60 Z M 127 60 L 127 61 L 127 60 Z M 129 60 L 127 63 L 130 64 L 131 65 L 131 62 C 133 62.667 133.667 62.333 133 61 L 132 61 L 129 60 Z M 137 60 L 140 63 L 141 63 L 137 60 Z M 150 60 L 150 61 L 150 60 Z M 160 60 L 158 62 L 159 66 L 162 66 L 160 60 Z M 191 60 C 190.333 62 191 62.667 193 62 C 193.667 60 193 59.333 191 60 Z M 208 60 L 208 61 L 208 60 Z M 73 61 L 73 62 L 73 61 Z M 114 61 L 115 65 L 116 62 L 114 61 Z M 136 61 L 135 64 L 133 67 L 136 66 C 139.333 64.667 139.333 63 136 61 Z M 151 61 L 151 62 L 151 61 Z M 179 61 L 178 63 L 180 64 L 179 61 Z M 202 61 L 202 62 L 202 61 Z M 229 61 L 227 65 L 229 64 L 229 61 Z M 231 61 L 230 63 L 231 63 L 231 61 Z M 241 61 L 239 65 L 242 66 L 242 61 L 241 61 Z M 258 61 L 257 65 L 259 64 L 258 61 Z M 261 61 L 261 62 L 261 61 Z M 97 62 L 97 63 L 97 62 Z M 146 62 L 146 63 L 146 62 Z M 148 62 L 146 66 C 149.333 66.667 151.333 66.333 152 65 L 148 62 Z M 201 62 L 201 63 L 201 62 Z M 275 62 C 273.667 64 274 64.667 276 64 L 275 62 Z M 82 63 L 82 64 L 82 63 Z M 95 63 L 95 64 L 95 63 Z M 99 63 L 99 64 L 99 63 Z M 119 63 L 118 65 L 115 67 L 119 67 L 120 68 L 119 63 Z M 122 63 L 124 67 L 124 65 L 122 63 Z M 134 63 L 134 64 L 134 63 Z M 156 63 L 156 64 L 156 63 Z M 175 63 L 175 64 L 175 63 Z M 186 63 L 186 64 L 186 63 Z M 192 63 L 190 64 L 190 65 L 193 64 L 192 63 Z M 200 63 L 200 64 L 200 63 Z M 211 63 L 211 64 L 213 64 L 211 63 Z M 232 63 L 230 66 L 233 65 C 233.667 63 233.333 62.333 232 63 Z M 236 63 L 236 64 L 236 63 Z M 244 63 C 242 66.333 242.333 67.667 245 67 L 244 63 Z M 248 63 L 247 65 L 248 65 L 248 63 Z M 250 63 L 249 65 L 250 65 L 250 63 Z M 256 63 L 255 66 L 256 66 L 256 63 Z M 263 63 L 262 67 L 263 67 L 263 63 Z M 265 63 L 264 65 L 265 65 L 265 63 Z M 80 64 L 79 66 L 81 67 L 80 64 Z M 83 64 L 83 65 L 83 64 Z M 86 64 L 86 65 L 88 65 L 86 64 Z M 96 64 L 96 66 L 96 67 L 98 66 C 98.667 64 98 63.333 96 64 Z M 108 64 C 108 66.667 108.667 67 110 65 L 108 64 Z M 126 64 L 126 65 L 126 64 Z M 140 64 L 140 65 L 140 64 Z M 199 64 L 195 71 L 196 72 L 199 67 L 199 64 Z M 202 64 C 200 66 199.333 69 200 73 L 202 73 L 201 69 L 205 70 L 206 66 L 206 64 L 202 66 L 202 64 Z M 208 64 L 207 67 L 209 67 L 208 64 Z M 226 64 L 226 65 L 226 64 Z M 235 64 L 234 66 L 235 66 L 235 64 Z M 267 64 L 267 65 L 267 64 Z M 89 65 L 89 66 L 90 66 L 89 65 Z M 100 65 L 96 68 L 97 71 L 97 72 L 101 72 L 100 65 Z M 104 65 L 104 68 L 106 67 L 104 65 Z M 112 65 L 110 69 L 113 68 L 112 72 C 114.667 72.667 115.333 71 114 67 L 112 65 Z M 122 65 L 121 68 L 122 68 L 122 65 Z M 142 65 L 135 69 C 138.333 68.333 140.333 69 141 71 C 141.667 72.333 141.333 72.667 140 72 L 142 75 L 147 73 L 148 70 L 144 67 C 144.667 65 144 64.333 142 65 Z M 153 65 L 153 67 L 155 68 L 154 70 L 158 71 C 158.667 69 158 68.333 156 69 L 156 65 L 153 65 Z M 158 65 L 157 67 L 159 68 L 158 65 Z M 168 65 L 167 69 L 169 69 L 168 65 Z M 177 65 L 177 66 L 179 66 L 177 65 Z M 186 65 L 183 66 L 185 69 L 187 68 C 187.667 65.333 187.333 64.333 186 65 Z M 194 65 L 194 66 L 194 65 Z M 210 65 L 212 67 L 211 70 L 212 71 L 216 69 L 214 67 C 214.667 64.333 213.333 63.667 210 65 Z M 224 65 C 222.667 67 223 67.667 225 67 L 224 65 Z M 247 65 L 246 67 L 247 67 L 247 65 Z M 249 65 L 249 66 L 249 65 Z M 266 65 L 265 67 L 266 67 L 266 65 Z M 128 66 L 128 67 L 128 66 Z M 164 66 L 162 68 L 164 68 L 164 66 Z M 192 66 L 193 68 C 193.667 66 193.333 65.333 192 66 Z M 216 66 L 217 68 L 218 68 L 216 66 Z M 234 66 L 234 67 L 234 66 Z M 240 66 L 241 69 L 243 69 L 240 66 Z M 251 66 L 251 67 L 251 66 Z M 253 66 L 252 68 L 253 68 L 253 66 Z M 259 66 L 258 67 C 256 66.333 255.333 67 256 69 L 260 67 L 259 66 Z M 271 66 L 271 67 L 271 66 Z M 74 67 L 73 69 L 74 69 L 74 67 Z M 78 67 L 77 69 L 78 69 L 78 67 Z M 85 67 L 85 73 L 88 74 L 90 68 L 85 67 Z M 107 67 L 106 69 L 107 69 L 107 67 Z M 109 67 L 108 69 L 109 69 L 109 67 Z M 124 67 L 124 69 L 126 68 L 124 67 Z M 190 67 L 187 73 L 189 75 L 192 68 L 190 67 Z M 226 67 L 226 68 L 227 68 L 226 67 Z M 231 67 L 232 69 L 234 69 L 231 67 Z M 238 67 L 237 69 L 238 69 L 238 67 Z M 250 67 L 248 69 L 250 69 L 250 67 Z M 269 67 L 269 68 L 270 68 L 269 67 Z M 279 67 L 280 69 L 281 69 L 279 67 Z M 83 68 L 82 69 C 80 68.333 79.333 69.333 80 72 L 84 69 L 83 68 Z M 118 68 L 119 70 L 121 70 L 118 68 Z M 127 68 L 125 70 L 128 70 L 127 68 Z M 152 68 L 149 75 L 145 76 L 147 76 L 149 76 L 154 82 L 155 79 L 161 77 L 160 73 L 154 77 L 157 73 L 152 68 Z M 162 68 L 162 69 L 162 68 Z M 178 68 L 176 70 L 178 70 L 178 68 Z M 210 68 L 209 70 L 210 70 L 210 68 Z M 219 68 L 219 69 L 219 68 Z M 224 68 L 224 69 L 225 69 L 224 68 Z M 229 68 L 229 69 L 229 68 Z M 260 68 L 260 70 L 263 71 L 263 70 L 260 68 Z M 75 69 L 76 71 C 76.667 69 76.333 68.333 75 69 Z M 95 69 L 95 70 L 95 69 Z M 110 69 L 110 70 L 110 69 Z M 172 69 L 172 70 L 172 69 Z M 181 69 L 180 72 L 185 75 L 185 72 L 181 69 Z M 208 69 L 207 71 L 208 71 L 208 69 Z M 217 69 L 217 70 L 217 69 Z M 230 69 L 233 74 C 235 74 235.667 72.667 235 70 L 234 70 L 230 69 Z M 237 69 L 236 71 L 237 71 L 237 69 Z M 238 69 L 237 72 L 238 76 L 240 71 L 242 71 L 238 69 Z M 246 69 L 246 70 L 246 69 Z M 251 69 L 250 70 C 248 69.333 247.333 70 248 72 C 246.667 72.667 247 73.333 249 74 L 249 72 L 252 71 C 252.667 69 252.333 68.333 251 69 Z M 94 70 L 94 71 L 94 70 Z M 117 70 L 117 73 L 120 72 L 117 70 Z M 131 70 L 131 71 L 131 70 Z M 137 70 L 137 71 L 139 71 L 137 70 Z M 166 70 L 166 71 L 167 71 L 166 70 Z M 218 70 L 215 73 C 214.333 75 215.333 75.333 218 74 L 219 72 C 219.667 70 219.333 69.333 218 70 Z M 226 70 L 225 72 L 226 72 L 226 70 Z M 256 70 L 257 72 L 260 71 L 256 70 Z M 77 71 L 77 72 L 77 71 Z M 90 71 L 89 77 L 103 83 L 104 83 L 99 74 L 95 73 L 94 78 L 92 75 L 92 73 C 92.667 71 92 70.333 90 71 Z M 95 71 L 94 73 L 95 73 L 95 71 Z M 105 71 L 107 73 L 109 73 C 108.333 71 107 70.333 105 71 Z M 127 71 L 126 74 L 128 75 L 127 71 Z M 129 71 L 129 72 L 130 72 L 129 71 Z M 136 71 L 136 72 L 136 71 Z M 204 71 L 205 73 L 206 73 L 204 71 Z M 209 71 L 209 72 L 209 71 Z M 214 71 L 213 73 L 215 72 L 214 71 Z M 224 71 L 224 72 L 224 71 Z M 228 71 L 228 76 L 228 74 C 229.333 72.667 229.333 71.667 228 71 Z M 243 71 L 242 73 L 245 72 L 243 71 Z M 73 72 L 75 74 L 76 74 L 73 72 Z M 83 72 L 83 73 L 83 72 Z M 131 72 L 131 73 L 131 72 Z M 133 72 L 133 75 L 135 74 C 135.667 72 135 71.333 133 72 Z M 137 72 L 137 73 L 137 72 Z M 162 72 L 162 75 L 165 76 C 167 76.667 167.667 76.333 167 75 C 166.333 72.333 164.667 71.333 162 72 Z M 167 72 L 168 74 C 168.667 72 168.333 71.333 167 72 Z M 173 72 C 171.667 74 172 74.667 174 74 L 173 72 Z M 222 72 C 218.667 73.333 217.333 76.333 218 81 L 221 82 C 222.333 82.667 222.667 81.667 222 79 L 226 80 L 225 74 L 222 72 Z M 225 72 L 225 73 L 225 72 Z M 265 72 L 263 76 L 262 78 C 263.333 77.333 263.667 78 263 80 L 255 85 L 256 89 L 260 90 L 261 85 C 263 86.333 263.667 88.667 263 92 C 265.667 92.667 266.333 91.333 265 88 L 265 86 L 264 84 L 265 82 L 265 80 L 264 78 L 265 75 L 265 72 Z M 268 72 L 268 73 L 268 72 Z M 94 73 L 94 74 L 94 73 Z M 101 73 L 100 76 L 101 76 L 101 73 Z M 102 73 L 103 78 L 107 80 L 106 78 C 107.333 73.333 106 71.667 102 73 Z M 116 73 L 116 74 L 116 73 Z M 123 73 L 117 77 L 117 82 L 120 90 C 122.667 94 126.667 96.667 132 98 L 134 97 L 132 92 L 124 89 L 121 85 L 124 86 L 123 85 C 122.333 83 123.667 82.333 127 83 L 129 83 L 130 85 L 131 82 L 125 80 L 123 77 L 125 76 L 123 73 Z M 125 73 L 125 74 L 125 73 Z M 138 73 L 138 74 L 138 73 Z M 178 73 C 177.333 75 178.333 75.667 181 75 C 181.667 73 180.667 72.333 178 73 Z M 187 73 L 186 77 L 188 78 L 187 73 Z M 193 73 L 191 77 L 194 76 L 193 73 Z M 241 73 L 241 74 L 241 73 Z M 245 73 L 241 78 L 243 77 L 246 78 L 247 75 L 245 73 Z M 252 73 L 253 75 L 254 75 L 252 73 Z M 259 73 L 259 75 L 261 74 L 259 73 Z M 112 74 L 111 78 L 110 78 L 108 78 L 114 87 C 115.333 87.667 115.667 86 115 82 L 115 80 L 114 75 L 112 74 Z M 126 74 L 126 75 L 126 74 Z M 157 74 L 157 75 L 157 74 Z M 172 74 L 172 75 L 172 74 Z M 200 74 L 202 76 L 204 75 L 200 74 Z M 232 74 L 232 75 L 232 74 Z M 77 75 L 77 76 L 77 75 Z M 131 75 L 130 77 L 131 77 L 131 75 Z M 136 75 L 134 77 L 136 78 L 136 75 Z M 138 75 C 136.667 77 137 78.333 139 79 L 141 78 C 142.333 78.667 142.333 79.667 141 81 L 142 84 L 144 84 L 143 82 L 145 82 L 146 82 L 146 77 C 141.333 78.333 138.667 77.667 138 75 Z M 141 75 L 141 76 L 141 75 Z M 170 75 L 170 76 L 170 75 Z M 178 75 L 178 76 L 178 75 Z M 182 75 L 182 79 C 181.333 80.333 182 80.667 184 80 L 182 75 Z M 184 75 L 184 76 L 184 75 Z M 214 75 L 214 76 L 216 76 L 214 75 Z M 234 75 L 234 76 L 234 75 Z M 250 75 L 248 78 C 247.333 80 248 80.667 250 80 L 250 75 Z M 255 75 L 255 76 L 255 75 Z M 75 76 L 75 77 L 75 76 Z M 88 76 L 88 77 L 88 76 Z M 102 76 L 102 77 L 102 76 Z M 129 76 C 127.667 78 128 78.667 130 78 L 129 76 Z M 164 76 L 164 77 L 164 76 Z M 169 76 L 169 77 L 169 76 Z M 195 76 C 195.667 78 195.333 78.667 194 78 L 194 80 C 193.333 81.333 194 81.667 196 81 L 197 83 L 197 80 L 197 78 C 197.667 76 197 75.333 195 76 Z M 199 76 L 199 77 L 199 76 Z M 207 76 L 207 77 L 207 76 Z M 210 76 L 207 78 L 204 82 L 209 80 L 211 84 L 211 82 L 213 82 L 215 81 L 212 79 L 210 76 Z M 235 76 L 235 77 L 235 76 Z M 239 76 L 239 77 L 239 76 Z M 253 76 L 254 78 C 254.667 76 254.333 75.333 253 76 Z M 260 76 L 260 77 L 260 76 Z M 266 76 L 266 77 L 266 76 Z M 77 77 L 77 78 L 78 78 L 77 77 Z M 89 77 L 89 78 L 89 77 Z M 126 77 L 126 78 L 126 77 Z M 132 77 L 131 79 L 132 79 L 132 77 Z M 149 77 L 149 78 L 149 77 Z M 172 77 L 172 78 L 172 77 Z M 173 77 C 172.333 79 173 79.667 175 79 L 174 85 C 174.667 86.333 176.333 86.667 179 86 L 177 80 L 173 77 Z M 177 77 L 177 78 L 177 77 Z M 200 77 L 200 78 L 200 77 Z M 203 77 L 203 78 L 204 78 L 203 77 Z M 206 77 L 206 78 L 206 77 Z M 230 77 L 229 79 L 230 79 L 230 77 Z M 232 77 C 230.667 79 231 79.667 233 79 L 232 77 Z M 258 77 L 256 81 L 258 81 L 258 77 Z M 90 78 L 90 79 L 90 78 Z M 103 78 L 103 79 L 103 78 Z M 127 78 L 128 80 C 128.667 78 128.333 77.333 127 78 Z M 134 78 L 133 80 L 134 80 L 134 78 Z M 150 78 L 150 82 L 152 83 L 150 78 Z M 160 78 L 160 79 L 161 79 L 160 78 Z M 164 78 L 162 79 L 160 82 L 160 84 L 161 85 L 167 79 L 169 79 L 164 78 Z M 178 78 L 178 79 L 178 78 Z M 187 78 L 186 80 L 187 80 L 187 78 Z M 201 78 L 201 79 L 201 78 Z M 235 78 L 235 79 L 235 78 Z M 243 78 L 243 81 L 246 80 L 243 78 Z M 247 78 L 247 79 L 247 78 Z M 254 78 C 253.333 80 254 80.667 256 80 C 256.667 78 256 77.333 254 78 Z M 91 79 L 92 81 L 101 85 L 107 85 C 100.333 84.333 95 82.333 91 79 Z M 104 79 L 104 80 L 104 79 Z M 137 79 L 136 81 L 139 81 L 137 79 Z M 158 79 L 156 81 L 158 81 L 158 79 Z M 173 79 L 170 80 L 172 84 L 173 81 L 173 79 Z M 179 79 L 179 80 L 179 79 Z M 191 79 L 189 81 L 190 82 L 193 80 L 191 79 Z M 229 79 L 229 80 L 229 79 Z M 261 79 L 261 80 L 261 79 Z M 129 80 L 129 81 L 129 80 Z M 131 80 L 131 81 L 131 80 Z M 148 80 L 148 81 L 148 80 Z M 199 80 L 199 81 L 199 80 Z M 201 80 L 200 82 L 201 82 L 201 80 Z M 232 80 C 230.667 82 231 82.667 233 82 L 232 80 Z M 251 80 L 251 81 L 251 80 Z M 260 80 L 260 81 L 260 80 Z M 106 81 L 106 82 L 106 81 Z M 135 81 L 134 83 L 135 83 L 135 81 Z M 149 81 L 149 82 L 149 81 Z M 156 81 L 156 82 L 156 81 Z M 182 81 L 182 82 L 182 81 Z M 203 81 L 202 84 L 204 84 L 203 81 Z M 225 81 L 225 82 L 225 81 Z M 241 81 L 241 82 L 241 81 Z M 245 81 L 241 83 L 243 84 L 242 84 L 242 85 L 245 84 L 245 81 Z M 252 81 L 252 82 L 252 81 Z M 256 81 L 255 83 L 256 83 L 256 81 Z M 107 82 L 108 84 L 109 84 L 107 82 Z M 140 82 L 139 84 L 140 84 L 140 82 Z M 150 82 L 149 84 L 150 84 L 150 82 Z M 157 82 L 158 84 L 159 84 L 157 82 Z M 160 82 L 160 83 L 160 82 Z M 166 82 L 167 84 L 169 83 L 166 82 Z M 174 82 L 173 84 L 174 84 L 174 82 Z M 184 82 L 182 84 L 184 84 L 184 82 Z M 188 82 L 186 86 L 187 90 L 188 87 L 188 82 Z M 223 82 L 223 83 L 223 82 Z M 248 82 C 246.667 84 247 85.333 249 86 L 252 84 L 248 82 Z M 147 83 L 147 84 L 147 83 Z M 154 83 C 152 83.667 151.667 84.667 153 86 C 152.333 88.667 153.667 89.333 157 88 L 157 86 L 155 87 L 155 86 L 154 83 Z M 170 83 L 169 85 L 170 85 L 170 83 Z M 193 83 L 190 86 L 192 86 L 193 92 L 194 92 L 193 89 C 192.333 87 193 86.333 195 87 L 194 86 C 194.667 83.333 194.333 82.333 193 83 Z M 196 83 L 195 85 L 196 85 L 196 83 Z M 199 83 L 199 84 L 199 83 Z M 207 83 L 207 84 L 207 83 Z M 209 83 L 206 88 L 209 89 L 210 90 L 209 83 Z M 225 83 L 223 85 L 225 87 L 228 85 L 225 83 Z M 238 83 C 236.667 85 235.333 85.667 234 85 L 235 89 L 238 90 L 235 93 L 227 95 L 226 97 C 228 96.333 228.667 97 228 99 L 226 102 L 232 99 C 236 96.333 239 92.667 241 88 L 238 83 Z M 253 83 L 253 85 L 255 84 L 253 83 Z M 110 84 L 110 85 L 110 84 Z M 134 84 C 133.333 86 134 86.667 136 86 L 137 88 L 137 86 L 134 84 Z M 138 84 L 138 85 L 138 84 Z M 157 84 L 157 85 L 157 84 Z M 186 84 L 186 85 L 186 84 Z M 199 84 C 198.333 86 199 86.667 201 86 C 201.667 84 201 83.333 199 84 Z M 206 84 L 206 85 L 206 84 Z M 212 84 L 212 85 L 212 84 Z M 231 84 L 230 86 L 231 86 L 231 84 Z M 111 85 L 110 87 L 113 89 L 111 85 Z M 126 85 L 126 86 L 127 86 L 126 85 Z M 142 85 L 142 86 L 145 86 L 142 85 Z M 148 85 L 145 89 C 142.333 88.333 141.667 89.667 143 93 L 139 89 L 135 93 L 137 97 L 141 100 L 152 103 L 153 104 L 151 97 L 151 90 L 148 85 Z M 152 85 L 152 86 L 152 85 Z M 158 85 L 159 87 L 160 87 L 158 85 Z M 166 85 L 165 87 L 167 86 L 166 85 Z M 171 85 L 171 86 L 171 85 Z M 233 85 L 233 86 L 233 85 Z M 252 85 L 252 86 L 253 86 L 252 85 Z M 118 86 L 118 87 L 118 86 Z M 131 86 L 131 87 L 131 86 Z M 168 86 L 168 87 L 169 87 L 168 86 Z M 175 86 L 175 87 L 175 86 Z M 185 86 L 183 89 L 185 88 L 185 86 Z M 190 86 L 187 92 L 189 92 L 190 90 L 190 86 Z M 199 86 L 199 87 L 199 86 Z M 202 86 L 202 87 L 202 86 Z M 213 86 L 212 89 L 215 90 L 213 86 Z M 232 86 L 231 88 L 232 88 L 232 86 Z M 234 86 L 234 87 L 234 86 Z M 251 86 L 251 87 L 251 86 Z M 116 87 L 116 88 L 116 87 Z M 125 87 L 125 88 L 125 87 Z M 133 87 L 131 89 L 134 89 C 134.667 87 134.333 86.333 133 87 Z M 141 87 L 140 90 L 142 91 L 141 87 Z M 161 87 C 159.667 89 160 89.667 162 89 L 161 87 Z M 177 87 L 177 88 L 178 88 L 177 87 Z M 196 87 L 196 88 L 196 87 Z M 220 87 L 220 89 L 224 91 L 224 90 L 220 87 Z M 228 87 C 226 87.667 225.333 89.667 226 93 L 229 92 C 230.333 88 230 86.333 228 87 Z M 246 87 L 245 90 L 246 90 L 246 87 Z M 248 87 L 248 88 L 248 87 Z M 126 88 L 126 89 L 126 88 Z M 136 88 L 136 89 L 136 88 Z M 153 88 L 153 89 L 153 88 Z M 165 88 C 165.667 92 167 92.333 169 89 L 165 88 Z M 205 88 L 205 89 L 205 88 Z M 115 89 L 115 90 L 115 89 Z M 158 89 L 155 93 L 156 97 L 160 94 L 158 89 Z M 177 89 L 177 90 L 177 89 Z M 180 89 L 177 91 L 180 91 L 180 89 Z M 196 89 L 196 92 C 198 91.333 198 90.333 196 89 Z M 201 89 L 200 91 L 202 90 L 201 89 Z M 204 89 L 202 92 L 204 91 L 204 89 Z M 206 89 L 207 91 L 208 91 L 206 89 Z M 242 89 L 241 91 L 242 91 L 242 89 Z M 252 89 L 251 91 L 252 91 L 252 89 Z M 256 89 L 256 90 L 256 89 Z M 262 89 L 261 93 L 262 93 L 262 89 Z M 116 90 L 116 91 L 117 91 L 116 90 Z M 154 90 L 152 92 C 152 98.667 153.667 103.667 157 107 L 157 108 L 140 101 C 138.667 98.333 137.667 98 137 100 L 137 98 L 135 99 C 129.667 99.667 126.667 98.667 126 96 L 123 98 L 130 102 L 145 107 L 144 106 L 145 104 L 150 108 L 148 109 L 153 111 L 155 110 C 157.667 108.667 158.667 109.667 158 113 L 156 111 L 154 112 C 160.667 115.333 164.667 121.333 166 130 L 168 129 L 169 132 L 167 132 C 166.333 134 167 134.667 169 134 L 168 136 L 170 139 C 170.667 141.667 170 143.333 168 144 L 171 151 L 170 163 L 167 173 L 168 177 L 169 172 L 170 172 L 168 180 L 168 182 C 168.667 183.333 168 183.667 166 183 L 166 185 L 148 198 L 150 199 C 149.333 197 150.333 196.333 153 197 L 153 199 L 155 198 L 154 195 C 156.667 195.667 158.667 194.667 160 192 L 160 195 L 162 194 L 161 192 C 161.667 188.667 164.333 187.333 169 188 C 170.333 187.333 170.333 186.667 169 186 L 171 185 L 169 184 L 170 182 L 172 178 L 171 177 L 173 176 L 174 173 L 173 171 L 176 170 L 176 166 L 174 167 L 172 165 L 172 163 L 173 151 L 175 157 L 175 165 L 177 165 L 178 170 L 177 184 L 175 191 L 165 211 C 162.333 215.667 158 219 152 221 L 154 221 L 156 221 L 161 220 C 162.333 220.667 162.333 221.667 161 223 L 162 226 L 163 223 C 162.333 221 163 220.333 165 221 L 168 214 L 164 216 L 170 207 L 171 207 L 170 209 L 171 210 L 174 205 L 171 204 L 179 193 L 180 195 L 181 194 L 182 181 L 183 180 L 182 176 L 185 174 L 183 167 C 184.333 165.667 184 164.667 182 164 C 182.667 162 182 161.333 180 162 L 180 160 L 179 164 L 176 156 C 174.667 151.333 175.333 149 178 149 L 177 148 L 178 142 C 180 143.333 180.333 146.333 179 151 L 177 151 C 176.333 153.667 177 155.333 179 156 L 183 154 L 181 151 L 183 151 C 183.667 149 183.333 148.333 182 149 L 180 147 L 181 142 L 180 141 L 180 140 L 178 133 L 177 133 L 178 136 L 177 138 L 178 140 L 176 139 L 176 133 L 178 129 L 181 130 L 181 129 L 182 127 L 180 128 L 179 126 L 185 122 C 187.667 122.667 189.667 122.333 191 121 L 196 122 L 198 121 L 201 122 L 201 121 C 201.667 119 203.667 118.333 207 119 L 206 116 C 202.667 118.667 197.333 119.333 190 118 L 182 121 L 182 119 L 180 123 C 178 122.333 177.333 123 178 125 L 175 125 L 175 128 C 172.333 126.667 172.333 125.667 175 125 L 173 123 L 175 121 C 177.667 121.667 178.333 120.667 177 118 L 180 118 L 184 113 L 184 110 L 181 111 L 179 112 L 181 110 L 183 101 L 183 99 L 184 97 L 183 93 L 185 93 L 185 92 L 181 90 L 182 94 L 180 107 C 175.333 110.333 172 115.333 170 122 L 171 124 L 168 123 L 166 120 L 167 118 C 165 118.667 164.333 118 165 116 L 166 115 L 163 112 L 164 111 L 158 107 L 156 104 L 159 98 L 160 96 C 158 95.333 157.333 96 158 98 L 155 99 L 155 98 L 154 96 L 154 94 L 154 90 Z M 175 90 C 173 92.667 173.333 93.667 176 93 L 175 90 Z M 217 90 L 214 94 C 213.333 95.333 214 95.667 216 95 C 216.667 97.667 217.667 98 219 96 C 218.333 94 219 93.333 221 94 L 222 98 L 224 93 C 220.667 93 218.333 92 217 90 Z M 221 90 L 221 91 L 221 90 Z M 244 90 L 245 92 L 246 92 L 244 90 Z M 254 90 L 253 92 L 254 92 L 254 90 Z M 118 91 L 118 92 L 118 91 Z M 166 91 L 166 92 L 166 91 Z M 198 91 L 198 92 L 198 91 Z M 209 91 L 209 92 L 209 91 Z M 235 91 L 235 92 L 235 91 Z M 241 91 L 241 92 L 241 91 Z M 257 91 L 257 92 L 257 91 Z M 119 92 L 119 93 L 119 92 Z M 165 92 L 165 93 L 165 92 Z M 170 92 L 170 93 L 170 92 Z M 178 92 L 178 95 L 175 95 L 165 101 L 165 111 L 171 117 L 173 114 C 172.333 112 173 111.333 175 112 L 179 107 L 180 97 L 180 95 C 180.667 92.333 180 91.333 178 92 Z M 197 92 L 197 93 L 197 92 Z M 208 92 L 206 94 L 208 94 L 208 92 Z M 210 92 L 209 97 L 210 98 L 212 94 C 212.667 92 212 91.333 210 92 Z M 240 92 L 240 93 L 240 92 Z M 243 92 L 242 94 L 230 103 L 230 104 C 238.667 104.667 244.667 102.667 248 98 C 248.667 96 248 95.333 246 96 L 243 92 Z M 247 92 L 247 93 L 247 92 Z M 258 92 L 257 94 L 258 94 L 258 92 Z M 122 93 L 122 94 L 122 93 Z M 163 93 L 163 94 L 164 94 L 163 93 Z M 167 93 C 166.333 95.667 167 96.667 169 96 C 169.667 93.333 169 92.333 167 93 Z M 174 93 L 174 94 L 174 93 Z M 190 93 L 190 94 L 190 93 Z M 195 93 L 193 95 L 196 95 L 195 93 Z M 198 93 L 198 94 L 198 93 Z M 202 93 L 202 94 L 202 93 Z M 246 93 L 246 94 L 246 93 Z M 254 93 L 254 94 L 255 94 L 254 93 Z M 123 94 L 123 95 L 123 94 Z M 162 94 L 162 95 L 162 94 Z M 189 94 L 189 95 L 189 94 Z M 204 94 L 203 96 L 204 96 L 204 94 Z M 247 94 L 247 95 L 248 95 L 247 94 Z M 253 94 L 253 95 L 253 94 Z M 124 95 L 124 96 L 124 95 Z M 135 95 L 135 96 L 135 95 Z M 161 95 L 161 96 L 161 95 Z M 164 95 L 159 101 L 161 106 L 164 97 L 164 95 Z M 190 95 L 190 96 L 190 95 Z M 208 95 L 208 96 L 208 95 Z M 187 96 L 186 98 L 189 98 L 187 96 Z M 192 96 L 191 98 L 192 98 L 192 96 Z M 197 96 L 197 97 L 199 97 L 197 96 Z M 205 96 L 205 97 L 205 96 Z M 207 96 L 207 97 L 207 96 Z M 250 96 L 250 97 L 250 96 Z M 253 96 L 253 97 L 255 97 L 253 96 Z M 261 96 L 261 97 L 261 96 Z M 266 96 L 266 97 L 266 96 Z M 252 97 L 250 100 L 255 99 L 252 97 Z M 256 97 L 256 98 L 256 97 Z M 260 97 L 260 98 L 260 97 Z M 269 97 L 269 98 L 270 98 L 269 97 Z M 196 98 L 196 100 L 199 99 L 196 98 Z M 214 98 L 212 102 L 214 101 L 214 98 Z M 217 98 L 217 99 L 217 98 Z M 224 98 L 224 99 L 224 98 Z M 259 98 L 259 99 L 259 98 Z M 185 99 L 183 108 L 184 109 C 186.667 107 188.333 104 189 100 L 185 99 Z M 190 99 L 190 100 L 190 99 Z M 207 99 L 206 101 L 207 101 L 207 99 Z M 209 99 L 208 101 L 210 102 L 209 99 Z M 262 99 L 262 100 L 262 99 Z M 265 99 L 264 103 L 265 103 L 265 99 Z M 200 100 L 200 101 L 200 100 Z M 203 100 L 206 104 L 207 104 L 203 100 Z M 216 100 L 216 101 L 216 100 Z M 248 100 L 248 101 L 248 100 Z M 260 100 L 259 102 L 260 102 L 260 100 Z M 164 101 L 163 103 L 164 103 L 164 101 Z M 193 101 L 187 110 C 187.667 112.667 187 114.667 185 116 L 186 117 L 195 109 L 198 108 L 197 105 L 193 106 L 194 104 L 193 101 Z M 198 101 L 195 105 L 199 102 L 198 101 Z M 246 101 L 246 102 L 246 101 Z M 217 102 L 217 103 L 218 103 L 217 102 Z M 222 102 L 222 103 L 222 102 Z M 225 102 L 225 103 L 225 102 Z M 245 102 L 245 103 L 245 102 Z M 158 103 L 158 104 L 158 103 Z M 163 103 L 162 108 L 163 108 L 163 103 Z M 190 103 L 190 104 L 190 103 Z M 219 103 L 219 104 L 219 103 Z M 221 103 L 220 105 L 224 106 C 225.333 106.667 225.667 106 225 104 L 221 103 Z M 199 104 L 199 105 L 199 104 Z M 202 104 L 201 107 L 203 107 L 202 104 Z M 204 104 L 204 105 L 204 104 Z M 210 104 L 210 105 L 210 104 Z M 237 104 L 237 105 L 240 105 L 237 104 Z M 266 104 L 265 106 L 266 106 L 266 104 Z M 270 104 L 270 105 L 270 104 Z M 232 105 L 232 106 L 233 106 L 232 105 Z M 211 106 L 210 108 L 212 109 L 211 106 Z M 213 106 L 214 108 L 216 107 L 213 106 Z M 146 107 L 146 108 L 146 107 Z M 208 108 L 196 114 L 194 117 L 204 116 L 210 111 C 210.667 108.333 210 107.333 208 108 Z M 196 110 L 196 111 L 197 111 L 196 110 Z M 214 110 L 214 111 L 214 110 Z M 195 111 L 195 112 L 195 111 Z M 212 111 L 212 112 L 213 112 L 212 111 Z M 193 112 L 192 114 L 194 113 L 193 112 Z M 211 112 L 211 113 L 211 112 Z M 210 113 L 206 116 L 208 116 C 208.667 117.333 209.333 117.333 210 116 L 210 113 Z M 143 114 L 143 115 L 143 114 Z M 190 114 L 188 117 L 191 116 C 191.667 114 191.333 113.333 190 114 Z M 143 116 L 142 118 L 143 118 L 143 116 Z M 210 118 L 210 119 L 210 118 Z M 144 119 L 144 120 L 144 119 Z M 143 120 L 142 130 L 143 130 L 143 120 Z M 179 120 L 179 121 L 179 120 Z M 203 120 L 203 121 L 203 120 Z M 218 120 L 218 121 L 218 120 Z M 192 122 L 192 123 L 193 123 L 192 122 Z M 188 123 L 188 124 L 188 123 Z M 187 124 L 187 125 L 187 124 Z M 185 125 L 185 126 L 185 125 Z M 184 126 L 184 127 L 184 126 Z M 143 131 L 142 149 C 140.667 149.667 141 150.333 143 151 L 143 143 L 144 142 L 143 134 C 144.333 132.667 144.333 131.667 143 131 Z M 181 133 L 181 134 L 183 134 L 181 133 Z M 181 135 L 181 137 L 186 137 L 195 141 L 194 144 L 196 144 L 197 142 L 190 136 L 181 135 Z M 184 141 L 184 142 L 184 141 Z M 186 141 L 188 159 L 193 163 C 203 167 212 172 220 178 L 216 168 L 208 157 C 202.667 149.667 195.333 144.333 186 141 Z M 191 141 L 191 142 L 192 142 L 191 141 Z M 182 142 L 182 143 L 182 142 Z M 193 142 L 193 143 L 194 143 L 193 142 Z M 197 144 L 201 148 L 202 148 L 201 145 L 197 144 Z M 203 148 L 216 166 L 226 187 L 227 187 C 227 183 226 180.667 224 180 C 224.667 176.667 224 175.333 222 176 C 222.667 172.667 221.667 170.333 219 169 L 219 167 L 217 166 L 214 161 C 214.667 158.333 214.333 157.333 213 158 L 210 155 L 203 148 Z M 144 151 L 144 152 L 144 151 Z M 186 156 L 185 160 L 184 159 L 182 160 L 184 164 L 186 163 L 188 166 L 188 165 L 191 164 L 186 156 Z M 181 157 L 182 159 C 182.667 157 182.333 156.333 181 157 Z M 168 158 L 168 159 L 168 158 Z M 167 159 L 166 161 L 167 161 L 167 159 Z M 166 161 L 166 162 L 166 161 Z M 165 162 L 146 182 L 141 198 L 142 201 L 144 199 L 143 196 L 145 195 L 144 193 L 146 193 L 149 186 L 147 185 L 150 184 L 148 183 L 152 181 L 151 180 L 151 179 C 150.333 177 151 176.333 153 177 L 157 172 L 159 172 C 158.333 169.333 159 168.333 161 169 L 165 164 L 165 162 Z M 174 164 C 172.667 166 173 166.667 175 166 L 174 164 Z M 192 164 L 192 166 L 191 168 C 191.667 169.333 192.667 169.333 194 168 L 194 170 L 197 170 L 196 169 L 196 168 L 199 170 L 197 171 L 201 172 L 201 170 L 204 173 C 203.333 175 204.667 175.333 208 174 L 209 177 L 214 178 L 215 181 L 222 184 C 223.333 184.667 223.667 184.333 223 183 C 214.333 175 204 168.667 192 164 Z M 191 165 L 191 166 L 191 165 Z M 167 166 L 167 167 L 167 166 Z M 187 168 L 189 171 L 189 170 L 187 168 Z M 165 169 L 162 171 C 157.333 173.667 154 177.667 152 183 L 154 182 L 155 183 L 163 183 L 165 183 L 167 171 L 165 169 Z M 177 170 L 177 171 L 177 170 Z M 190 170 L 190 180 L 194 183 L 215 183 L 201 173 L 190 170 Z M 92 178 L 87 178 L 88 178 C 87.333 176 92 178 92 178 Z M 177 172 L 176 174 L 177 174 L 177 172 Z M 188 172 L 188 173 L 188 172 Z M 202 172 L 202 173 L 203 173 L 202 172 Z M 187 173 L 186 175 L 187 175 L 187 173 Z M 101 178 C 101.667 174.667 97 178.667 99 178 L 100 178 L 101 178 Z M 207 175 L 207 176 L 208 176 L 207 175 Z M 174 176 L 174 177 L 174 176 Z M 175 176 L 175 178 L 177 177 L 175 176 Z M 185 176 L 185 177 L 185 176 Z M 108 178 L 106 180 L 106 178 L 108 178 Z M 27 178 L 27 179 L 27 178 Z M 38 178 L 37 180 L 38 180 L 38 178 Z M 55 178 C 54.333 180.667 55 181.667 57 181 C 57.667 178.333 57 177.333 55 178 Z M 63 178 L 63 179 L 63 178 Z M 84 178 L 82 181 L 84 180 L 84 178 Z M 95 178 L 95 179 L 95 178 Z M 101 178 L 101 180 C 102.333 182 103.333 182 104 180 L 101 178 Z M 111 178 L 111 179 L 111 178 Z M 212 178 L 212 179 L 212 178 Z M 221 178 L 221 179 L 221 178 Z M 48 179 L 48 180 L 48 179 Z M 65 179 L 63 181 L 65 181 L 65 179 Z M 70 179 C 68.667 181 69 182.333 71 183 L 72 183 L 70 179 Z M 72 179 L 72 180 L 73 180 L 72 179 Z M 88 179 L 88 180 L 88 179 Z M 91 179 L 91 180 L 91 179 Z M 94 179 L 94 180 L 94 179 Z M 110 179 L 110 180 L 110 179 Z M 172 179 L 172 180 L 172 179 Z M 175 179 L 171 182 C 170.333 183.333 171 183.667 173 183 C 173.667 185 173.333 185.667 172 185 L 174 188 L 174 187 L 174 185 L 176 184 L 175 179 Z M 185 179 L 185 180 L 185 179 Z M 214 179 L 214 180 L 214 179 Z M 27 180 L 27 181 L 28 181 L 27 180 Z M 39 180 L 39 181 L 39 180 Z M 62 180 L 62 181 L 62 180 Z M 68 180 L 66 182 L 68 182 L 68 180 Z M 76 180 L 76 181 L 76 180 Z M 86 180 L 87 182 C 87.667 180 87.333 179.333 86 180 Z M 92 180 L 92 181 L 92 180 Z M 25 181 L 25 182 L 25 181 Z M 84 181 L 84 182 L 85 182 L 84 181 Z M 99 181 L 99 182 L 100 182 L 99 181 Z M 32 182 L 32 183 L 32 182 Z M 186 182 L 184 185 L 189 184 C 196.333 189.333 201.333 197 204 207 L 203 210 L 206 208 L 207 209 C 209.667 207.667 210.667 208.333 210 211 L 213 213 L 213 210 C 211 210.667 210.333 210.333 211 209 L 209 207 L 203 201 L 197 190 C 197.667 188 197 187.333 195 188 L 195 186 L 193 186 L 193 184 L 186 182 Z M 23 183 L 23 184 L 24 184 L 23 183 Z M 26 183 L 26 184 L 27 184 L 26 183 Z M 126 183 L 126 184 L 126 183 Z M 131 183 L 130 185 L 132 184 L 131 183 Z M 43 184 L 43 185 L 43 184 Z M 53 184 L 52 186 L 53 186 L 53 184 Z M 55 184 L 55 185 L 55 184 Z M 60 184 C 58 185.333 58 186.333 60 187 L 61 185 L 60 184 Z M 63 184 L 64 187 L 65 185 L 63 184 Z M 67 184 L 66 186 L 67 186 L 67 184 Z M 71 184 L 71 185 L 72 185 L 71 184 Z M 74 184 L 74 185 L 74 184 Z M 76 184 C 75.333 185.333 76 185.667 78 185 L 79 186 C 79.667 184 78.667 183.333 76 184 Z M 81 184 L 81 186 L 83 185 L 81 184 Z M 124 184 L 124 185 L 124 184 Z M 134 184 L 134 185 L 134 184 Z M 138 184 L 138 185 L 139 185 L 138 184 Z M 143 184 L 143 185 L 144 185 L 143 184 Z M 152 184 C 150 184.667 149.667 185.667 151 187 L 149 187 L 146 195 L 147 197 L 161 187 L 159 186 C 159.667 187.333 159 187.667 157 187 L 157 185 L 155 188 L 152 184 Z M 155 184 L 154 187 L 155 187 L 155 184 Z M 159 184 L 159 185 L 159 184 Z M 164 184 L 164 185 L 164 184 Z M 196 184 L 199 187 L 199 185 L 196 184 Z M 212 184 L 212 185 L 212 184 Z M 221 184 L 221 185 L 221 184 Z M 224 184 L 223 186 L 225 187 L 224 184 Z M 243 184 L 243 185 L 243 184 Z M 20 185 L 20 186 L 20 185 Z M 28 185 L 28 186 L 28 185 Z M 33 185 L 33 186 L 33 185 Z M 37 185 L 37 186 L 38 186 L 37 185 Z M 50 185 L 50 186 L 50 185 Z M 126 185 L 126 186 L 126 185 Z M 163 185 L 163 186 L 163 185 Z M 230 185 L 230 186 L 230 185 Z M 234 185 L 231 187 L 234 187 L 234 185 Z M 31 186 L 31 187 L 31 186 Z M 68 186 L 68 187 L 68 186 Z M 81 186 L 81 187 L 81 186 Z M 139 186 L 139 187 L 139 186 Z M 32 187 L 32 188 L 32 187 Z M 190 187 L 190 189 L 188 189 C 187.333 191.667 187.667 193.667 189 195 L 189 213 L 190 215 L 197 220 L 202 209 C 202 201 199.667 195.333 195 192 L 191 189 C 191.667 187 191.333 186.333 190 187 Z M 228 187 L 227 189 L 228 189 L 228 187 Z M 134 188 L 134 189 L 135 189 L 134 188 Z M 172 188 L 170 189 L 168 193 L 165 194 L 168 201 L 168 198 L 170 198 L 169 196 L 172 195 L 170 194 L 173 190 C 173.667 188 173.333 187.333 172 188 Z M 132 189 L 132 190 L 132 189 Z M 168 189 L 168 190 L 168 189 Z M 184 189 L 184 190 L 184 189 Z M 229 189 L 229 194 L 230 194 L 229 189 Z M 130 190 L 130 191 L 131 191 L 130 190 Z M 129 191 L 129 192 L 129 191 Z M 163 191 C 161.667 193 162 193.667 164 193 L 163 191 Z M 235 191 L 235 192 L 235 191 Z M 127 192 L 127 193 L 127 192 Z M 236 192 L 237 197 L 240 199 L 240 197 L 236 192 Z M 126 193 L 126 194 L 126 193 Z M 185 193 L 185 194 L 185 193 Z M 125 194 L 125 195 L 125 194 Z M 164 194 L 147 204 C 144.333 205.333 143.667 208.333 145 213 L 150 216 L 153 215 L 158 207 L 165 203 L 165 195 L 164 194 Z M 231 194 L 230 196 L 231 196 L 231 194 Z M 123 195 L 123 196 L 123 195 Z M 234 195 L 234 196 L 234 195 Z M 157 196 L 157 197 L 158 197 L 157 196 Z M 179 196 L 178 198 L 179 198 L 179 196 Z M 204 196 L 204 197 L 204 196 Z M 145 197 L 145 198 L 145 197 Z M 232 197 L 231 199 L 232 199 L 232 197 Z M 148 198 L 148 199 L 148 198 Z M 178 198 L 175 201 C 175.667 202.333 175.333 202.667 174 202 L 175 204 L 178 200 L 178 198 Z M 204 198 L 205 200 C 205.667 198 205.333 197.333 204 198 Z M 146 199 L 136 207 L 118 207 L 119 209 L 122 208 L 131 208 L 132 209 C 135.333 207.667 136.667 208.333 136 211 L 139 212 L 144 218 L 145 216 L 143 215 L 142 211 L 140 211 L 142 208 L 141 207 L 142 205 L 144 205 C 143.333 203 144 202.333 146 203 L 147 200 L 146 199 Z M 151 199 L 151 200 L 152 200 L 151 199 Z M 233 199 L 232 203 L 235 211 L 237 210 L 235 206 L 235 204 L 233 199 Z M 238 199 L 237 201 L 238 201 L 238 199 Z M 148 200 L 148 201 L 148 200 Z M 150 200 L 150 201 L 150 200 Z M 185 200 L 185 201 L 185 200 Z M 206 200 L 206 201 L 206 200 Z M 241 200 L 241 201 L 241 200 Z M 149 201 L 149 202 L 149 201 Z M 236 201 L 236 202 L 236 201 Z M 184 202 L 184 203 L 184 202 Z M 237 202 L 238 211 L 241 209 L 241 207 L 237 202 Z M 240 202 L 240 203 L 240 202 Z M 242 202 L 242 203 L 244 203 L 242 202 Z M 167 203 L 166 205 L 167 205 L 167 203 Z M 181 203 L 181 204 L 181 203 Z M 241 203 L 241 204 L 241 203 Z M 246 203 L 246 204 L 246 203 Z M 241 204 L 243 208 L 242 210 L 245 210 L 254 225 L 259 240 C 258.333 242 259 242.667 261 242 L 260 241 L 261 238 L 259 230 L 255 225 L 253 218 L 253 216 L 254 211 L 251 212 L 251 211 C 250.333 209 249.667 208.667 249 210 L 246 207 L 244 208 L 245 206 L 241 204 Z M 182 205 L 182 206 L 182 205 Z M 179 206 L 179 207 L 179 206 Z M 165 207 L 165 208 L 165 207 Z M 181 207 L 180 210 L 181 210 L 181 207 Z M 249 207 L 249 208 L 249 207 Z M 110 208 L 106 210 C 106.667 211.333 107.667 211.333 109 210 L 111 211 L 114 211 L 111 210 L 113 209 L 110 208 Z M 117 208 L 117 209 L 117 208 Z M 164 208 L 159 214 L 164 210 L 164 208 Z M 174 208 L 170 214 L 173 212 C 172.333 210 173 209.333 175 210 L 176 211 C 176.667 208.333 176 207.333 174 208 Z M 178 208 L 177 210 L 178 210 L 178 208 Z M 184 208 L 184 209 L 184 208 Z M 115 209 L 115 210 L 116 210 L 115 209 Z M 101 210 L 102 212 L 105 211 L 101 210 Z M 170 210 L 168 213 L 170 212 L 170 210 Z M 179 210 L 179 211 L 179 210 Z M 203 210 L 202 212 L 203 212 L 203 210 Z M 241 210 L 241 211 L 242 211 L 241 210 Z M 99 211 L 99 212 L 100 212 L 99 211 Z M 235 211 L 241 246 C 239.667 248.667 240.333 249.667 243 249 L 242 248 C 240.667 243.333 241 240.667 243 240 L 241 236 L 242 233 L 240 232 L 239 221 L 237 216 C 238.333 212 237.667 210.333 235 211 Z M 240 211 L 240 212 L 240 211 Z M 261 211 L 261 212 L 261 211 Z M 94 212 L 94 213 L 95 213 L 94 212 Z M 97 212 L 97 213 L 97 212 Z M 157 212 L 157 213 L 157 212 Z M 202 212 L 199 218 L 200 221 L 202 215 L 202 212 Z M 264 212 L 264 213 L 265 213 L 264 212 Z M 89 213 L 90 215 L 92 214 L 89 213 Z M 156 213 L 153 217 L 154 218 L 156 215 L 156 213 Z M 178 213 C 177.333 214.333 178 214.667 180 214 L 180 216 L 182 215 L 181 217 L 184 218 L 186 217 L 185 214 L 178 213 Z M 214 213 L 216 221 L 217 221 C 217.667 216.333 216.667 213.667 214 213 Z M 159 214 L 159 215 L 159 214 Z M 174 214 L 174 215 L 174 214 Z M 158 215 L 157 217 L 158 217 L 158 215 Z M 171 215 L 171 216 L 171 215 Z M 83 216 L 83 217 L 83 216 Z M 148 216 L 148 217 L 148 216 Z M 151 216 L 148 217 C 147.333 219.667 148.667 220.333 152 219 C 152.667 216.333 152.333 215.333 151 216 Z M 82 217 L 82 218 L 82 217 Z M 168 217 L 169 222 L 170 222 C 171.333 218 170.667 216.333 168 217 Z M 186 217 C 185.333 219 186 219.667 188 219 C 188.667 217 188 216.333 186 217 Z M 192 217 L 192 218 L 192 217 Z M 80 218 L 78 219 L 77 221 L 80 220 L 80 218 Z M 84 218 L 84 219 L 84 218 Z M 172 218 L 172 219 L 172 218 Z M 193 218 C 191.667 220 192 220.667 194 220 L 193 218 Z M 144 219 L 143 221 L 144 221 L 144 219 Z M 146 219 L 146 220 L 146 219 Z M 177 219 L 177 220 L 177 219 Z M 189 219 L 191 222 C 192.333 222.667 192.667 222 192 220 L 189 219 Z M 149 220 L 149 221 L 151 221 L 149 220 Z M 181 220 L 181 221 L 181 220 Z M 234 220 L 233 222 L 234 222 L 234 220 Z M 75 221 L 75 222 L 75 221 Z M 147 221 L 146 223 L 148 222 L 147 221 Z M 199 221 L 198 224 L 199 224 L 199 221 Z M 218 221 L 218 226 C 217.333 228.667 218 229.667 220 229 L 219 232 L 220 235 L 221 233 C 221.667 229.667 221.333 227.667 220 227 C 220.667 223.667 220 222.333 218 223 L 218 221 Z M 74 222 L 74 223 L 74 222 Z M 79 222 L 79 223 L 79 222 Z M 81 222 L 80 224 L 81 224 L 81 222 Z M 142 222 L 131 228 L 128 232 L 135 227 L 137 228 L 137 227 L 144 223 L 142 222 Z M 149 222 L 149 223 L 149 222 Z M 176 222 C 174 229.333 174 235.667 176 241 L 179 242 L 183 248 L 184 248 L 184 243 L 182 241 L 181 231 L 176 222 Z M 193 222 L 195 224 L 196 226 L 196 223 L 193 222 Z M 257 222 L 257 223 L 257 222 Z M 151 223 L 150 230 L 151 230 L 151 223 Z M 233 223 L 232 226 L 233 226 L 233 223 Z M 80 224 L 79 226 L 80 226 L 80 224 Z M 70 225 L 70 226 L 70 225 Z M 131 225 L 131 226 L 131 225 Z M 141 225 L 141 226 L 141 225 Z M 174 225 L 174 226 L 174 225 Z M 258 225 L 258 226 L 259 226 L 258 225 Z M 69 226 L 69 227 L 69 226 Z M 79 226 L 78 228 L 79 228 L 79 226 Z M 161 226 L 160 229 L 161 229 L 161 226 Z M 169 226 L 169 227 L 169 226 Z M 183 226 L 183 227 L 183 226 Z M 187 226 L 187 227 L 187 226 Z M 198 226 L 197 233 L 198 233 L 198 226 Z M 68 227 L 68 228 L 68 227 Z M 232 227 L 231 232 L 232 232 L 232 227 Z M 172 228 L 172 229 L 172 228 Z M 183 228 L 183 229 L 184 229 L 183 228 Z M 200 228 L 200 229 L 200 228 Z M 65 229 L 63 231 L 65 231 L 65 229 Z M 78 229 L 77 232 L 78 232 L 78 229 Z M 170 229 L 169 236 L 169 238 L 170 239 L 171 255 L 172 254 L 171 251 L 172 248 L 171 245 C 170.333 243 171 242.333 173 243 L 174 241 L 172 242 L 172 241 L 170 229 Z M 201 229 L 201 230 L 201 229 Z M 160 230 L 158 233 L 159 236 L 160 233 L 160 230 Z M 63 231 L 63 232 L 63 231 Z M 134 231 L 134 232 L 134 231 Z M 151 231 L 150 234 L 151 234 L 151 231 Z M 62 232 L 60 234 L 62 234 L 62 232 Z M 127 232 L 127 233 L 127 232 Z M 126 233 L 126 234 L 126 233 Z M 186 233 L 186 234 L 186 233 Z M 60 234 L 60 235 L 60 234 Z M 77 234 L 77 235 L 77 234 Z M 123 234 L 123 236 L 125 235 L 123 234 Z M 204 234 L 207 243 L 209 244 L 206 236 C 206.667 234 206 233.333 204 234 Z M 231 234 L 230 238 L 231 238 L 231 234 Z M 59 235 L 59 236 L 59 235 Z M 168 235 L 166 238 L 167 240 L 168 238 L 168 235 Z M 222 235 L 220 237 L 222 237 L 222 235 Z M 122 236 L 116 242 C 115.333 243.333 116 243.667 118 243 L 123 237 L 122 236 Z M 133 236 L 131 239 L 133 239 L 133 236 Z M 158 236 L 157 239 L 158 239 L 158 236 Z M 184 236 L 184 237 L 185 237 L 184 236 Z M 57 237 L 54 240 L 55 241 L 57 240 L 57 237 Z M 118 238 L 118 239 L 118 238 Z M 185 238 L 185 239 L 185 238 Z M 221 238 L 221 239 L 221 238 Z M 262 238 L 262 239 L 262 238 Z M 131 240 L 129 243 L 130 245 L 131 243 L 131 240 Z M 157 240 L 155 254 L 154 257 L 155 260 L 157 249 L 157 240 Z M 54 241 L 50 246 L 52 246 L 54 243 L 54 241 Z M 147 241 L 147 242 L 147 241 Z M 167 241 L 167 242 L 167 241 Z M 188 241 L 188 242 L 188 241 Z M 223 241 L 223 242 L 223 241 Z M 166 242 L 164 250 L 169 250 L 166 249 L 168 246 L 166 242 Z M 176 242 L 176 243 L 176 242 Z M 116 243 L 116 244 L 116 243 Z M 131 243 L 130 246 L 134 247 L 135 247 L 133 245 L 133 244 L 131 243 Z M 178 243 L 178 244 L 178 243 Z M 221 243 L 221 244 L 221 243 Z M 115 244 L 115 245 L 115 244 Z M 176 244 L 176 245 L 176 244 Z M 179 244 L 181 247 L 182 247 L 179 244 Z M 261 244 L 261 245 L 262 245 L 261 244 Z M 114 245 L 112 248 L 114 247 L 114 245 Z M 129 245 L 129 248 C 131 247.333 131 246.333 129 245 Z M 177 245 L 177 246 L 177 245 Z M 221 245 L 221 246 L 221 245 Z M 178 246 L 180 249 L 180 248 L 178 246 Z M 210 246 L 209 248 L 210 248 L 210 246 Z M 136 247 L 138 255 L 139 255 C 139.667 250.333 138.667 247.667 136 247 Z M 190 247 L 190 248 L 190 247 Z M 128 248 L 127 251 L 128 251 L 128 248 Z M 185 248 L 185 249 L 185 248 Z M 111 249 L 111 250 L 111 249 Z M 181 249 L 180 251 L 181 251 L 181 249 Z M 187 249 L 185 251 L 186 252 L 190 251 L 187 249 Z M 261 249 L 262 251 C 262.667 249 262.333 248.333 261 249 Z M 173 250 L 173 251 L 173 250 Z M 165 251 L 165 252 L 166 252 L 165 251 Z M 182 251 L 182 252 L 182 251 Z M 242 251 L 242 252 L 242 251 Z M 109 252 L 109 253 L 109 252 Z M 127 252 L 126 254 L 127 254 L 127 252 Z M 168 252 L 168 253 L 168 252 Z M 183 252 L 183 253 L 183 252 Z M 189 252 L 189 253 L 189 252 Z M 164 253 C 163.333 255 164 255.667 166 255 C 166.667 253 166 252.333 164 253 Z M 108 254 L 108 255 L 108 254 Z M 126 255 L 125 260 L 126 260 L 126 255 Z M 176 255 L 176 256 L 176 255 Z M 107 256 L 107 257 L 107 256 Z M 140 256 L 140 257 L 140 256 Z M 165 256 L 164 258 L 165 258 L 165 256 Z M 245 256 L 245 257 L 245 256 Z M 106 258 L 106 259 L 107 259 L 106 258 Z M 167 258 L 167 259 L 168 259 L 167 258 Z M 164 260 L 164 261 L 164 260 Z M 177 262 L 177 263 L 177 262 Z M 142 264 L 142 265 L 142 264 Z M 124 267 L 124 268 L 124 267 Z"/>
  <path fill="#000000" stroke="none" opacity="1" d="M 137.5 102 L 142 103.5 L 140.5 104 L 137.5 103 L 137.5 102 Z "/>
  <path fill="#000000" stroke="none" opacity="1" d="M 151.5 108 L 154 108.5 L 151.5 109 L 151.5 108 Z "/>
  <path fill="#000000" stroke="none" opacity="1" d="M 160.5 109 L 161.5 111 L 160.5 109 Z "/>
  <path fill="#000000" stroke="none" opacity="1" d="M 160.5 112 L 163 113 L 164 116.5 L 163 116.5 L 162.5 115 L 161.5 117 L 160.5 112 Z "/>
  <path fill="#000000" stroke="none" opacity="1" d="M 178.5 113 L 178.5 114 L 178.5 113 Z "/>
  <path fill="#000000" stroke="none" opacity="1" d="M 170.5 125 L 171 127.5 L 170 127.5 L 170.5 125 Z "/>
  <path fill="#000000" stroke="none" opacity="1" d="M 171.5 129 L 171.5 130 L 171.5 129 Z "/>
  <path fill="#000000" stroke="none" opacity="1" d="M 173.5 129 L 173.5 130 L 173.5 129 Z "/>
  <path fill="#000000" stroke="none" opacity="1" d="M 171 131 L 173 131.5 L 172 133.5 L 172.5 135 L 171 135 L 171 131 Z "/>
  <path fill="#000000" stroke="none" opacity="1" d="M 172.5 136 L 174 136.5 L 172.5 137 L 172.5 136 Z "/>
  <path fill="#000000" stroke="none" opacity="1" d="M 172.5 138 L 174 138.5 L 172.5 139 L 172.5 138 Z "/>
  <path fill="#000000" stroke="none" opacity="1" d="M 170.5 144 Q 172.8 143.3 172 145.5 L 170.5 144 Z "/>
  <path fill="#000000" stroke="none" opacity="1" d="M 175.5 144 L 175.5 145 L 175.5 144 Z "/>
  <path fill="#000000" stroke="none" opacity="1" d="M 171.5 148 Q 173.8 147.3 173 149.5 L 171.5 148 Z "/>
  <path fill="#000000" stroke="none" opacity="1" d="M 179.5 152 L 179.5 153 L 179.5 152 Z "/>
  <path fill="#000000" stroke="none" opacity="1" d="M 186.5 160 L 187 162 L 184 161.5 L 186.5 160 Z "/>
  <path fill="#000000" stroke="none" opacity="1" d="M 181.5 166 L 182 168.5 L 181 168.5 L 181.5 166 Z "/>
  <path fill="#000000" stroke="none" opacity="1" d="M 171.5 167 L 171.5 168 L 171.5 167 Z "/>
  <path fill="#000000" stroke="none" opacity="1" d="M 171.5 170 L 172 172.5 L 171 172.5 L 171.5 170 Z "/>
  <path fill="#000000" stroke="none" opacity="1" d="M 181.5 170 L 182 172.5 L 181 172.5 L 181.5 170 Z "/>
  <path fill="#000000" stroke="none" opacity="1" d="M 171.5 174 L 171.5 175 L 171.5 174 Z "/>
  <path fill="#000000" stroke="none" opacity="1" d="M 180.5 174 L 181 175.5 L 180 175.5 L 180.5 174 Z "/>
  <path fill="#000000" stroke="none" opacity="1" d="M 180.5 177 L 180.5 178 L 180.5 177 Z "/>
  <path fill="#000000" stroke="none" opacity="1" d="M 180.5 179 L 181 184.5 L 180 187.5 Q 181.1 190.8 178.5 190 L 178 187.5 L 180 184.5 L 179 182.5 L 180.5 179 Z "/>
  <path fill="#000000" stroke="none" opacity="1" d="M 146.5 186 L 146.5 187 L 146.5 186 Z "/>
  <path fill="#000000" stroke="none" opacity="1" d="M 239.5 186 L 239.5 187 L 239.5 186 Z "/>
  <path fill="#000000" stroke="none" opacity="1" d="M 117.5 188 Q 121.9 186.5 121 189.5 L 119.5 189 L 116.5 190 L 117.5 188 Z "/>
  <path fill="#000000" stroke="none" opacity="1" d="M 123.5 188 L 124.5 190 L 123.5 188 Z "/>
  <path fill="#000000" stroke="none" opacity="1" d="M 127.5 188 L 127.5 189 L 127.5 188 Z "/>
  <path fill="#000000" stroke="none" opacity="1" d="M 212.5 188 L 213 189.5 L 212 189.5 L 212.5 188 Z "/>
  <path fill="#000000" stroke="none" opacity="1" d="M 247.5 188 L 248.5 190 L 247.5 188 Z "/>
  <path fill="#000000" stroke="none" opacity="1" d="M 250.5 188 L 250.5 189 L 250.5 188 Z "/>
  <path fill="#000000" stroke="none" opacity="1" d="M 253.5 188 L 255 188.5 L 253.5 189 L 253.5 188 Z "/>
  <path fill="#000000" stroke="none" opacity="1" d="M 214.5 189 L 214.5 190 L 214.5 189 Z "/>
  <path fill="#000000" stroke="none" opacity="1" d="M 216.5 189 L 216.5 190 L 216.5 189 Z "/>
  <path fill="#000000" stroke="none" opacity="1" d="M 218.5 189 L 222 189.5 L 218.5 190 L 218.5 189 Z "/>
  <path fill="#000000" stroke="none" opacity="1" d="M 243.5 189 L 243.5 190 L 243.5 189 Z "/>
  <path fill="#000000" stroke="none" opacity="1" d="M 271.5 190 L 271.5 191 L 271.5 190 Z "/>
  <path fill="#000000" stroke="none" opacity="1" d="M 276.5 190 L 277 191.5 L 276 191.5 L 276.5 190 Z "/>
  <path fill="#000000" stroke="none" opacity="1" d="M 279.5 190 L 279.5 191 L 279.5 190 Z "/>
  <path fill="#000000" stroke="none" opacity="1" d="M 178.5 191 L 178.5 192 L 178.5 191 Z "/>
  <path fill="#000000" stroke="none" opacity="1" d="M 274.5 191 L 274.5 192 L 274.5 191 Z "/>
  <path fill="#000000" stroke="none" opacity="1" d="M 285.5 191 L 285.5 192 L 285.5 191 Z "/>
  <path fill="#000000" stroke="none" opacity="1" d="M 46.5 201 L 46.5 202 L 46.5 201 Z "/>
  <path fill="#000000" stroke="none" opacity="1" d="M 71.5 202 L 71.5 203 L 71.5 202 Z "/>
  <path fill="#000000" stroke="none" opacity="1" d="M 54.5 204 L 54.5 205 L 54.5 204 Z "/>
  <path fill="#000000" stroke="none" opacity="1" d="M 46.5 206 L 46.5 207 L 46.5 206 Z "/>
  <path fill="#000000" stroke="none" opacity="1" d="M 62.5 206 L 62.5 207 L 62.5 206 Z "/>
  <path fill="#000000" stroke="none" opacity="1" d="M 52.5 208 L 52.5 209 L 52.5 208 Z "/>
  <path fill="#000000" stroke="none" opacity="1" d="M 56.5 208 L 56.5 209 L 56.5 208 Z "/>
  <path fill="#000000" stroke="none" opacity="1" d="M 139.5 208 L 138.5 210 L 137 209.5 L 139.5 208 Z "/>
  <path fill="#000000" stroke="none" opacity="1" d="M 129.5 216 L 129.5 217 L 129.5 216 Z "/>
  <path fill="#000000" stroke="none" opacity="1" d="M 133.5 216 L 137 217.5 L 134.5 218 L 133.5 216 Z "/>
  <path fill="#000000" stroke="none" opacity="1" d="M 163.5 217 L 163.5 218 L 163.5 217 Z "/>
  <path fill="#000000" stroke="none" opacity="1" d="M 124.5 221 L 124.5 222 L 124.5 221 Z "/>
  <path fill="#000000" stroke="none" opacity="1" d="M 129.5 222 L 129.5 223 L 129.5 222 Z "/>
  <path fill="#000000" stroke="none" opacity="1" d="M 191.5 231 L 191.5 232 L 191.5 231 Z "/>
  <path fill="#000000" stroke="none" opacity="1" d="M 216.5 233 L 216.5 234 L 216.5 233 Z "/>
  <path fill="#000000" stroke="none" opacity="1" d="M 193.5 234 L 193.5 235 L 193.5 234 Z "/>
  <path fill="#000000" stroke="none" opacity="1" d="M 211.5 234 L 211.5 235 L 211.5 234 Z "/>
  <path fill="#000000" stroke="none" opacity="1" d="M 213.5 234 L 213.5 235 L 213.5 234 Z "/>
  <path fill="#000000" stroke="none" opacity="1" d="M 200.5 235 L 200.5 236 L 200.5 235 Z "/>
  <path fill="#000000" stroke="none" opacity="1" d="M 140.5 237 L 141 240.5 L 139 239.5 L 140.5 237 Z "/>
  <path fill="#000000" stroke="none" opacity="1" d="M 152.5 237 L 154 237.5 L 152.5 243 L 151 240.5 L 152.5 237 Z "/>
  <path fill="#000000" stroke="none" opacity="1" d="M 192.5 237 L 192.5 238 L 192.5 237 Z "/>
  <path fill="#000000" stroke="none" opacity="1" d="M 245.5 237 L 245.5 238 L 245.5 237 Z "/>
  <path fill="#000000" stroke="none" opacity="1" d="M 292.5 237 L 292.5 238 L 292.5 237 Z "/>
  <path fill="#000000" stroke="none" opacity="1" d="M 202.5 238 L 202.5 239 L 202.5 238 Z "/>
  <path fill="#000000" stroke="none" opacity="1" d="M 211.5 238 L 214 239.5 L 212.5 240 L 211.5 238 Z "/>
  <path fill="#000000" stroke="none" opacity="1" d="M 215.5 238 L 216 239.5 L 215 239.5 L 215.5 238 Z "/>
  <path fill="#000000" stroke="none" opacity="1" d="M 288.5 238 L 290 238.5 L 288.5 239 L 288.5 238 Z "/>
  <path fill="#000000" stroke="none" opacity="1" d="M 125.5 239 L 125.5 240 L 125.5 239 Z "/>
  <path fill="#000000" stroke="none" opacity="1" d="M 127.5 239 L 127.5 240 L 127.5 239 Z "/>
  <path fill="#000000" stroke="none" opacity="1" d="M 177.5 239 L 177.5 240 L 177.5 239 Z "/>
  <path fill="#000000" stroke="none" opacity="1" d="M 191.5 239 L 192 240.5 L 191 240.5 L 191.5 239 Z "/>
  <path fill="#000000" stroke="none" opacity="1" d="M 180.5 240 L 180.5 241 L 180.5 240 Z "/>
  <path fill="#000000" stroke="none" opacity="1" d="M 287.5 240 L 288.5 242 L 287.5 240 Z "/>
  <path fill="#000000" stroke="none" opacity="1" d="M 292.5 240 L 292.5 241 L 292.5 240 Z "/>
  <path fill="#000000" stroke="none" opacity="1" d="M 290.5 241 L 290.5 242 L 290.5 241 Z "/>
  <path fill="#000000" stroke="none" opacity="1" d="M 152.5 244 L 152.5 245 L 152.5 244 Z "/>
  <path fill="#000000" stroke="none" opacity="1" d="M 147.5 246 L 147.5 247 L 147.5 246 Z "/>
  <path fill="#000000" stroke="none" opacity="1" d="M 288.5 247 L 290 251 L 292 251.5 L 290.5 254 L 290 252 L 288 251.5 L 288.5 250 Q 286.3 250.8 287 248.5 L 288.5 247 Z "/>
  <path fill="#000000" stroke="none" opacity="1" d="M 291.5 248 L 294 248.5 Q 291.9 251.8 291.5 248 Z "/>
  <path fill="#000000" stroke="none" opacity="1" d="M 47.5 249 L 54 249.5 L 54.5 251 L 56.5 250 L 59 250.5 L 54.5 253 L 51.5 252 L 49 253.5 L 52 254 L 51.5 256 L 49.5 255 L 49.5 257 L 47 256 L 49 251.5 L 46 250.5 L 47.5 249 Z M 53 251 L 53 252 L 53 251 Z "/>
  <path fill="#000000" stroke="none" opacity="1" d="M 266.5 249 L 268 249.5 L 266.5 250 L 266.5 249 Z "/>
  <path fill="#000000" stroke="none" opacity="1" d="M 192.5 251 L 193 252.5 L 191 253.5 L 192.5 251 Z "/>
  <path fill="#000000" stroke="none" opacity="1" d="M 80.5 253 L 81 254.5 L 80 254.5 L 80.5 253 Z "/>
  <path fill="#000000" stroke="none" opacity="1" d="M 194.5 253 L 198 255.5 L 196 256.5 L 194.5 253 Z "/>
  <path fill="#000000" stroke="none" opacity="1" d="M 76.5 254 L 76.5 255 L 76.5 254 Z "/>
  <path fill="#000000" stroke="none" opacity="1" d="M 78.5 254 L 78.5 255 L 78.5 254 Z "/>
  <path fill="#000000" stroke="none" opacity="1" d="M 234.5 254 L 235 256.5 L 234 256.5 L 234.5 254 Z "/>
  <path fill="#000000" stroke="none" opacity="1" d="M 53.5 255 L 56 255.5 L 54.5 258 L 53.5 255 Z "/>
  <path fill="#000000" stroke="none" opacity="1" d="M 74.5 255 L 75 256.5 L 74 256.5 L 74.5 255 Z "/>
  <path fill="#000000" stroke="none" opacity="1" d="M 192.5 255 L 192.5 256 L 192.5 255 Z "/>
  <path fill="#000000" stroke="none" opacity="1" d="M 225.5 255 L 227 255.5 L 227 257.5 L 226.5 259 L 226 257 L 224 256.5 L 225.5 255 Z "/>
  <path fill="#000000" stroke="none" opacity="1" d="M 264.5 255 Q 269.3 253.7 268 257 Q 263.8 257 264.5 255 Z "/>
  <path fill="#000000" stroke="none" opacity="1" d="M 76.5 256 L 78 259.5 L 76 260.5 L 76 258.5 L 76.5 256 Z "/>
  <path fill="#000000" stroke="none" opacity="1" d="M 78.5 256 L 79 257.5 L 78 257.5 L 78.5 256 Z "/>
  <path fill="#000000" stroke="none" opacity="1" d="M 191.5 257 L 192 259.5 L 191 259.5 L 191.5 257 Z "/>
  <path fill="#000000" stroke="none" opacity="1" d="M 263.5 257 L 265 257.5 L 263.5 258 L 263.5 257 Z "/>
  <path fill="#000000" stroke="none" opacity="1" d="M 50.5 258 Q 52.3 261.1 54 259.5 Q 54.8 261.8 52.5 261 L 50.5 258 Z "/>
  <path fill="#000000" stroke="none" opacity="1" d="M 194.5 258 L 195.5 260 L 194.5 258 Z "/>
  <path fill="#000000" stroke="none" opacity="1" d="M 219.5 258 L 219.5 259 L 219.5 258 Z "/>
  <path fill="#000000" stroke="none" opacity="1" d="M 222.5 258 L 225 258.5 L 222.5 259 L 222.5 258 Z "/>
  <path fill="#000000" stroke="none" opacity="1" d="M 180.5 259 L 180.5 260 L 180.5 259 Z "/>
  <path fill="#000000" stroke="none" opacity="1" d="M 206.5 259 L 206.5 260 L 206.5 259 Z "/>
  <path fill="#000000" stroke="none" opacity="1" d="M 204.5 260 L 204.5 261 L 204.5 260 Z "/>
  <path fill="#000000" stroke="none" opacity="1" d="M 221.5 260 L 221.5 261 L 221.5 260 Z "/>
  <path fill="#000000" stroke="none" opacity="1" d="M 224.5 260 L 226 260.5 L 224.5 261 L 224.5 260 Z "/>
  <path fill="#000000" stroke="none" opacity="1" d="M 232.5 260 L 234 260.5 L 232.5 261 L 232.5 260 Z "/>
  <path fill="#000000" stroke="none" opacity="1" d="M 247.5 260 L 249 260.5 L 245 263 Q 243.9 260.3 246.5 261 L 247.5 260 Z "/>
  <path fill="#000000" stroke="none" opacity="1" d="M 264.5 260 L 264.5 261 L 264.5 260 Z "/>
  <path fill="#000000" stroke="none" opacity="1" d="M 57.5 261 L 58 262.5 L 57 262.5 L 57.5 261 Z "/>
  <path fill="#000000" stroke="none" opacity="1" d="M 217.5 261 L 217.5 262 L 217.5 261 Z "/>
  <path fill="#000000" stroke="none" opacity="1" d="M 243.5 261 L 244 262.5 L 241.5 264 L 240.5 262 Q 242 264.5 243.5 261 Z "/>
  <path fill="#000000" stroke="none" opacity="1" d="M 55.5 262 L 55.5 263 L 55.5 262 Z "/>
  <path fill="#000000" stroke="none" opacity="1" d="M 156 262 L 158 262.5 L 156 263.5 L 156 262 Z "/>
  <path fill="#000000" stroke="none" opacity="1" d="M 184 262 L 188 262.5 L 187 265.5 L 190 264.5 L 189.5 267 L 186.5 268 L 185.5 266 L 184.5 268 L 182.5 265 L 180 266 L 180 264 Q 185.2 265.7 184 262 Z M 185 264 L 185 265 L 185 264 Z "/>
  <path fill="#000000" stroke="none" opacity="1" d="M 222.5 262 L 223.5 264 L 222.5 262 Z "/>
  <path fill="#000000" stroke="none" opacity="1" d="M 50.5 263 L 51 264.5 L 50 264.5 L 50.5 263 Z "/>
  <path fill="#000000" stroke="none" opacity="1" d="M 99.5 263 L 102 263.5 Q 99.9 266.8 99.5 263 Z "/>
  <path fill="#000000" stroke="none" opacity="1" d="M 103.5 263 L 105 265.5 L 103 264.5 L 103.5 263 Z "/>
  <path fill="#000000" stroke="none" opacity="1" d="M 108.5 263 L 108.5 264 L 108.5 263 Z "/>
  <path fill="#000000" stroke="none" opacity="1" d="M 150.5 263 L 150.5 264 L 150.5 263 Z "/>
  <path fill="#000000" stroke="none" opacity="1" d="M 167.5 263 L 169.5 267 L 170 263 L 172 263.5 L 170 270 L 173 271.5 L 171.5 272 L 168 269.5 L 169 267.5 L 168 265 L 166 264.5 L 167.5 263 Z "/>
  <path fill="#000000" stroke="none" opacity="1" d="M 207.5 264 Q 209.8 263.3 209 265.5 L 207.5 264 Z "/>
  <path fill="#000000" stroke="none" opacity="1" d="M 244.5 264 L 247 264.5 L 246 267 L 249 267.5 L 246.5 268 L 244.5 264 Z "/>
  <path fill="#000000" stroke="none" opacity="1" d="M 54.5 265 L 54.5 266 L 54.5 265 Z "/>
  <path fill="#000000" stroke="none" opacity="1" d="M 106.5 265 L 106.5 266 L 106.5 265 Z "/>
  <path fill="#000000" stroke="none" opacity="1" d="M 126.5 265 L 127 266.5 L 126 266.5 L 126.5 265 Z "/>
  <path fill="#000000" stroke="none" opacity="1" d="M 149.5 265 L 153.5 268 L 154.5 266 L 156 268.5 L 149 271 L 150 266.5 L 149.5 265 Z "/>
  <path fill="#000000" stroke="none" opacity="1" d="M 152.5 265 L 152.5 266 L 152.5 265 Z "/>
  <path fill="#000000" stroke="none" opacity="1" d="M 213.5 265 L 213.5 266 L 213.5 265 Z "/>
  <path fill="#000000" stroke="none" opacity="1" d="M 99.5 266 Q 101.8 265.3 101 267.5 L 102.5 267 Q 106.9 265.5 106 268.5 L 101.5 269 L 99.5 266 Z "/>
  <path fill="#000000" stroke="none" opacity="1" d="M 137.5 266 L 138 267.5 L 137 267.5 L 137.5 266 Z "/>
  <path fill="#000000" stroke="none" opacity="1" d="M 156.5 266 Q 158.8 265.3 158 267.5 L 156.5 266 Z "/>
  <path fill="#000000" stroke="none" opacity="1" d="M 217.5 266 L 218 267.5 L 217 267.5 L 217.5 266 Z "/>
  <path fill="#000000" stroke="none" opacity="1" d="M 212.5 267 L 213 269 L 211 268.5 L 212.5 267 Z "/>
  <path fill="#000000" stroke="none" opacity="1" d="M 250.5 267 L 250.5 268 L 250.5 267 Z "/>
  <path fill="#000000" stroke="none" opacity="1" d="M 126.5 268 L 131 269.5 L 124.5 271 L 124.5 270 Q 127 270.7 126.5 268 Z "/>
  <path fill="#000000" stroke="none" opacity="1" d="M 139.5 268 L 142.5 269 L 144 268.5 L 140.5 270 L 139.5 268 Z "/>
  <path fill="#000000" stroke="none" opacity="1" d="M 163.5 268 L 163.5 269 L 163.5 268 Z "/>
  <path fill="#000000" stroke="none" opacity="1" d="M 175.5 268 L 175.5 269 L 175.5 268 Z "/>
  <path fill="#000000" stroke="none" opacity="1" d="M 180.5 268 Q 183.8 266.9 183 269.5 L 181.5 269 L 180.5 268 Z "/>
  <path fill="#000000" stroke="none" opacity="1" d="M 252.5 268 L 253 270 L 250.5 271 L 250 269 L 252.5 268 Z "/>
  <path fill="#000000" stroke="none" opacity="1" d="M 161.5 269 L 161.5 270 L 161.5 269 Z "/>
  <path fill="#000000" stroke="none" opacity="1" d="M 186 269 L 189 269.5 L 185.5 272 L 186 270.5 L 186 269 Z "/>
  <path fill="#000000" stroke="none" opacity="1" d="M 247.5 269 L 249 269.5 L 247.5 270 L 247.5 269 Z "/>
  <path fill="#000000" stroke="none" opacity="1" d="M 137.5 270 L 138 271.5 L 137 271.5 L 137.5 270 Z "/>
  <path fill="#000000" stroke="none" opacity="1" d="M 99.5 271 L 99.5 272 L 99.5 271 Z "/>
  <path fill="#000000" stroke="none" opacity="1" d="M 121 271 L 123 271.5 L 122.5 274 L 121 271 Z "/>
  <path fill="#000000" stroke="none" opacity="1" d="M 139.5 271 L 141 274 Q 138 272.8 139 276.5 L 138 276.5 L 139.5 271 Z "/>
  <path fill="#000000" stroke="none" opacity="1" d="M 152.5 271 Q 155.5 272.5 152.5 274 L 151 273.5 L 153 272.5 L 152.5 271 Z "/>
  <path fill="#000000" stroke="none" opacity="1" d="M 155.5 271 L 155.5 272 L 155.5 271 Z "/>
  <path fill="#000000" stroke="none" opacity="1" d="M 183.5 271 L 185 275.5 L 184 275.5 L 183.5 271 Z "/>
  <path fill="#000000" stroke="none" opacity="1" d="M 166.5 272 L 168 272.5 L 165 274.5 L 166.5 272 Z "/>
  <path fill="#000000" stroke="none" opacity="1" d="M 169.5 272 L 169.5 273 L 169.5 272 Z "/>
  <path fill="#000000" stroke="none" opacity="1" d="M 125.5 273 L 128 274.5 L 126 275.5 L 125.5 273 Z "/>
  <path fill="#000000" stroke="none" opacity="1" d="M 102.5 274 L 102.5 275 L 102.5 274 Z "/>
  <path fill="#000000" stroke="none" opacity="1" d="M 122.5 275 L 123.5 277 L 125 276.5 L 125 278.5 L 124.5 280 L 123.5 278 L 121 279.5 L 121 277.5 L 122.5 275 Z "/>
  <path fill="#000000" stroke="none" opacity="1" d="M 100.5 276 L 100.5 277 L 100.5 276 Z "/>
  <path fill="#000000" stroke="none" opacity="1" d="M 187.5 276 L 187.5 277 L 187.5 276 Z "/>
  <path fill="#000000" stroke="none" opacity="1" d="M 102.5 277 L 102.5 278 L 102.5 277 Z "/>
  <path fill="#000000" stroke="none" opacity="1" d="M 199.5 281 L 199.5 282 L 199.5 281 Z "/>
  <path fill="#000000" stroke="none" opacity="1" d="M 200.5 283 L 201 284.5 L 200 284.5 L 200.5 283 Z "/>
  <path fill="#000000" stroke="none" opacity="1" d="M 196.5 284 L 198 284.5 L 196.5 285 L 196.5 284 Z "/>
  <path fill="#000000" stroke="none" opacity="1" d="M 194.5 285 L 194.5 286 L 194.5 285 Z "/>
</svg>