<?xml version="1.0" encoding="utf-8"?>
<svg viewBox="0 0 177 109" version="1.1" xmlns="http://www.w3.org/2000/svg">
  <path fill="#000000" stroke="none" opacity="1" d="M 74.5 8 L 85.5 9 L 87.5 9 Q 94.3 10.3 97.5 8 L 98.5 9 L 106.5 9 L 116 12 Q 114.9 14.7 117.5 14 L 119.5 14 Q 124 13 125 15.5 Q 124.1 18.5 128.5 17 L 130.5 16 L 133.5 20 L 140 21 L 141.5 24 Q 147.7 23.3 150 26.5 L 149.5 28 L 157 31.5 L 156 33.5 L 160 35 L 160 39 L 161.5 39 L 161.5 40 L 160 40.5 L 163 48 L 158.5 46 L 158 48 L 160 48.5 L 157.5 49 L 154.5 45 L 148.5 44 L 145.5 45 L 145.5 44 L 147 43.5 L 139 42 L 140 48 L 142.5 48 L 150 53.5 L 148 56.5 L 150.5 60 L 147.5 59 L 145.5 59 L 143.5 60 L 143 57 L 139.5 58 L 136 56 L 137.5 52 L 139 56 L 141 55.5 L 141 53.5 Q 141.8 51.3 139.5 52 L 138 48 L 132 47 L 130.5 44 Q 125.8 43.3 125 46.5 L 124 49.5 L 124.5 51 L 114.5 50 L 101.5 55 L 96 60.5 Q 97.3 69.3 93 72.5 L 93 86.5 L 98 88.5 L 81.5 89 L 81.5 88 Q 85.3 88.8 86 86.5 L 86 75.5 L 74.5 63 Q 72.3 63.8 73 61.5 Q 66.4 54.6 56.5 51 L 48 50.5 L 48.5 49 L 43.5 48 L 43 51 L 46 51.5 Q 44.3 54.8 42.5 51 L 38.5 49 L 36.5 50 Q 35 47.5 29.5 49 Q 28.3 51.3 23.5 50 L 19.5 49 L 16 50 L 16 47 L 19 47 Q 17.9 44.3 20.5 45 L 26 41.5 Q 26.8 39.3 24.5 40 L 20.5 41 L 16.5 40 L 14 37.5 L 16.5 35 L 24.5 34 Q 25.8 36.3 27 33.5 L 25 30.5 L 24 28 L 22 27.5 L 28.5 26 L 32 23.5 L 33 19 L 37.5 20 L 39.5 19 L 42.5 20 L 46.5 17 L 57.5 16 L 61 14 L 61.5 11 L 63.5 12 L 66.5 11 L 74.5 8 Z M 100 10 L 100 11 L 100 10 Z M 101 31 L 101 32 L 102 32 L 101 31 Z M 117 31 L 118 32 L 119 33 Q 120 30 117 31 Z M 80 34 L 79 36 L 80 36 L 80 34 Z M 69 35 L 69 36 L 69 35 Z M 122 35 L 123 37 L 125 36 L 122 35 Z M 71 38 L 71 39 L 72 39 L 71 38 Z M 128 38 L 126 40 L 128 40 L 128 38 Z M 27 39 L 27 40 L 31 40 L 27 39 Z M 33 40 L 33 42 L 35 41 L 33 40 Z M 59 40 L 59 43 L 61 42 L 59 40 Z M 62 40 L 62 41 L 63 41 L 62 40 Z M 64 41 L 64 42 L 64 41 Z M 99 41 L 97 43 L 98 47 L 100 42 L 99 41 Z M 65 42 L 64 44 L 65 44 L 65 42 Z M 67 43 L 67 44 L 67 43 Z M 73 43 L 73 44 L 73 43 Z M 82 43 L 82 44 L 83 44 L 82 43 Z M 91 44 L 90 46 L 93 47 L 91 44 Z M 106 44 L 106 45 L 106 44 Z M 110 44 L 110 45 L 110 44 Z M 104 45 L 104 46 L 105 46 L 104 45 Z M 107 45 L 104 49 Q 108 50 109 46 L 107 45 Z M 62 46 L 62 47 L 62 46 Z M 66 46 Q 64 49 67 48 L 66 46 Z M 103 46 L 103 47 L 103 46 Z M 50 48 L 51 50 Q 52 47 50 48 Z M 69 48 L 69 49 L 69 48 Z M 70 49 L 67 53 L 72 54 L 79 61 L 80 61 L 76 55 L 76 52 L 70 49 Z M 123 49 L 123 50 L 123 49 Z M 63 51 L 63 52 L 63 51 Z M 90 51 L 90 52 L 90 51 Z M 64 52 L 64 53 L 64 52 Z M 82 52 L 82 53 L 82 52 Z M 146 53 L 143 55 L 147 59 Q 149 58 147 57 Q 148 52 146 53 Z M 94 54 L 94 55 L 94 54 Z M 91 57 L 91 58 L 91 57 Z "/>
  <path fill="#000000" stroke="none" opacity="1" d="M 126.5 50 L 129 50.5 L 126.5 51 L 126.5 50 Z "/>
  <path fill="#000000" stroke="none" opacity="1" d="M 31.5 51 L 31.5 52 L 31.5 51 Z "/>
  <path fill="#000000" stroke="none" opacity="1" d="M 130.5 51 L 132 51.5 L 130.5 52 L 130.5 51 Z "/>
  <path fill="#000000" stroke="none" opacity="1" d="M 40.5 52 L 42 52.5 L 40.5 53 L 40.5 52 Z "/>
  <path fill="#000000" stroke="none" opacity="1" d="M 121.5 52 L 122 53.5 L 121 53.5 L 121.5 52 Z "/>
  <path fill="#000000" stroke="none" opacity="1" d="M 38.5 53 L 38.5 54 L 38.5 53 Z "/>
  <path fill="#000000" stroke="none" opacity="1" d="M 134.5 53 L 134.5 54 L 134.5 53 Z "/>
  <path fill="#000000" stroke="none" opacity="1" d="M 152.5 53 L 155.5 55 L 157.5 55 L 159 55.5 L 153 57 L 152.5 53 Z "/>
  <path fill="#000000" stroke="none" opacity="1" d="M 25.5 54 Q 27.8 53.3 27 55.5 L 25.5 54 Z "/>
  <path fill="#000000" stroke="none" opacity="1" d="M 127.5 54 L 128.5 56 Q 125.7 56.7 127.5 54 Z "/>
  <path fill="#000000" stroke="none" opacity="1" d="M 125.5 55 L 125.5 56 L 125.5 55 Z "/>
  <path fill="#000000" stroke="none" opacity="1" d="M 31.5 56 L 31.5 57 L 31.5 56 Z "/>
  <path fill="#000000" stroke="none" opacity="1" d="M 24.5 57 L 24.5 58 L 24.5 57 Z "/>
  <path fill="#000000" stroke="none" opacity="1" d="M 27.5 57 L 27.5 58 L 27.5 57 Z "/>
  <path fill="#000000" stroke="none" opacity="1" d="M 34.5 57 L 34.5 58 L 34.5 57 Z "/>
  <path fill="#000000" stroke="none" opacity="1" d="M 31.5 59 L 31.5 60 L 31.5 59 Z "/>
  <path fill="#000000" stroke="none" opacity="1" d="M 140.5 60 L 140.5 61 L 140.5 60 Z "/>
</svg>