<svg viewBox="0 0 191 264" version="1.1" xmlns="http://www.w3.org/2000/svg"><path fill="#000000"  stroke="none" opacity="1" d="M 83.5 22 L 87.5 25 L 91.5 23 L 91 24.5 Q 90.3 26.8 92.5 26 L 94.5 26 L 97 27.5 L 94 28.5 L 96 29.5 Q 93.5 31 97 32.5 Q 96.3 34.8 98.5 34 L 98 32.5 L 97 30.5 L 100 29.5 L 98 25.5 L 99.5 26 L 101 25.5 L 100.5 24 L 104 25 L 104.5 27 L 108.5 25 L 114 26.5 L 111 27.5 L 115 30.5 L 111 32.5 L 117 35 L 117.5 31 L 119 31.5 L 119.5 30 L 129 34.5 L 128 37 L 131 38.5 L 130 41.5 L 131.5 42 L 133.5 41 L 136 42.5 L 132 44 L 131 46.5 L 133.5 47 L 135 46.5 Q 134.3 48.8 136.5 48 L 139 51.5 L 137.5 51 L 134.5 52 L 132.5 52 L 129.5 51 L 130.5 53 L 134.5 54 L 137.5 53 L 139 53.5 Q 136.3 55.3 140.5 57 L 144 58.5 L 141 59.5 L 145.5 66 L 147 62 L 149 61.5 L 145.5 61 L 144 61.5 L 146.5 58 L 148 57.5 L 147.5 56 L 150.5 58 L 152.5 57 L 156.5 59 L 157 57.5 L 153 55.5 L 158 55 L 158.5 57 L 159.5 55 L 163.5 57 L 165.5 57 L 167.5 56 L 168 58 L 171 58.5 L 164 61.5 L 169 63.5 L 166 64 Q 164.5 67.8 167.5 67 L 168 69.5 L 169 71.5 L 166.5 70 L 164.5 69 L 164 70.5 L 165 73 L 168 74.5 L 167.5 76 L 165 75 L 168.5 80 Q 171.1 80.8 170 77.5 Q 171.5 74.5 173 77.5 Q 171.3 82.8 176.5 81 L 175 83.5 L 178 87.5 L 175.5 89 L 174 88.5 L 173.5 93 L 170 91 L 169.5 89 L 165 91 L 167 87.5 L 164 85.5 L 165 83.5 L 162 83 L 161.5 85 L 161 81.5 L 161.5 80 Q 158.5 79.2 160 83 L 158 83 L 156.5 79 L 154.5 78 L 154 80.5 L 155 83 Q 158 82 157 85 L 159.5 85 L 160.5 87 L 159 87.5 L 162 88.5 L 160 89.5 Q 161.3 92.3 162.5 90 L 165.5 93 L 167.5 92 L 168.5 94 L 171 92.5 Q 170.2 95.1 173.5 94 L 177 100.5 L 176 102.5 L 177.5 105 L 175.5 105 Q 172.9 104.2 174 107.5 L 172 110.5 Q 174.3 111.8 173 116.5 L 170 115.5 Q 171.9 120.9 168.5 120 L 167 117 L 165 117.5 L 166 122.5 L 163.5 121 Q 160.2 119.9 161 122.5 L 160 125 Q 157.3 126.1 158 123.5 L 154.5 119 L 153.5 120 L 149.5 116 L 148 117.5 L 147.5 119 L 147 115.5 L 149.5 112 Q 155.8 113.9 154 109 Q 151.3 107.9 152 110.5 L 150.5 110 L 145 109 L 146 112.5 L 144.5 112 L 140.5 110 L 142 114.5 Q 143 118.3 140 117 Q 141.1 114.3 138.5 115 L 136 115.5 L 137.5 119 Q 140.1 118.2 139 121.5 L 140 125.5 L 139 125.5 Q 139.7 122.9 137 124 L 136.5 128 L 135.5 126 Q 134 128.5 132.5 125 L 127.5 123 L 127 124.5 L 128 126.5 L 126 126.5 L 123.5 130 Q 124.1 125.4 121.5 124 L 121 127 Q 118.3 125.9 119 128.5 L 118 128.5 L 116.5 125 L 102 150.5 L 102 154.5 L 98 162.5 L 97 192.5 L 96 193.5 L 96 205.5 L 95 206.5 L 95 237.5 L 100 241.5 L 98.5 244 L 104 246 Q 105.3 249 101.5 248 L 100.5 249 L 86.5 249 L 82 246.5 Q 81.3 244.3 83.5 245 L 83.5 243 L 86.5 244 L 86.5 242 Q 89.5 242.9 88 238.5 L 89 237.5 L 90 190.5 L 91 189.5 L 91 176.5 L 92 175.5 L 92 135.5 L 87 123.5 L 71.5 105 L 69.5 110 Q 68.4 107.3 65 108 L 65 111 Q 68 109.8 67 113.5 L 67.5 115 L 61.5 113 L 58 114.5 L 61 116.5 Q 59.3 120.7 57.5 118 Q 54.2 116.9 55 119.5 L 54 121.5 L 54.5 123 L 52 121.5 L 50.5 117 L 47.5 119 L 47 117.5 L 49 109.5 L 47 109.5 L 46.5 107 L 42.5 113 L 41 108 L 37.5 107 L 34 109 L 36 104.5 L 34.5 104 L 31.5 105 L 32 103.5 L 34.5 100 L 38 99 Q 39.5 93.6 36.5 92 L 35 92.5 L 36 95.5 L 34 95.5 L 33.5 99 L 31 95.5 L 31.5 94 L 29.5 93 L 26.5 95 L 25 89.5 L 26 87.5 L 23 88.5 L 25.5 85 Q 28.1 85.7 27 83 L 25 82.5 L 26 80.5 L 24.5 81 L 22 80.5 L 23 76 L 26 75.5 L 23.5 74 L 21.5 75 L 18 73.5 L 20 73 Q 18.9 70.3 21.5 71 L 23.5 71 Q 25.8 71.8 25 69.5 L 26.5 70 L 28 69.5 L 27 67.5 L 28.5 64 L 34.5 69 L 35.5 67 Q 32.5 67.7 34 64 L 39 62.5 L 35.5 57 L 24.5 60 L 25.5 58 L 29 56.5 L 28.5 54 L 25 53.5 L 31 51.5 Q 28.2 48.8 22 49.5 L 26.5 47 L 30.5 48 Q 31.7 45.7 33 48.5 L 33.5 50 L 35.5 50 L 39.5 48 L 41 48.5 L 41.5 47 L 43.5 47 L 45 47.5 Q 41.9 49.3 43.5 51 L 41 52.5 Q 40.3 54.8 42.5 54 L 46 53 L 47 55.5 L 46 57.5 L 47 60 L 53 57.5 L 52 55 Q 55.8 56 57 53.5 Q 56 51 51.5 52 L 49.5 53 L 50 51.5 Q 49.3 49.3 51.5 50 L 51.5 49 L 48 48.5 Q 49 46 53.5 47 L 56.5 49 L 59 48 L 57 44.5 L 61 42.5 Q 59.8 39.8 58.5 42 L 55.5 43 L 55 41.5 L 58 39.5 L 54 38.5 L 56.5 36 L 62 35 L 62.5 37 L 66.5 37 Q 70.9 38.5 70 35.5 L 73.5 33 L 73 34.5 L 74 38 Q 77.3 39.3 76 34.5 L 78 29.5 L 77.5 28 L 80.5 27 L 82 27.5 Q 82.9 24.5 78.5 26 L 76 27 L 75 24.5 L 79.5 23 L 82.5 24 L 84 23.5 L 83.5 22 Z M 110 28 L 110 29 L 110 28 Z M 101 30 L 101 31 L 101 30 Z M 84 31 L 84 32 L 84 31 Z M 94 32 Q 92 35 95 34 L 94 32 Z M 81 34 L 81 35 L 81 34 Z M 87 34 Q 85 37 88 36 L 87 34 Z M 79 35 L 77 37 L 79 39 L 80 36 L 79 35 Z M 93 37 L 93 38 L 93 37 Z M 95 37 L 93 39 Q 92 41 95 40 L 95 37 Z M 74 38 L 74 39 L 74 38 Z M 98 39 Q 96 42 92 42 L 95 43 L 98 42 L 98 39 Z M 100 41 L 99 43 L 97 44 L 100 44 L 100 41 Z M 125 41 L 125 42 L 125 41 Z M 128 41 Q 126 44 129 43 L 128 41 Z M 120 42 L 118 44 L 123 46 L 120 42 Z M 127 43 L 126 45 L 127 45 L 127 43 Z M 69 45 L 69 47 L 71 46 L 69 45 Z M 118 45 L 118 46 L 118 45 Z M 130 46 L 130 47 L 130 46 Z M 62 50 L 62 51 L 62 50 Z M 65 50 L 62 51 L 61 54 Q 60 56 63 55 L 65 55 L 68 54 Q 69 51 65 52 L 65 50 Z M 129 50 L 129 51 L 129 50 Z M 87 51 Q 85 54 88 53 L 87 51 Z M 75 52 L 75 53 L 75 52 Z M 76 53 L 76 54 L 76 53 Z M 89 53 L 89 54 L 89 53 Z M 97 53 L 97 54 L 97 53 Z M 123 53 L 123 54 L 124 54 L 123 53 Z M 74 54 L 73 55 Q 70 54 71 57 L 75 55 L 74 54 Z M 96 54 L 96 55 L 96 54 Z M 95 55 L 95 56 L 95 55 Z M 67 56 L 65 58 L 68 59 Q 70 60 69 58 L 67 56 Z M 90 56 Q 89 59 92 58 Q 93 55 90 56 Z M 107 57 L 107 58 L 108 58 L 107 57 Z M 130 57 L 130 58 L 130 57 Z M 39 58 L 39 61 Q 43 62 42 60 L 39 58 Z M 44 58 Q 42 61 45 60 L 44 58 Z M 89 58 L 89 59 L 89 58 Z M 99 58 L 97 61 L 99 60 L 99 58 Z M 103 58 L 103 59 L 104 59 L 103 58 Z M 102 59 L 102 60 L 102 59 Z M 158 59 L 158 60 L 158 59 Z M 46 60 L 46 61 L 47 61 L 46 60 Z M 108 60 L 106 62 L 109 63 L 110 61 L 108 60 Z M 50 61 L 50 62 L 50 61 Z M 51 61 Q 50 64 54 63 Q 55 60 51 61 Z M 56 61 L 57 63 Q 58 60 56 61 Z M 95 61 L 97 64 L 97 63 L 95 61 Z M 100 61 L 100 62 L 100 61 Z M 50 63 L 50 64 L 50 63 Z M 90 63 L 90 64 L 90 63 Z M 92 63 L 92 64 L 93 64 L 92 63 Z M 140 63 L 140 64 L 140 63 Z M 151 63 Q 148 65 151 66 L 153 65 Q 154 62 151 63 Z M 94 64 L 94 65 L 95 65 L 94 64 Z M 91 65 L 91 66 L 92 66 L 91 65 Z M 56 66 L 51 68 L 56 68 L 56 66 Z M 90 66 L 90 67 L 90 66 Z M 96 66 L 96 67 L 96 66 Z M 104 66 L 103 68 L 104 68 L 104 66 Z M 100 67 L 100 68 L 100 67 Z M 33 68 L 33 69 L 33 68 Z M 90 68 L 90 69 L 90 68 Z M 93 68 L 93 69 L 93 68 Z M 40 69 L 40 70 L 40 69 Z M 88 69 L 88 70 L 89 70 L 88 69 Z M 152 69 L 152 70 L 153 70 L 152 69 Z M 93 70 L 93 71 L 93 70 Z M 37 71 L 39 73 L 41 72 L 37 71 Z M 86 71 L 87 73 L 89 72 L 86 71 Z M 91 71 L 90 73 L 92 72 L 91 71 Z M 139 72 L 137 74 L 141 75 L 141 73 L 139 72 Z M 56 73 L 56 74 L 56 73 Z M 94 73 L 88 79 L 90 80 L 95 74 L 94 73 Z M 98 73 L 97 75 L 98 75 L 98 73 Z M 54 74 L 53 76 L 54 76 L 54 74 Z M 90 74 L 86 75 L 87 77 Q 91 78 91 75 L 90 74 Z M 101 74 L 101 75 L 101 74 Z M 131 74 L 131 75 L 132 75 L 131 74 Z M 117 75 L 117 76 L 117 75 Z M 152 75 Q 151 78 154 77 Q 155 74 152 75 Z M 36 76 L 37 77 L 38 78 Q 39 75 36 76 Z M 116 76 L 115 78 L 116 78 L 116 76 Z M 41 77 L 41 81 L 39 81 L 40 84 Q 39 87 42 86 L 43 86 L 42 89 L 42 91 Q 41 93 44 92 L 47 85 L 45 81 L 41 79 L 41 77 Z M 156 77 L 156 78 L 156 77 Z M 32 78 L 28 83 L 29 85 L 29 84 L 32 82 L 32 78 Z M 36 78 L 34 82 L 36 83 Q 35 80 38 81 L 38 79 L 36 78 Z M 50 78 L 50 79 L 50 78 Z M 63 78 L 61 80 L 63 80 L 63 78 Z M 93 78 L 91 80 L 93 80 L 93 78 Z M 153 78 L 153 79 L 153 78 Z M 109 79 L 109 80 L 109 79 Z M 163 79 L 163 80 L 164 80 L 163 79 Z M 49 80 L 50 82 L 51 82 L 49 80 Z M 107 81 L 107 82 L 108 82 L 107 81 Z M 113 81 L 113 82 L 113 81 Z M 117 81 L 117 82 L 117 81 Z M 33 82 L 34 84 Q 35 81 33 82 Z M 62 82 L 62 83 L 63 83 L 62 82 Z M 135 82 L 135 83 L 135 82 Z M 39 83 L 39 84 L 39 83 Z M 68 84 Q 66 87 69 86 L 68 84 Z M 65 85 L 65 86 L 65 85 Z M 135 85 L 135 86 L 135 85 Z M 166 85 L 166 86 L 167 86 L 166 85 Z M 122 86 L 122 87 L 122 86 Z M 136 87 L 136 88 L 136 87 Z M 54 88 L 54 92 L 54 93 L 56 92 L 55 95 Q 58 96 57 94 L 58 91 L 54 88 Z M 134 88 L 134 89 L 135 89 L 134 88 Z M 138 88 L 138 89 L 138 88 Z M 59 89 L 59 90 L 59 89 Z M 66 89 L 66 90 L 67 90 L 66 89 Z M 119 89 L 119 90 L 119 89 Z M 135 90 L 135 91 L 136 91 L 135 90 Z M 159 90 Q 157 93 160 92 L 159 90 Z M 61 91 L 58 95 Q 54 96 57 98 Q 58 101 54 99 L 55 102 L 54 105 L 56 105 L 59 110 L 61 106 L 61 108 L 66 107 Q 68 101 62 103 L 63 101 Q 62 98 65 99 L 63 94 L 61 103 L 60 103 L 61 98 L 60 96 L 61 94 L 61 91 Z M 65 91 Q 64 94 67 93 Q 68 90 65 91 Z M 98 91 L 98 92 L 98 91 Z M 115 91 L 115 92 L 115 91 Z M 133 91 Q 130 92 132 94 Q 131 96 134 95 L 133 94 L 136 93 L 133 91 Z M 49 92 L 49 93 L 49 92 Z M 71 93 L 69 95 L 71 95 L 71 93 Z M 146 93 L 146 94 L 146 93 Z M 151 93 L 151 95 Q 150 97 154 96 L 154 95 L 151 93 Z M 158 93 L 158 94 L 159 94 L 158 93 Z M 82 94 L 80 96 L 81 98 L 83 95 L 82 94 Z M 115 94 L 115 95 L 115 94 Z M 145 94 L 145 95 L 145 94 Z M 149 94 L 150 96 Q 151 93 149 94 Z M 40 95 L 40 96 L 40 95 Z M 115 95 L 116 98 L 117 96 L 115 95 Z M 131 95 L 131 96 L 131 95 Z M 148 95 L 146 98 L 148 100 L 148 98 Q 150 96 148 95 Z M 156 95 L 156 96 L 156 95 Z M 112 96 L 112 98 L 110 98 Q 109 101 114 100 Q 116 101 114 103 L 115 105 L 115 106 L 111 106 L 111 111 L 108 109 L 106 109 L 104 113 L 103 112 Q 102 109 100 112 L 101 114 L 99 124 L 98 144 L 98 146 L 97 148 L 98 150 L 112 128 L 115 119 L 113 119 L 115 116 L 117 116 L 117 115 L 114 113 L 120 110 L 117 108 L 115 109 Q 118 107 117 103 L 117 100 Q 114 101 115 99 L 112 96 Z M 132 96 L 130 98 L 132 98 L 132 96 Z M 137 96 L 136 99 L 137 99 L 137 96 Z M 141 96 L 141 97 L 141 96 Z M 143 96 L 144 98 Q 145 95 143 96 Z M 146 96 L 146 97 L 146 96 Z M 140 97 L 140 98 L 140 97 Z M 142 97 L 142 98 L 142 97 Z M 41 98 L 41 99 L 41 98 Z M 53 98 L 53 99 L 53 98 Z M 83 98 L 80 99 L 83 104 L 81 104 L 78 103 L 76 104 Q 83 116 94 125 L 95 112 L 94 112 L 94 111 L 92 106 L 90 106 L 91 104 L 90 104 L 88 104 L 91 102 L 89 100 L 87 100 L 87 104 Q 83 105 85 100 L 83 98 Z M 127 98 Q 126 101 129 100 Q 130 97 127 98 Z M 145 98 Q 143 101 142 99 Q 136 97 137 101 Q 138 104 142 103 L 143 107 L 145 107 L 143 102 L 145 102 L 145 98 Z M 135 99 L 134 101 L 137 102 L 135 99 Z M 167 101 L 166 103 L 167 103 L 167 101 Z M 53 102 L 53 103 L 54 103 L 53 102 Z M 166 103 L 163 105 L 166 106 Q 170 108 169 104 L 168 104 L 166 103 Z M 146 104 L 146 105 L 146 104 Z M 41 106 L 41 107 L 41 106 Z M 108 106 L 108 107 L 108 106 Z M 169 106 L 169 108 L 169 109 Q 173 110 172 108 L 169 106 Z M 120 107 L 120 108 L 120 107 Z M 128 107 L 128 108 L 128 107 Z M 55 108 L 55 109 L 55 108 Z M 122 108 L 122 109 L 122 108 Z M 133 108 L 133 109 L 133 108 Z M 145 108 L 145 109 L 145 108 Z M 155 108 L 156 110 L 158 110 L 155 108 Z M 127 109 L 125 112 L 127 113 L 127 109 Z M 131 113 L 131 114 L 131 113 Z M 132 114 L 132 115 L 132 114 Z M 126 115 L 126 116 L 126 115 Z M 116 118 L 116 119 L 116 118 Z M 132 122 L 132 124 L 134 125 Q 135 121 132 122 Z M 93 188 L 93 189 L 93 188 Z "/><path fill="#000000"  stroke="none" opacity="1" d="M 42.5 81 L 44 81.5 L 42.5 82 L 42.5 81 Z "/><path fill="#000000"  stroke="none" opacity="1" d="M 163.5 87 L 163.5 88 L 163.5 87 Z "/><path fill="#000000"  stroke="none" opacity="1" d="M 140.5 100 L 140.5 101 L 140.5 100 Z "/></svg>