<svg viewBox="0 0 257 227" version="1.1" xmlns="http://www.w3.org/2000/svg"><path fill="#000000"  stroke="none" opacity="1" d="M 62 12 Q 67.2 10.3 66 14 Q 60.8 15.7 62 12 Z "/><path fill="#000000"  stroke="none" opacity="1" d="M 70.5 13 L 72.5 14 L 74 13.5 L 71 15 L 70.5 17 L 70 15.5 L 70.5 13 Z "/><path fill="#000000"  stroke="none" opacity="1" d="M 67.5 14 L 68 15.5 L 67 15.5 L 67.5 14 Z "/><path fill="#000000"  stroke="none" opacity="1" d="M 81.5 14 L 81.5 15 L 81.5 14 Z "/><path fill="#000000"  stroke="none" opacity="1" d="M 63.5 15 L 64 16.5 L 63 16.5 L 63.5 15 Z "/><path fill="#000000"  stroke="none" opacity="1" d="M 74.5 15 L 77 18.5 L 76 22.5 L 76 24.5 Q 76 30.5 72 32.5 L 72 37.5 L 73 42 L 79.5 39 L 84.5 39 Q 85.8 41.2 90.5 40 L 92.5 39 L 92.5 40 Q 90.3 39.3 91 41.5 L 92 43.5 L 91 43.5 L 89.5 41 L 79.5 40 L 75 42 L 77 50.5 L 77 56.5 L 76 61.5 L 77.5 67 L 79 64 L 85.5 68 L 92.5 69 Q 95.3 67.8 93 66.5 L 92 64.5 L 96 67.5 L 94 68.5 Q 95.3 71.3 96.5 69 L 106 63.5 L 109 57.5 L 108 54.5 L 109 49.5 L 105.5 45 L 105 48 L 103 47.5 L 104 45.5 L 102 45.5 L 103.5 44 L 107 45.5 L 108.5 48 L 111 46.5 L 110.5 45 L 113 46.5 Q 113.7 49.5 110 48 L 110 50.5 L 111.5 50 L 114.5 49 L 114.5 50 L 110 52.5 L 110.5 56 L 120 49.5 L 116 48.5 L 120 48 L 119.5 46 L 118 46.5 L 119 43 L 115.5 41 L 114.5 43 L 112.5 43 L 109 41.5 L 109 39 Q 111.7 40.1 111 37.5 L 112 37.5 Q 110.5 42.8 115 41 L 114 38.5 L 116 37.5 L 112 35.5 L 116.5 33 L 116 34.5 Q 115.3 36.8 117.5 36 L 120 34.5 Q 118.5 38.9 121.5 38 Q 123.2 41.7 125 38.5 L 123 38 Q 121.9 35.3 124.5 36 L 127 39.5 Q 125.3 37.9 123.5 41 L 121 42.5 L 122 44.5 L 121 48 L 126 45.5 L 123.5 42 Q 130.8 44.6 129 38.5 Q 130.3 35.8 131.5 38 L 137 39 L 138 41.5 L 135.5 43 L 132.5 42 L 133 43.5 L 132 45.5 L 136 46.5 L 127.5 48 L 125.5 48 L 114 54 Q 115.3 57 111.5 56 L 106 66 L 108 66 Q 106.9 68.7 109.5 68 L 111.5 69 L 113.5 69 Q 119.7 68.4 122 71 Q 120.7 74.3 125.5 73 L 130.5 77 L 131.5 75 L 129 74.5 L 131.5 74 L 133 74.5 L 134 72.5 L 132 68.5 L 139 64.5 Q 141.1 58.6 136.5 60 L 132 57 L 131.5 55 L 130 58 L 127 58 L 125 54 L 129 54.5 L 128.5 56 L 131 54.5 L 130 52.5 L 132.5 51 L 134.5 52 L 133.5 49 Q 135.8 54.1 143 53 Q 141.7 48.9 145 50 L 145.5 52 L 146 49 Q 148.7 50.1 148 47.5 L 147.5 46 L 152.5 49 L 154.5 49 Q 156.8 48.3 156 50.5 L 157 50.5 L 157.5 47 L 161.5 48 L 163 47.5 L 162 49.5 Q 163.5 52.5 165 49.5 L 164.5 48 L 168 50.5 Q 168.8 52.8 166.5 52 L 166.5 50 L 164 51.5 L 165 53.5 L 164 54.5 L 169.5 60 L 177.5 56 L 176 58.5 L 175.5 60 Q 174.2 57.8 173 60.5 L 172 62.5 L 173.5 63 L 176.5 61 L 179 62 L 179.5 64 L 182 63 L 183.5 59 L 184.5 61 Q 187.3 59.8 185 58.5 L 186.5 56 L 188.5 56 Q 191.1 55.2 190 58.5 L 187 60.5 L 187.5 62 L 184.5 62 L 181 64 L 180.5 66 L 178.5 66 L 174 68.5 L 173 73 L 175.5 72 L 177.5 73 L 180.5 72 L 180.5 73 L 178 73.5 L 182 75 L 182 80 L 183.5 80 L 182.5 82 L 179 83.5 Q 178.2 86.1 181.5 85 L 185.5 85 Q 187.8 85.8 187 83.5 L 189.5 82 L 192.5 87 L 199 90 L 198 92.5 L 204.5 94 L 206.5 96 L 211 96 Q 209.5 92.3 212.5 93 Q 216.2 95 214.5 97 L 217.5 95 L 219.5 98 L 223.5 96 L 228 97.5 L 226 98.5 L 227 103 L 220 101 L 219.5 103 L 216 101 L 219 105.5 L 217.5 106 L 215.5 105 L 215.5 107 L 214 107.5 L 214.5 109 Q 213.2 106.8 212 109.5 L 210.5 112 L 207 112.5 L 209 113 L 209.5 115 L 210 113 Q 214.1 114.7 213 110.5 L 214 110.5 L 213 113.5 L 213.5 115 L 211 115.5 L 214 116 L 214.5 118 L 216 117.5 Q 217.1 120.8 214.5 120 L 213 117 L 208 116 Q 208.8 119.8 205.5 121 L 198 122 L 196.5 119 L 195 118.5 L 199 117.5 L 196 113 Q 192.2 114 191 111.5 L 189.5 109 L 183 110 L 183.5 112 L 185 111.5 Q 182.8 112.8 185.5 114 L 191 116.5 L 189.5 116 L 185 116.5 L 186 118.5 L 186 120.5 L 188 125.5 L 186 124.5 Q 186.5 120.5 183.5 120 L 181.5 119 L 181 120.5 L 181.5 122 L 179.5 119 L 166 127.5 L 165.5 129 L 151 129 L 151 134.5 L 150 134.5 Q 151.3 129.3 148.5 128 L 146 128 Q 147.5 131.8 144.5 131 L 139.5 133 L 137.5 133 L 128 138 L 128 148.5 L 123 157.5 L 120 168.5 L 120 174 Q 125.5 174.8 128.5 172 L 143.5 172 L 154.5 176 L 169.5 178 L 178.5 167 L 184.5 166 L 185.5 167 L 192 167 Q 191.1 159.4 194 154.5 L 191 150.5 L 193.5 152 L 196.5 153 L 202.5 148 L 204 148.5 Q 203.3 146.3 205.5 147 L 208.5 143 L 209 144.5 L 208 147 Q 205.3 145.9 206 148.5 Q 202.3 150.3 205.5 152 L 207 152.5 L 205.5 153 Q 204.8 150.3 200.5 151 L 195.5 157 L 197 157.5 L 194 158 L 193 163.5 L 194.5 168 L 196 167.5 L 194.5 169 L 180.5 169 L 179 170.5 Q 180.7 175.3 176.5 174 Q 172.3 175.3 173 180 L 162.5 181 L 143.5 175 L 131.5 175 L 121 179.5 L 119 182.5 L 119 195.5 L 118 196.5 L 118 227 L 108 226.5 L 109 225.5 L 109 205.5 L 111 195.5 L 111 175.5 L 112 174.5 L 112 164.5 L 113 163.5 L 113 152.5 L 111 149.5 Q 115.3 145.3 114 135.5 L 106 121 L 99.5 117 L 93 118 L 91.5 122 L 90.5 120 L 88 121.5 L 91 123.5 L 89 124.5 L 95 125.5 L 94 126.5 L 97 129.5 L 95 131.5 L 94.5 133 L 92 126 L 83 124 Q 84.5 127.7 81.5 127 L 82 125.5 L 83 122 L 74 121 L 74 125 L 72.5 125 L 69.5 129 L 69 127.5 Q 72.8 125.8 69.5 124 Q 66.9 124.7 68 122 L 64.5 122 L 63.5 124 Q 65.8 123.3 65 125.5 L 66 128 Q 68.7 126.9 68 129.5 L 68.5 132 L 74 132.5 Q 72.8 135.3 71.5 133 Q 68.2 131.9 69 134.5 L 68 137 L 63.5 139 L 61 138 L 60 135.5 L 61.5 135 L 64.5 136 L 64 134.5 L 64.5 132 L 67 133 L 68 130.5 Q 66.8 127.7 65.5 130 L 63.5 129 L 62 129.5 L 61.5 128 L 60.5 130 L 59.5 128 L 57 129.5 L 58 132.5 L 55.5 133 L 51.5 132 L 49 133 L 47.5 136 L 43 135.5 L 48 135 L 51.5 130 Q 57.7 130.7 59 126.5 L 58 122 L 61 121.5 L 57.5 120 L 56 120.5 L 57.5 117 L 59.5 118 Q 62.3 116.8 60 115.5 L 60.5 114 L 62 117.5 L 61.5 119 L 65 118.5 L 63 118 L 64 114.5 L 63 112.5 L 63.5 110 L 68 109 L 66 112.5 L 66.5 114 Q 63.5 113.2 65 117 L 67.5 116 L 68.5 118 L 77 114.5 L 68 113.5 L 72 112.5 L 70 111.5 L 71.5 111 L 75.5 112 L 77 111.5 L 76.5 113 L 79 113 Q 77.9 110.3 80.5 111 L 82 110.5 L 81.5 112 L 85 110.5 L 82 108.5 L 84 108.5 L 84 101.5 L 81.5 101 L 78.5 100 L 77 100.5 L 77.5 98 Q 79.8 98.8 79 96.5 L 80 96.5 L 82 99.5 L 83 99.5 L 84 94 L 86 93.5 L 83.5 93 L 81.5 94 L 81.5 93 L 83 92.5 L 79 90 L 80 92.5 L 78.5 92 L 71 90.5 L 73 89.5 L 69.5 87 L 69 89 L 67 89.5 L 70 90.5 L 65.5 92 L 62.5 90 Q 64.2 92 60.5 94 L 59 90 L 62 89.5 L 58 89 Q 58.8 85.2 55.5 84 L 53 84 L 53 79 L 57.5 82 L 61 79.5 L 59 79 L 58 76.5 L 61 76 L 61.5 74 L 66.5 78 L 69 78 L 68 80.5 L 69.5 81 L 76 77.5 L 75 74.5 L 76 71.5 L 74.5 70 L 72.5 69 L 72 70.5 L 73 72.5 L 73 76.5 Q 73.7 79.1 71 78 L 69.5 75 L 68 74.5 L 71 73 L 70.5 71 L 67.5 73 L 67.5 71 L 63.5 70 L 60.5 71 L 55 68.5 L 58 67.5 L 54 59.5 L 56 58.5 L 55.5 60 L 60 61 L 61 65.5 L 59 66.5 L 61.5 68 L 64 66.5 L 64.5 68 L 70 68 Q 69 65 72 66 Q 70.9 69.3 75 68 L 74 58.5 L 75 57.5 L 75 49.5 L 74 44.5 L 70.5 41 L 67.5 42 L 67 40 Q 73.4 42.3 71 34.5 L 67 29.5 L 70 29.5 Q 68.9 32.8 71.5 32 L 74 29.5 L 75 21.5 L 73 21.5 L 75 17.5 L 74.5 15 Z M 119 36 L 119 37 L 119 36 Z M 131 44 L 131 45 L 132 45 L 131 44 Z M 150 49 L 150 50 L 150 49 Z M 148 51 L 148 52 L 148 51 Z M 161 51 L 161 52 L 161 51 Z M 134 53 L 133 55 L 134 55 L 134 53 Z M 147 56 L 147 57 L 147 56 Z M 141 57 Q 139 60 142 59 L 141 57 Z M 143 57 L 143 58 L 143 57 Z M 149 57 L 147 59 L 149 59 L 149 57 Z M 153 57 L 153 58 L 153 57 Z M 187 57 L 187 58 L 187 57 Z M 137 58 L 137 59 L 138 59 L 137 58 Z M 147 59 L 146 62 Q 142 64 146 66 L 144 67 L 147 68 L 149 63 L 147 59 Z M 150 59 L 150 60 L 150 59 Z M 169 60 L 169 61 L 169 60 Z M 141 61 L 141 62 L 141 61 Z M 153 61 L 152 63 L 149 64 Q 148 70 151 70 L 151 74 Q 153 72 156 76 Q 161 77 163 75 L 162 73 L 163 68 L 169 65 L 165 61 L 156 63 L 153 61 Z M 184 61 L 184 62 L 184 61 Z M 170 63 L 170 64 L 170 63 Z M 143 64 L 143 65 L 144 65 L 143 64 Z M 171 64 L 170 66 L 172 65 L 171 64 Z M 141 65 L 138 67 L 134 69 L 137 71 L 135 75 L 135 76 L 145 74 L 147 70 L 144 69 L 144 68 L 141 65 Z M 174 65 L 172 66 Q 169 67 171 69 L 170 72 L 172 72 Q 171 69 174 68 L 174 65 Z M 176 65 L 176 66 L 177 66 L 176 65 Z M 105 66 L 104 68 L 106 67 L 105 66 Z M 79 67 L 78 70 L 79 70 L 79 67 Z M 108 68 L 108 69 L 108 68 Z M 167 68 L 167 70 L 169 69 L 167 68 Z M 81 69 L 79 71 Q 81 74 82 71 Q 83 68 81 69 Z M 101 69 L 100 71 L 102 72 L 101 69 Z M 92 70 L 92 71 L 93 71 L 92 70 Z M 148 70 Q 149 73 146 75 L 149 75 L 150 73 Q 151 69 148 70 Z M 169 70 L 167 72 Q 166 74 169 73 L 169 70 Z M 83 71 L 82 73 L 83 73 L 83 71 Z M 119 71 L 119 72 L 119 71 Z M 77 72 L 77 73 L 77 72 Z M 121 72 L 121 73 L 121 72 Z M 166 72 L 164 74 L 166 74 L 166 72 Z M 170 73 L 163 77 L 162 79 Q 164 78 163 81 L 153 82 L 157 87 Q 163 88 165 83 Q 167 84 166 81 L 164 81 L 168 79 L 167 75 L 171 74 L 170 73 Z M 176 73 L 176 74 L 176 73 Z M 72 74 L 72 75 L 72 74 Z M 176 74 L 176 76 L 178 77 Q 179 73 176 74 Z M 113 75 L 111 78 L 113 78 L 113 75 Z M 85 76 L 85 77 L 85 76 Z M 92 76 L 89 78 L 91 80 L 93 77 L 92 76 Z M 142 76 L 137 78 Q 131 76 132 81 L 134 80 L 136 81 L 138 80 L 140 82 L 135 86 L 136 83 Q 132 82 133 85 L 129 83 Q 126 82 127 85 L 123 86 L 112 109 L 107 114 L 107 116 L 111 119 Q 118 119 121 124 L 132 116 L 133 114 L 140 111 L 143 108 L 141 104 L 141 100 L 141 98 L 143 100 L 142 102 L 144 102 L 145 105 L 147 102 L 145 99 L 149 96 L 150 98 L 150 96 L 154 94 L 153 93 L 156 92 L 153 89 Q 149 90 150 88 L 152 88 L 154 87 L 152 85 L 150 86 L 151 84 L 149 82 L 151 82 L 153 81 L 152 77 L 142 76 Z M 155 77 L 156 79 L 154 79 L 155 81 L 160 79 Q 161 75 155 77 Z M 95 78 L 95 79 L 95 78 Z M 171 78 L 171 79 L 171 78 Z M 65 79 L 65 82 L 66 82 Q 67 78 65 79 Z M 78 79 L 77 81 L 78 81 L 78 79 Z M 80 80 L 80 81 L 81 81 L 80 80 Z M 129 81 L 129 82 L 129 81 Z M 171 81 L 170 83 L 167 84 L 171 85 L 173 85 L 171 84 L 171 81 Z M 63 82 L 63 83 L 63 82 Z M 58 83 L 58 84 L 58 83 Z M 66 83 L 65 85 L 66 85 L 66 83 Z M 119 83 L 119 85 L 118 88 L 117 87 L 115 88 Q 112 89 113 85 L 115 85 L 111 84 L 112 87 L 109 89 L 112 93 L 117 94 L 119 92 L 120 88 Q 119 85 122 86 L 121 85 Q 122 82 119 83 Z M 118 84 L 117 86 L 118 86 L 118 84 Z M 60 85 L 60 86 L 62 86 L 60 85 Z M 81 85 L 78 88 Q 80 91 81 88 L 81 85 Z M 167 85 L 167 88 L 169 88 L 169 90 L 166 89 L 166 87 L 165 89 Q 163 90 166 91 L 174 90 L 174 89 Q 171 90 172 88 L 167 85 Z M 115 86 L 115 87 L 115 86 Z M 181 86 L 182 88 Q 183 85 181 86 Z M 155 87 L 155 88 L 155 87 Z M 77 88 L 77 89 L 77 88 Z M 186 88 L 186 89 L 186 88 Z M 75 89 L 75 90 L 76 90 L 75 89 Z M 84 90 L 85 92 Q 86 89 84 90 Z M 164 90 L 164 91 L 164 90 Z M 172 91 L 172 92 L 172 91 Z M 107 92 L 107 94 L 109 93 L 107 92 Z M 179 92 L 179 93 L 179 92 Z M 98 93 L 98 94 L 98 93 Z M 101 93 L 101 94 L 101 93 Z M 160 93 L 158 96 L 160 97 L 160 93 Z M 103 94 L 103 95 L 103 94 Z M 101 95 L 101 96 L 101 95 Z M 108 95 L 108 96 L 110 96 L 108 95 Z M 204 95 L 204 96 L 204 95 Z M 213 95 L 213 96 L 213 95 Z M 93 96 L 92 98 L 93 98 L 93 96 Z M 103 96 L 103 98 L 105 97 L 103 96 Z M 158 96 L 158 97 L 158 96 Z M 114 97 L 114 98 L 114 97 Z M 100 98 L 96 102 L 102 110 Q 101 112 104 111 L 107 107 Q 103 108 105 104 L 108 105 L 107 107 L 110 105 L 105 102 L 106 98 Q 103 97 104 100 L 103 101 L 100 98 Z M 103 98 L 103 99 L 103 98 Z M 109 98 L 108 100 L 110 101 L 109 98 Z M 148 98 L 148 99 L 148 98 Z M 156 98 L 155 100 L 158 100 L 156 98 Z M 168 98 L 166 100 L 167 101 L 169 100 L 170 102 L 171 100 L 171 102 L 177 104 L 178 102 Q 173 103 174 101 Q 173 97 168 98 Z M 174 98 L 174 99 L 174 98 Z M 214 98 L 212 100 L 214 100 L 214 98 Z M 223 98 L 222 101 L 223 101 L 223 98 Z M 88 99 L 88 100 L 88 99 Z M 152 99 L 148 106 L 150 105 L 150 107 L 155 106 L 166 106 L 166 104 L 163 101 Q 156 100 155 104 L 153 104 L 155 103 L 153 102 L 152 99 Z M 216 99 L 216 100 L 216 99 Z M 218 99 L 218 100 L 218 99 Z M 86 100 L 86 101 L 86 100 Z M 184 100 L 184 101 L 184 100 Z M 196 100 L 196 101 L 196 100 Z M 206 100 L 206 101 L 206 100 Z M 89 102 L 89 103 L 89 102 Z M 169 102 L 169 103 L 169 102 Z M 207 102 L 207 103 L 209 103 L 207 102 Z M 213 102 L 212 104 L 212 106 L 214 106 Q 217 104 213 102 Z M 170 103 L 170 104 L 170 103 Z M 190 103 L 190 104 L 190 103 Z M 171 104 L 171 107 L 176 107 L 176 105 L 171 104 Z M 183 104 L 184 108 L 184 105 L 186 105 L 183 104 Z M 188 104 L 188 106 Q 187 108 190 107 L 189 106 Q 190 103 188 104 Z M 209 104 L 209 105 L 209 104 Z M 211 104 L 211 105 L 211 104 Z M 93 105 L 93 106 L 94 106 L 93 105 Z M 187 105 L 187 106 L 187 105 Z M 86 106 L 86 108 L 89 108 L 86 106 Z M 148 106 L 146 109 L 148 108 L 148 106 Z M 197 106 L 197 107 L 198 107 L 197 106 Z M 92 108 L 92 110 L 84 113 L 84 115 L 83 118 Q 86 119 86 116 L 97 116 L 98 113 L 92 108 Z M 158 109 Q 156 112 151 110 L 142 114 L 124 128 L 137 128 L 138 129 L 138 127 L 146 125 L 147 122 L 135 126 L 136 124 L 134 122 L 136 122 L 138 119 L 137 121 Q 136 124 140 123 L 144 121 L 148 122 L 155 119 L 164 119 L 170 115 L 176 118 Q 178 116 177 111 L 178 109 Q 173 108 174 111 L 165 109 L 163 110 L 158 109 Z M 206 111 L 206 112 L 206 111 Z M 223 111 L 223 112 L 223 111 Z M 65 112 L 65 113 L 65 112 Z M 180 112 L 179 117 L 180 118 L 182 117 L 181 116 L 182 114 Q 183 111 180 112 Z M 81 114 L 82 116 Q 83 113 81 114 Z M 200 114 L 200 115 L 200 114 Z M 78 116 L 75 119 Q 74 121 79 120 Q 82 118 78 116 Z M 170 116 L 162 122 L 161 120 Q 154 119 152 122 Q 149 121 150 124 L 159 123 Q 160 121 161 124 L 151 126 L 160 126 L 163 127 L 172 122 L 174 119 L 170 116 Z M 81 117 L 81 118 L 81 117 Z M 185 117 L 184 119 L 185 119 L 185 117 Z M 207 117 L 207 118 L 207 117 Z M 72 118 L 72 119 L 74 119 L 72 118 Z M 206 118 L 206 119 L 206 118 Z M 66 119 L 66 120 L 66 119 Z M 69 119 L 70 121 L 72 121 L 69 119 Z M 83 119 L 83 120 L 83 119 Z M 88 119 L 88 120 L 88 119 Z M 200 119 L 199 121 L 200 121 L 200 119 Z M 65 120 L 65 121 L 65 120 Z M 68 120 L 68 121 L 68 120 Z M 62 122 L 61 123 Q 58 122 59 125 L 62 124 L 62 122 Z M 70 122 Q 69 125 72 124 Q 73 121 70 122 Z M 63 124 L 63 125 L 63 124 Z M 64 127 L 64 128 L 64 127 Z M 65 128 L 65 129 L 65 128 Z M 125 130 L 128 136 L 134 132 L 135 130 L 132 131 L 125 130 Z M 122 131 L 120 133 L 120 145 L 122 148 L 119 154 L 120 158 L 125 148 Q 127 136 122 131 Z M 68 133 L 68 134 L 68 133 Z M 203 149 L 203 150 L 203 149 Z M 196 153 L 196 154 L 196 153 Z "/><path fill="#000000"  stroke="none" opacity="1" d="M 79.5 21 L 82 21.5 L 78.5 23 L 79.5 21 Z "/><path fill="#000000"  stroke="none" opacity="1" d="M 66.5 22 L 66.5 23 L 66.5 22 Z "/><path fill="#000000"  stroke="none" opacity="1" d="M 72.5 23 L 72.5 24 L 72.5 23 Z "/><path fill="#000000"  stroke="none" opacity="1" d="M 71.5 25 L 71 26.5 L 70.5 28 L 70 26.5 L 71.5 25 Z "/><path fill="#000000"  stroke="none" opacity="1" d="M 60.5 28 L 63 28.5 L 60.5 29 L 60.5 28 Z "/><path fill="#000000"  stroke="none" opacity="1" d="M 61.5 37 L 63 37.5 L 61.5 38 L 61.5 37 Z "/><path fill="#000000"  stroke="none" opacity="1" d="M 64.5 38 L 64.5 39 L 64.5 38 Z "/><path fill="#000000"  stroke="none" opacity="1" d="M 150.5 40 L 151 41.5 L 150 41.5 L 150.5 40 Z "/><path fill="#000000"  stroke="none" opacity="1" d="M 148.5 41 L 150 45 L 146 44.5 L 148.5 41 Z "/><path fill="#000000"  stroke="none" opacity="1" d="M 156.5 43 L 158 46 Q 154.5 47.1 156.5 43 Z "/><path fill="#000000"  stroke="none" opacity="1" d="M 93.5 44 L 93.5 45 L 93.5 44 Z "/><path fill="#000000"  stroke="none" opacity="1" d="M 169.5 52 L 171 52.5 L 169.5 53 L 169.5 52 Z "/><path fill="#000000"  stroke="none" opacity="1" d="M 62.5 53 L 65 53.5 L 62.5 54 L 62.5 53 Z "/><path fill="#000000"  stroke="none" opacity="1" d="M 182.5 55 L 183 56.5 L 182 56.5 L 182.5 55 Z "/><path fill="#000000"  stroke="none" opacity="1" d="M 70.5 59 Q 73.8 57.9 73 60.5 L 71.5 63 L 70.5 60 L 68.5 63 L 69 61.5 L 70.5 59 Z "/><path fill="#000000"  stroke="none" opacity="1" d="M 66.5 60 L 66.5 61 L 66.5 60 Z "/><path fill="#000000"  stroke="none" opacity="1" d="M 193.5 61 L 193.5 62 L 193.5 61 Z "/><path fill="#000000"  stroke="none" opacity="1" d="M 133.5 62 L 133.5 63 L 133.5 62 Z "/><path fill="#000000"  stroke="none" opacity="1" d="M 197.5 62 L 197.5 63 L 197.5 62 Z "/><path fill="#000000"  stroke="none" opacity="1" d="M 194.5 63 L 194.5 64 L 194.5 63 Z "/><path fill="#000000"  stroke="none" opacity="1" d="M 69.5 64 L 69.5 65 L 69.5 64 Z "/><path fill="#000000"  stroke="none" opacity="1" d="M 152.5 64 L 152.5 65 L 152.5 64 Z "/><path fill="#000000"  stroke="none" opacity="1" d="M 186.5 64 L 187 65.5 L 186 65.5 L 186.5 64 Z "/><path fill="#000000"  stroke="none" opacity="1" d="M 165.5 65 L 165.5 66 L 165.5 65 Z "/><path fill="#000000"  stroke="none" opacity="1" d="M 150.5 66 L 151 67.5 L 150 67.5 L 150.5 66 Z "/><path fill="#000000"  stroke="none" opacity="1" d="M 199.5 66 L 197.5 69 L 199.5 66 Z "/><path fill="#000000"  stroke="none" opacity="1" d="M 192.5 69 L 195 69.5 L 192.5 70 L 192.5 69 Z "/><path fill="#000000"  stroke="none" opacity="1" d="M 186.5 70 L 191 70.5 L 186.5 71 L 186.5 70 Z "/><path fill="#000000"  stroke="none" opacity="1" d="M 127.5 71 L 127.5 72 L 127.5 71 Z "/><path fill="#000000"  stroke="none" opacity="1" d="M 131.5 71 L 131.5 72 L 131.5 71 Z "/><path fill="#000000"  stroke="none" opacity="1" d="M 182.5 71 L 185 71.5 L 182.5 72 L 182.5 71 Z "/><path fill="#000000"  stroke="none" opacity="1" d="M 192.5 71 L 193.5 73 L 192.5 71 Z "/><path fill="#000000"  stroke="none" opacity="1" d="M 155.5 73 L 155.5 74 L 155.5 73 Z "/><path fill="#000000"  stroke="none" opacity="1" d="M 67.5 76 L 69 76.5 L 67.5 77 L 67.5 76 Z "/><path fill="#000000"  stroke="none" opacity="1" d="M 186.5 80 L 188 80.5 L 186.5 81 L 186.5 80 Z "/><path fill="#000000"  stroke="none" opacity="1" d="M 50.5 86 Q 55 85 56 87.5 L 53 88 Q 51.9 90.7 54.5 90 L 54.5 91 L 51.5 90 Q 50.3 92.3 49 89.5 L 50.5 86 Z "/><path fill="#000000"  stroke="none" opacity="1" d="M 147.5 89 Q 150.1 88.3 149 91 L 146 90.5 L 147.5 89 Z "/><path fill="#000000"  stroke="none" opacity="1" d="M 151.5 92 L 151.5 93 L 151.5 92 Z "/><path fill="#000000"  stroke="none" opacity="1" d="M 144.5 94 L 144.5 95 L 144.5 94 Z "/><path fill="#000000"  stroke="none" opacity="1" d="M 72.5 95 L 76 97.5 L 73.5 98 L 72.5 95 Z "/><path fill="#000000"  stroke="none" opacity="1" d="M 75.5 101 L 75.5 102 L 75.5 101 Z "/><path fill="#000000"  stroke="none" opacity="1" d="M 135.5 102 L 138 103.5 L 139 105.5 L 136 105.5 Q 136.8 103.3 134.5 104 L 135.5 102 Z "/><path fill="#000000"  stroke="none" opacity="1" d="M 100.5 104 L 100.5 105 L 100.5 104 Z "/><path fill="#000000"  stroke="none" opacity="1" d="M 102 104 Q 105 103 104 106 Q 101 107 102 104 Z "/><path fill="#000000"  stroke="none" opacity="1" d="M 76.5 106 Q 80.3 104.8 79 108.5 L 78 108.5 Q 78.8 106.3 76.5 107 L 76.5 106 Z "/><path fill="#000000"  stroke="none" opacity="1" d="M 140.5 106 L 141 107.5 L 140 107.5 L 140.5 106 Z "/><path fill="#000000"  stroke="none" opacity="1" d="M 220.5 106 L 220.5 107 L 220.5 106 Z "/><path fill="#000000"  stroke="none" opacity="1" d="M 222.5 106 L 222.5 107 L 222.5 106 Z "/><path fill="#000000"  stroke="none" opacity="1" d="M 58.5 109 L 61 109.5 L 58.5 110 L 58.5 109 Z "/><path fill="#000000"  stroke="none" opacity="1" d="M 70.5 109 L 70.5 110 L 70.5 109 Z "/><path fill="#000000"  stroke="none" opacity="1" d="M 75.5 109 L 75.5 110 L 75.5 109 Z "/><path fill="#000000"  stroke="none" opacity="1" d="M 221.5 109 L 224.5 112 L 225.5 111 L 228 112.5 Q 226.3 110.9 224.5 114 L 222.5 113 L 221.5 115 L 218 114 L 218 111 Q 221.8 112.3 221.5 109 Z "/><path fill="#000000"  stroke="none" opacity="1" d="M 187.5 111 L 189.5 114 L 187.5 111 Z "/><path fill="#000000"  stroke="none" opacity="1" d="M 129.5 112 L 131 112.5 L 129.5 113 L 129.5 112 Z "/><path fill="#000000"  stroke="none" opacity="1" d="M 175.5 112 L 175 113.5 Q 175.8 116.1 172.5 115 L 172.5 114 L 175.5 112 Z "/><path fill="#000000"  stroke="none" opacity="1" d="M 193.5 114 L 193.5 115 L 193.5 114 Z "/><path fill="#000000"  stroke="none" opacity="1" d="M 158.5 115 Q 160.8 114.3 160 116.5 L 158.5 115 Z "/><path fill="#000000"  stroke="none" opacity="1" d="M 45.5 116 L 45.5 117 L 45.5 116 Z "/><path fill="#000000"  stroke="none" opacity="1" d="M 49.5 116 L 51 116.5 L 49.5 117 L 49.5 116 Z "/><path fill="#000000"  stroke="none" opacity="1" d="M 52.5 116 L 52.5 117 L 52.5 116 Z "/><path fill="#000000"  stroke="none" opacity="1" d="M 54.5 117 L 54.5 118 L 54.5 117 Z "/><path fill="#000000"  stroke="none" opacity="1" d="M 193.5 117 L 193.5 118 L 193.5 117 Z "/><path fill="#000000"  stroke="none" opacity="1" d="M 51.5 119 L 52.5 121 L 51.5 119 Z "/><path fill="#000000"  stroke="none" opacity="1" d="M 210.5 119 Q 215 121 211.5 123 L 209 121.5 L 210.5 119 Z "/><path fill="#000000"  stroke="none" opacity="1" d="M 217.5 119 L 217.5 120 L 217.5 119 Z "/><path fill="#000000"  stroke="none" opacity="1" d="M 54.5 120 L 55 121.5 L 54 121.5 L 54.5 120 Z "/><path fill="#000000"  stroke="none" opacity="1" d="M 192 120 L 195 121.5 L 192 122 L 192 120 Z "/><path fill="#000000"  stroke="none" opacity="1" d="M 220.5 120 L 220.5 121 L 220.5 120 Z "/><path fill="#000000"  stroke="none" opacity="1" d="M 222.5 120 L 223.5 122 Q 220.7 122.7 222.5 120 Z "/><path fill="#000000"  stroke="none" opacity="1" d="M 49.5 121 L 49.5 122 L 49.5 121 Z "/><path fill="#000000"  stroke="none" opacity="1" d="M 178.5 121 L 178.5 122 L 178.5 121 Z "/><path fill="#000000"  stroke="none" opacity="1" d="M 51.5 122 L 52 123.5 L 51 123.5 L 51.5 122 Z "/><path fill="#000000"  stroke="none" opacity="1" d="M 43.5 123 L 47 124.5 L 45.5 124 Q 42.5 124.5 43.5 123 Z "/><path fill="#000000"  stroke="none" opacity="1" d="M 53.5 123 L 53.5 124 L 53.5 123 Z "/><path fill="#000000"  stroke="none" opacity="1" d="M 199.5 123 Q 202.5 124.5 199.5 126 L 199.5 123 Z "/><path fill="#000000"  stroke="none" opacity="1" d="M 213.5 123 L 214.5 125 L 216 124.5 Q 214.5 127.5 213 124.5 L 213.5 123 Z "/><path fill="#000000"  stroke="none" opacity="1" d="M 41.5 124 L 41.5 125 L 41.5 124 Z "/><path fill="#000000"  stroke="none" opacity="1" d="M 48.5 124 L 48.5 125 L 48.5 124 Z "/><path fill="#000000"  stroke="none" opacity="1" d="M 129.5 125 L 132 125.5 L 129.5 126 L 129.5 125 Z "/><path fill="#000000"  stroke="none" opacity="1" d="M 127.5 126 L 127.5 127 L 127.5 126 Z "/><path fill="#000000"  stroke="none" opacity="1" d="M 194.5 126 L 197 126.5 Q 194.9 129.8 194.5 126 Z "/><path fill="#000000"  stroke="none" opacity="1" d="M 207.5 126 L 207.5 127 L 207.5 126 Z "/><path fill="#000000"  stroke="none" opacity="1" d="M 89.5 127 L 89.5 128 L 89.5 127 Z "/><path fill="#000000"  stroke="none" opacity="1" d="M 186.5 127 L 186.5 128 L 186.5 127 Z "/><path fill="#000000"  stroke="none" opacity="1" d="M 188.5 127 L 191 128.5 L 188 129 L 188.5 127 Z "/><path fill="#000000"  stroke="none" opacity="1" d="M 44.5 128 L 45 130 L 47 130.5 L 44.5 131 L 42 129.5 L 44.5 128 Z "/><path fill="#000000"  stroke="none" opacity="1" d="M 103.5 128 L 103.5 129 L 103.5 128 Z "/><path fill="#000000"  stroke="none" opacity="1" d="M 202.5 128 L 202.5 129 L 202.5 128 Z "/><path fill="#000000"  stroke="none" opacity="1" d="M 48.5 129 L 49 130.5 L 48 130.5 L 48.5 129 Z "/><path fill="#000000"  stroke="none" opacity="1" d="M 82.5 129 L 83 130.5 L 82 134 Q 79.3 132.9 80 135.5 L 79 135.5 L 82.5 129 Z "/><path fill="#000000"  stroke="none" opacity="1" d="M 90.5 130 L 90.5 131 L 90.5 130 Z "/><path fill="#000000"  stroke="none" opacity="1" d="M 189 130 Q 191.7 128.9 191 131.5 L 189 132.5 L 189 130 Z "/><path fill="#000000"  stroke="none" opacity="1" d="M 197.5 131 L 199 131.5 L 197.5 132 L 197.5 131 Z "/><path fill="#000000"  stroke="none" opacity="1" d="M 61.5 132 L 61.5 133 L 61.5 132 Z "/><path fill="#000000"  stroke="none" opacity="1" d="M 205.5 132 L 205.5 133 L 205.5 132 Z "/><path fill="#000000"  stroke="none" opacity="1" d="M 89.5 133 L 89.5 134 L 89.5 133 Z "/><path fill="#000000"  stroke="none" opacity="1" d="M 56.5 134 Q 58.8 133.3 58 135.5 L 59 138 Q 56 139.3 57 135.5 L 56.5 134 Z "/><path fill="#000000"  stroke="none" opacity="1" d="M 190.5 134 L 188.5 137 L 190.5 134 Z "/><path fill="#000000"  stroke="none" opacity="1" d="M 95.5 135 L 96.5 137 L 95.5 135 Z "/><path fill="#000000"  stroke="none" opacity="1" d="M 53.5 136 L 54 137.5 L 53 137.5 L 53.5 136 Z "/><path fill="#000000"  stroke="none" opacity="1" d="M 70.5 136 Q 73.1 135.3 72 138 L 69 137.5 L 70.5 136 Z "/><path fill="#000000"  stroke="none" opacity="1" d="M 151.5 136 L 151.5 137 L 151.5 136 Z "/><path fill="#000000"  stroke="none" opacity="1" d="M 201.5 136 L 201.5 137 L 201.5 136 Z "/><path fill="#000000"  stroke="none" opacity="1" d="M 46.5 137 L 46 138.5 L 43.5 142 L 45 139.5 L 46.5 137 Z "/><path fill="#000000"  stroke="none" opacity="1" d="M 156.5 137 L 158 137.5 L 156.5 140 Q 153.5 138.5 156.5 137 Z "/><path fill="#000000"  stroke="none" opacity="1" d="M 198.5 137 L 199.5 139 L 198.5 137 Z "/><path fill="#000000"  stroke="none" opacity="1" d="M 76.5 139 L 79 143 L 75 141.5 L 77 140.5 L 76.5 139 Z M 78 141 L 78 142 L 78 141 Z "/><path fill="#000000"  stroke="none" opacity="1" d="M 40.5 140 L 40.5 141 L 40.5 140 Z "/><path fill="#000000"  stroke="none" opacity="1" d="M 49.5 140 L 50 141.5 L 49 141.5 L 49.5 140 Z "/><path fill="#000000"  stroke="none" opacity="1" d="M 189.5 140 L 189.5 141 L 189.5 140 Z "/><path fill="#000000"  stroke="none" opacity="1" d="M 47.5 141 L 45.5 144 L 44 143.5 L 47.5 141 Z "/><path fill="#000000"  stroke="none" opacity="1" d="M 63.5 141 L 63.5 142 L 63.5 141 Z "/><path fill="#000000"  stroke="none" opacity="1" d="M 157.5 141 L 157.5 142 L 157.5 141 Z "/><path fill="#000000"  stroke="none" opacity="1" d="M 194.5 141 L 195.5 143 L 197 142.5 Q 197.8 144.8 195.5 144 L 194 144.5 L 194.5 141 Z "/><path fill="#000000"  stroke="none" opacity="1" d="M 35.5 142 L 35.5 143 L 35.5 142 Z "/><path fill="#000000"  stroke="none" opacity="1" d="M 159.5 142 L 159.5 143 L 159.5 142 Z "/><path fill="#000000"  stroke="none" opacity="1" d="M 190.5 142 L 192 144.5 L 189.5 145 L 187 144.5 L 190.5 142 Z "/><path fill="#000000"  stroke="none" opacity="1" d="M 210.5 142 L 210.5 143 L 210.5 142 Z "/><path fill="#000000"  stroke="none" opacity="1" d="M 30.5 143 Q 33.8 141.9 33 144.5 L 31.5 144 L 30.5 143 Z "/><path fill="#000000"  stroke="none" opacity="1" d="M 40.5 143 L 41 144.5 L 40 144.5 L 40.5 143 Z "/><path fill="#000000"  stroke="none" opacity="1" d="M 68.5 143 L 73 144 Q 74 147 71 146 Q 72.3 143 68.5 144 L 68.5 143 Z "/><path fill="#000000"  stroke="none" opacity="1" d="M 54.5 144 L 54.5 145 L 54.5 144 Z "/><path fill="#000000"  stroke="none" opacity="1" d="M 58.5 144 L 59 145.5 L 58 145.5 L 58.5 144 Z "/><path fill="#000000"  stroke="none" opacity="1" d="M 197.5 145 L 198 146.5 L 197 146.5 L 197.5 145 Z "/><path fill="#000000"  stroke="none" opacity="1" d="M 210.5 145 L 210.5 146 L 210.5 145 Z "/><path fill="#000000"  stroke="none" opacity="1" d="M 43.5 146 L 44 147.5 L 43 147.5 L 43.5 146 Z "/><path fill="#000000"  stroke="none" opacity="1" d="M 54.5 146 Q 57.5 147.5 54.5 149 Q 51.5 147.5 54.5 146 Z "/><path fill="#000000"  stroke="none" opacity="1" d="M 64.5 146 L 64.5 147 L 64.5 146 Z "/><path fill="#000000"  stroke="none" opacity="1" d="M 190.5 146 L 190.5 147 L 190.5 146 Z "/><path fill="#000000"  stroke="none" opacity="1" d="M 193.5 146 L 193.5 147 L 193.5 146 Z "/><path fill="#000000"  stroke="none" opacity="1" d="M 69.5 147 L 69.5 148 L 69.5 147 Z "/><path fill="#000000"  stroke="none" opacity="1" d="M 213.5 147 L 216 147.5 L 213.5 148 L 213.5 147 Z "/><path fill="#000000"  stroke="none" opacity="1" d="M 60.5 148 Q 62.3 151.1 64 149.5 Q 60.5 151 63 152.5 L 62.5 154 L 61 151.5 L 61.5 150 Q 58.7 150.7 60.5 148 Z "/><path fill="#000000"  stroke="none" opacity="1" d="M 57.5 149 L 57.5 150 L 57.5 149 Z "/><path fill="#000000"  stroke="none" opacity="1" d="M 195.5 150 L 197 150.5 L 195.5 151 L 195.5 150 Z "/><path fill="#000000"  stroke="none" opacity="1" d="M 208.5 153 L 210 153.5 L 208.5 154 L 208.5 153 Z "/><path fill="#000000"  stroke="none" opacity="1" d="M 60.5 154 L 60.5 155 L 60.5 154 Z "/></svg>